<svg width="512" height="512" viewBox="0 0 512 512" fill="none" xmlns="http://www.w3.org/2000/svg">
<path d="M356 233.5V261L329.754 278.81C328.657 279.554 328 280.794 328 282.12V298.672C328 299.462 328.874 299.94 329.539 299.514L357.842 281.382C359.157 280.54 360.843 280.54 362.158 281.382L390.461 299.514C391.126 299.94 392 299.462 392 298.672V282.12C392 280.794 391.343 279.554 390.246 278.81L364 261V221L356 233.5Z" fill="#E66D17"/>
<path d="M362.042 292.213C360.783 291.465 359.217 291.465 357.958 292.213L329.958 308.838C328.744 309.558 328 310.865 328 312.277V328.696C328 329.481 328.864 329.96 329.53 329.544L357.88 311.825C359.177 311.014 360.823 311.014 362.12 311.825L390.47 329.544C391.136 329.96 392 329.481 392 328.696V312.277C392 310.865 391.256 309.558 390.042 308.838L362.042 292.213Z" fill="#70CCCC"/>
<path d="M362.12 321.325C360.823 320.514 359.177 320.514 357.88 321.325L329.88 338.825C328.71 339.556 328 340.838 328 342.217V374.206C328 375.347 328.487 376.434 329.34 377.193L357.34 402.131C358.856 403.481 361.144 403.481 362.66 402.131L390.66 377.193C391.513 376.434 392 375.347 392 374.206V342.217C392 340.838 391.29 339.556 390.12 338.825L362.12 321.325Z" fill="#70CCCC"/>
<path d="M156 233.5V261L182.246 278.81C183.343 279.554 184 280.794 184 282.12V298.672C184 299.462 183.126 299.94 182.461 299.514L154.158 281.382C152.843 280.54 151.157 280.54 149.842 281.382L121.539 299.514C120.874 299.94 120 299.462 120 298.672V282.12C120 280.794 120.657 279.554 121.754 278.81L148 261V221L156 233.5Z" fill="#E66D17"/>
<path d="M149.958 292.213C151.217 291.465 152.783 291.465 154.042 292.213L182.042 308.838C183.256 309.558 184 310.865 184 312.277V328.696C184 329.481 183.136 329.96 182.47 329.544L154.12 311.825C152.823 311.014 151.177 311.014 149.88 311.825L121.53 329.544C120.864 329.96 120 329.481 120 328.696V312.277C120 310.865 120.744 309.558 121.958 308.838L149.958 292.213Z" fill="#70CCCC"/>
<path d="M149.88 321.325C151.177 320.514 152.823 320.514 154.12 321.325L182.12 338.825C183.29 339.556 184 340.838 184 342.217V374.206C184 375.347 183.513 376.434 182.66 377.193L154.66 402.131C153.144 403.481 150.856 403.481 149.34 402.131L121.34 377.193C120.487 376.434 120 375.347 120 374.206V342.217C120 340.838 120.71 339.556 121.88 338.825L149.88 321.325Z" fill="#70CCCC"/>
<path d="M252 284V321L225.754 338.81C224.657 339.554 224 340.794 224 342.12V358.672C224 359.462 224.874 359.94 225.539 359.514L253.842 341.382C255.157 340.54 256.843 340.54 258.158 341.382L286.461 359.514C287.126 359.94 288 359.462 288 358.672V342.12C288 340.794 287.343 339.554 286.246 338.81L260 321V284H252Z" fill="#E66D17"/>
<path d="M258.042 352.213C256.783 351.465 255.217 351.465 253.958 352.213L225.958 368.838C224.744 369.558 224 370.865 224 372.277V388.696C224 389.481 224.864 389.96 225.53 389.544L253.88 371.825C255.177 371.014 256.823 371.014 258.12 371.825L286.47 389.544C287.136 389.96 288 389.481 288 388.696V372.277C288 370.865 287.256 369.558 286.042 368.838L258.042 352.213Z" fill="#70CCCC"/>
<path d="M258.12 381.325C256.823 380.514 255.177 380.514 253.88 381.325L225.88 398.825C224.71 399.556 224 400.838 224 402.217V434.206C224 435.347 224.487 436.434 225.34 437.193L253.34 462.131C254.856 463.481 257.144 463.481 258.66 462.131L286.66 437.193C287.513 436.434 288 435.347 288 434.206V402.217C288 400.838 287.29 399.556 286.12 398.825L258.12 381.325Z" fill="#70CCCC"/>
<path fill-rule="evenodd" clip-rule="evenodd" d="M277.338 90.5669C281.321 91.5955 288.247 94.2 292.729 96.3548C297.211 98.5095 303.95 102.712 307.705 105.694C311.46 108.675 316.386 113.31 318.65 115.994C320.914 118.678 324.001 122.703 325.507 124.938C327.015 127.173 329.316 131.113 330.622 133.692C331.928 136.271 333.988 141.351 335.199 144.981C336.411 148.61 337.878 155.608 338.458 160.532C339.259 167.33 339.26 171.649 338.464 178.482C337.888 183.431 336.583 190.172 335.566 193.462C334.549 196.752 332.329 202.248 330.633 205.677C328.936 209.106 325.752 214.421 323.557 217.488C321.363 220.555 316.343 226.081 312.402 229.768C308.461 233.453 302.627 238.001 299.436 239.873C296.245 241.745 290.579 244.453 286.844 245.89C283.109 247.326 276.913 249.147 273.075 249.936C269.237 250.725 261.988 251.37 256.967 251.37C251.945 251.37 244.696 250.732 240.858 249.951C237.02 249.17 230.511 247.171 226.394 245.508C222.277 243.846 215.513 240.231 211.362 237.475C207.211 234.721 201.25 229.733 198.117 226.392C194.984 223.051 190.481 217.354 188.11 213.731C185.739 210.108 182.551 203.882 181.024 199.896C179.498 195.909 177.576 189.333 176.753 185.282C175.617 179.692 175.372 175.066 175.737 166.102C176.066 157.986 176.804 152.31 178.094 147.967C179.125 144.49 181.826 137.892 184.097 133.305C186.367 128.717 190.626 122.011 193.56 118.404C196.494 114.796 200.882 110.162 203.31 108.107C205.738 106.051 210.068 102.874 212.933 101.046C215.797 99.2184 220.84 96.5146 224.14 95.0381C227.439 93.5615 233.221 91.5756 236.989 90.6256C240.757 89.6746 245.061 88.7083 246.555 88.478C248.049 88.2487 253.956 88.2026 259.683 88.3778C266.318 88.581 272.722 89.3748 277.338 90.5669ZM232.069 100.013C236.052 98.7461 241.756 97.3572 244.744 96.9273C247.732 96.4965 254.432 96.3259 259.634 96.5462C264.835 96.7666 271.761 97.592 275.025 98.3795C278.289 99.1679 284.648 101.575 289.155 103.73C293.664 105.884 299.888 109.548 302.986 111.872C306.084 114.194 310.835 118.701 313.543 121.884C316.251 125.068 320.088 130.411 322.069 133.756C324.05 137.102 326.726 142.996 328.015 146.856C329.305 150.715 330.83 158.081 331.407 163.224C332.297 171.174 332.228 173.948 330.946 181.741C330.117 186.782 328.349 193.619 327.019 196.935C325.689 200.252 323.265 205.221 321.632 207.977C319.999 210.734 316.686 215.428 314.271 218.408C311.854 221.388 307.038 225.985 303.566 228.623C300.096 231.26 295.423 234.359 293.182 235.509C290.941 236.659 286.066 238.689 282.35 240.02C277.317 241.823 273.876 242.44 268.865 242.44C265.165 242.44 261.828 242.113 261.45 241.713C261.072 241.313 261.308 237.124 261.975 232.406C262.642 227.687 264.026 219.997 265.051 215.316C266.076 210.636 266.803 206.696 266.668 206.56C266.532 206.426 261.34 208.527 255.13 211.232C248.92 213.936 243.621 216.148 243.355 216.149C243.089 216.15 242.201 215.032 241.382 213.667C240.564 212.301 237.69 208.037 234.996 204.192L230.098 197.201L225.313 214.126C222.681 223.434 220.176 231.977 219.746 233.108L218.967 235.164L215.105 233.226C212.982 232.16 207.171 227.17 202.191 222.138C194.569 214.436 192.455 211.633 188.818 204.41C186.443 199.691 183.692 192.616 182.706 188.687C181.411 183.521 180.915 178.498 180.915 170.544C180.915 162.459 181.4 157.652 182.746 152.401C183.753 148.472 185.766 142.726 187.217 139.632C188.668 136.538 191.17 132.067 192.777 129.698C194.383 127.329 197.768 123.155 200.301 120.423C202.832 117.691 206.679 114.083 208.849 112.406C211.019 110.729 215.502 107.773 218.81 105.838C222.119 103.902 228.085 101.281 232.069 100.013Z" fill="#F8FFFD"/>
<path fill-rule="evenodd" clip-rule="evenodd" d="M259.173 133.811C258.391 135.375 258.006 137.067 258.317 137.57C258.629 138.073 259.192 138.485 259.569 138.485C259.944 138.485 260.933 137.062 261.764 135.324C262.595 133.585 263.703 132.163 264.227 132.163C264.888 132.163 264.892 132.698 264.241 133.91C263.726 134.87 263.304 136.293 263.304 137.07C263.304 137.848 263.721 138.485 264.229 138.485C264.737 138.485 265.607 137.491 266.162 136.277C266.717 135.062 267.732 133.854 268.417 133.592C269.4 133.215 269.358 133.703 268.218 135.904C267.255 137.759 267.074 138.994 267.675 139.594C268.172 140.089 269.022 140.221 269.563 139.888C270.104 139.554 270.547 138.758 270.547 138.12C270.547 137.481 271.362 136.222 272.358 135.324C273.354 134.425 274.169 133.893 274.169 134.142C274.169 134.391 273.497 135.938 272.676 137.58C271.609 139.712 271.444 140.978 272.095 142.008C272.798 143.118 274.554 143.452 279.7 143.452C285.376 143.452 287.037 143.83 290.645 145.946C292.984 147.318 295.095 148.756 295.335 149.144C295.575 149.53 294.364 149.684 292.645 149.483C290.926 149.283 288.205 149.638 286.598 150.273C284.99 150.907 283.014 151.984 282.206 152.667C281.112 153.592 280.851 154.922 281.185 157.88C281.433 160.064 281.363 163.657 281.032 165.864C280.699 168.072 279.079 172.113 277.429 174.846C275.071 178.751 274.626 180.174 275.349 181.5C275.855 182.428 277.411 184.293 278.805 185.645C280.199 186.997 282.273 188.302 283.414 188.544C284.553 188.788 286.301 189.125 287.297 189.294C288.608 189.515 288.108 189.931 285.486 190.798C283.494 191.457 275.246 194.994 267.157 198.66C259.068 202.325 250.8 205.982 248.786 206.786C246.77 207.591 244.997 208.096 244.844 207.909C244.691 207.723 240.369 201.272 235.24 193.573C230.111 185.874 224.086 177.008 221.851 173.869L217.788 168.163L220.854 170.028C222.54 171.053 225.448 171.893 227.315 171.895C229.183 171.897 230.711 171.669 230.711 171.389C230.711 171.109 229.515 169.876 228.055 168.65C226.594 167.424 224.938 165.028 224.375 163.326C223.511 160.714 223.637 159.585 225.182 156.1C226.545 153.029 227.829 151.631 230.192 150.646C231.939 149.918 233.993 149.322 234.756 149.322C235.519 149.322 236.143 149.631 236.143 150.011C236.143 150.389 235.258 151.101 234.176 151.591C233.095 152.081 231.421 153.554 230.455 154.863C229.49 156.172 228.52 159.016 228.298 161.185C228 164.098 228.376 165.888 229.735 168.05C231.388 170.675 231.801 170.873 233.768 169.979C235.581 169.155 236.063 168.1 236.555 163.893C236.883 161.094 237.589 157.382 238.125 155.643C238.662 153.905 240.268 150.735 241.696 148.599C243.123 146.463 244.291 144.313 244.291 143.822C244.291 143.331 243.455 141.292 242.432 139.293C241.38 137.235 239.121 134.801 237.226 133.685L233.879 131.711L238.354 131.429C240.936 131.266 244.42 131.753 246.592 132.581C248.662 133.37 251.303 135.02 252.461 136.249C253.618 137.479 254.858 138.485 255.216 138.485C255.572 138.485 256.144 137.367 256.487 136.001C256.828 134.635 257.752 132.804 258.54 131.932C259.329 131.059 260.114 130.485 260.285 130.657C260.456 130.827 259.956 132.247 259.173 133.811ZM241.575 185.445C241.575 184.65 242.064 183.512 242.662 182.916C243.259 182.32 244.432 181.833 245.267 181.833C246.102 181.833 247.303 182.454 247.935 183.214C248.814 184.27 248.844 185.121 248.065 186.827C247.504 188.053 246.304 189.057 245.397 189.057C244.49 189.057 243.259 188.57 242.662 187.974C242.064 187.378 241.575 186.24 241.575 185.445ZM253.345 189.057C253.345 188.263 253.834 187.125 254.431 186.529C255.029 185.933 256.447 185.445 257.583 185.445C259.034 185.445 259.818 186.121 260.22 187.715C260.546 189.016 260.314 190.557 259.673 191.327C259.058 192.066 257.872 192.67 257.037 192.67C256.202 192.67 255.029 192.182 254.431 191.586C253.834 190.99 253.345 189.852 253.345 189.057Z" fill="#F8FFFD"/>
<path d="M319.412 161.661C320.652 164.292 321.381 167.679 321.429 171.033C321.483 174.878 320.923 177.439 319.339 180.593C318.148 182.962 315.748 186.022 314.005 187.392C312.263 188.762 309.207 190.55 307.215 191.366L303.594 192.849L305.984 190.276C307.298 188.861 309.236 185.988 310.289 183.892C311.342 181.797 312.812 177.749 313.557 174.897C314.301 172.046 314.911 166.497 314.911 162.567C314.911 156.512 315.106 155.584 316.191 156.481C316.894 157.065 318.345 159.396 319.412 161.661Z" fill="#F8FFFD"/>
<path d="M270.325 109.138C273.438 109.87 278.862 111.914 282.377 113.68C286.448 115.725 290.869 118.986 294.557 122.663C298.221 126.319 301.514 130.753 303.531 134.749C305.284 138.22 307.543 144.131 308.551 147.883C309.743 152.32 310.384 157.523 310.384 162.756C310.384 168.343 309.811 172.656 308.511 176.854C307.029 181.642 305.651 183.92 301.896 187.786C299.288 190.472 296.577 192.67 295.872 192.67C295.056 192.67 295.291 192.179 296.521 191.321C297.583 190.578 299.925 187.97 301.726 185.523C303.526 183.076 305.804 178.743 306.786 175.894C307.821 172.893 308.573 168.336 308.573 165.065C308.573 161.865 307.554 155.566 306.22 150.531C304.926 145.644 302.595 139.207 301.039 136.227C299.482 133.247 295.55 128.137 292.301 124.872C288.837 121.393 284.282 117.914 281.293 116.466C278.489 115.106 274.008 113.414 271.334 112.704C268.66 111.994 262.951 111.408 258.646 111.403C253.394 111.396 248.923 111.976 245.052 113.169C241.879 114.146 236.752 116.483 233.658 118.362C230.563 120.24 224.97 124.778 221.229 128.447C217.248 132.35 213.493 137.032 212.175 139.735C210.935 142.276 209.565 146.996 209.127 150.225C208.69 153.453 208.457 157.72 208.611 159.707L208.89 163.319L207.885 159.403C207.145 156.518 207.151 154.02 207.906 149.92C208.471 146.859 210.466 141.307 212.34 137.582C214.761 132.771 217.719 128.846 222.55 124.035C226.999 119.607 231.591 116.09 235.821 113.876C239.38 112.014 244.676 109.915 247.591 109.21C250.507 108.506 255.541 107.903 258.777 107.868C262.014 107.834 267.21 108.406 270.325 109.138Z" fill="#F8FFFD"/>
<path d="M290.172 168.691C291.171 170.78 291.415 172.735 290.972 175.095C290.617 176.98 289.184 179.637 287.752 181.065C286.079 182.735 284.232 183.639 282.494 183.639H279.814L283.414 180.048C286.853 176.617 286.998 176.244 286.643 171.695C286.438 169.075 285.931 166.173 285.515 165.247C284.839 163.739 284.968 163.673 286.747 164.623C287.84 165.206 289.382 167.037 290.172 168.691Z" fill="#F8FFFD"/>
<path d="M211.172 130.867C208.981 134.127 206.337 139.588 205.297 143.001C203.883 147.645 203.482 151.025 203.705 156.429C203.994 163.456 203.956 163.609 202.289 162.13C201.347 161.294 199.62 158.578 198.45 156.095C197.017 153.051 196.328 149.96 196.335 146.612C196.341 143.744 197.048 140.104 198.006 137.998C198.92 135.992 201.623 132.634 204.011 130.537C206.399 128.44 209.615 126.359 211.157 125.913C212.7 125.467 214.231 125.065 214.56 125.02C214.889 124.975 213.364 127.606 211.172 130.867Z" fill="#F8FFFD"/>
<path fill-rule="evenodd" clip-rule="evenodd" d="M244 75.0002C238.522 75.7001 233.834 77.2455 229.352 78.5215C224.871 79.7967 217.945 82.4734 213.961 84.4692C209.977 86.4642 204.07 89.9546 200.833 92.2249C197.596 94.4953 192.023 99.3259 188.448 102.96C184.873 106.593 179.706 112.928 176.965 117.036C174.225 121.144 171.096 126.533 170.012 129.012C168.928 131.49 167.055 136.362 165.849 139.839C164.643 143.316 163.06 149.818 162.33 154.289C161.6 158.759 161.002 165.697 161 169.708C160.998 173.718 161.655 180.829 162.459 185.512C163.263 190.193 164.945 196.869 166.195 200.346C167.445 203.823 170.011 209.716 171.897 213.441C173.783 217.166 177 222.449 179.047 225.181C181.093 227.913 185.712 233.128 189.31 236.77C192.909 240.412 199.12 245.568 203.112 248.228C207.105 250.887 213.216 254.338 216.693 255.896C220.17 257.454 226.478 259.734 230.711 260.962C234.943 262.191 242.48 263.508 247.46 263.888C252.44 264.268 260.409 264.258 265.169 263.865C269.931 263.473 277.468 262.11 281.919 260.837C286.371 259.565 292.905 257.166 296.439 255.508C299.973 253.85 305.869 250.52 309.539 248.107C313.21 245.694 319.352 240.629 323.186 236.851C327.02 233.072 332.456 226.463 335.266 222.164C338.075 217.864 341.584 211.684 343.064 208.43C344.543 205.176 346.784 198.774 348.044 194.205C349.667 188.315 350.486 182.585 350.854 174.52C351.178 167.453 350.955 160.279 350.266 155.577C349.656 151.415 348.126 144.749 346.865 140.764C345.605 136.779 343.141 130.673 341.39 127.196C339.638 123.719 336.567 118.436 334.564 115.456C332.561 112.476 327.422 106.571 323.143 102.336C318.865 98.1004 312.715 92.8995 309.479 90.7791C306.242 88.6587 300.742 85.5448 297.256 83.8597C293.77 82.1745 286.808 78.777 282.377 77.5C277.946 76.2239 273.5 75.3055 271 75.0002C267.215 74.5378 261.5 74.0633 259.23 74.063C258 74.0628 249.478 74.3003 244 75.0002ZM292.729 96.3548C288.247 94.2 281.321 91.5955 277.338 90.5669C272.722 89.3748 266.318 88.581 259.683 88.3778C253.956 88.2026 248.049 88.2487 246.555 88.478C245.061 88.7083 240.757 89.6746 236.989 90.6256C233.221 91.5756 227.439 93.5615 224.14 95.0381C220.84 96.5146 215.797 99.2184 212.933 101.046C210.068 102.874 205.738 106.051 203.31 108.107C200.882 110.162 196.494 114.796 193.56 118.404C190.626 122.011 186.367 128.717 184.097 133.305C181.826 137.892 179.125 144.49 178.094 147.967C176.804 152.31 176.066 157.986 175.737 166.102C175.372 175.066 175.617 179.692 176.753 185.282C177.576 189.333 179.498 195.909 181.024 199.896C182.551 203.882 185.739 210.108 188.11 213.731C190.481 217.354 194.984 223.051 198.117 226.392C201.25 229.733 207.211 234.721 211.362 237.475C215.513 240.231 222.277 243.846 226.394 245.508C230.511 247.171 237.02 249.17 240.858 249.951C244.696 250.732 251.945 251.37 256.967 251.37C261.988 251.37 269.237 250.725 273.075 249.936C276.913 249.147 283.109 247.326 286.844 245.89C290.579 244.453 296.245 241.745 299.436 239.873C302.627 238.001 308.461 233.453 312.402 229.768C316.343 226.081 321.363 220.555 323.557 217.488C325.752 214.421 328.936 209.106 330.633 205.677C332.329 202.248 334.549 196.752 335.566 193.462C336.583 190.172 337.888 183.431 338.464 178.482C339.26 171.649 339.259 167.33 338.458 160.532C337.878 155.608 336.411 148.61 335.199 144.981C333.988 141.351 331.928 136.271 330.622 133.692C329.316 131.113 327.015 127.173 325.507 124.938C324.001 122.703 320.914 118.678 318.65 115.994C316.386 113.31 311.46 108.675 307.705 105.694C303.95 102.712 297.211 98.5095 292.729 96.3548Z" fill="#A14300"/>
<mask id="path-11-inside-1_2224_39984" fill="white">
<path fill-rule="evenodd" clip-rule="evenodd" d="M255.997 49C337 49 376 118 376 169.248C376 220.495 339.995 289 255.997 289C172 289 136 218.498 136 168.749C136 119 174.995 49 255.997 49ZM143.5 168.749C143.5 132.325 160.5 110 160.5 110C160.5 110 170.452 117 179.5 107C188.548 97 179.5 86.5 179.5 86.5C179.5 86.5 205.995 56.9833 255.997 56.9833C306 56.9833 332.5 86.5 332.5 86.5C332.5 86.5 323.565 96.022 332 106.5C340.435 116.978 352 110.5 352 110.5C352 110.5 368.5 133 368.5 169.248C368.5 205.495 352 227.5 352 227.5C352 227.5 341 221.5 332.5 231C324 240.5 332.5 251.5 332.5 251.5C332.5 251.5 305.5 281.5 255.997 281.5C206.495 281.5 179.5 251.5 179.5 251.5C179.5 251.5 188 240.5 180 231C172 221.5 160 227.5 160 227.5C160 227.5 143.5 205.172 143.5 168.749Z"/>
</mask>
<path fill-rule="evenodd" clip-rule="evenodd" d="M255.997 49C337 49 376 118 376 169.248C376 220.495 339.995 289 255.997 289C172 289 136 218.498 136 168.749C136 119 174.995 49 255.997 49ZM143.5 168.749C143.5 132.325 160.5 110 160.5 110C160.5 110 170.452 117 179.5 107C188.548 97 179.5 86.5 179.5 86.5C179.5 86.5 205.995 56.9833 255.997 56.9833C306 56.9833 332.5 86.5 332.5 86.5C332.5 86.5 323.565 96.022 332 106.5C340.435 116.978 352 110.5 352 110.5C352 110.5 368.5 133 368.5 169.248C368.5 205.495 352 227.5 352 227.5C352 227.5 341 221.5 332.5 231C324 240.5 332.5 251.5 332.5 251.5C332.5 251.5 305.5 281.5 255.997 281.5C206.495 281.5 179.5 251.5 179.5 251.5C179.5 251.5 188 240.5 180 231C172 221.5 160 227.5 160 227.5C160 227.5 143.5 205.172 143.5 168.749Z" fill="#3EB3B3" stroke="#3EB3B3" stroke-width="16" mask="url(#path-11-inside-1_2224_39984)"/>
</svg>
