<svg width="512" height="512" viewBox="0 0 512 512" fill="none" xmlns="http://www.w3.org/2000/svg">
<path d="M356 233.5V261L329.754 278.81C328.657 279.554 328 280.794 328 282.12V298.672C328 299.462 328.874 299.94 329.539 299.514L357.842 281.382C359.157 280.54 360.843 280.54 362.158 281.382L390.461 299.514C391.126 299.94 392 299.462 392 298.672V282.12C392 280.794 391.343 279.554 390.246 278.81L364 261V221L356 233.5Z" fill="#F8FFFD"/>
<path d="M362.042 292.213C360.783 291.465 359.217 291.465 357.958 292.213L329.958 308.838C328.744 309.558 328 310.865 328 312.277V328.696C328 329.481 328.864 329.96 329.53 329.544L357.88 311.825C359.177 311.014 360.823 311.014 362.12 311.825L390.47 329.544C391.136 329.96 392 329.481 392 328.696V312.277C392 310.865 391.256 309.558 390.042 308.838L362.042 292.213Z" fill="#F8FFFD"/>
<path d="M362.12 321.325C360.823 320.514 359.177 320.514 357.88 321.325L329.88 338.825C328.71 339.556 328 340.838 328 342.217V374.206C328 375.347 328.487 376.434 329.34 377.193L357.34 402.131C358.856 403.481 361.144 403.481 362.66 402.131L390.66 377.193C391.513 376.434 392 375.347 392 374.206V342.217C392 340.838 391.29 339.556 390.12 338.825L362.12 321.325Z" fill="#F8FFFD"/>
<path d="M156 233.5V261L182.246 278.81C183.343 279.554 184 280.794 184 282.12V298.672C184 299.462 183.126 299.94 182.461 299.514L154.158 281.382C152.843 280.54 151.157 280.54 149.842 281.382L121.539 299.514C120.874 299.94 120 299.462 120 298.672V282.12C120 280.794 120.657 279.554 121.754 278.81L148 261V221L156 233.5Z" fill="#F8FFFD"/>
<path d="M149.958 292.213C151.217 291.465 152.783 291.465 154.042 292.213L182.042 308.838C183.256 309.558 184 310.865 184 312.277V328.696C184 329.481 183.136 329.96 182.47 329.544L154.12 311.825C152.823 311.014 151.177 311.014 149.88 311.825L121.53 329.544C120.864 329.96 120 329.481 120 328.696V312.277C120 310.865 120.744 309.558 121.958 308.838L149.958 292.213Z" fill="#F8FFFD"/>
<path d="M149.88 321.325C151.177 320.514 152.823 320.514 154.12 321.325L182.12 338.825C183.29 339.556 184 340.838 184 342.217V374.206C184 375.347 183.513 376.434 182.66 377.193L154.66 402.131C153.144 403.481 150.856 403.481 149.34 402.131L121.34 377.193C120.487 376.434 120 375.347 120 374.206V342.217C120 340.838 120.71 339.556 121.88 338.825L149.88 321.325Z" fill="#F8FFFD"/>
<path d="M252 284V321L225.754 338.81C224.657 339.554 224 340.794 224 342.12V358.672C224 359.462 224.874 359.94 225.539 359.514L253.842 341.382C255.157 340.54 256.843 340.54 258.158 341.382L286.461 359.514C287.126 359.94 288 359.462 288 358.672V342.12C288 340.794 287.343 339.554 286.246 338.81L260 321V284H252Z" fill="#F8FFFD"/>
<path d="M258.042 352.213C256.783 351.465 255.217 351.465 253.958 352.213L225.958 368.838C224.744 369.558 224 370.865 224 372.277V388.696C224 389.481 224.864 389.96 225.53 389.544L253.88 371.825C255.177 371.014 256.823 371.014 258.12 371.825L286.47 389.544C287.136 389.96 288 389.481 288 388.696V372.277C288 370.865 287.256 369.558 286.042 368.838L258.042 352.213Z" fill="#F8FFFD"/>
<path d="M258.12 381.325C256.823 380.514 255.177 380.514 253.88 381.325L225.88 398.825C224.71 399.556 224 400.838 224 402.217V434.206C224 435.347 224.487 436.434 225.34 437.193L253.34 462.131C254.856 463.481 257.144 463.481 258.66 462.131L286.66 437.193C287.513 436.434 288 435.347 288 434.206V402.217C288 400.838 287.29 399.556 286.12 398.825L258.12 381.325Z" fill="#F8FFFD"/>
<path fill-rule="evenodd" clip-rule="evenodd" d="M276.338 90.5669C280.321 91.5955 287.247 94.2 291.729 96.3547C296.211 98.5095 302.95 102.712 306.705 105.694C310.46 108.675 315.386 113.31 317.65 115.994C319.914 118.678 323.001 122.703 324.507 124.938C326.015 127.173 328.316 131.113 329.622 133.692C330.928 136.271 332.988 141.351 334.199 144.98C335.411 148.61 336.878 155.608 337.458 160.532C338.259 167.33 338.26 171.649 337.464 178.482C336.888 183.431 335.583 190.172 334.566 193.462C333.549 196.752 331.329 202.248 329.633 205.677C327.936 209.106 324.752 214.421 322.557 217.488C320.363 220.555 315.343 226.081 311.402 229.768C307.461 233.453 301.627 238.001 298.436 239.873C295.245 241.745 289.579 244.453 285.844 245.889C282.109 247.326 275.913 249.147 272.075 249.936C268.237 250.725 260.988 251.37 255.967 251.37C250.945 251.37 243.696 250.732 239.858 249.951C236.02 249.17 229.511 247.171 225.394 245.508C221.277 243.846 214.513 240.231 210.362 237.475C206.211 234.721 200.25 229.733 197.117 226.392C193.984 223.051 189.481 217.354 187.11 213.731C184.739 210.108 181.551 203.882 180.024 199.896C178.498 195.909 176.576 189.333 175.753 185.282C174.617 179.692 174.372 175.066 174.737 166.102C175.066 157.986 175.804 152.31 177.094 147.967C178.125 144.49 180.826 137.892 183.097 133.304C185.367 128.717 189.626 122.011 192.56 118.404C195.494 114.796 199.882 110.162 202.31 108.107C204.738 106.051 209.068 102.874 211.933 101.046C214.797 99.2184 219.84 96.5146 223.14 95.038C226.439 93.5615 232.221 91.5756 235.989 90.6256C239.757 89.6746 244.061 88.7083 245.555 88.478C247.049 88.2486 252.956 88.2026 258.683 88.3778C265.318 88.581 271.722 89.3748 276.338 90.5669ZM231.069 100.013C235.052 98.7461 240.756 97.3572 243.744 96.9273C246.732 96.4965 253.432 96.3258 258.634 96.5462C263.835 96.7666 270.761 97.592 274.025 98.3795C277.289 99.1679 283.648 101.575 288.155 103.73C292.664 105.884 298.888 109.548 301.986 111.872C305.084 114.194 309.835 118.701 312.543 121.884C315.251 125.068 319.088 130.411 321.069 133.756C323.05 137.102 325.726 142.996 327.015 146.856C328.305 150.715 329.83 158.081 330.407 163.224C331.297 171.174 331.228 173.948 329.946 181.741C329.117 186.782 327.349 193.619 326.019 196.935C324.689 200.252 322.265 205.221 320.632 207.977C318.999 210.734 315.686 215.428 313.271 218.408C310.854 221.388 306.038 225.985 302.566 228.622C299.096 231.259 294.423 234.359 292.182 235.509C289.941 236.659 285.066 238.689 281.35 240.02C276.317 241.823 272.876 242.44 267.865 242.44C264.165 242.44 260.828 242.113 260.45 241.713C260.072 241.313 260.308 237.124 260.975 232.406C261.642 227.687 263.026 219.997 264.051 215.316C265.076 210.636 265.803 206.696 265.668 206.56C265.532 206.426 260.34 208.527 254.13 211.232C247.92 213.936 242.621 216.148 242.355 216.149C242.089 216.15 241.201 215.032 240.382 213.666C239.564 212.301 236.69 208.037 233.996 204.192L229.098 197.201L224.313 214.126C221.681 223.434 219.176 231.977 218.746 233.108L217.967 235.164L214.105 233.226C211.982 232.16 206.171 227.17 201.191 222.138C193.569 214.436 191.455 211.633 187.818 204.41C185.443 199.691 182.692 192.616 181.706 188.687C180.411 183.521 179.915 178.498 179.915 170.544C179.915 162.459 180.4 157.652 181.746 152.401C182.753 148.472 184.766 142.726 186.217 139.632C187.668 136.538 190.17 132.067 191.777 129.698C193.383 127.329 196.768 123.155 199.301 120.423C201.832 117.691 205.679 114.083 207.849 112.406C210.019 110.729 214.502 107.773 217.81 105.838C221.119 103.902 227.085 101.281 231.069 100.013Z" fill="#F8FFFD"/>
<path fill-rule="evenodd" clip-rule="evenodd" d="M258.173 133.811C257.391 135.375 257.006 137.067 257.317 137.57C257.629 138.073 258.192 138.485 258.569 138.485C258.944 138.485 259.933 137.062 260.764 135.324C261.595 133.585 262.703 132.163 263.227 132.163C263.888 132.163 263.892 132.698 263.241 133.91C262.726 134.87 262.304 136.293 262.304 137.07C262.304 137.848 262.721 138.485 263.229 138.485C263.737 138.485 264.607 137.491 265.162 136.277C265.717 135.062 266.732 133.854 267.417 133.592C268.4 133.215 268.358 133.703 267.218 135.904C266.255 137.759 266.074 138.994 266.675 139.594C267.172 140.089 268.022 140.221 268.563 139.888C269.104 139.554 269.547 138.758 269.547 138.12C269.547 137.481 270.362 136.222 271.358 135.324C272.354 134.425 273.169 133.893 273.169 134.142C273.169 134.391 272.497 135.938 271.676 137.58C270.609 139.712 270.444 140.978 271.095 142.008C271.798 143.118 273.554 143.452 278.7 143.452C284.376 143.452 286.037 143.83 289.645 145.946C291.984 147.318 294.095 148.756 294.335 149.144C294.575 149.53 293.364 149.684 291.645 149.483C289.926 149.283 287.205 149.638 285.598 150.273C283.99 150.907 282.014 151.984 281.206 152.667C280.112 153.592 279.851 154.922 280.185 157.88C280.433 160.064 280.363 163.657 280.032 165.864C279.699 168.071 278.079 172.113 276.429 174.846C274.071 178.751 273.626 180.174 274.349 181.5C274.855 182.428 276.411 184.293 277.805 185.645C279.199 186.997 281.273 188.302 282.414 188.544C283.553 188.788 285.301 189.125 286.297 189.294C287.608 189.515 287.108 189.931 284.486 190.798C282.494 191.457 274.246 194.994 266.157 198.66C258.068 202.325 249.8 205.982 247.786 206.786C245.77 207.591 243.997 208.096 243.844 207.909C243.691 207.723 239.369 201.272 234.24 193.573C229.111 185.874 223.086 177.008 220.851 173.869L216.788 168.163L219.854 170.028C221.54 171.053 224.448 171.893 226.315 171.895C228.183 171.897 229.711 171.669 229.711 171.389C229.711 171.109 228.515 169.876 227.055 168.65C225.594 167.424 223.938 165.028 223.375 163.326C222.511 160.714 222.637 159.585 224.182 156.1C225.545 153.029 226.829 151.631 229.192 150.646C230.939 149.918 232.993 149.322 233.756 149.322C234.519 149.322 235.143 149.631 235.143 150.011C235.143 150.389 234.258 151.101 233.176 151.591C232.095 152.081 230.421 153.553 229.455 154.863C228.49 156.172 227.52 159.016 227.298 161.185C227 164.098 227.376 165.888 228.735 168.05C230.388 170.675 230.801 170.873 232.768 169.979C234.581 169.155 235.063 168.1 235.555 163.893C235.883 161.094 236.589 157.382 237.125 155.643C237.662 153.905 239.268 150.735 240.696 148.599C242.123 146.463 243.291 144.313 243.291 143.822C243.291 143.331 242.455 141.292 241.432 139.293C240.38 137.235 238.121 134.801 236.226 133.685L232.879 131.711L237.354 131.429C239.936 131.266 243.42 131.753 245.592 132.581C247.662 133.37 250.303 135.02 251.461 136.249C252.618 137.479 253.858 138.485 254.216 138.485C254.572 138.485 255.144 137.367 255.487 136.001C255.828 134.635 256.752 132.804 257.54 131.932C258.329 131.059 259.114 130.485 259.285 130.657C259.456 130.827 258.956 132.247 258.173 133.811ZM240.575 185.445C240.575 184.65 241.064 183.512 241.662 182.916C242.259 182.32 243.432 181.833 244.267 181.833C245.102 181.833 246.303 182.454 246.935 183.214C247.814 184.27 247.844 185.121 247.065 186.827C246.504 188.053 245.304 189.057 244.397 189.057C243.49 189.057 242.259 188.57 241.662 187.974C241.064 187.378 240.575 186.24 240.575 185.445ZM252.345 189.057C252.345 188.263 252.834 187.125 253.431 186.529C254.029 185.933 255.447 185.445 256.583 185.445C258.034 185.445 258.818 186.121 259.22 187.715C259.546 189.016 259.314 190.557 258.673 191.327C258.058 192.066 256.872 192.67 256.037 192.67C255.202 192.67 254.029 192.182 253.431 191.586C252.834 190.99 252.345 189.852 252.345 189.057Z" fill="#F8FFFD"/>
<path fill-rule="evenodd" clip-rule="evenodd" d="M228.352 78.5215C232.834 77.2454 238.574 75.6999 244.052 75C249.529 74.3001 252.777 74 257.777 74C262.777 74 269 75.0001 272 75.5001C275.785 75.9634 277.569 76.7239 282 78C286.431 79.277 292.77 82.1745 296.256 83.8596C299.742 85.5448 305.242 88.6586 308.479 90.7791C311.715 92.8995 317.865 98.1004 322.143 102.336C326.422 106.571 331.561 112.476 333.564 115.456C335.567 118.436 338.638 123.719 340.39 127.196C342.141 130.673 344.605 136.779 345.865 140.764C347.126 144.749 348.656 151.415 349.266 155.577C349.955 160.279 350.178 167.453 349.854 174.52C349.486 182.585 348.667 188.315 347.044 194.205C345.784 198.774 343.543 205.176 342.064 208.429C340.584 211.684 337.075 217.864 334.266 222.164C331.456 226.463 326.02 233.072 322.186 236.85C318.352 240.629 312.21 245.694 308.539 248.107C304.869 250.52 298.973 253.85 295.439 255.508C291.905 257.166 285.371 259.565 280.919 260.837C276.468 262.11 268.931 263.473 264.169 263.865C259.409 264.258 251.44 264.268 246.46 263.888C241.48 263.508 233.943 262.191 229.711 260.962C225.478 259.734 219.17 257.453 215.693 255.896C212.216 254.338 206.105 250.887 202.112 248.228C198.12 245.568 191.909 240.412 188.31 236.77C184.712 233.128 180.093 227.913 178.047 225.181C176 222.449 172.783 217.166 170.897 213.441C169.011 209.715 166.445 203.823 165.195 200.346C163.945 196.869 162.263 190.193 161.459 185.512C160.655 180.829 159.998 173.718 160 169.708C160.002 165.697 160.6 158.759 161.33 154.289C162.06 149.818 163.643 143.316 164.849 139.839C166.055 136.362 167.928 131.49 169.012 129.012C170.096 126.533 173.225 121.144 175.965 117.036C178.706 112.928 183.873 106.593 187.448 102.96C191.023 99.3259 196.596 94.4953 199.833 92.2249C203.07 89.9546 208.977 86.4641 212.961 84.4692C216.945 82.4734 223.871 79.7967 228.352 78.5215ZM291.729 96.3547C287.247 94.2 280.321 91.5955 276.338 90.5669C271.722 89.3748 265.318 88.581 258.683 88.3778C252.956 88.2026 247.049 88.2486 245.555 88.478C244.061 88.7083 239.757 89.6746 235.989 90.6256C232.221 91.5756 226.439 93.5615 223.14 95.038C219.84 96.5146 214.797 99.2184 211.933 101.046C209.068 102.874 204.738 106.051 202.31 108.107C199.882 110.162 195.494 114.796 192.56 118.404C189.626 122.011 185.367 128.717 183.097 133.304C180.826 137.892 178.125 144.49 177.094 147.967C175.804 152.31 175.066 157.986 174.737 166.102C174.372 175.066 174.617 179.692 175.753 185.282C176.576 189.333 178.498 195.909 180.024 199.896C181.551 203.882 184.739 210.108 187.11 213.731C189.481 217.354 193.984 223.051 197.117 226.392C200.25 229.733 206.211 234.721 210.362 237.475C214.513 240.231 221.277 243.846 225.394 245.508C229.511 247.171 236.02 249.17 239.858 249.951C243.696 250.732 250.945 251.37 255.967 251.37C260.988 251.37 268.237 250.725 272.075 249.936C275.913 249.147 282.109 247.326 285.844 245.889C289.579 244.453 295.245 241.745 298.436 239.873C301.627 238.001 307.461 233.453 311.402 229.768C315.343 226.081 320.363 220.555 322.557 217.488C324.752 214.421 327.936 209.106 329.633 205.677C331.329 202.248 333.549 196.752 334.566 193.462C335.583 190.172 336.888 183.431 337.464 178.482C338.26 171.649 338.259 167.33 337.458 160.532C336.878 155.608 335.411 148.61 334.199 144.98C332.988 141.351 330.928 136.271 329.622 133.692C328.316 131.113 326.015 127.173 324.507 124.938C323.001 122.703 319.914 118.678 317.65 115.994C315.386 113.31 310.46 108.675 306.705 105.694C302.95 102.712 296.211 98.5095 291.729 96.3547Z" fill="#F8FFFD"/>
<path d="M289.172 168.691C290.171 170.78 290.415 172.735 289.972 175.095C289.617 176.98 288.184 179.637 286.752 181.065C285.079 182.735 283.232 183.639 281.494 183.639H278.814L282.414 180.048C285.853 176.617 285.998 176.244 285.643 171.695C285.438 169.075 284.931 166.173 284.515 165.247C283.839 163.738 283.968 163.673 285.747 164.623C286.84 165.206 288.382 167.037 289.172 168.691Z" fill="#F8FFFD"/>
<path d="M210.172 130.867C207.981 134.127 205.337 139.588 204.297 143.001C202.883 147.645 202.482 151.025 202.705 156.429C202.994 163.456 202.956 163.609 201.289 162.13C200.347 161.294 198.62 158.578 197.45 156.095C196.017 153.051 195.328 149.96 195.335 146.612C195.341 143.744 196.048 140.104 197.006 137.998C197.92 135.992 200.623 132.634 203.011 130.537C205.399 128.44 208.615 126.359 210.157 125.913C211.7 125.467 213.231 125.065 213.56 125.02C213.889 124.975 212.364 127.606 210.172 130.867Z" fill="#F8FFFD"/>
<path d="M318.412 161.661C319.652 164.292 320.381 167.679 320.429 171.033C320.483 174.878 319.923 177.439 318.339 180.593C317.148 182.962 314.748 186.022 313.005 187.392C311.263 188.762 308.207 190.55 306.215 191.366L302.594 192.849L304.984 190.276C306.298 188.861 308.236 185.988 309.289 183.892C310.342 181.797 311.812 177.749 312.557 174.897C313.301 172.046 313.911 166.497 313.911 162.567C313.911 156.512 314.106 155.584 315.191 156.481C315.894 157.065 317.345 159.396 318.412 161.661Z" fill="#F8FFFD"/>
<path d="M269.325 109.138C272.438 109.87 277.862 111.914 281.377 113.68C285.448 115.725 289.869 118.986 293.557 122.663C297.221 126.319 300.514 130.753 302.531 134.749C304.284 138.22 306.543 144.131 307.551 147.883C308.743 152.32 309.384 157.523 309.384 162.756C309.384 168.343 308.811 172.656 307.511 176.854C306.029 181.642 304.651 183.92 300.896 187.786C298.288 190.472 295.577 192.67 294.872 192.67C294.056 192.67 294.291 192.179 295.521 191.321C296.583 190.578 298.925 187.97 300.726 185.523C302.526 183.076 304.804 178.743 305.786 175.894C306.821 172.893 307.573 168.336 307.573 165.065C307.573 161.865 306.554 155.566 305.22 150.531C303.926 145.644 301.595 139.207 300.039 136.227C298.482 133.247 294.55 128.137 291.301 124.872C287.837 121.393 283.282 117.914 280.293 116.466C277.489 115.106 273.008 113.414 270.334 112.704C267.66 111.994 261.951 111.408 257.646 111.403C252.394 111.396 247.923 111.976 244.052 113.169C240.879 114.146 235.752 116.483 232.658 118.362C229.563 120.24 223.97 124.778 220.229 128.447C216.248 132.35 212.493 137.032 211.175 139.735C209.935 142.276 208.565 146.996 208.127 150.225C207.69 153.453 207.457 157.72 207.611 159.707L207.89 163.319L206.885 159.403C206.145 156.518 206.151 154.019 206.906 149.92C207.471 146.859 209.466 141.307 211.34 137.582C213.761 132.771 216.719 128.846 221.55 124.035C225.999 119.606 230.591 116.09 234.821 113.876C238.38 112.014 243.676 109.915 246.591 109.21C249.507 108.506 254.541 107.902 257.777 107.868C261.014 107.834 266.21 108.406 269.325 109.138Z" fill="#F8FFFD"/>
<mask id="path-11-inside-1_2224_39590" fill="white">
<path fill-rule="evenodd" clip-rule="evenodd" d="M255.997 49C337 49 376 118 376 169.248C376 220.495 339.995 289 255.997 289C172 289 136 218.498 136 168.749C136 119 174.995 49 255.997 49ZM143.5 168.749C143.5 132.325 160.5 110 160.5 110C160.5 110 170.452 117 179.5 107C188.548 97 179.5 86.5 179.5 86.5C179.5 86.5 205.995 56.9833 255.997 56.9833C306 56.9833 332.5 86.5 332.5 86.5C332.5 86.5 323.565 96.022 332 106.5C340.435 116.978 352 110.5 352 110.5C352 110.5 368.5 133 368.5 169.248C368.5 205.495 352 227.5 352 227.5C352 227.5 341 221.5 332.5 231C324 240.5 332.5 251.5 332.5 251.5C332.5 251.5 305.5 281.5 255.997 281.5C206.495 281.5 179.5 251.5 179.5 251.5C179.5 251.5 188 240.5 180 231C172 221.5 160 227.5 160 227.5C160 227.5 143.5 205.172 143.5 168.749Z"/>
</mask>
<path fill-rule="evenodd" clip-rule="evenodd" d="M255.997 49C337 49 376 118 376 169.248C376 220.495 339.995 289 255.997 289C172 289 136 218.498 136 168.749C136 119 174.995 49 255.997 49ZM143.5 168.749C143.5 132.325 160.5 110 160.5 110C160.5 110 170.452 117 179.5 107C188.548 97 179.5 86.5 179.5 86.5C179.5 86.5 205.995 56.9833 255.997 56.9833C306 56.9833 332.5 86.5 332.5 86.5C332.5 86.5 323.565 96.022 332 106.5C340.435 116.978 352 110.5 352 110.5C352 110.5 368.5 133 368.5 169.248C368.5 205.495 352 227.5 352 227.5C352 227.5 341 221.5 332.5 231C324 240.5 332.5 251.5 332.5 251.5C332.5 251.5 305.5 281.5 255.997 281.5C206.495 281.5 179.5 251.5 179.5 251.5C179.5 251.5 188 240.5 180 231C172 221.5 160 227.5 160 227.5C160 227.5 143.5 205.172 143.5 168.749Z" fill="#F8FFFD" stroke="#F8FFFD" stroke-width="16" mask="url(#path-11-inside-1_2224_39590)"/>
</svg>
