<?xml version="1.0" encoding="UTF-8"?>
<svg version="1.1" xmlns="http://www.w3.org/2000/svg" width="72" height="72">
<path d="M0 0 C3.58598889 2.54054385 6.15992797 5.04327701 8.4921875 8.765625 C8.90210938 9.38695312 9.31203125 10.00828125 9.734375 10.6484375 C13.58244889 17.62804738 13.74273274 26.02607545 12.4921875 33.765625 C10.09120579 41.34186763 6.27912589 47.51322792 -0.5078125 51.765625 C-1.12914062 52.17554688 -1.75046875 52.58546875 -2.390625 53.0078125 C-9.37023488 56.85588639 -17.76826295 57.01617024 -25.5078125 55.765625 C-33.08405513 53.36464329 -39.25541542 49.55256339 -43.5078125 42.765625 C-43.91773438 42.14429688 -44.32765625 41.52296875 -44.75 40.8828125 C-48.59807389 33.90320262 -48.75835774 25.50517455 -47.5078125 17.765625 C-45.10683079 10.18938237 -41.29475089 4.01802208 -34.5078125 -0.234375 C-33.88648438 -0.64429688 -33.26515625 -1.05421875 -32.625 -1.4765625 C-22.455808 -7.08315125 -9.72162164 -5.63801363 0 0 Z M-36.453125 10.8984375 C-41.26248877 17.67628504 -41.87800852 24.68332011 -40.5078125 32.765625 C-38.10019707 39.33422795 -34.42894208 43.55095555 -28.33984375 46.92578125 C-22.42526084 49.63715721 -15.46055223 49.81037271 -9.1875 48.15234375 C-3.06601423 45.42768244 1.72977524 40.36094601 4.6640625 34.375 C6.60578364 28.25674659 6.5520066 21.17869118 3.8046875 15.328125 C0.49966673 9.74656895 -4.23248471 4.80348918 -10.5078125 2.765625 C-21.10512333 1.25724864 -29.13570574 2.87572481 -36.453125 10.8984375 Z " fill="#000000" transform="translate(53.5078125,10.234375)"/>
<path d="M0 0 C10.125 6.75 10.125 6.75 14.0625 9.875 C14.81660156 10.47054687 15.57070313 11.06609375 16.34765625 11.6796875 C16.89292969 12.11539063 17.43820313 12.55109375 18 13 C16.65247195 16.13347425 15.31983859 17.81078663 12.55859375 19.796875 C11.55989258 20.52197266 11.55989258 20.52197266 10.54101562 21.26171875 C9.84685547 21.75285156 9.15269531 22.24398437 8.4375 22.75 C7.73947266 23.25660156 7.04144531 23.76320313 6.32226562 24.28515625 C1.16053529 28 1.16053529 28 0 28 C0 18.76 0 9.52 0 0 Z " fill="#000000" transform="translate(30,22)"/>
</svg>
