<svg width="418" height="418" viewBox="0 0 418 418" fill="none" xmlns="http://www.w3.org/2000/svg">
<path fill-rule="evenodd" clip-rule="evenodd" d="M94.5 76.5C94.5 76.5 136.586 33 208.262 33C279.938 33 325.5 76 325.5 76C325.5 76 316.826 93.5 329.149 110C341.473 126.5 362 122.5 362 122.5C362 122.5 384.917 155.639 384.917 208.57C384.917 261.5 364 294.5 364 294.5C364 294.5 346.536 288.412 331 304.5C315.464 320.588 326 342 326 342C326 342 281.139 385.832 207.776 384.988C134.414 384.145 94.5 342 94.5 342C94.5 342 104.625 321.563 90 304.5C75.3747 287.437 55.5 295.5 55.5 295.5C55.5 295.5 33 260.009 33 208.57C33 157.131 55.5 124 55.5 124C55.5 124 77.5 129.5 91 113.5C104.5 97.5 94.5 76.5 94.5 76.5ZM208.747 85.652C281.571 86.1208 329.149 143.179 329.149 208.57C329.149 273.96 271.861 329.999 204.461 329.999C137.062 329.999 85.9184 270.547 86.4039 208.57C86.8894 146.592 135.924 85.1832 208.747 85.652Z" fill="#1F2124" stroke="#1F2124"/>
<path fill-rule="evenodd" clip-rule="evenodd" d="M208.572 1C317.128 1 372.275 77.107 372.275 77.107C372.275 77.107 417 132.458 417 209.429C417 245.059 406.951 276.056 396.157 299.075C391.405 309.208 386.509 317.795 382.262 324.551C375.314 335.602 370.104 341.752 370.104 341.752C370.104 341.752 314.522 412.858 215.52 416.828C213.227 416.92 210.911 416.976 208.572 416.994C206.234 417.012 203.918 416.99 201.624 416.928C102.546 414.28 45.3033 339.157 45.3033 339.157C45.3033 339.157 40.9059 334.525 34.882 325.656C30.7218 319.531 25.7859 311.384 20.9868 301.347C10.4656 279.341 0.602085 248.246 1.01237 209.429C1.88078 127.268 45.3033 77.107 45.3033 77.107C45.3033 77.107 100.016 1 208.572 1ZM17.5 209.429C17.5 149.859 45.3033 111 45.3033 111C45.3033 111 65.5 123.172 80.5 104.5C95.5 85.8277 79 68 79 68C79 68 127.214 18.3353 208.572 17.5C289.93 16.6647 340.5 68.5 340.5 68.5C340.5 68.5 323.942 83.3348 337.971 103.917C352 124.5 374.5 110.5 374.5 110.5C374.5 110.5 402.868 154.079 402 209.429C401.132 264.78 375.5 307.5 375.5 307.5C375.5 307.5 356.477 292 339 311.5C321.523 331 340.5 349 340.5 349C340.5 349 295 400 208.572 400C122.144 400 80 349.5 80 349.5C80 349.5 96.5 330.253 80 313C63.5 295.747 45.3033 308.5 45.3033 308.5C45.3033 308.5 17.5 269 17.5 209.429Z" fill="#1F2124"/>
<path d="M20.9868 301.347L34.882 325.656M20.9868 301.347C25.7859 311.384 30.7218 319.531 34.882 325.656M20.9868 301.347C10.4656 279.341 0.602085 248.246 1.01237 209.429C1.88078 127.268 45.3033 77.107 45.3033 77.107C45.3033 77.107 100.016 1 208.572 1C317.128 1 372.275 77.107 372.275 77.107C372.275 77.107 417 132.458 417 209.429C417 245.059 406.951 276.056 396.157 299.075M34.882 325.656C40.9059 334.525 45.3033 339.157 45.3033 339.157C45.3033 339.157 102.546 414.28 201.624 416.928M201.624 416.928L215.52 416.828M201.624 416.928C203.918 416.99 206.234 417.012 208.572 416.994C210.911 416.976 213.227 416.92 215.52 416.828M215.52 416.828C314.522 412.858 370.104 341.752 370.104 341.752C370.104 341.752 375.314 335.602 382.262 324.551M396.157 299.075L382.262 324.551M396.157 299.075C391.405 309.208 386.509 317.795 382.262 324.551M45.3033 111C45.3033 111 17.5 149.859 17.5 209.429C17.5 269 45.3033 308.5 45.3033 308.5C45.3033 308.5 63.5 295.747 80 313C96.5 330.253 80 349.5 80 349.5C80 349.5 122.144 400 208.572 400C295 400 340.5 349 340.5 349C340.5 349 321.523 331 339 311.5C356.477 292 375.5 307.5 375.5 307.5C375.5 307.5 401.132 264.78 402 209.429C402.868 154.079 374.5 110.5 374.5 110.5C374.5 110.5 352 124.5 337.971 103.917C323.942 83.3348 340.5 68.5 340.5 68.5C340.5 68.5 289.93 16.6647 208.572 17.5C127.214 18.3353 79 68 79 68C79 68 95.5 85.8277 80.5 104.5C65.5 123.172 45.3033 111 45.3033 111Z" stroke="#1F2124"/>
<path fill-rule="evenodd" clip-rule="evenodd" d="M209.991 99C276.28 99 319 151.049 319 208.5C319 265.951 272.843 318 209.991 318C147.139 318 100 268.406 100 208.5C100 148.594 143.702 99 209.991 99ZM312.126 208.5C312.126 149.576 263.513 105.874 209.991 105.874C156.469 105.874 107.577 147.612 106.874 208.5C106.172 269.388 159.415 311.126 209.991 311.126C260.567 311.126 312.126 267.424 312.126 208.5Z" fill="#1F2124" stroke="#1F2124"/>
<path d="M161 131V287L287 209.491L161 131Z" fill="#1F2124" stroke="#1F2124" stroke-width="0.5"/>
</svg>
