<svg width="432" height="432" viewBox="0 0 432 432" fill="none" xmlns="http://www.w3.org/2000/svg">
<g filter="url(#filter0_dii_48_619)">
<path d="M204.962 134.215C205.514 134.215 205.962 133.767 205.962 133.215V132.254C205.962 131.702 205.514 131.254 204.962 131.254H203.989C203.437 131.254 202.989 131.702 202.989 132.254V133.215C202.989 133.767 203.437 134.215 203.989 134.215H204.962Z" fill="#C2F2F2"/>
<path d="M228.744 131.254C229.296 131.254 229.744 131.702 229.744 132.254V133.215C229.744 133.767 229.296 134.215 228.744 134.215H227.771C227.219 134.215 226.771 133.767 226.771 133.215V132.254C226.771 131.702 227.219 131.254 227.771 131.254H228.744Z" fill="#C2F2F2"/>
<path d="M214.88 144.096C214.88 143.544 215.328 143.096 215.88 143.096H216.853C217.405 143.096 217.853 143.544 217.853 144.096V145.057C217.853 145.609 217.405 146.057 216.853 146.057H215.88C215.328 146.057 214.88 145.609 214.88 145.057V144.096Z" fill="#C2F2F2"/>
<path d="M205.962 155.938C205.962 155.386 205.514 154.938 204.962 154.938H203.989C203.437 154.938 202.989 155.386 202.989 155.938V156.906C202.989 157.458 203.437 157.906 203.989 157.906H204.962C205.514 157.906 205.962 157.458 205.962 156.906V155.938Z" fill="#C2F2F2"/>
<path d="M191.098 144.096C191.098 143.544 191.546 143.096 192.098 143.096H193.071C193.623 143.096 194.071 143.544 194.071 144.096V145.057C194.071 145.609 193.623 146.057 193.071 146.057H192.098C191.546 146.057 191.098 145.609 191.098 145.057V144.096Z" fill="#C2F2F2"/>
<path d="M179.207 155.938C179.207 155.386 179.655 154.938 180.207 154.938H181.18C181.732 154.938 182.18 155.386 182.18 155.938V156.906C182.18 157.458 181.732 157.906 181.18 157.906H180.207C179.655 157.906 179.207 157.458 179.207 156.906V155.938Z" fill="#C2F2F2"/>
<path d="M167.316 167.78C167.316 167.228 167.764 166.78 168.316 166.78H169.289C169.841 166.78 170.289 167.228 170.289 167.78V168.74C170.289 169.293 169.841 169.74 169.289 169.74H168.316C167.764 169.74 167.316 169.293 167.316 168.74V167.78Z" fill="#C2F2F2"/>
<path d="M155.425 155.938C155.425 155.386 155.872 154.938 156.425 154.938H157.398C157.95 154.938 158.398 155.386 158.398 155.938V156.903C158.398 157.457 157.948 157.905 157.395 157.903L156.422 157.901C155.871 157.9 155.425 157.452 155.425 156.901V155.938Z" fill="#C2F2F2"/>
<path d="M155.425 179.622C155.425 179.069 155.872 178.622 156.425 178.622H157.398C157.95 178.622 158.398 179.069 158.398 179.622V180.582C158.398 181.134 157.95 181.582 157.398 181.582H156.425C155.872 181.582 155.425 181.134 155.425 180.582V179.622Z" fill="#C2F2F2"/>
<path d="M143.534 191.463C143.534 190.911 143.981 190.463 144.534 190.463H145.506C146.059 190.463 146.506 190.911 146.506 191.463V192.424C146.506 192.976 146.059 193.424 145.506 193.424H144.534C143.981 193.424 143.534 192.976 143.534 192.424V191.463Z" fill="#C2F2F2"/>
<path d="M131.643 203.305C131.643 202.753 132.09 202.305 132.643 202.305H133.615C134.168 202.305 134.615 202.753 134.615 203.305V204.266C134.615 204.818 134.168 205.266 133.615 205.266H132.643C132.09 205.266 131.643 204.818 131.643 204.266V203.305Z" fill="#C2F2F2"/>
<path d="M143.534 215.147C143.534 214.595 143.981 214.147 144.534 214.147H145.506C146.059 214.147 146.506 214.595 146.506 215.147V216.108C146.506 216.66 146.059 217.108 145.506 217.108H144.534C143.981 217.108 143.534 216.66 143.534 216.108V215.147Z" fill="#C2F2F2"/>
<path d="M131.643 226.989C131.643 226.437 132.09 225.989 132.643 225.989H133.615C134.168 225.989 134.615 226.437 134.615 226.989V227.949C134.615 228.502 134.168 228.949 133.615 228.949H132.643C132.09 228.949 131.643 228.502 131.643 227.949V226.989Z" fill="#C2F2F2"/>
<path d="M155.425 226.989C155.425 226.437 155.872 225.989 156.425 225.989H157.398C157.95 225.989 158.398 226.437 158.398 226.989V227.949C158.398 228.502 157.95 228.949 157.398 228.949H156.425C155.872 228.949 155.425 228.502 155.425 227.949V226.989Z" fill="#C2F2F2"/>
<path d="M155.425 203.785C155.425 202.968 156.09 202.305 156.911 202.305C157.732 202.305 158.398 202.968 158.398 203.785C158.398 204.603 157.732 205.266 156.911 205.266C156.09 205.266 155.425 204.603 155.425 203.785Z" fill="#C2F2F2"/>
<path d="M143.534 168.26C143.534 167.443 144.199 166.78 145.02 166.78C145.841 166.78 146.506 167.443 146.506 168.26C146.506 169.078 145.841 169.74 145.02 169.74C144.199 169.74 143.534 169.078 143.534 168.26Z" fill="#C2F2F2"/>
<path d="M167.316 144.58C167.316 143.763 167.981 143.096 168.802 143.096C169.623 143.096 170.289 143.763 170.289 144.58C170.289 145.398 169.623 146.064 168.802 146.064C167.981 146.064 167.316 145.398 167.316 144.58Z" fill="#C2F2F2"/>
<path d="M226.771 156.418C226.771 155.601 227.437 154.938 228.258 154.938C229.079 154.938 229.744 155.601 229.744 156.418C229.744 157.236 229.079 157.898 228.258 157.898C227.437 157.898 226.771 157.236 226.771 156.418Z" fill="#C2F2F2"/>
<path d="M238.662 144.576C238.662 143.759 239.328 143.096 240.149 143.096C240.97 143.096 241.635 143.759 241.635 144.576C241.635 145.394 240.97 146.057 240.149 146.057C239.328 146.057 238.662 145.394 238.662 144.576Z" fill="#C2F2F2"/>
<path d="M262.445 144.576C262.445 143.759 263.11 143.096 263.931 143.096C264.752 143.096 265.417 143.759 265.417 144.576C265.417 145.394 264.752 146.057 263.931 146.057C263.11 146.057 262.445 145.394 262.445 144.576Z" fill="#C2F2F2"/>
<path d="M250.553 156.418C250.553 155.601 251.219 154.938 252.04 154.938C252.861 154.938 253.526 155.601 253.526 156.418C253.526 157.236 252.861 157.898 252.04 157.898C251.219 157.898 250.553 157.236 250.553 156.418Z" fill="#C2F2F2"/>
<path d="M274.336 156.418C274.336 155.601 275.001 154.938 275.822 154.938C276.643 154.938 277.308 155.601 277.308 156.418C277.308 157.236 276.643 157.898 275.822 157.898C275.001 157.898 274.336 157.236 274.336 156.418Z" fill="#C2F2F2"/>
<path d="M262.445 168.26C262.445 167.443 263.11 166.78 263.931 166.78C264.752 166.78 265.417 167.443 265.417 168.26C265.417 169.078 264.752 169.74 263.931 169.74C263.11 169.74 262.445 169.078 262.445 168.26Z" fill="#C2F2F2"/>
<path d="M286.227 168.26C286.227 167.443 286.892 166.78 287.713 166.78C288.534 166.78 289.2 167.443 289.2 168.26C289.2 169.078 288.534 169.74 287.713 169.74C286.892 169.74 286.227 169.078 286.227 168.26Z" fill="#C2F2F2"/>
<path d="M274.336 180.102C274.336 179.284 275.001 178.622 275.822 178.622C276.643 178.622 277.308 179.284 277.308 180.102C277.308 180.919 276.643 181.582 275.822 181.582C275.001 181.582 274.336 180.919 274.336 180.102Z" fill="#C2F2F2"/>
<path d="M286.227 191.944C286.227 191.126 286.892 190.463 287.713 190.463C288.534 190.463 289.2 191.126 289.2 191.944C289.2 192.761 288.534 193.424 287.713 193.424C286.892 193.424 286.227 192.761 286.227 191.944Z" fill="#C2F2F2"/>
<path d="M298.118 203.785C298.118 202.968 298.783 202.305 299.604 202.305C300.425 202.305 301.091 202.968 301.091 203.785C301.091 204.603 300.425 205.266 299.604 205.266C298.783 205.266 298.118 204.603 298.118 203.785Z" fill="#C2F2F2"/>
<path d="M274.336 203.785C274.336 202.968 275.001 202.305 275.822 202.305C276.643 202.305 277.308 202.968 277.308 203.785C277.308 204.603 276.643 205.266 275.822 205.266C275.001 205.266 274.336 204.603 274.336 203.785Z" fill="#C2F2F2"/>
<path d="M286.227 215.627C286.227 214.81 286.892 214.147 287.713 214.147C288.534 214.147 289.2 214.81 289.2 215.627C289.2 216.445 288.534 217.108 287.713 217.108C286.892 217.108 286.227 216.445 286.227 215.627Z" fill="#C2F2F2"/>
<path d="M298.118 227.469C298.118 226.652 298.783 225.989 299.604 225.989C300.425 225.989 301.091 226.652 301.091 227.469C301.091 228.287 300.425 228.949 299.604 228.949C298.783 228.949 298.118 228.287 298.118 227.469Z" fill="#C2F2F2"/>
<path d="M286.227 239.311C286.227 238.493 286.892 237.831 287.713 237.831C288.534 237.831 289.2 238.493 289.2 239.311C289.2 240.128 288.534 240.791 287.713 240.791C286.892 240.791 286.227 240.128 286.227 239.311Z" fill="#C2F2F2"/>
<path d="M274.336 227.469C274.336 226.652 275.001 225.989 275.822 225.989C276.643 225.989 277.308 226.652 277.308 227.469C277.308 228.287 276.643 228.949 275.822 228.949C275.001 228.949 274.336 228.287 274.336 227.469Z" fill="#C2F2F2"/>
<path d="M274.336 251.153C274.336 250.335 275.001 249.673 275.822 249.673C276.643 249.673 277.308 250.335 277.308 251.153C277.308 251.97 276.643 252.633 275.822 252.633C275.001 252.633 274.336 251.97 274.336 251.153Z" fill="#C2F2F2"/>
<path d="M286.227 262.995C286.227 262.177 286.892 261.514 287.713 261.514C288.534 261.514 289.2 262.177 289.2 262.995C289.2 263.812 288.534 264.475 287.713 264.475C286.892 264.475 286.227 263.812 286.227 262.995Z" fill="#C2F2F2"/>
<path d="M274.336 274.836C274.336 274.019 275.001 273.356 275.822 273.356C276.643 273.356 277.308 274.019 277.308 274.836C277.308 275.654 276.643 276.317 275.822 276.317C275.001 276.317 274.336 275.654 274.336 274.836Z" fill="#C2F2F2"/>
<path d="M262.445 262.995C262.445 262.177 263.11 261.514 263.931 261.514C264.752 261.514 265.417 262.177 265.417 262.995C265.417 263.812 264.752 264.475 263.931 264.475C263.11 264.475 262.445 263.812 262.445 262.995Z" fill="#C2F2F2"/>
<path d="M262.445 286.678C262.445 285.861 263.11 285.198 263.931 285.198C264.752 285.198 265.417 285.861 265.417 286.678C265.417 287.496 264.752 288.158 263.931 288.158C263.11 288.158 262.445 287.496 262.445 286.678Z" fill="#C2F2F2"/>
<path d="M250.553 274.836C250.553 274.019 251.219 273.356 252.04 273.356C252.861 273.356 253.526 274.019 253.526 274.836C253.526 275.654 252.861 276.317 252.04 276.317C251.219 276.317 250.553 275.654 250.553 274.836Z" fill="#C2F2F2"/>
<path d="M238.662 286.678C238.662 285.861 239.328 285.198 240.149 285.198C240.97 285.198 241.635 285.861 241.635 286.678C241.635 287.496 240.97 288.158 240.149 288.158C239.328 288.158 238.662 287.496 238.662 286.678Z" fill="#C2F2F2"/>
<path d="M226.771 274.836C226.771 274.019 227.437 273.356 228.258 273.356C229.079 273.356 229.744 274.019 229.744 274.836C229.744 275.654 229.079 276.317 228.258 276.317C227.437 276.317 226.771 275.654 226.771 274.836Z" fill="#C2F2F2"/>
<path d="M226.771 298.52C226.771 297.703 227.437 297.04 228.258 297.04C229.079 297.04 229.744 297.703 229.744 298.52C229.744 299.338 229.079 300 228.258 300C227.437 300 226.771 299.338 226.771 298.52Z" fill="#C2F2F2"/>
<path d="M214.88 286.678C214.88 285.861 215.546 285.198 216.367 285.198C217.187 285.198 217.853 285.861 217.853 286.678C217.853 287.496 217.187 288.158 216.367 288.158C215.546 288.158 214.88 287.496 214.88 286.678Z" fill="#C2F2F2"/>
<path d="M202.989 298.52C202.989 297.703 203.655 297.04 204.475 297.04C205.296 297.04 205.962 297.703 205.962 298.52C205.962 299.338 205.296 300 204.475 300C203.655 300 202.989 299.338 202.989 298.52Z" fill="#C2F2F2"/>
<path d="M202.989 298.52C202.989 297.703 203.655 297.04 204.475 297.04C205.296 297.04 205.962 297.703 205.962 298.52C205.962 299.338 205.296 300 204.475 300C203.655 300 202.989 299.338 202.989 298.52Z" fill="#C2F2F2"/>
<path d="M202.989 274.836C202.989 274.019 203.655 273.356 204.475 273.356C205.296 273.356 205.962 274.019 205.962 274.836C205.962 275.654 205.296 276.317 204.475 276.317C203.655 276.317 202.989 275.654 202.989 274.836Z" fill="#C2F2F2"/>
<path d="M191.098 286.678C191.098 285.861 191.763 285.198 192.584 285.198C193.405 285.198 194.071 285.861 194.071 286.678C194.071 287.496 193.405 288.158 192.584 288.158C191.763 288.158 191.098 287.496 191.098 286.678Z" fill="#C2F2F2"/>
<path d="M167.316 286.678C167.316 285.861 167.981 285.198 168.802 285.198C169.623 285.198 170.289 285.861 170.289 286.678C170.289 287.496 169.623 288.158 168.802 288.158C167.981 288.158 167.316 287.496 167.316 286.678Z" fill="#C2F2F2"/>
<path d="M179.207 274.836C179.207 274.019 179.872 273.356 180.693 273.356C181.514 273.356 182.18 274.019 182.18 274.836C182.18 275.654 181.514 276.317 180.693 276.317C179.872 276.317 179.207 275.654 179.207 274.836Z" fill="#C2F2F2"/>
<path d="M167.316 262.995C167.316 262.177 167.981 261.514 168.802 261.514C169.623 261.514 170.289 262.177 170.289 262.995C170.289 263.812 169.623 264.475 168.802 264.475C167.981 264.475 167.316 263.812 167.316 262.995Z" fill="#C2F2F2"/>
<path d="M155.425 274.836C155.425 274.019 156.09 273.356 156.911 273.356C157.732 273.356 158.398 274.019 158.398 274.836C158.398 275.654 157.732 276.317 156.911 276.317C156.09 276.317 155.425 275.654 155.425 274.836Z" fill="#C2F2F2"/>
<path d="M143.534 262.995C143.534 262.177 144.199 261.514 145.02 261.514C145.841 261.514 146.506 262.177 146.506 262.995C146.506 263.812 145.841 264.475 145.02 264.475C144.199 264.475 143.534 263.812 143.534 262.995Z" fill="#C2F2F2"/>
<path d="M155.425 251.153C155.425 250.335 156.09 249.673 156.911 249.673C157.732 249.673 158.398 250.335 158.398 251.153C158.398 251.97 157.732 252.633 156.911 252.633C156.09 252.633 155.425 251.97 155.425 251.153Z" fill="#C2F2F2"/>
<path d="M143.534 239.311C143.534 238.493 144.199 237.831 145.02 237.831C145.841 237.831 146.506 238.493 146.506 239.311C146.506 240.128 145.841 240.791 145.02 240.791C144.199 240.791 143.534 240.128 143.534 239.311Z" fill="#C2F2F2"/>
<path d="M144.549 166.78C144.206 167.266 143.868 167.754 143.534 168.246M158.007 205.266C158.127 204.644 158.257 204.019 158.398 203.393M156.911 205.266C156.09 205.266 155.425 204.603 155.425 203.785C155.425 202.968 156.09 202.305 156.911 202.305C157.732 202.305 158.398 202.968 158.398 203.785C158.398 204.603 157.732 205.266 156.911 205.266ZM145.02 169.74C144.199 169.74 143.534 169.078 143.534 168.26C143.534 167.443 144.199 166.78 145.02 166.78C145.841 166.78 146.506 167.443 146.506 168.26C146.506 169.078 145.841 169.74 145.02 169.74ZM168.802 146.064C167.981 146.064 167.316 145.398 167.316 144.58C167.316 143.763 167.981 143.096 168.802 143.096C169.623 143.096 170.289 143.763 170.289 144.58C170.289 145.398 169.623 146.064 168.802 146.064ZM228.258 157.898C227.437 157.898 226.771 157.236 226.771 156.418C226.771 155.601 227.437 154.938 228.258 154.938C229.079 154.938 229.744 155.601 229.744 156.418C229.744 157.236 229.079 157.898 228.258 157.898ZM240.149 146.057C239.328 146.057 238.662 145.394 238.662 144.576C238.662 143.759 239.328 143.096 240.149 143.096C240.97 143.096 241.635 143.759 241.635 144.576C241.635 145.394 240.97 146.057 240.149 146.057ZM263.931 146.057C263.11 146.057 262.445 145.394 262.445 144.576C262.445 143.759 263.11 143.096 263.931 143.096C264.752 143.096 265.417 143.759 265.417 144.576C265.417 145.394 264.752 146.057 263.931 146.057ZM252.04 157.898C251.219 157.898 250.553 157.236 250.553 156.418C250.553 155.601 251.219 154.938 252.04 154.938C252.861 154.938 253.526 155.601 253.526 156.418C253.526 157.236 252.861 157.898 252.04 157.898ZM275.822 157.898C275.001 157.898 274.336 157.236 274.336 156.418C274.336 155.601 275.001 154.938 275.822 154.938C276.643 154.938 277.308 155.601 277.308 156.418C277.308 157.236 276.643 157.898 275.822 157.898ZM263.931 169.74C263.11 169.74 262.445 169.078 262.445 168.26C262.445 167.443 263.11 166.78 263.931 166.78C264.752 166.78 265.417 167.443 265.417 168.26C265.417 169.078 264.752 169.74 263.931 169.74ZM287.713 169.74C286.892 169.74 286.227 169.078 286.227 168.26C286.227 167.443 286.892 166.78 287.713 166.78C288.534 166.78 289.2 167.443 289.2 168.26C289.2 169.078 288.534 169.74 287.713 169.74ZM275.822 181.582C275.001 181.582 274.336 180.919 274.336 180.102C274.336 179.284 275.001 178.622 275.822 178.622C276.643 178.622 277.308 179.284 277.308 180.102C277.308 180.919 276.643 181.582 275.822 181.582ZM287.713 193.424C286.892 193.424 286.227 192.761 286.227 191.944C286.227 191.126 286.892 190.463 287.713 190.463C288.534 190.463 289.2 191.126 289.2 191.944C289.2 192.761 288.534 193.424 287.713 193.424ZM299.604 205.266C298.783 205.266 298.118 204.603 298.118 203.785C298.118 202.968 298.783 202.305 299.604 202.305C300.425 202.305 301.091 202.968 301.091 203.785C301.091 204.603 300.425 205.266 299.604 205.266ZM275.822 205.266C275.001 205.266 274.336 204.603 274.336 203.785C274.336 202.968 275.001 202.305 275.822 202.305C276.643 202.305 277.308 202.968 277.308 203.785C277.308 204.603 276.643 205.266 275.822 205.266ZM287.713 217.108C286.892 217.108 286.227 216.445 286.227 215.627C286.227 214.81 286.892 214.147 287.713 214.147C288.534 214.147 289.2 214.81 289.2 215.627C289.2 216.445 288.534 217.108 287.713 217.108ZM299.604 228.949C298.783 228.949 298.118 228.287 298.118 227.469C298.118 226.652 298.783 225.989 299.604 225.989C300.425 225.989 301.091 226.652 301.091 227.469C301.091 228.287 300.425 228.949 299.604 228.949ZM287.713 240.791C286.892 240.791 286.227 240.128 286.227 239.311C286.227 238.493 286.892 237.831 287.713 237.831C288.534 237.831 289.2 238.493 289.2 239.311C289.2 240.128 288.534 240.791 287.713 240.791ZM275.822 228.949C275.001 228.949 274.336 228.287 274.336 227.469C274.336 226.652 275.001 225.989 275.822 225.989C276.643 225.989 277.308 226.652 277.308 227.469C277.308 228.287 276.643 228.949 275.822 228.949ZM275.822 252.633C275.001 252.633 274.336 251.97 274.336 251.153C274.336 250.335 275.001 249.673 275.822 249.673C276.643 249.673 277.308 250.335 277.308 251.153C277.308 251.97 276.643 252.633 275.822 252.633ZM287.713 264.475C286.892 264.475 286.227 263.812 286.227 262.995C286.227 262.177 286.892 261.514 287.713 261.514C288.534 261.514 289.2 262.177 289.2 262.995C289.2 263.812 288.534 264.475 287.713 264.475ZM275.822 276.317C275.001 276.317 274.336 275.654 274.336 274.836C274.336 274.019 275.001 273.356 275.822 273.356C276.643 273.356 277.308 274.019 277.308 274.836C277.308 275.654 276.643 276.317 275.822 276.317ZM263.931 264.475C263.11 264.475 262.445 263.812 262.445 262.995C262.445 262.177 263.11 261.514 263.931 261.514C264.752 261.514 265.417 262.177 265.417 262.995C265.417 263.812 264.752 264.475 263.931 264.475ZM263.931 288.158C263.11 288.158 262.445 287.496 262.445 286.678C262.445 285.861 263.11 285.198 263.931 285.198C264.752 285.198 265.417 285.861 265.417 286.678C265.417 287.496 264.752 288.158 263.931 288.158ZM252.04 276.317C251.219 276.317 250.553 275.654 250.553 274.836C250.553 274.019 251.219 273.356 252.04 273.356C252.861 273.356 253.526 274.019 253.526 274.836C253.526 275.654 252.861 276.317 252.04 276.317ZM240.149 288.158C239.328 288.158 238.662 287.496 238.662 286.678C238.662 285.861 239.328 285.198 240.149 285.198C240.97 285.198 241.635 285.861 241.635 286.678C241.635 287.496 240.97 288.158 240.149 288.158ZM228.258 276.317C227.437 276.317 226.771 275.654 226.771 274.836C226.771 274.019 227.437 273.356 228.258 273.356C229.079 273.356 229.744 274.019 229.744 274.836C229.744 275.654 229.079 276.317 228.258 276.317ZM228.258 300C227.437 300 226.771 299.338 226.771 298.52C226.771 297.703 227.437 297.04 228.258 297.04C229.079 297.04 229.744 297.703 229.744 298.52C229.744 299.338 229.079 300 228.258 300ZM216.367 288.158C215.546 288.158 214.88 287.496 214.88 286.678C214.88 285.861 215.546 285.198 216.367 285.198C217.187 285.198 217.853 285.861 217.853 286.678C217.853 287.496 217.187 288.158 216.367 288.158ZM204.475 300C203.655 300 202.989 299.338 202.989 298.52C202.989 297.703 203.655 297.04 204.475 297.04C205.296 297.04 205.962 297.703 205.962 298.52C205.962 299.338 205.296 300 204.475 300ZM204.475 276.317C203.655 276.317 202.989 275.654 202.989 274.836C202.989 274.019 203.655 273.356 204.475 273.356C205.296 273.356 205.962 274.019 205.962 274.836C205.962 275.654 205.296 276.317 204.475 276.317ZM192.584 288.158C191.763 288.158 191.098 287.496 191.098 286.678C191.098 285.861 191.763 285.198 192.584 285.198C193.405 285.198 194.071 285.861 194.071 286.678C194.071 287.496 193.405 288.158 192.584 288.158ZM168.802 288.158C167.981 288.158 167.316 287.496 167.316 286.678C167.316 285.861 167.981 285.198 168.802 285.198C169.623 285.198 170.289 285.861 170.289 286.678C170.289 287.496 169.623 288.158 168.802 288.158ZM180.693 276.317C179.872 276.317 179.207 275.654 179.207 274.836C179.207 274.019 179.872 273.356 180.693 273.356C181.514 273.356 182.18 274.019 182.18 274.836C182.18 275.654 181.514 276.317 180.693 276.317ZM168.802 264.475C167.981 264.475 167.316 263.812 167.316 262.995C167.316 262.177 167.981 261.514 168.802 261.514C169.623 261.514 170.289 262.177 170.289 262.995C170.289 263.812 169.623 264.475 168.802 264.475ZM156.911 276.317C156.09 276.317 155.425 275.654 155.425 274.836C155.425 274.019 156.09 273.356 156.911 273.356C157.732 273.356 158.398 274.019 158.398 274.836C158.398 275.654 157.732 276.317 156.911 276.317ZM145.02 264.475C144.199 264.475 143.534 263.812 143.534 262.995C143.534 262.177 144.199 261.514 145.02 261.514C145.841 261.514 146.506 262.177 146.506 262.995C146.506 263.812 145.841 264.475 145.02 264.475ZM156.911 252.633C156.09 252.633 155.425 251.97 155.425 251.153C155.425 250.335 156.09 249.673 156.911 249.673C157.732 249.673 158.398 250.335 158.398 251.153C158.398 251.97 157.732 252.633 156.911 252.633ZM145.02 240.791C144.199 240.791 143.534 240.128 143.534 239.311C143.534 238.493 144.199 237.831 145.02 237.831C145.841 237.831 146.506 238.493 146.506 239.311C146.506 240.128 145.841 240.791 145.02 240.791ZM156.425 228.949H157.398C157.95 228.949 158.398 228.502 158.398 227.949V226.989C158.398 226.437 157.95 225.989 157.398 225.989H156.425C155.872 225.989 155.425 226.437 155.425 226.989V227.949C155.425 228.502 155.872 228.949 156.425 228.949ZM132.643 228.949H133.615C134.168 228.949 134.615 228.502 134.615 227.949V226.989C134.615 226.437 134.168 225.989 133.615 225.989H132.643C132.09 225.989 131.643 226.437 131.643 226.989V227.949C131.643 228.502 132.09 228.949 132.643 228.949ZM144.534 217.108H145.506C146.059 217.108 146.506 216.66 146.506 216.108V215.147C146.506 214.595 146.059 214.147 145.506 214.147H144.534C143.981 214.147 143.534 214.595 143.534 215.147V216.108C143.534 216.66 143.981 217.108 144.534 217.108ZM134.615 204.266V203.305C134.615 202.753 134.168 202.305 133.615 202.305H132.643C132.09 202.305 131.643 202.753 131.643 203.305V204.266C131.643 204.818 132.09 205.266 132.643 205.266H133.615C134.168 205.266 134.615 204.818 134.615 204.266ZM144.534 193.424H145.506C146.059 193.424 146.506 192.976 146.506 192.424V191.463C146.506 190.911 146.059 190.463 145.506 190.463H144.534C143.981 190.463 143.534 190.911 143.534 191.463V192.424C143.534 192.976 143.981 193.424 144.534 193.424ZM156.425 181.582H157.398C157.95 181.582 158.398 181.134 158.398 180.582V179.622C158.398 179.069 157.95 178.622 157.398 178.622H156.425C155.872 178.622 155.425 179.069 155.425 179.622V180.582C155.425 181.134 155.872 181.582 156.425 181.582ZM156.422 157.901L157.395 157.903C157.948 157.905 158.398 157.457 158.398 156.903V155.938C158.398 155.386 157.95 154.938 157.398 154.938H156.425C155.872 154.938 155.425 155.386 155.425 155.938V156.901C155.425 157.452 155.871 157.9 156.422 157.901ZM168.316 169.74H169.289C169.841 169.74 170.289 169.293 170.289 168.74V167.78C170.289 167.228 169.841 166.78 169.289 166.78H168.316C167.764 166.78 167.316 167.228 167.316 167.78V168.74C167.316 169.293 167.764 169.74 168.316 169.74ZM180.207 157.906H181.18C181.732 157.906 182.18 157.458 182.18 156.906V155.938C182.18 155.386 181.732 154.938 181.18 154.938H180.207C179.655 154.938 179.207 155.386 179.207 155.938V156.906C179.207 157.458 179.655 157.906 180.207 157.906ZM192.098 146.057H193.071C193.623 146.057 194.071 145.609 194.071 145.057V144.096C194.071 143.544 193.623 143.096 193.071 143.096H192.098C191.546 143.096 191.098 143.544 191.098 144.096V145.057C191.098 145.609 191.546 146.057 192.098 146.057ZM202.989 156.906V155.938C202.989 155.386 203.437 154.938 203.989 154.938H204.962C205.514 154.938 205.962 155.386 205.962 155.938V156.906C205.962 157.458 205.514 157.906 204.962 157.906H203.989C203.437 157.906 202.989 157.458 202.989 156.906ZM215.88 146.057H216.853C217.405 146.057 217.853 145.609 217.853 145.057V144.096C217.853 143.544 217.405 143.096 216.853 143.096H215.88C215.328 143.096 214.88 143.544 214.88 144.096V145.057C214.88 145.609 215.328 146.057 215.88 146.057ZM226.771 132.254V133.215C226.771 133.767 227.219 134.215 227.771 134.215H228.744C229.296 134.215 229.744 133.767 229.744 133.215V132.254C229.744 131.702 229.296 131.254 228.744 131.254H227.771C227.219 131.254 226.771 131.702 226.771 132.254ZM202.989 133.215V132.254C202.989 131.702 203.437 131.254 203.989 131.254H204.962C205.514 131.254 205.962 131.702 205.962 132.254V133.215C205.962 133.767 205.514 134.215 204.962 134.215H203.989C203.437 134.215 202.989 133.767 202.989 133.215Z" stroke="#C2F2F2"/>
<path fill-rule="evenodd" clip-rule="evenodd" d="M117.522 97.2091C117.522 97.2091 153.938 61.6836 217.11 61.6836C280.281 61.6836 317.441 97.9492 317.441 97.9492C317.441 97.9492 305.667 117.932 318.184 132.735C330.701 147.537 353.114 142.356 353.114 142.356C353.114 142.356 373.18 173.441 371.694 215.627C370.207 257.814 353.114 288.158 353.114 288.158C353.114 288.158 333.791 280.757 319.67 295.56C305.55 310.362 316.697 331.825 316.697 331.825C316.697 331.825 277.308 369.571 212.65 368.831C147.993 368.091 117.522 332.565 117.522 332.565C117.522 332.565 127.926 311.842 114.549 296.3C101.171 280.757 81.1052 288.158 81.1052 288.158C81.1052 288.158 61.7822 260.774 61.7822 215.627C61.7822 170.48 81.1052 142.356 81.1052 142.356C81.1052 142.356 99.5922 150.497 114.549 133.475C129.506 116.452 117.522 97.2091 117.522 97.2091ZM135.358 143.836C160.627 114.232 194.814 108.311 217.11 108.311C239.405 108.311 277.278 117.192 300.347 146.057C323.416 174.921 324.129 200.085 324.129 215.627C324.129 231.17 316.697 258.582 299.604 281.497C282.511 304.412 252.04 322.204 212.65 322.204C173.261 322.204 147.993 298.957 133.129 281.497C118.265 264.038 109.347 237.831 109.347 215.627C109.347 193.424 110.09 173.441 135.358 143.836Z" fill="#9DE0E0" stroke="#9DE0E0"/>
<path fill-rule="evenodd" clip-rule="evenodd" d="M215.634 38C308.533 38 355.726 103.13 355.726 103.13C355.726 103.13 394 150.497 394 216.367C394 246.858 385.401 273.385 376.163 293.083C372.097 301.755 367.907 309.104 364.272 314.885C358.327 324.342 353.868 329.605 353.868 329.605C353.868 329.605 306.302 390.456 221.579 393.853C219.617 393.931 217.635 393.979 215.634 393.995C213.633 394.01 211.651 393.991 209.688 393.939C124.9 391.672 75.9134 327.385 75.9134 327.385C75.9134 327.385 72.1503 323.421 66.9951 315.831C63.435 310.589 59.211 303.617 55.104 295.028C46.1004 276.196 37.6595 249.586 38.0106 216.367C38.7537 146.057 75.9134 103.13 75.9134 103.13C75.9134 103.13 122.735 38 215.634 38ZM49.1585 216.367C49.1585 162.339 74.427 126.074 74.427 126.074C74.427 126.074 92.4123 141.616 104.898 126.074C117.384 110.531 98.2092 97.9492 98.2092 97.9492C98.2092 97.9492 143.544 50.5819 215.634 49.8418C287.723 49.1017 333.058 97.9492 333.058 97.9492C333.058 97.9492 313.884 110.531 326.369 126.074C338.855 141.616 355.726 126.074 355.726 126.074C355.726 126.074 383.595 169 382.852 216.367C382.109 263.735 355.354 305.181 355.354 305.181C355.354 305.181 339.747 289.803 327.113 305.181C314.478 320.559 333.801 332.565 333.801 332.565C333.801 332.565 292.183 380.673 215.634 381.413C139.085 382.153 98.2092 332.565 98.2092 332.565C98.2092 332.565 118.374 319.309 104.155 304.441C89.936 289.573 75.9134 306.661 75.9134 306.661C75.9134 306.661 49.1585 270.396 49.1585 216.367Z" fill="#1B6B6B"/>
<path d="M55.104 295.028L66.9951 315.831M55.104 295.028C59.211 303.617 63.435 310.589 66.9951 315.831M55.104 295.028C46.1004 276.196 37.6595 249.586 38.0106 216.367C38.7537 146.057 75.9134 103.13 75.9134 103.13C75.9134 103.13 122.735 38 215.634 38C308.533 38 355.726 103.13 355.726 103.13C355.726 103.13 394 150.497 394 216.367C394 246.858 385.401 273.385 376.163 293.083M66.9951 315.831C72.1503 323.421 75.9134 327.385 75.9134 327.385C75.9134 327.385 124.9 391.672 209.688 393.939M209.688 393.939L221.579 393.853M209.688 393.939C211.651 393.991 213.633 394.01 215.634 393.995C217.635 393.979 219.617 393.931 221.579 393.853M221.579 393.853C306.302 390.456 353.868 329.605 353.868 329.605C353.868 329.605 358.327 324.342 364.272 314.885M376.163 293.083L364.272 314.885M376.163 293.083C372.097 301.755 367.907 309.104 364.272 314.885M74.427 126.074C74.427 126.074 49.1585 162.339 49.1585 216.367C49.1585 270.396 75.9134 306.661 75.9134 306.661C75.9134 306.661 89.936 289.573 104.155 304.441C118.374 319.309 98.2092 332.565 98.2092 332.565C98.2092 332.565 139.085 382.153 215.634 381.413C292.183 380.673 333.801 332.565 333.801 332.565C333.801 332.565 314.478 320.559 327.113 305.181C339.747 289.803 355.354 305.181 355.354 305.181C355.354 305.181 382.109 263.735 382.852 216.367C383.595 169 355.726 126.074 355.726 126.074C355.726 126.074 338.855 141.616 326.369 126.074C313.884 110.531 333.058 97.9492 333.058 97.9492C333.058 97.9492 287.723 49.1017 215.634 49.8418C143.544 50.5819 98.2092 97.9492 98.2092 97.9492C98.2092 97.9492 117.384 110.531 104.898 126.074C92.4123 141.616 74.427 126.074 74.427 126.074Z" stroke="#1B6B6B"/>
<path fill-rule="evenodd" clip-rule="evenodd" d="M216.366 156.418C220.02 156.418 223.487 156.644 226.77 157.075C261.55 161.643 275.821 189.253 275.821 215.627C275.821 244.492 254.268 274.836 216.366 274.836C178.463 274.836 156.91 240.051 156.91 215.627C156.91 212.098 157.267 208.352 158.006 204.526C158.126 203.903 158.256 203.279 158.397 202.653C162.852 182.794 177.577 161.391 205.961 157.166C209.245 156.677 212.711 156.418 216.366 156.418ZM246.093 214.887C246.093 198.605 232.716 185.283 216.366 185.283C200.015 185.283 186.638 199.345 186.638 214.887C186.638 230.43 200.015 244.492 216.366 244.492C232.716 244.492 246.093 231.17 246.093 214.887Z" fill="#1B6B6B" stroke="#1B6B6B"/>
<path fill-rule="evenodd" clip-rule="evenodd" d="M214.879 120.893C269.875 120.893 311.494 165.3 311.494 217.107C311.494 268.915 272.848 311.842 214.879 311.842C156.91 311.842 119.75 265.215 119.75 217.107C119.75 169 159.882 120.893 214.879 120.893ZM304.805 217.107C304.805 166.78 259.47 128.294 214.879 127.554C197.844 127.271 180.918 133.469 166.504 143.836C166.278 143.999 166.053 144.162 165.828 144.327C157.118 150.705 149.35 158.608 143.061 167.52C142.718 168.006 142.38 168.495 142.046 168.986C132.353 183.259 126.439 199.983 126.439 217.107C126.439 263.735 165.828 305.181 214.879 305.181C263.929 305.181 304.805 267.435 304.805 217.107Z" fill="#1B6B6B" stroke="#1B6B6B"/>
</g>
<defs>
<filter id="filter0_dii_48_619" x="35.5" y="35.5" width="367" height="367" filterUnits="userSpaceOnUse" color-interpolation-filters="sRGB">
<feFlood flood-opacity="0" result="BackgroundImageFix"/>
<feColorMatrix in="SourceAlpha" type="matrix" values="0 0 0 0 0 0 0 0 0 0 0 0 0 0 0 0 0 0 127 0" result="hardAlpha"/>
<feOffset dx="4" dy="4"/>
<feGaussianBlur stdDeviation="2"/>
<feComposite in2="hardAlpha" operator="out"/>
<feColorMatrix type="matrix" values="0 0 0 0 0 0 0 0 0 0 0 0 0 0 0 0 0 0 0.15 0"/>
<feBlend mode="normal" in2="BackgroundImageFix" result="effect1_dropShadow_48_619"/>
<feBlend mode="normal" in="SourceGraphic" in2="effect1_dropShadow_48_619" result="shape"/>
<feColorMatrix in="SourceAlpha" type="matrix" values="0 0 0 0 0 0 0 0 0 0 0 0 0 0 0 0 0 0 127 0" result="hardAlpha"/>
<feOffset dx="2" dy="2"/>
<feGaussianBlur stdDeviation="2"/>
<feComposite in2="hardAlpha" operator="arithmetic" k2="-1" k3="1"/>
<feColorMatrix type="matrix" values="0 0 0 0 0.95 0 0 0 0 1 0 0 0 0 1 0 0 0 0.15 0"/>
<feBlend mode="normal" in2="shape" result="effect2_innerShadow_48_619"/>
<feColorMatrix in="SourceAlpha" type="matrix" values="0 0 0 0 0 0 0 0 0 0 0 0 0 0 0 0 0 0 127 0" result="hardAlpha"/>
<feOffset dx="-2" dy="-2"/>
<feGaussianBlur stdDeviation="2"/>
<feComposite in2="hardAlpha" operator="arithmetic" k2="-1" k3="1"/>
<feColorMatrix type="matrix" values="0 0 0 0 0.0210526 0 0 0 0 0.05 0 0 0 0 0.05 0 0 0 0.15 0"/>
<feBlend mode="normal" in2="effect2_innerShadow_48_619" result="effect3_innerShadow_48_619"/>
</filter>
</defs>
</svg>
