<svg width="418" height="448" viewBox="0 0 418 448" fill="none" xmlns="http://www.w3.org/2000/svg">
<path fill-rule="evenodd" clip-rule="evenodd" d="M94.5 106.5C94.5 106.5 136.586 63 208.262 63C279.938 63 325.5 106 325.5 106C325.5 106 316.826 123.5 329.149 140C341.473 156.5 362 152.5 362 152.5C362 152.5 384.917 185.639 384.917 238.57C384.917 291.5 364 324.5 364 324.5C364 324.5 346.536 318.412 331 334.5C315.464 350.588 326 372 326 372C326 372 281.139 415.832 207.776 414.988C134.414 414.145 94.5 372 94.5 372C94.5 372 104.625 351.563 90 334.5C75.3747 317.437 55.5 325.5 55.5 325.5C55.5 325.5 33 290.009 33 238.57C33 187.131 55.5 154 55.5 154C55.5 154 77.5 159.5 91 143.5C104.5 127.5 94.5 106.5 94.5 106.5ZM208.747 115.652C281.571 116.121 329.149 173.179 329.149 238.57C329.149 303.96 271.861 359.999 204.461 359.999C137.062 359.999 85.9184 300.547 86.4039 238.57C86.8894 176.592 135.924 115.183 208.747 115.652Z" fill="#1F2124" stroke="#1F2124"/>
<path fill-rule="evenodd" clip-rule="evenodd" d="M208.572 31C317.128 31 372.275 107.107 372.275 107.107C372.275 107.107 417 162.458 417 239.429C417 275.059 406.951 306.056 396.157 329.075C391.405 339.208 386.509 347.795 382.262 354.551C375.314 365.602 370.104 371.752 370.104 371.752C370.104 371.752 314.522 442.858 215.52 446.828C213.227 446.92 210.911 446.976 208.572 446.994C206.234 447.012 203.918 446.99 201.624 446.928C102.546 444.28 45.3033 369.157 45.3033 369.157C45.3033 369.157 40.9059 364.525 34.882 355.656C30.7218 349.531 25.7859 341.384 20.9868 331.347C10.4656 309.341 0.602085 278.246 1.01237 239.429C1.88078 157.268 45.3033 107.107 45.3033 107.107C45.3033 107.107 100.016 31 208.572 31ZM17.5 239.429C17.5 179.859 45.3033 141 45.3033 141C45.3033 141 65.5 153.172 80.5 134.5C95.5 115.828 79 98 79 98C79 98 127.214 48.3353 208.572 47.5C289.93 46.6647 340.5 98.5 340.5 98.5C340.5 98.5 323.942 113.335 337.971 133.917C352 154.5 374.5 140.5 374.5 140.5C374.5 140.5 402.868 184.079 402 239.429C401.132 294.78 375.5 337.5 375.5 337.5C375.5 337.5 356.477 322 339 341.5C321.523 361 340.5 379 340.5 379C340.5 379 295 430 208.572 430C122.144 430 80 379.5 80 379.5C80 379.5 96.5 360.253 80 343C63.5 325.747 45.3033 338.5 45.3033 338.5C45.3033 338.5 17.5 299 17.5 239.429Z" fill="#1F2124"/>
<path d="M20.9868 331.347L34.882 355.656M20.9868 331.347C25.7859 341.384 30.7218 349.531 34.882 355.656M20.9868 331.347C10.4656 309.341 0.602085 278.246 1.01237 239.429C1.88078 157.268 45.3033 107.107 45.3033 107.107C45.3033 107.107 100.016 31 208.572 31C317.128 31 372.275 107.107 372.275 107.107C372.275 107.107 417 162.458 417 239.429C417 275.059 406.951 306.056 396.157 329.075M34.882 355.656C40.9059 364.525 45.3033 369.157 45.3033 369.157C45.3033 369.157 102.546 444.28 201.624 446.928M201.624 446.928L215.52 446.828M201.624 446.928C203.918 446.99 206.234 447.012 208.572 446.994C210.911 446.976 213.227 446.92 215.52 446.828M215.52 446.828C314.522 442.858 370.104 371.752 370.104 371.752C370.104 371.752 375.314 365.602 382.262 354.551M396.157 329.075L382.262 354.551M396.157 329.075C391.405 339.208 386.509 347.795 382.262 354.551M45.3033 141C45.3033 141 17.5 179.859 17.5 239.429C17.5 299 45.3033 338.5 45.3033 338.5C45.3033 338.5 63.5 325.747 80 343C96.5 360.253 80 379.5 80 379.5C80 379.5 122.144 430 208.572 430C295 430 340.5 379 340.5 379C340.5 379 321.523 361 339 341.5C356.477 322 375.5 337.5 375.5 337.5C375.5 337.5 401.132 294.78 402 239.429C402.868 184.079 374.5 140.5 374.5 140.5C374.5 140.5 352 154.5 337.971 133.917C323.942 113.335 340.5 98.5 340.5 98.5C340.5 98.5 289.93 46.6647 208.572 47.5C127.214 48.3353 79 98 79 98C79 98 95.5 115.828 80.5 134.5C65.5 153.172 45.3033 141 45.3033 141Z" stroke="#1F2124"/>
<path fill-rule="evenodd" clip-rule="evenodd" d="M209.991 129C276.28 129 319 181.049 319 238.5C319 295.951 272.843 348 209.991 348C147.139 348 100 298.406 100 238.5C100 178.594 143.702 129 209.991 129ZM312.126 238.5C312.126 179.576 263.513 135.874 209.991 135.874C156.469 135.874 107.577 177.612 106.874 238.5C106.172 299.388 159.415 341.126 209.991 341.126C260.567 341.126 312.126 297.424 312.126 238.5Z" fill="#1F2124" stroke="#1F2124"/>
<path d="M161 161V317L287 239.491L161 161Z" fill="#1F2124" stroke="#1F2124" stroke-width="0.5"/>
<path d="M25.6172 89.6333L20.3586 95.6581L17 92.7525L31.5926 76.0337L34.9512 78.9393L29.7189 84.934L45.9976 99.017L41.8959 103.716L25.6172 89.6333Z" fill="#1F2124"/>
<path d="M69.8686 76.6609C64.0951 81.4415 59.602 81.9089 56.3895 78.0633L44.3166 63.6116L49.1244 59.6306L61.1973 74.0824C61.9491 74.9824 62.758 75.3681 63.6238 75.2395C64.493 75.0734 65.6468 74.3949 67.085 73.204C68.5027 72.0301 69.3523 71.0499 69.6336 70.2632C69.9183 69.4392 69.6848 68.5771 68.9329 67.677L56.86 53.2253L61.6679 49.2443L73.7408 63.6961C76.9533 67.5417 75.6627 71.8633 69.8686 76.6609Z" fill="#1F2124"/>
<path d="M78.3147 37.6765L83.8239 34.5659L103.533 43.7623L94.7725 28.3839L99.6192 25.6474L112.453 48.1769L106.944 51.2875L87.0966 41.848L95.9954 57.4694L91.1487 60.206L78.3147 37.6765Z" fill="#1F2124"/>
<path d="M118.152 17.4153L136.851 10.8054L138.34 14.9799L125.534 19.5067L127.532 25.1103L139.091 21.0241L140.58 25.1986L129.021 29.2848L131.261 35.5653L144.445 30.9049L145.933 35.0794L126.857 41.8229L118.152 17.4153Z" fill="#1F2124"/>
<path d="M187.173 27.5103C184.699 27.7471 181.617 27.8017 177.927 27.6738L177.47 22.9466C182.058 23.2022 185.177 23.2511 186.827 23.0932C190.284 22.7621 191.928 21.7094 191.757 19.935L191.596 18.2665C191.514 17.4191 191.198 16.7944 190.65 16.3926C190.127 15.9882 189.228 15.8471 187.951 15.9694L184.918 16.2597C179.226 16.8047 176.162 14.8261 175.727 10.3239L175.543 8.4171C175.326 6.16601 176.109 4.42045 177.896 3.18024C179.682 1.94011 182.624 1.12394 186.721 0.731717C188.849 0.528013 191.566 0.441634 194.871 0.472675L195.316 5.08079C191.253 4.98867 188.463 5.01514 186.947 5.16031C184.845 5.36153 183.452 5.66861 182.768 6.08166C182.031 6.52634 181.702 7.14584 181.779 7.94035L181.956 9.7677C182.086 11.1184 183.295 11.6842 185.583 11.4652L188.695 11.1672C191.648 10.8845 193.841 11.2225 195.277 12.1809C196.711 13.1394 197.537 14.7309 197.751 16.9555L197.916 18.6637C198.213 21.7358 197.31 23.9205 195.207 25.2176C194.196 25.8757 193.049 26.3731 191.767 26.7096C190.513 27.0702 188.982 27.3371 187.173 27.5103Z" fill="#1F2124"/>
<path d="M214.883 0L225.28 0.711773C227.813 0.885131 229.8 1.19454 231.243 1.64C232.712 2.08724 233.75 2.77164 234.356 3.6932C234.99 4.59 235.255 5.80818 235.148 7.34767L234.81 12.2448C234.693 13.9436 234.227 15.2451 233.415 16.1496C232.63 17.0559 231.423 17.6533 229.796 17.942C228.195 18.2324 226.049 18.2855 223.356 18.1012L219.917 17.8658L219.337 26.2666L213.098 25.8395L214.883 0ZM224.17 13.8766C225.796 13.9879 226.955 13.8806 227.648 13.5547C228.341 13.2021 228.721 12.5614 228.785 11.6324L229.071 7.4917C229.13 6.64233 228.848 6.06303 228.227 5.75379C227.631 5.44634 226.455 5.23246 224.695 5.112L220.816 4.84646L220.211 13.6056L224.17 13.8766Z" fill="#1F2124"/>
<path d="M253.189 4.24358L259.32 5.46999L254.195 30.863L248.064 29.6366L253.189 4.24358Z" fill="#1F2124"/>
<path d="M278.224 10.0061L284.191 12.1195L290.098 32.9764L296.05 16.3196L301.3 18.1789L292.58 42.5813L286.613 40.4678L280.8 19.3477L274.754 36.2677L269.505 34.4085L278.224 10.0061Z" fill="#1F2124"/>
<path d="M319.95 26.7909L325.427 29.958L327.392 51.5396L336.311 36.252L341.129 39.0382L328.062 61.4347L322.585 58.2677L320.761 36.4445L311.701 51.9737L306.883 49.1875L319.95 26.7909Z" fill="#1F2124"/>
<path d="M357.564 50.7685L372.753 63.4794L369.89 66.8704L359.488 58.1653L355.645 62.7172L365.035 70.5749L362.172 73.9659L352.782 66.1082L348.475 71.21L359.184 80.1719L356.321 83.5629L340.825 70.5951L357.564 50.7685Z" fill="#1F2124"/>
<path d="M386.311 76.623L393.943 85.4586C396.207 88.0806 397.521 90.2546 397.884 91.98C398.266 93.6873 397.708 95.1835 396.208 96.4672L392.743 99.4335C391.588 100.422 390.319 100.789 388.936 100.535C387.591 100.283 386.243 99.5588 384.894 98.3638L381.692 111L376.988 105.553L380.295 93.7741L378.413 91.5954L370.663 98.2306L366.585 93.5102L386.311 76.623ZM385.046 92.97C386.004 94.079 386.799 94.7141 387.431 94.8752C388.084 95.0182 388.836 94.7258 389.687 93.9972L391.085 92.8003C391.814 92.1758 392.118 91.5284 391.999 90.8596C391.917 90.1931 391.422 89.3349 390.517 88.2864L387.014 84.2317L381.544 88.9153L385.046 92.97Z" fill="#1F2124"/>
</svg>
