<svg width="480" height="485" viewBox="0 0 480 485" fill="none" xmlns="http://www.w3.org/2000/svg">
<ellipse cx="240" cy="242.5" rx="240" ry="242.5" fill="#F2FAF7"/>
<path d="M192 169V325L318 247.491L192 169Z" fill="#1F2124" stroke="#1F2124" stroke-width="0.5"/>
<path d="M238.675 139.067C301.606 139.067 347.934 188.882 347.934 248.305C347.934 307.698 305.13 354.933 238.675 354.933C172.391 354.933 132.067 303.517 132.067 248.305C132.067 193.066 175.909 139.067 238.675 139.067Z" stroke="#1F2124" stroke-width="6"/>
<path d="M124.867 109.928C124.719 109.657 124.593 109.439 124.498 109.276C124.56 109.215 124.633 109.143 124.716 109.062C125.046 108.742 125.54 108.27 126.196 107.67C127.509 106.468 129.469 104.749 132.053 102.684C137.222 98.5555 144.884 93.047 154.853 87.5376C174.791 76.519 203.947 65.5 240.82 65.5C277.693 65.5 306.655 76.5188 326.398 87.5366C336.27 93.0456 343.836 98.5537 348.932 102.682C351.479 104.746 353.409 106.465 354.701 107.667C355.346 108.268 355.832 108.739 356.156 109.059C356.239 109.141 356.311 109.213 356.373 109.275C356.274 109.446 356.142 109.678 355.985 109.969C355.625 110.635 355.131 111.605 354.593 112.831C353.516 115.282 352.257 118.76 351.526 122.871C350.064 131.099 350.722 141.879 359.217 151.988C367.713 162.099 377.844 164.304 385.835 163.975C389.825 163.81 393.281 163.014 395.74 162.26C396.97 161.883 397.952 161.516 398.628 161.242C398.889 161.136 399.104 161.045 399.271 160.972C399.283 160.992 399.296 161.013 399.309 161.035C399.484 161.326 399.741 161.76 400.069 162.33C400.723 163.471 401.657 165.159 402.773 167.34C405.005 171.702 407.965 178.036 410.871 185.915C416.683 201.674 422.275 223.599 421.408 248.28C420.54 272.985 415.159 294.713 409.993 310.265C407.411 318.041 404.883 324.271 403.002 328.554C402.061 330.696 401.282 332.352 400.739 333.47C400.477 334.011 400.269 334.427 400.125 334.711C399.995 334.642 399.839 334.561 399.657 334.47C399.057 334.171 398.182 333.768 397.07 333.348C394.847 332.509 391.676 331.601 387.874 331.326C380.252 330.775 370.14 332.77 360.112 342.847C350.053 352.957 349.168 363.971 350.805 372.437C351.621 376.662 353.065 380.252 354.303 382.785C354.923 384.052 355.492 385.057 355.907 385.747C356.092 386.054 356.246 386.298 356.361 386.476C356.306 386.532 356.243 386.596 356.172 386.667C355.861 386.981 355.393 387.442 354.77 388.029C353.523 389.204 351.655 390.885 349.176 392.901C344.217 396.933 336.816 402.303 327.054 407.648C307.533 418.336 278.572 428.921 240.826 428.487C203.075 428.054 173.916 417.252 154.197 406.562C144.337 401.216 136.838 395.899 131.807 391.921C129.291 389.932 127.392 388.278 126.124 387.123C125.49 386.545 125.014 386.092 124.697 385.785C124.633 385.723 124.576 385.667 124.525 385.617C124.636 385.463 124.778 385.259 124.946 385.009C125.364 384.387 125.939 383.477 126.575 382.319C127.845 380.002 129.36 376.683 130.333 372.676C132.283 364.649 132.057 353.867 123.392 342.89C114.721 331.906 104.153 329.479 95.7665 329.809C91.5809 329.973 87.94 330.824 85.3461 331.632C84.0484 332.036 83.0108 332.431 82.2957 332.725C81.9953 332.849 81.7517 332.955 81.5695 333.037C81.563 333.027 81.5564 333.017 81.5496 333.008C81.3806 332.761 81.1317 332.391 80.8143 331.901C80.1794 330.92 79.2703 329.457 78.1785 327.535C75.9948 323.69 73.0802 318.009 70.1646 310.675C64.3335 296.006 58.5 274.727 58.5 248.298C58.5 221.87 64.5495 199.725 70.5993 184.186C73.624 176.417 76.648 170.302 78.9143 166.131C80.0474 164.046 80.991 162.447 81.6503 161.371C81.98 160.833 82.2385 160.425 82.4142 160.153C82.4285 160.131 82.4423 160.11 82.4554 160.089C82.6042 160.15 82.7933 160.224 83.0204 160.308C83.6359 160.536 84.5309 160.839 85.6579 161.141C87.911 161.746 91.097 162.35 94.8333 162.35C102.319 162.35 111.995 159.923 120.77 150.27C129.563 140.597 130.445 130.247 129.127 122.334C128.468 118.383 127.261 115.038 126.22 112.681C125.699 111.502 125.218 110.568 124.867 109.928ZM240.825 121.7C158.1 120.83 114.354 189.59 113.833 248.293C113.312 307.039 162.463 372.988 240.825 372.3C319.19 371.612 364.433 307.89 364.433 248.298C364.433 188.731 323.546 122.57 240.825 121.7Z" fill="#1F2124" stroke="#1F2124"/>
<path d="M71.2843 142.31L74.4667 144.733C71.2843 142.31 71.2832 142.311 71.2821 142.313L71.2792 142.317L71.2714 142.327L71.248 142.358C71.2288 142.384 71.2027 142.419 71.1698 142.463C71.1039 142.552 71.0111 142.678 70.893 142.841C70.6568 143.168 70.3196 143.644 69.8959 144.266C69.0485 145.508 67.8547 147.333 66.4306 149.712C63.5828 154.468 59.8101 161.448 56.0447 170.427C48.5142 188.384 41.0002 214.368 41.0002 246.565C41.0002 278.742 48.2888 304.714 55.5952 322.665C59.2486 331.642 62.9092 338.62 65.6727 343.376C67.0547 345.755 68.2132 347.579 69.0355 348.821C69.4467 349.443 69.774 349.919 70.0032 350.246C70.1179 350.409 70.208 350.536 70.2719 350.624C70.3038 350.669 70.3292 350.704 70.3478 350.729L70.3706 350.76L70.3781 350.771L70.3809 350.774C70.3821 350.776 70.3831 350.777 73.6 348.4L70.3831 350.777L72.3814 353.481L75.3784 351.983L75.38 351.982L75.3835 351.98L75.3859 351.979L75.3889 351.978L75.397 351.974C75.4189 351.963 75.4597 351.944 75.5185 351.917C75.6362 351.862 75.8256 351.777 76.0801 351.669C76.5898 351.453 77.3555 351.15 78.3245 350.829C80.2741 350.184 82.9823 349.485 86.0449 349.246C92.108 348.772 99.3405 350.077 105.207 357.043C111.019 363.944 110.901 371.311 109.187 377.309C108.323 380.334 107.064 382.933 106.01 384.784C105.486 385.704 105.021 386.424 104.697 386.902C104.535 387.141 104.408 387.318 104.328 387.429C104.287 387.484 104.259 387.523 104.243 387.544L104.235 387.554L104.233 387.557L104.231 387.559L104.229 387.562L104.229 387.562L102.194 390.195L104.427 392.676L107.4 390C104.427 392.676 104.428 392.677 104.429 392.679L104.433 392.683L104.445 392.696L104.48 392.735C104.509 392.767 104.55 392.811 104.603 392.868C104.707 392.98 104.857 393.141 105.053 393.346C105.445 393.757 106.02 394.346 106.775 395.087C108.284 396.571 110.517 398.667 113.459 401.171C119.341 406.177 128.066 412.823 139.515 419.461C162.421 432.74 196.255 446 239.996 446C283.736 446 317.572 432.74 340.481 419.461C351.931 412.823 360.657 406.177 366.539 401.171C369.481 398.667 371.715 396.571 373.225 395.088C373.98 394.346 374.554 393.757 374.946 393.347C375.142 393.141 375.293 392.981 375.397 392.868C375.449 392.811 375.49 392.767 375.52 392.735L375.555 392.696L375.566 392.684L375.57 392.679C375.572 392.677 375.573 392.676 372.6 390L375.573 392.676L377.806 390.195L375.772 387.563L375.771 387.562L375.769 387.559L375.767 387.557L375.765 387.554L375.758 387.545L375.736 387.515C375.72 387.494 375.7 387.466 375.675 387.432C375.595 387.322 375.47 387.146 375.31 386.909C374.988 386.433 374.529 385.717 374.014 384.801C372.976 382.958 371.748 380.373 370.937 377.366C369.336 371.435 369.368 364.078 375.581 357.134C381.941 350.026 389.058 348.783 394.698 349.245C397.573 349.481 400.07 350.168 401.85 350.801C402.735 351.116 403.428 351.412 403.885 351.621C404.113 351.726 404.281 351.808 404.383 351.86C404.434 351.885 404.468 351.903 404.486 351.912L404.488 351.913L404.491 351.915L404.495 351.917L404.498 351.919L407.524 353.569L409.6 350.8L406.4 348.4C409.6 350.8 409.601 350.798 409.602 350.797L409.605 350.793L409.613 350.783L409.636 350.752C409.655 350.727 409.68 350.692 409.712 350.648C409.776 350.56 409.867 350.435 409.981 350.274C410.211 349.951 410.539 349.481 410.951 348.867C411.774 347.64 412.933 345.838 414.316 343.487C417.082 338.786 420.744 331.886 424.399 322.997C431.71 305.218 439 279.458 439 247.429C439 215.403 431.71 189.432 424.406 171.448C420.753 162.456 417.094 155.451 414.332 150.673C412.95 148.284 411.793 146.45 410.971 145.201C410.56 144.576 410.233 144.097 410.004 143.768C409.89 143.604 409.8 143.477 409.736 143.388C409.719 143.364 409.704 143.343 409.691 143.325L409.661 143.283L409.638 143.251L409.63 143.241L409.628 143.237C409.627 143.236 409.626 143.235 406.4 145.6L409.626 143.235L407.533 140.381L404.458 142.103L404.455 142.105L404.451 142.107L404.448 142.108L404.445 142.11L404.444 142.111C404.434 142.116 404.421 142.123 404.403 142.133C404.384 142.142 404.361 142.155 404.333 142.169C404.224 142.225 404.047 142.315 403.806 142.428C403.324 142.655 402.595 142.975 401.668 143.313C399.803 143.993 397.203 144.723 394.236 144.956C388.446 145.411 381.175 144.017 374.849 136.158C368.521 128.297 368.787 121.084 370.494 115.74C371.374 112.989 372.658 110.696 373.735 109.085C374.269 108.285 374.742 107.669 375.069 107.265C375.233 107.063 375.359 106.916 375.438 106.827C375.477 106.782 375.504 106.752 375.518 106.737L375.52 106.734L375.522 106.732L375.525 106.728L375.528 106.725L378.029 104.06L375.576 101.328L372.6 104C375.576 101.328 375.575 101.326 375.573 101.324L375.569 101.32L375.558 101.308L375.523 101.269L375.483 101.225C375.46 101.2 375.433 101.171 375.402 101.137C375.298 101.025 375.15 100.867 374.957 100.664C374.57 100.259 374.004 99.6781 373.259 98.947C371.769 97.4848 369.565 95.42 366.655 92.9542C360.836 88.0237 352.188 81.4816 340.788 74.9484C317.979 61.876 284.149 48.8376 239.996 48.8376C195.842 48.8376 162.014 61.876 139.207 74.9485C127.809 81.4817 119.162 88.0238 113.344 92.9543C110.434 95.4202 108.23 97.4851 106.74 98.9472C105.996 99.6784 105.429 100.259 105.043 100.664C104.85 100.867 104.701 101.025 104.598 101.137C104.546 101.193 104.506 101.237 104.477 101.269L104.442 101.308L104.43 101.32L104.426 101.325C104.425 101.326 104.423 101.328 107.4 104L104.423 101.328L102.073 103.946L104.361 106.601L104.363 106.603L104.363 106.603L104.366 106.606L104.367 106.608L104.374 106.616C104.39 106.635 104.419 106.67 104.46 106.721C104.543 106.824 104.674 106.989 104.842 107.214C105.179 107.664 105.663 108.346 106.205 109.222C107.299 110.986 108.589 113.469 109.441 116.387C111.102 122.077 111.147 129.43 104.434 136.85C97.5644 144.442 90.6916 145.374 85.5998 144.671C82.9552 144.306 80.6972 143.477 79.0948 142.732C78.2993 142.362 77.6821 142.019 77.279 141.78C77.0779 141.661 76.9316 141.568 76.8445 141.512C76.8011 141.484 76.7726 141.464 76.7596 141.456L76.7568 141.454L76.7532 141.451L76.7518 141.45L73.6176 139.246L71.2843 142.31ZM239.996 43C377.566 43 444 160.128 444 247.429C444 290.997 428.671 341.965 395.516 381.973C362.457 421.866 311.576 451 239.996 451C168.457 451 117.573 421.034 84.4957 380.587C51.3193 340.019 35.9998 288.82 36 246.565C36.0003 161.851 102.434 43 239.996 43Z" fill="#1F2124" stroke="#1F2124" stroke-width="8"/>
<path d="M57.6172 98.6333L52.3586 104.658L49 101.753L63.5926 85.0337L66.9512 87.9393L61.7189 93.934L77.9976 108.017L73.8959 112.716L57.6172 98.6333Z" fill="#1F2124"/>
<path d="M101.869 85.6609C96.0951 90.4415 91.602 90.9089 88.3895 87.0633L76.3166 72.6116L81.1244 68.6306L93.1973 83.0824C93.9491 83.9824 94.758 84.3681 95.6238 84.2395C96.4931 84.0734 97.6468 83.3949 99.085 82.204C100.503 81.0301 101.352 80.0499 101.634 79.2632C101.918 78.4392 101.685 77.5771 100.933 76.677L88.86 62.2253L93.6679 58.2443L105.741 72.6961C108.953 76.5417 107.663 80.8633 101.869 85.6609Z" fill="#1F2124"/>
<path d="M110.315 46.6765L115.824 43.5659L135.533 52.7623L126.773 37.3839L131.619 34.6474L144.453 57.1769L138.944 60.2875L119.097 50.848L127.995 66.4694L123.149 69.206L110.315 46.6765Z" fill="#1F2124"/>
<path d="M150.152 26.4153L168.851 19.8054L170.34 23.9799L157.534 28.5067L159.532 34.1103L171.091 30.0241L172.58 34.1986L161.021 38.2848L163.261 44.5653L176.445 39.9049L177.933 44.0794L158.857 50.8229L150.152 26.4153Z" fill="#1F2124"/>
<path d="M219.173 36.5103C216.699 36.7471 213.617 36.8017 209.927 36.6738L209.47 31.9466C214.058 32.2022 217.177 32.2511 218.827 32.0932C222.284 31.7621 223.928 30.7094 223.757 28.935L223.596 27.2665C223.514 26.4191 223.198 25.7944 222.65 25.3926C222.127 24.9882 221.228 24.8471 219.951 24.9694L216.918 25.2597C211.226 25.8047 208.162 23.8261 207.727 19.3239L207.543 17.4171C207.326 15.166 208.109 13.4204 209.896 12.1802C211.682 10.9401 214.624 10.1239 218.721 9.73172C220.849 9.52801 223.566 9.44163 226.871 9.47267L227.316 14.0808C223.253 13.9887 220.463 14.0151 218.947 14.1603C216.845 14.3615 215.453 14.6686 214.768 15.0817C214.031 15.5263 213.702 16.1458 213.779 16.9403L213.956 18.7677C214.086 20.1184 215.295 20.6842 217.583 20.4652L220.695 20.1672C223.648 19.8845 225.841 20.2225 227.277 21.1809C228.711 22.1394 229.537 23.7309 229.751 25.9555L229.916 27.6637C230.213 30.7358 229.31 32.9205 227.207 34.2176C226.196 34.8757 225.049 35.3731 223.767 35.7096C222.513 36.0702 220.982 36.3371 219.173 36.5103Z" fill="#1F2124"/>
<path d="M246.883 9L257.28 9.71177C259.813 9.88513 261.8 10.1945 263.243 10.64C264.712 11.0872 265.75 11.7716 266.356 12.6932C266.99 13.59 267.255 14.8082 267.148 16.3477L266.81 21.2448C266.693 22.9436 266.227 24.2451 265.415 25.1496C264.63 26.0559 263.423 26.6533 261.796 26.942C260.195 27.2324 258.049 27.2855 255.356 27.1012L251.917 26.8658L251.337 35.2666L245.098 34.8395L246.883 9ZM256.17 22.8766C257.796 22.9879 258.955 22.8806 259.648 22.5547C260.341 22.2021 260.721 21.5614 260.785 20.6324L261.071 16.4917C261.13 15.6423 260.848 15.063 260.227 14.7538C259.631 14.4463 258.455 14.2325 256.695 14.112L252.816 13.8465L252.211 22.6056L256.17 22.8766Z" fill="#1F2124"/>
<path d="M285.189 13.2436L291.32 14.47L286.195 39.863L280.064 38.6366L285.189 13.2436Z" fill="#1F2124"/>
<path d="M310.224 19.0061L316.191 21.1195L322.098 41.9764L328.05 25.3196L333.3 27.1789L324.58 51.5813L318.613 49.4678L312.8 28.3477L306.754 45.2677L301.505 43.4085L310.224 19.0061Z" fill="#1F2124"/>
<path d="M351.95 35.7909L357.427 38.958L359.392 60.5396L368.311 45.252L373.129 48.0382L360.062 70.4347L354.585 67.2677L352.761 45.4445L343.701 60.9737L338.883 58.1875L351.95 35.7909Z" fill="#1F2124"/>
<path d="M389.564 59.7685L404.753 72.4794L401.89 75.8704L391.488 67.1653L387.645 71.7172L397.035 79.5749L394.172 82.9659L384.782 75.1082L380.475 80.21L391.184 89.1719L388.321 92.5629L372.825 79.5951L389.564 59.7685Z" fill="#1F2124"/>
<path d="M418.311 85.623L425.943 94.4586C428.207 97.0806 429.521 99.2546 429.884 100.98C430.266 102.687 429.708 104.184 428.208 105.467L424.743 108.434C423.588 109.422 422.319 109.789 420.936 109.535C419.591 109.283 418.243 108.559 416.894 107.364L413.692 120L408.988 114.553L412.295 102.774L410.413 100.595L402.663 107.231L398.585 102.51L418.311 85.623ZM417.046 101.97C418.004 103.079 418.799 103.714 419.431 103.875C420.084 104.018 420.836 103.726 421.687 102.997L423.085 101.8C423.814 101.176 424.119 100.528 423.999 99.8596C423.917 99.1931 423.422 98.3349 422.517 97.2864L419.014 93.2317L413.544 97.9153L417.046 101.97Z" fill="#1F2124"/>
</svg>
