<svg width="298" height="23" viewBox="0 0 298 23" fill="none" xmlns="http://www.w3.org/2000/svg">
<path d="M0.68 1.424H6.92C8.44 1.424 9.64 1.528 10.52 1.736C11.416 1.944 12.064 2.312 12.464 2.84C12.88 3.352 13.088 4.072 13.088 5V7.952C13.088 8.976 12.864 9.776 12.416 10.352C11.984 10.928 11.288 11.336 10.328 11.576C9.384 11.816 8.104 11.936 6.488 11.936H4.424V17H0.68V1.424ZM6.8 9.368C7.776 9.368 8.464 9.256 8.864 9.032C9.264 8.792 9.464 8.392 9.464 7.832V5.336C9.464 4.824 9.272 4.488 8.888 4.328C8.52 4.168 7.808 4.088 6.752 4.088H4.424V9.368H6.8ZM21.1509 17.24C20.4309 17.24 19.8389 17.216 19.3749 17.168C18.9109 17.12 18.4149 17.024 17.8869 16.88C17.3109 16.72 16.8469 16.496 16.4949 16.208C16.1429 15.904 15.8469 15.48 15.6069 14.936C15.3669 14.408 15.2469 13.768 15.2469 13.016V9.584C15.2469 8.816 15.3669 8.144 15.6069 7.568C15.8469 6.992 16.1589 6.544 16.5429 6.224C16.8789 5.952 17.3189 5.728 17.8629 5.552C18.4229 5.36 18.9669 5.24 19.4949 5.192C20.1029 5.16 20.6549 5.144 21.1509 5.144C21.8869 5.144 22.4709 5.168 22.9029 5.216C23.3509 5.248 23.8389 5.344 24.3669 5.504C24.9429 5.68 25.4069 5.92 25.7589 6.224C26.1269 6.528 26.4389 6.96 26.6949 7.52C26.9349 8.096 27.0549 8.784 27.0549 9.584V13.016C27.0549 13.736 26.9349 14.368 26.6949 14.912C26.4709 15.456 26.1749 15.88 25.8069 16.184C25.4869 16.456 25.0469 16.68 24.4869 16.856C23.9429 17.016 23.4069 17.12 22.8789 17.168C22.3989 17.216 21.8229 17.24 21.1509 17.24ZM21.1509 15.056C21.8069 15.056 22.3029 15.008 22.6389 14.912C22.9749 14.8 23.2069 14.632 23.3349 14.408C23.4789 14.184 23.5509 13.856 23.5509 13.424V9.032C23.5509 8.392 23.3829 7.944 23.0469 7.688C22.7109 7.432 22.0789 7.304 21.1509 7.304C20.2229 7.304 19.5909 7.432 19.2549 7.688C18.9189 7.944 18.7509 8.392 18.7509 9.032V13.424C18.7509 13.856 18.8149 14.184 18.9429 14.408C19.0869 14.632 19.3269 14.8 19.6629 14.912C19.9989 15.008 20.4949 15.056 21.1509 15.056ZM28.442 5.384H32.018L34.178 13.808L36.482 5.384H39.914L42.314 13.808L44.378 5.384H47.786L43.994 17H40.442L38.138 9.152L35.882 17H32.33L28.442 5.384ZM55.3524 17.24C51.2404 17.24 49.1844 15.984 49.1844 13.472V9.296C49.1844 7.84 49.6484 6.784 50.5764 6.128C51.5204 5.472 52.9684 5.144 54.9204 5.144C56.7604 5.144 58.1044 5.464 58.9524 6.104C59.8164 6.728 60.2484 7.792 60.2484 9.296V12.128H52.7124V13.184C52.7124 13.856 52.9524 14.336 53.4324 14.624C53.9124 14.912 54.7764 15.056 56.0244 15.056C57.1764 15.056 58.4724 14.888 59.9124 14.552V16.784C58.4884 17.088 56.9684 17.24 55.3524 17.24ZM56.9124 10.136V8.456C56.9124 8.072 56.7524 7.784 56.4324 7.592C56.1284 7.4 55.6084 7.304 54.8724 7.304C54.0244 7.304 53.4564 7.4 53.1684 7.592C52.8644 7.8 52.7124 8.088 52.7124 8.456V10.136H56.9124ZM62.9266 5.384H66.2626V7.424C66.2626 7.056 66.4146 6.696 66.7186 6.344C67.0226 5.992 67.4066 5.704 67.8706 5.48C68.3506 5.256 68.8226 5.144 69.2866 5.144H70.5346V8.048H69.3346C68.3426 8.048 67.6066 8.2 67.1266 8.504C66.6626 8.808 66.4306 9.312 66.4306 10.016V17H62.9266V5.384ZM82.2689 1.424H86.8289L92.4449 17H88.6529L87.2609 12.896H81.5729L80.2049 17H76.5089L82.2689 1.424ZM86.4449 10.4L84.4769 4.544H84.3809L82.4129 10.4H86.4449ZM94.0282 5.384H97.5322V6.8C97.7562 5.696 98.9002 5.144 100.964 5.144C102.052 5.144 102.876 5.288 103.436 5.576C103.996 5.848 104.372 6.28 104.564 6.872C104.756 6.264 105.124 5.824 105.668 5.552C106.228 5.28 107.068 5.144 108.188 5.144C109.196 5.144 109.972 5.264 110.516 5.504C111.06 5.728 111.436 6.08 111.644 6.56C111.868 7.04 111.98 7.68 111.98 8.48V17H108.476V8.96C108.476 8.448 108.444 8.088 108.38 7.88C108.316 7.656 108.172 7.504 107.948 7.424C107.74 7.344 107.372 7.304 106.844 7.304C106.188 7.304 105.716 7.344 105.428 7.424C105.156 7.504 104.972 7.656 104.876 7.88C104.796 8.088 104.756 8.448 104.756 8.96V17H101.252V8.96C101.252 8.448 101.22 8.088 101.156 7.88C101.092 7.656 100.948 7.504 100.724 7.424C100.516 7.344 100.148 7.304 99.6202 7.304C98.9642 7.304 98.4922 7.344 98.2042 7.424C97.9322 7.504 97.7482 7.656 97.6522 7.88C97.5722 8.088 97.5322 8.448 97.5322 8.96V17H94.0282V5.384ZM115.052 5.384H118.364V6.536C118.572 6.024 118.98 5.664 119.588 5.456C120.196 5.248 121.1 5.144 122.3 5.144C123.308 5.144 124.116 5.224 124.724 5.384C125.348 5.544 125.82 5.8 126.14 6.152C126.444 6.504 126.652 6.896 126.764 7.328C126.876 7.744 126.932 8.32 126.932 9.056V12.872C126.932 14.024 126.764 14.912 126.428 15.536C126.092 16.16 125.572 16.6 124.868 16.856C124.18 17.112 123.236 17.24 122.036 17.24C120.884 17.24 120.052 17.144 119.54 16.952C119.028 16.76 118.7 16.384 118.556 15.824V21.992H115.052V5.384ZM120.956 15.056C121.644 15.056 122.164 15.008 122.516 14.912C122.868 14.816 123.108 14.648 123.236 14.408C123.364 14.168 123.428 13.808 123.428 13.328V9.032C123.428 8.504 123.372 8.128 123.26 7.904C123.148 7.664 122.924 7.504 122.588 7.424C122.252 7.344 121.7 7.304 120.932 7.304C120.276 7.304 119.772 7.36 119.42 7.472C119.084 7.584 118.852 7.76 118.724 8C118.612 8.24 118.556 8.584 118.556 9.032V13.328C118.556 13.808 118.612 14.168 118.724 14.408C118.852 14.648 119.084 14.816 119.42 14.912C119.756 15.008 120.268 15.056 120.956 15.056ZM132.965 17.24C131.877 17.24 131.061 17.144 130.517 16.952C129.989 16.744 129.613 16.384 129.389 15.872C129.181 15.344 129.077 14.56 129.077 13.52C129.077 12.592 129.189 11.864 129.413 11.336C129.653 10.808 130.029 10.432 130.541 10.208C131.069 9.968 131.789 9.848 132.701 9.848H136.637V9.056C136.637 8.56 136.565 8.192 136.421 7.952C136.293 7.712 136.045 7.544 135.677 7.448C135.325 7.352 134.789 7.304 134.069 7.304C133.077 7.304 131.717 7.4 129.989 7.592V5.384C131.253 5.224 132.733 5.144 134.429 5.144C135.917 5.144 137.061 5.256 137.861 5.48C138.677 5.704 139.261 6.088 139.613 6.632C139.965 7.176 140.141 7.968 140.141 9.008V17H136.709V15.944C136.437 16.408 136.069 16.736 135.605 16.928C135.141 17.136 134.261 17.24 132.965 17.24ZM134.333 15.056C135.037 15.056 135.541 15.032 135.845 14.984C136.069 14.952 136.221 14.904 136.301 14.84C136.397 14.776 136.477 14.672 136.541 14.528C136.605 14.416 136.637 14.248 136.637 14.024V11.768H134.237C133.693 11.768 133.309 11.808 133.085 11.888C132.861 11.952 132.709 12.096 132.629 12.32C132.549 12.528 132.509 12.904 132.509 13.448C132.509 13.976 132.549 14.344 132.629 14.552C132.709 14.76 132.861 14.896 133.085 14.96C133.325 15.024 133.741 15.056 134.333 15.056ZM148.888 17.24C148.28 17.24 147.8 17.224 147.448 17.192C147.096 17.176 146.664 17.136 146.152 17.072C145.64 17.008 145.216 16.896 144.88 16.736C144.56 16.576 144.224 16.336 143.872 16.016C143.216 15.472 142.888 14.544 142.888 13.232V9.368C142.888 8.312 143.128 7.432 143.608 6.728C143.784 6.472 144.04 6.24 144.376 6.032C144.728 5.808 145.08 5.632 145.432 5.504C145.72 5.408 146.104 5.328 146.584 5.264C147.064 5.2 147.488 5.16 147.855 5.144H149.128C150.024 5.144 151.2 5.288 152.656 5.576V7.88C151.008 7.496 149.744 7.304 148.864 7.304C147.248 7.304 146.44 7.848 146.44 8.936V13.208C146.44 14.44 147.328 15.056 149.104 15.056C149.968 15.056 151.208 14.88 152.824 14.528V16.832C151.368 17.104 150.056 17.24 148.888 17.24ZM154.802 0.199999H158.306V6.8C158.53 5.696 159.754 5.144 161.978 5.144C163.466 5.144 164.506 5.416 165.098 5.96C165.706 6.488 166.01 7.328 166.01 8.48V17H162.506V8.888C162.506 8.44 162.458 8.112 162.362 7.904C162.282 7.68 162.114 7.528 161.858 7.448C161.602 7.352 161.194 7.304 160.634 7.304C159.946 7.304 159.442 7.344 159.122 7.424C158.802 7.504 158.586 7.656 158.474 7.88C158.362 8.088 158.306 8.424 158.306 8.888V17H154.802V0.199999ZM174.907 17.24C170.795 17.24 168.739 15.984 168.739 13.472V9.296C168.739 7.84 169.203 6.784 170.131 6.128C171.075 5.472 172.523 5.144 174.475 5.144C176.315 5.144 177.659 5.464 178.507 6.104C179.371 6.728 179.803 7.792 179.803 9.296V12.128H172.267V13.184C172.267 13.856 172.507 14.336 172.987 14.624C173.467 14.912 174.331 15.056 175.579 15.056C176.731 15.056 178.027 14.888 179.467 14.552V16.784C178.043 17.088 176.523 17.24 174.907 17.24ZM176.467 10.136V8.456C176.467 8.072 176.307 7.784 175.987 7.592C175.683 7.4 175.163 7.304 174.427 7.304C173.579 7.304 173.011 7.4 172.723 7.592C172.419 7.8 172.267 8.088 172.267 8.456V10.136H176.467ZM188.157 1.424H194.781C196.605 1.424 198.045 1.568 199.101 1.856C200.157 2.128 200.933 2.608 201.429 3.296C201.925 3.984 202.173 4.936 202.173 6.152V12.488C202.173 13.672 201.941 14.592 201.477 15.248C201.013 15.888 200.253 16.344 199.197 16.616C198.141 16.872 196.677 17 194.805 17H188.157V1.424ZM194.637 14.336C195.661 14.336 196.429 14.296 196.941 14.216C197.469 14.12 197.845 13.944 198.069 13.688C198.309 13.432 198.429 13.032 198.429 12.488V6.08C198.429 5.344 198.133 4.832 197.541 4.544C196.965 4.24 196.037 4.088 194.757 4.088H191.901V14.336H194.637ZM210.62 17.24C209.9 17.24 209.308 17.216 208.844 17.168C208.38 17.12 207.884 17.024 207.356 16.88C206.78 16.72 206.316 16.496 205.964 16.208C205.612 15.904 205.316 15.48 205.076 14.936C204.836 14.408 204.716 13.768 204.716 13.016V9.584C204.716 8.816 204.836 8.144 205.076 7.568C205.316 6.992 205.628 6.544 206.012 6.224C206.348 5.952 206.788 5.728 207.332 5.552C207.892 5.36 208.436 5.24 208.964 5.192C209.572 5.16 210.124 5.144 210.62 5.144C211.356 5.144 211.94 5.168 212.372 5.216C212.82 5.248 213.308 5.344 213.836 5.504C214.412 5.68 214.876 5.92 215.228 6.224C215.596 6.528 215.908 6.96 216.164 7.52C216.404 8.096 216.524 8.784 216.524 9.584V13.016C216.524 13.736 216.404 14.368 216.164 14.912C215.94 15.456 215.644 15.88 215.276 16.184C214.956 16.456 214.516 16.68 213.956 16.856C213.412 17.016 212.876 17.12 212.348 17.168C211.868 17.216 211.292 17.24 210.62 17.24ZM210.62 15.056C211.276 15.056 211.772 15.008 212.108 14.912C212.444 14.8 212.676 14.632 212.804 14.408C212.948 14.184 213.02 13.856 213.02 13.424V9.032C213.02 8.392 212.852 7.944 212.516 7.688C212.18 7.432 211.548 7.304 210.62 7.304C209.692 7.304 209.06 7.432 208.724 7.688C208.388 7.944 208.22 8.392 208.22 9.032V13.424C208.22 13.856 208.284 14.184 208.412 14.408C208.556 14.632 208.796 14.8 209.132 14.912C209.468 15.008 209.964 15.056 210.62 15.056ZM223.959 22.28C222.071 22.28 220.671 22.224 219.759 22.112V19.76C221.263 19.968 222.663 20.072 223.959 20.072C225.143 20.072 225.991 19.88 226.503 19.496C227.015 19.112 227.271 18.472 227.271 17.576V15.704C226.983 16.12 226.703 16.44 226.431 16.664C226.159 16.872 225.799 17.016 225.351 17.096C224.919 17.192 224.319 17.24 223.551 17.24C222.415 17.24 221.511 17.136 220.839 16.928C220.167 16.704 219.679 16.344 219.375 15.848C219.071 15.336 218.919 14.632 218.919 13.736V9.2C218.919 8.128 219.055 7.304 219.327 6.728C219.615 6.152 220.095 5.744 220.767 5.504C221.455 5.264 222.439 5.144 223.719 5.144C224.551 5.144 225.191 5.192 225.639 5.288C226.071 5.384 226.399 5.528 226.623 5.72C226.847 5.912 227.103 6.24 227.391 6.704V5.384H230.775V17.624C230.775 19.272 230.207 20.456 229.071 21.176C227.951 21.912 226.247 22.28 223.959 22.28ZM224.799 15.056C225.487 15.056 225.999 15.008 226.335 14.912C226.687 14.816 226.927 14.664 227.055 14.456C227.199 14.232 227.271 13.92 227.271 13.52V8.84C227.271 8.408 227.207 8.088 227.079 7.88C226.951 7.656 226.703 7.504 226.335 7.424C225.967 7.344 225.391 7.304 224.607 7.304C223.967 7.304 223.495 7.352 223.191 7.448C222.887 7.544 222.679 7.712 222.567 7.952C222.471 8.176 222.423 8.512 222.423 8.96V13.4C222.423 13.896 222.471 14.256 222.567 14.48C222.679 14.688 222.895 14.84 223.215 14.936C223.535 15.016 224.063 15.056 224.799 15.056ZM233.856 5.384H237.36V6.8C237.584 5.696 238.728 5.144 240.792 5.144C241.88 5.144 242.704 5.288 243.264 5.576C243.824 5.848 244.2 6.28 244.392 6.872C244.584 6.264 244.952 5.824 245.496 5.552C246.056 5.28 246.896 5.144 248.016 5.144C249.024 5.144 249.8 5.264 250.344 5.504C250.888 5.728 251.264 6.08 251.472 6.56C251.696 7.04 251.808 7.68 251.808 8.48V17H248.304V8.96C248.304 8.448 248.272 8.088 248.208 7.88C248.144 7.656 248 7.504 247.776 7.424C247.568 7.344 247.2 7.304 246.672 7.304C246.016 7.304 245.544 7.344 245.256 7.424C244.984 7.504 244.8 7.656 244.704 7.88C244.624 8.088 244.584 8.448 244.584 8.96V17H241.08V8.96C241.08 8.448 241.048 8.088 240.984 7.88C240.92 7.656 240.776 7.504 240.552 7.424C240.344 7.344 239.976 7.304 239.448 7.304C238.792 7.304 238.32 7.344 238.032 7.424C237.76 7.504 237.576 7.656 237.48 7.88C237.4 8.088 237.36 8.448 237.36 8.96V17H233.856V5.384ZM258.168 17.24C257.08 17.24 256.264 17.144 255.72 16.952C255.192 16.744 254.816 16.384 254.592 15.872C254.384 15.344 254.28 14.56 254.28 13.52C254.28 12.592 254.392 11.864 254.616 11.336C254.856 10.808 255.232 10.432 255.744 10.208C256.272 9.968 256.992 9.848 257.904 9.848H261.84V9.056C261.84 8.56 261.768 8.192 261.624 7.952C261.496 7.712 261.248 7.544 260.88 7.448C260.528 7.352 259.992 7.304 259.272 7.304C258.28 7.304 256.92 7.4 255.192 7.592V5.384C256.456 5.224 257.936 5.144 259.632 5.144C261.12 5.144 262.264 5.256 263.064 5.48C263.88 5.704 264.464 6.088 264.816 6.632C265.168 7.176 265.344 7.968 265.344 9.008V17H261.912V15.944C261.64 16.408 261.272 16.736 260.808 16.928C260.344 17.136 259.464 17.24 258.168 17.24ZM259.536 15.056C260.24 15.056 260.744 15.032 261.048 14.984C261.272 14.952 261.424 14.904 261.504 14.84C261.6 14.776 261.68 14.672 261.744 14.528C261.808 14.416 261.84 14.248 261.84 14.024V11.768H259.44C258.896 11.768 258.512 11.808 258.288 11.888C258.064 11.952 257.912 12.096 257.832 12.32C257.752 12.528 257.712 12.904 257.712 13.448C257.712 13.976 257.752 14.344 257.832 14.552C257.912 14.76 258.064 14.896 258.288 14.96C258.528 15.024 258.944 15.056 259.536 15.056ZM267.851 15.128L273.707 7.664H268.091V5.384H278.171V7.256L272.315 14.72H278.315V17H267.851V15.128ZM280.804 1.184H284.308V4.016H280.804V1.184ZM280.804 5.384H284.308V17H280.804V5.384ZM293.145 17.24C292.537 17.24 292.057 17.224 291.705 17.192C291.353 17.176 290.921 17.136 290.409 17.072C289.897 17.008 289.473 16.896 289.137 16.736C288.817 16.576 288.481 16.336 288.129 16.016C287.473 15.472 287.145 14.544 287.145 13.232V9.368C287.145 8.312 287.385 7.432 287.865 6.728C288.041 6.472 288.297 6.24 288.633 6.032C288.985 5.808 289.337 5.632 289.689 5.504C289.977 5.408 290.361 5.328 290.841 5.264C291.321 5.2 291.745 5.16 292.113 5.144H293.385C294.281 5.144 295.457 5.288 296.913 5.576V7.88C295.265 7.496 294.001 7.304 293.121 7.304C291.505 7.304 290.697 7.848 290.697 8.936V13.208C290.697 14.44 291.585 15.056 293.361 15.056C294.225 15.056 295.465 14.88 297.081 14.528V16.832C295.625 17.104 294.313 17.24 293.145 17.24Z" fill="#DFE5E3"/>
</svg>
