<?xml version="1.0" encoding="UTF-8"?>
<svg version="1.1" xmlns="http://www.w3.org/2000/svg" width="782" height="124">
<path d="M0 0 C2.97 11.88 5.94 23.76 9 36 C10.22892618 27.89419267 10.22892618 27.89419267 11.45263672 19.78759766 C12.46610261 13.15183378 13.60558992 6.56667683 15 0 C22.25237103 -1.28931041 29.8271084 -1.91619627 37 0 C36.28626842 7.34775023 35.08159661 14.54558699 33.75 21.8046875 C33.42273926 23.60608688 33.42273926 23.60608688 33.08886719 25.44387817 C32.62973979 27.96708781 32.1691017 30.49002297 31.70703125 33.01269531 C30.9985827 36.8827423 30.2958232 40.75379193 29.59375 44.625 C29.14616939 47.08079044 28.69826417 49.53652174 28.25 51.9921875 C28.03956055 53.15152802 27.82912109 54.31086853 27.61230469 55.50534058 C27.41540039 56.57720612 27.21849609 57.64907166 27.015625 58.75341797 C26.75700684 60.16831009 26.75700684 60.16831009 26.49316406 61.61178589 C26 64 26 64 25 67 C17.04469062 69.47788325 9.03321048 69.72695084 0.80859375 68.5390625 C-2.39131411 66.7855664 -2.55545413 66.32569792 -3.609375 63.0078125 C-4.01537889 61.38645056 -4.39472806 59.75822857 -4.75 58.125 C-5.13721213 56.50178624 -5.52773121 54.87935707 -5.921875 53.2578125 C-6.16309082 52.17717529 -6.16309082 52.17717529 -6.40917969 51.07470703 C-7.03436059 48.87934038 -7.92075227 47.00649669 -9 45 C-9.1451001 45.65597168 -9.2902002 46.31194336 -9.43969727 46.98779297 C-10.11561324 49.95845288 -10.83827556 52.91576395 -11.5625 55.875 C-11.79001953 56.90753906 -12.01753906 57.94007812 -12.25195312 59.00390625 C-12.96696639 61.84538753 -13.68781046 64.37906951 -15 67 C-21.80820738 70.45635086 -31.90747402 70.08017759 -39.25 68.0625 C-42 67 -42 67 -43 66 C-43.35873915 64.23839441 -43.66080671 62.46520675 -43.93969727 60.68920898 C-44.1198085 59.55390244 -44.29991974 58.41859589 -44.48548889 57.24888611 C-44.77304298 55.39125389 -44.77304298 55.39125389 -45.06640625 53.49609375 C-45.26475571 52.22911148 -45.46310516 50.96212921 -45.66746521 49.65675354 C-46.08801012 46.96617849 -46.50534992 44.27512896 -46.9206543 41.58374023 C-47.45058187 38.15204488 -47.98968143 34.72186511 -48.53144932 31.29202175 C-49.04875789 28.00675298 -49.55706774 24.72010759 -50.06640625 21.43359375 C-50.26013321 20.20934189 -50.45386017 18.98509003 -50.65345764 17.72373962 C-51.56808127 11.7417945 -52.23141668 6.05189691 -52 0 C-48.52085059 -0.02887814 -45.04173169 -0.04675687 -41.5625 -0.0625 C-40.07266602 -0.07506836 -40.07266602 -0.07506836 -38.55273438 -0.08789062 C-37.60849609 -0.09111328 -36.66425781 -0.09433594 -35.69140625 -0.09765625 C-34.37958374 -0.10551147 -34.37958374 -0.10551147 -33.04125977 -0.11352539 C-31 0 -31 0 -30 1 C-29.62677 3.44011673 -29.30893661 5.86528599 -29.02734375 8.31640625 C-28.93997452 9.04746078 -28.85260529 9.77851532 -28.7625885 10.53172302 C-28.48350533 12.87485522 -28.21044249 15.21864533 -27.9375 17.5625 C-27.74974401 19.1478333 -27.56159808 20.73312046 -27.37304688 22.31835938 C-26.91083221 26.21171803 -26.45401689 30.10567722 -26 34 C-24.11374929 30.63121699 -23.21674076 27.29791542 -22.30859375 23.5546875 C-22.00373047 22.31332031 -21.69886719 21.07195313 -21.38476562 19.79296875 C-21.06868232 18.48705854 -20.75293079 17.18106798 -20.4375 15.875 C-19.81421766 13.30913856 -19.18706793 10.74428915 -18.55859375 8.1796875 C-18.28329834 7.04257324 -18.00800293 5.90545898 -17.72436523 4.73388672 C-17 2 -17 2 -16 0 C-11 -1 -11 -1 0 0 Z " fill="#000000" transform="translate(185,29)"/>
<path d="M0 0 C3.77076889 -0.05799124 7.54142334 -0.09359306 11.3125 -0.125 C12.38435547 -0.14175781 13.45621094 -0.15851562 14.56054688 -0.17578125 C15.58857422 -0.18222656 16.61660156 -0.18867188 17.67578125 -0.1953125 C18.62364502 -0.20578613 19.57150879 -0.21625977 20.5480957 -0.22705078 C23 0 23 0 26 2 C27.15087891 4.49023437 27.15087891 4.49023437 28.2265625 7.59375 C28.814375 9.26244141 28.814375 9.26244141 29.4140625 10.96484375 C29.81367188 12.13144531 30.21328125 13.29804687 30.625 14.5 C31.42891553 16.80235303 32.23356575 19.1044497 33.0390625 21.40625 C33.39178223 22.43041016 33.74450195 23.45457031 34.10791016 24.50976562 C34.92852335 26.95652155 34.92852335 26.95652155 36 29 C36.26216309 28.15703369 36.52432617 27.31406738 36.79443359 26.44555664 C37.76865375 23.32576847 38.7496561 20.20822077 39.73535156 17.09204102 C40.16094791 15.74166604 40.58381202 14.39042684 41.00390625 13.03833008 C41.60745247 11.09744499 42.22068575 9.15985765 42.8359375 7.22265625 C43.20251465 6.05484619 43.5690918 4.88703613 43.94677734 3.68383789 C45 1 45 1 47 0 C48.78961105 -0.09654864 50.58278765 -0.13075451 52.375 -0.1328125 C53.44234375 -0.13410156 54.5096875 -0.13539062 55.609375 -0.13671875 C56.72828125 -0.13285156 57.8471875 -0.12898438 59 -0.125 C60.11890625 -0.12886719 61.2378125 -0.13273437 62.390625 -0.13671875 C63.99164063 -0.13478516 63.99164063 -0.13478516 65.625 -0.1328125 C67.09839844 -0.13112061 67.09839844 -0.13112061 68.6015625 -0.12939453 C71 0 71 0 73 1 C73.39293045 8.71931457 73.78422416 16.43871065 74.17345428 24.15821266 C74.35425868 27.74304869 74.53561726 31.32785487 74.71826172 34.91259766 C74.89464894 38.37493787 75.06955511 41.83735008 75.24345398 45.29981613 C75.34215123 47.25735297 75.44236442 49.21481319 75.54260254 51.17227173 C75.60266479 52.37306366 75.66272705 53.57385559 75.72460938 54.81103516 C75.77790405 55.86360504 75.83119873 56.91617493 75.8861084 58.00064087 C76.00033982 61.00894924 76.08966094 63.99035121 76 67 C74.09116725 68.90883275 70.80602335 68.43939664 68.25 68.625 C67.01765625 68.72039062 65.7853125 68.81578125 64.515625 68.9140625 C61.437214 68.98931255 58.96527703 68.75829604 56 68 C54.94790016 64.4390467 54.70809577 60.96305572 54.46484375 57.265625 C54.33432617 55.32236328 54.33432617 55.32236328 54.20117188 53.33984375 C54.11320272 51.97656757 54.0253131 50.61328625 53.9375 49.25 C53.84603551 47.87107166 53.75424225 46.49216509 53.66210938 45.11328125 C53.4381689 41.74238774 53.2175957 38.37130804 53 35 C52.70230713 35.96413818 52.40461426 36.92827637 52.09790039 37.92163086 C50.99591268 41.48771708 49.88982382 45.05251994 48.7824707 48.61694336 C48.30315401 50.16184167 47.82496053 51.70708893 47.34790039 53.25268555 C46.6632492 55.47015914 45.97461031 57.68635948 45.28515625 59.90234375 C45.07157974 60.5971434 44.85800323 61.29194305 44.63795471 62.00779724 C43.11387171 66.88612829 43.11387171 66.88612829 42 68 C39.81360547 68.07258946 37.62499611 68.08373783 35.4375 68.0625 C33.64119141 68.04896484 33.64119141 68.04896484 31.80859375 68.03515625 C30.41833984 68.01775391 30.41833984 68.01775391 29 68 C27.91398928 64.77172783 26.8317216 61.54221163 25.75 58.3125 C25.44964844 57.41982422 25.14929688 56.52714844 24.83984375 55.60742188 C22.44224369 48.44012808 20.1969848 41.23114018 18 34 C17.94465088 34.99443115 17.88930176 35.9888623 17.83227539 37.01342773 C17.62637348 40.69062576 17.41434921 44.36744928 17.20043945 48.04418945 C17.10858854 49.63784342 17.01841519 51.23159497 16.92993164 52.82543945 C16.80271606 55.11176635 16.66954035 57.39767843 16.53515625 59.68359375 C16.47727684 60.7586039 16.47727684 60.7586039 16.41822815 61.85533142 C16.11387171 66.88612829 16.11387171 66.88612829 15 68 C8.7837641 68.95708764 2.82317321 69.83289507 -3 67 C-4 66 -4 66 -4.05778503 63.55290222 C-4.02606705 62.46576431 -3.99434906 61.3786264 -3.96166992 60.25854492 C-3.92800827 59.0302446 -3.89434662 57.80194427 -3.85966492 56.53642273 C-3.8169879 55.18442575 -3.77391269 53.8324413 -3.73046875 52.48046875 C-3.68880757 51.10143068 -3.64733149 49.722387 -3.60603333 48.34333801 C-3.51792393 45.44710867 -3.4256289 42.55104641 -3.33081055 39.6550293 C-3.20998967 35.94630513 -3.10240659 32.23733008 -2.9983778 28.52810192 C-2.91644552 25.67713404 -2.82595717 22.82648452 -2.73305702 19.97585487 C-2.68981978 18.60882961 -2.64958458 17.24170594 -2.61241722 15.87450218 C-2.55935945 13.9592801 -2.49321692 12.04443408 -2.42651367 10.12963867 C-2.39240891 9.04011398 -2.35830414 7.95058929 -2.32316589 6.82804871 C-2.00790431 4.06917119 -1.41991309 2.35873098 0 0 Z " fill="#000000" transform="translate(418,29)"/>
<path d="M0 0 C9.39406065 9.9159529 10.77124288 20.94166718 10.4921875 33.953125 C10.07286428 43.74286904 7.45215527 51.49079016 0.25 58.375 C-9.01688795 64.90714024 -18.71923853 65.36359327 -29.75 64.375 C-33.19683817 63.55432424 -35.8230741 62.35098373 -38.75 60.375 C-39.38164063 59.9625 -40.01328125 59.55 -40.6640625 59.125 C-47.4423914 54.04846431 -50.48812924 46.7551528 -52.125 38.625 C-53.65610275 27.15645152 -52.68775559 15.30852803 -46.46875 5.31640625 C-35.19437757 -9.2463248 -14.55945932 -8.60331687 0 0 Z M-28.75 17.375 C-31.68302877 23.07628065 -32.81872216 29.20078808 -31.2109375 35.48046875 C-30.16072519 38.64841686 -29.21245511 40.89712972 -26.875 43.3125 C-24.36238118 44.56880941 -22.57172003 45.23735512 -19.75 45.375 C-16.07859607 43.71412679 -13.87868042 41.78088868 -11.75 38.375 C-9.76673924 32.42521772 -9.9041817 25.67079254 -12.0625 19.8125 C-14.97947042 15.57636898 -14.97947042 15.57636898 -19.5625 13.4375 C-23.97358657 13.35100811 -25.53333496 14.3727793 -28.75 17.375 Z " fill="#000000" transform="translate(117.75,33.625)"/>
<path d="M0 0 C1.27423828 -0.00193359 1.27423828 -0.00193359 2.57421875 -0.00390625 C3.91419922 0.00189453 3.91419922 0.00189453 5.28125 0.0078125 C6.17457031 0.00394531 7.06789063 0.00007813 7.98828125 -0.00390625 C8.83777344 -0.00261719 9.68726563 -0.00132813 10.5625 0 C11.34689453 0.00112793 12.13128906 0.00225586 12.93945312 0.00341797 C14.78125 0.1328125 14.78125 0.1328125 15.78125 1.1328125 C15.86838831 2.84053608 15.88825007 4.55179899 15.87890625 6.26171875 C15.87568359 7.29619141 15.87246094 8.33066406 15.86914062 9.39648438 C15.86076172 10.48509766 15.85238281 11.57371094 15.84375 12.6953125 C15.83923828 13.78779297 15.83472656 14.88027344 15.83007812 16.00585938 C15.8182484 18.71486682 15.80031231 21.4238463 15.78125 24.1328125 C20.07125 24.1328125 24.36125 24.1328125 28.78125 24.1328125 C28.76964844 22.48410156 28.75804687 20.83539063 28.74609375 19.13671875 C28.73671762 16.98958446 28.72761723 14.84244895 28.71875 12.6953125 C28.71037109 11.60669922 28.70199219 10.51808594 28.69335938 9.39648438 C28.69013672 8.36201172 28.68691406 7.32753906 28.68359375 6.26171875 C28.67835693 5.30338135 28.67312012 4.34504395 28.66772461 3.35766602 C28.78125 1.1328125 28.78125 1.1328125 29.78125 0.1328125 C31.11168625 0.0344404 32.44718344 0.00202658 33.78125 0 C34.585625 -0.00128906 35.39 -0.00257812 36.21875 -0.00390625 C37.064375 -0.00003906 37.91 0.00382812 38.78125 0.0078125 C40.0496875 0.00201172 40.0496875 0.00201172 41.34375 -0.00390625 C42.148125 -0.00261719 42.9525 -0.00132813 43.78125 0 C44.52375 0.00112793 45.26625 0.00225586 46.03125 0.00341797 C47.78125 0.1328125 47.78125 0.1328125 48.78125 1.1328125 C48.87542773 3.21900272 48.89867878 5.30841727 48.89477539 7.39672852 C48.89492142 8.05036377 48.89506744 8.70399902 48.8952179 9.37744141 C48.89451883 11.54723378 48.88672678 13.71694129 48.87890625 15.88671875 C48.87704205 17.38744561 48.87561816 18.88817307 48.87461853 20.38890076 C48.87079352 24.34599476 48.8609634 28.30305228 48.84991455 32.26013184 C48.83970006 36.29516099 48.83512083 40.33019603 48.83007812 44.36523438 C48.8193411 52.28777906 48.80174445 60.21028704 48.78125 68.1328125 C42.18125 68.1328125 35.58125 68.1328125 28.78125 68.1328125 C28.78125 60.5428125 28.78125 52.9528125 28.78125 45.1328125 C24.49125 45.1328125 20.20125 45.1328125 15.78125 45.1328125 C15.79285156 46.70933594 15.80445313 48.28585938 15.81640625 49.91015625 C15.82578243 51.96354049 15.83488282 54.016926 15.84375 56.0703125 C15.85212891 57.11123047 15.86050781 58.15214844 15.86914062 59.22460938 C15.87397461 60.70864258 15.87397461 60.70864258 15.87890625 62.22265625 C15.88676147 63.59732056 15.88676147 63.59732056 15.89477539 64.99975586 C15.78125 67.1328125 15.78125 67.1328125 14.78125 68.1328125 C13.37776265 68.23141381 11.96944523 68.26360187 10.5625 68.265625 C9.28826172 68.26755859 9.28826172 68.26755859 7.98828125 68.26953125 C7.09496094 68.26566406 6.20164062 68.26179688 5.28125 68.2578125 C4.38792969 68.26167969 3.49460937 68.26554687 2.57421875 68.26953125 C1.72472656 68.26824219 0.87523437 68.26695313 0 68.265625 C-0.78439453 68.26449707 -1.56878906 68.26336914 -2.37695312 68.26220703 C-4.21875 68.1328125 -4.21875 68.1328125 -5.21875 67.1328125 C-5.31814626 65.08268404 -5.34674553 63.02909858 -5.34814453 60.9765625 C-5.35129669 59.65849609 -5.35444885 58.34042969 -5.35769653 56.98242188 C-5.35590675 55.53255175 -5.3538558 54.08268192 -5.3515625 52.6328125 C-5.35223557 51.15690088 -5.35320563 49.68098937 -5.35446167 48.20507812 C-5.35593848 45.10806221 -5.35378464 42.01107508 -5.34912109 38.9140625 C-5.3434238 34.93572701 -5.3467029 30.95745898 -5.35269356 26.97912598 C-5.35629963 23.93033333 -5.35516037 20.88155679 -5.35256577 17.83276367 C-5.35189662 16.36547844 -5.35272447 14.89819176 -5.35504532 13.4309082 C-5.35757257 11.38362657 -5.3530406 9.33633984 -5.34814453 7.2890625 C-5.34734894 6.12181641 -5.34655334 4.95457031 -5.34573364 3.75195312 C-5.1411479 -0.46779369 -3.80928607 0.00547761 0 0 Z " fill="#000000" transform="translate(674.21875,28.8671875)"/>
<path d="M0 0 C4.41077344 -0.07471341 8.82120184 -0.12886513 13.23242188 -0.16479492 C14.72988307 -0.17978888 16.22730105 -0.20019105 17.72460938 -0.22631836 C35.5875153 -0.52998776 35.5875153 -0.52998776 42.8125 5.25 C47.15865495 10.71373765 48.51841116 15.64820266 48.2890625 22.5078125 C47.6833137 27.73034941 46.07361776 31.68780052 42.75 35.75 C41.88375 36.86375 41.88375 36.86375 41 38 C41.39653639 40.9396714 42.48855761 43.04084878 44.1015625 45.49609375 C44.50890625 46.13740234 44.91625 46.77871094 45.3359375 47.43945312 C46.19584201 48.77230511 47.06306462 50.10046387 47.9375 51.42382812 C50.99490623 56.27770395 50.99490623 56.27770395 51.01953125 59.76953125 C49.77767861 62.48638127 48.51411169 63.56534821 46.0625 65.25 C45.35222656 65.75015625 44.64195312 66.2503125 43.91015625 66.765625 C40.12607765 69.21096005 37.53265813 69.39074639 33 69 C28.36047931 65.66764586 26.87742821 60.44039125 24.875 55.3125 C24.19097829 53.57701742 23.50116559 51.84380249 22.8046875 50.11328125 C22.50546387 49.34798096 22.20624023 48.58268066 21.89794922 47.79418945 C21.13229493 45.81627446 21.13229493 45.81627446 19 45 C19 52.59 19 60.18 19 68 C15.5868462 68.85328845 13.02982017 69.16345478 9.5625 69.1875 C8.63566406 69.20167969 7.70882813 69.21585937 6.75390625 69.23046875 C3.81267509 68.98432316 1.70096555 68.1435551 -1 67 C-1.02314265 58.55959739 -1.04092492 50.11920798 -1.05181217 41.67878151 C-1.05703678 37.7598013 -1.0641268 33.84084274 -1.07543945 29.921875 C-1.08628329 26.14177614 -1.09228002 22.36169814 -1.09487724 18.58158493 C-1.09672878 17.13745164 -1.10034424 15.69331953 -1.10573006 14.2491951 C-1.1129602 12.23075723 -1.11340823 10.21229847 -1.11352539 8.19384766 C-1.115746 7.04357086 -1.11796661 5.89329407 -1.12025452 4.7081604 C-1 2 -1 2 0 0 Z M19 18 C19 22.29 19 26.58 19 31 C24.80319792 30.66699655 24.80319792 30.66699655 27 27.8125 C28.29206816 24.1785583 27.52759314 22.45718448 26 19 C23.69 18.67 21.38 18.34 19 18 Z " fill="#000000" transform="translate(276,29)"/>
<path d="M0 0 C9.24 0 18.48 0 28 0 C30.09250863 8.12620995 32.17991629 16.25367825 34.25842285 24.38347912 C35.22379911 28.15857553 36.19138254 31.93307707 37.1640625 35.70629883 C38.10298781 39.34891838 39.03604648 42.99299491 39.96508789 46.63814735 C40.32023381 48.02730906 40.6774763 49.41593653 41.03686523 50.80400658 C41.54057124 52.75095983 42.03608153 54.70002783 42.53125 56.64916992 C42.81548828 57.7572551 43.09972656 58.86534027 43.39257812 60.00700378 C43.95406533 62.7736626 44.12270461 65.18882834 44 68 C37.64079537 69.08241781 31.54089836 69.46185631 25.125 68.625 C21.47223017 65.83170542 20.8389586 61.37895465 20 57 C20 55.68 20 54.36 20 53 C15.05 53 10.1 53 5 53 C4.731875 54.918125 4.46375 56.83625 4.1875 58.8125 C3.42821159 64.24433249 3.42821159 64.24433249 1.9375 66.875 C-1.24016858 68.72009789 -4.62535632 68.30883066 -8.1875 68.1875 C-8.93708984 68.17396484 -9.68667969 68.16042969 -10.45898438 68.14648438 C-12.30629767 68.11118539 -14.15324066 68.05737917 -16 68 C-17.39891191 64.1986616 -16.58951299 61.51439854 -15.55297852 57.67089844 C-15.38731384 57.04608582 -15.22164917 56.42127319 -15.05096436 55.77752686 C-14.50271258 53.71891703 -13.94091482 51.66426765 -13.37890625 49.609375 C-12.99549255 48.18042132 -12.61293057 46.75123885 -12.23118591 45.32183838 C-11.22532685 41.5646873 -10.20793377 37.81075406 -9.18811035 34.05737305 C-8.14902412 30.22502026 -7.12087205 26.38973813 -6.09179688 22.5546875 C-4.07188812 15.03354044 -2.03878268 7.51605746 0 0 Z M12 22 C10.68 27.94 9.36 33.88 8 40 C10.64 40 13.28 40 16 40 C15.51679152 33.7945858 14.66681876 28.00054754 13 22 C12.67 22 12.34 22 12 22 Z " fill="#000000" transform="translate(565,29)"/>
<path d="M0 0 C9.24 0 18.48 0 28 0 C30.09250863 8.12620995 32.17991629 16.25367825 34.25842285 24.38347912 C35.22379911 28.15857553 36.19138254 31.93307707 37.1640625 35.70629883 C38.10298781 39.34891838 39.03604648 42.99299491 39.96508789 46.63814735 C40.32023381 48.02730906 40.6774763 49.41593653 41.03686523 50.80400658 C41.54057124 52.75095983 42.03608153 54.70002783 42.53125 56.64916992 C42.81548828 57.7572551 43.09972656 58.86534027 43.39257812 60.00700378 C43.95406533 62.7736626 44.12270461 65.18882834 44 68 C37.64079537 69.08241781 31.54089836 69.46185631 25.125 68.625 C21.47223017 65.83170542 20.8389586 61.37895465 20 57 C20 55.68 20 54.36 20 53 C15.05 53 10.1 53 5 53 C4.731875 54.918125 4.46375 56.83625 4.1875 58.8125 C3.42821159 64.24433249 3.42821159 64.24433249 1.9375 66.875 C-1.24016858 68.72009789 -4.62535632 68.30883066 -8.1875 68.1875 C-8.93708984 68.17396484 -9.68667969 68.16042969 -10.45898438 68.14648438 C-12.30629767 68.11118539 -14.15324066 68.05737917 -16 68 C-17.39891191 64.1986616 -16.58951299 61.51439854 -15.55297852 57.67089844 C-15.38731384 57.04608582 -15.22164917 56.42127319 -15.05096436 55.77752686 C-14.50271258 53.71891703 -13.94091482 51.66426765 -13.37890625 49.609375 C-12.99549255 48.18042132 -12.61293057 46.75123885 -12.23118591 45.32183838 C-11.22532685 41.5646873 -10.20793377 37.81075406 -9.18811035 34.05737305 C-8.14902412 30.22502026 -7.12087205 26.38973813 -6.09179688 22.5546875 C-4.07188812 15.03354044 -2.03878268 7.51605746 0 0 Z M12 22 C10.68 27.94 9.36 33.88 8 40 C10.64 40 13.28 40 16 40 C15.51679152 33.7945858 14.66681876 28.00054754 13 22 C12.67 22 12.34 22 12 22 Z " fill="#000000" transform="translate(364,29)"/>
<path d="M0 0 C2.06580695 -0.01703907 4.12993865 -0.06087457 6.1953125 -0.10522461 C15.41839506 -0.2138433 22.13388836 0.79872538 29.4765625 6.54516602 C34.86124722 13.51358153 35.56302706 20.73039552 34.6015625 29.29516602 C32.86091313 36.9912447 29.17298837 41.97817092 22.6015625 46.29516602 C16.89552499 49.39146544 13.4760465 49.29516602 6.6015625 49.29516602 C6.6015625 55.23516602 6.6015625 61.17516602 6.6015625 67.29516602 C-1.07446846 69.48831772 -5.97212893 70.53293376 -13.3984375 67.29516602 C-13.42156385 58.70710881 -13.43935408 50.11906453 -13.45024967 41.53098392 C-13.45547786 37.54359402 -13.46257434 33.55622534 -13.47387695 29.56884766 C-13.48470811 25.72391487 -13.49071482 21.87900257 -13.49331474 18.03405571 C-13.49516858 16.56397618 -13.49878841 15.09389783 -13.50416756 13.62382698 C-13.51138105 11.57162134 -13.51242831 9.51950134 -13.51196289 7.46728516 C-13.5141835 6.29702286 -13.51640411 5.12676056 -13.51869202 3.92103577 C-13.23293699 -2.31869232 -4.83574553 0.02773309 0 0 Z M6.6015625 17.29516602 C6.6015625 22.24516602 6.6015625 27.19516602 6.6015625 32.29516602 C12.58694487 30.9821948 12.58694487 30.9821948 14.6015625 27.29516602 C14.94113813 23.2202585 14.91488736 21.76515331 12.6015625 18.29516602 C9.6315625 17.80016602 9.6315625 17.80016602 6.6015625 17.29516602 Z " fill="#000000" transform="translate(515.3984375,28.704833984375)"/>
<path d="M0 0 C2.06580695 -0.01703907 4.12993865 -0.06087457 6.1953125 -0.10522461 C15.41839506 -0.2138433 22.13388836 0.79872538 29.4765625 6.54516602 C34.86124722 13.51358153 35.56302706 20.73039552 34.6015625 29.29516602 C32.86091313 36.9912447 29.17298837 41.97817092 22.6015625 46.29516602 C16.89552499 49.39146544 13.4760465 49.29516602 6.6015625 49.29516602 C6.6015625 55.23516602 6.6015625 61.17516602 6.6015625 67.29516602 C-1.07446846 69.48831772 -5.97212893 70.53293376 -13.3984375 67.29516602 C-13.42156385 58.70710881 -13.43935408 50.11906453 -13.45024967 41.53098392 C-13.45547786 37.54359402 -13.46257434 33.55622534 -13.47387695 29.56884766 C-13.48470811 25.72391487 -13.49071482 21.87900257 -13.49331474 18.03405571 C-13.49516858 16.56397618 -13.49878841 15.09389783 -13.50416756 13.62382698 C-13.51138105 11.57162134 -13.51242831 9.51950134 -13.51196289 7.46728516 C-13.5141835 6.29702286 -13.51640411 5.12676056 -13.51869202 3.92103577 C-13.23293699 -2.31869232 -4.83574553 0.02773309 0 0 Z M6.6015625 17.29516602 C6.6015625 22.24516602 6.6015625 27.19516602 6.6015625 32.29516602 C12.58694487 30.9821948 12.58694487 30.9821948 14.6015625 27.29516602 C14.94113813 23.2202585 14.91488736 21.76515331 12.6015625 18.29516602 C9.6315625 17.80016602 9.6315625 17.80016602 6.6015625 17.29516602 Z " fill="#000000" transform="translate(25.3984375,28.704833984375)"/>
<path d="M0 0 C0.82290527 0.00202423 1.64581055 0.00404846 2.49365234 0.00613403 C3.33331543 0.00517731 4.17297852 0.00422058 5.03808594 0.00323486 C6.81689529 0.00255306 8.59570712 0.00440737 10.37451172 0.00857544 C13.10699011 0.01392371 15.83930411 0.00863048 18.57177734 0.00222778 C20.29573604 0.00288856 22.01969464 0.00416973 23.74365234 0.00613403 C24.56655762 0.0041098 25.38946289 0.00208557 26.23730469 0 C32.0037018 0.02399599 32.0037018 0.02399599 33.11865234 1.13894653 C33.21846448 3.81626033 33.2574511 6.46198828 33.24365234 9.13894653 C33.24945312 10.2642981 33.24945312 10.2642981 33.25537109 11.41238403 C33.24526288 17.012336 33.24526288 17.012336 32.11865234 18.13894653 C30.70295111 18.22546264 29.28305734 18.24599557 27.86474609 18.23660278 C27.01074219 18.23338013 26.15673828 18.23015747 25.27685547 18.22683716 C23.93010742 18.2142688 23.93010742 18.2142688 22.55615234 18.20144653 C21.65445313 18.19693481 20.75275391 18.1924231 19.82373047 18.18777466 C17.58867645 18.17594898 15.35365632 18.15801292 13.11865234 18.13894653 C13.11865234 21.10894653 13.11865234 24.07894653 13.11865234 27.13894653 C17.73865234 27.13894653 22.35865234 27.13894653 27.11865234 27.13894653 C28.99881726 32.77944127 28.31336762 36.65215834 26.11865234 42.13894653 C21.82865234 42.13894653 17.53865234 42.13894653 13.11865234 42.13894653 C13.11865234 45.10894653 13.11865234 48.07894653 13.11865234 51.13894653 C19.38865234 51.13894653 25.65865234 51.13894653 32.11865234 51.13894653 C34.82569427 57.90655135 34.82569427 61.37134171 32.11865234 68.13894653 C19.57865234 68.13894653 7.03865234 68.13894653 -5.88134766 68.13894653 C-7.27361657 65.3544087 -7.00858175 63.07635318 -7.01074219 59.96096802 C-7.01389435 58.66299789 -7.01704651 57.36502777 -7.02029419 56.02772522 C-7.01850454 54.60516323 -7.01645362 53.18260155 -7.01416016 51.76004028 C-7.01483344 50.30797815 -7.01580366 48.85591612 -7.01705933 47.40385437 C-7.01853469 44.35989306 -7.01638659 41.31596108 -7.01171875 38.27200317 C-7.00601648 34.36207723 -7.00930462 30.45221985 -7.01529121 26.54229641 C-7.01889684 23.54411803 -7.01775832 20.54595603 -7.01516342 17.54777718 C-7.01449442 16.10561172 -7.01532165 14.6634448 -7.01764297 13.22128105 C-7.02017004 11.21003115 -7.01563845 9.19877605 -7.01074219 7.18753052 C-7.00994659 6.04106552 -7.009151 4.89460052 -7.0083313 3.71339417 C-6.77028611 -1.11269895 -4.22363788 0.01757603 0 0 Z " fill="#000000" transform="translate(737.88134765625,28.861053466796875)"/>
<path d="M0 0 C0.82290527 0.00202423 1.64581055 0.00404846 2.49365234 0.00613403 C3.33331543 0.00517731 4.17297852 0.00422058 5.03808594 0.00323486 C6.81689529 0.00255306 8.59570712 0.00440737 10.37451172 0.00857544 C13.10699011 0.01392371 15.83930411 0.00863048 18.57177734 0.00222778 C20.29573604 0.00288856 22.01969464 0.00416973 23.74365234 0.00613403 C24.56655762 0.0041098 25.38946289 0.00208557 26.23730469 0 C32.0037018 0.02399599 32.0037018 0.02399599 33.11865234 1.13894653 C33.21846448 3.81626033 33.2574511 6.46198828 33.24365234 9.13894653 C33.24945313 10.2642981 33.24945313 10.2642981 33.25537109 11.41238403 C33.24526288 17.012336 33.24526288 17.012336 32.11865234 18.13894653 C30.70295111 18.22546264 29.28305734 18.24599557 27.86474609 18.23660278 C27.01074219 18.23338013 26.15673828 18.23015747 25.27685547 18.22683716 C23.93010742 18.2142688 23.93010742 18.2142688 22.55615234 18.20144653 C21.65445313 18.19693481 20.75275391 18.1924231 19.82373047 18.18777466 C17.58867645 18.17594898 15.35365632 18.15801292 13.11865234 18.13894653 C13.11865234 21.10894653 13.11865234 24.07894653 13.11865234 27.13894653 C17.73865234 27.13894653 22.35865234 27.13894653 27.11865234 27.13894653 C28.99881726 32.77944127 28.31336762 36.65215834 26.11865234 42.13894653 C21.82865234 42.13894653 17.53865234 42.13894653 13.11865234 42.13894653 C13.11865234 45.10894653 13.11865234 48.07894653 13.11865234 51.13894653 C19.38865234 51.13894653 25.65865234 51.13894653 32.11865234 51.13894653 C34.82569427 57.90655135 34.82569427 61.37134171 32.11865234 68.13894653 C19.57865234 68.13894653 7.03865234 68.13894653 -5.88134766 68.13894653 C-7.27361657 65.3544087 -7.00858175 63.07635318 -7.01074219 59.96096802 C-7.01389435 58.66299789 -7.01704651 57.36502777 -7.02029419 56.02772522 C-7.01850454 54.60516323 -7.01645362 53.18260155 -7.01416016 51.76004028 C-7.01483344 50.30797815 -7.01580366 48.85591612 -7.01705933 47.40385437 C-7.01853469 44.35989306 -7.01638659 41.31596108 -7.01171875 38.27200317 C-7.00601648 34.36207723 -7.00930462 30.45221985 -7.01529121 26.54229641 C-7.01889684 23.54411803 -7.01775832 20.54595603 -7.01516342 17.54777718 C-7.01449442 16.10561172 -7.01532165 14.6634448 -7.01764297 13.22128105 C-7.02017004 11.21003115 -7.01563845 9.19877605 -7.01074219 7.18753052 C-7.00994659 6.04106552 -7.009151 4.89460052 -7.0083313 3.71339417 C-6.77028611 -1.11269895 -4.22363788 0.01757603 0 0 Z " fill="#000000" transform="translate(233.88134765625,28.861053466796875)"/>
<path d="M0 0 C2 2 2 2 2.1171875 3.91796875 C1.51463883 9.56443285 0.12907638 13.25591646 -3 18 C-3.88042969 17.89300781 -4.76085937 17.78601563 -5.66796875 17.67578125 C-6.82941406 17.55589844 -7.99085938 17.43601562 -9.1875 17.3125 C-10.33605469 17.18488281 -11.48460937 17.05726562 -12.66796875 16.92578125 C-16.50177782 17.01117676 -18.04013495 17.60245819 -21 20 C-25.43319594 25.59727365 -24.74005136 32.20425957 -24 39 C-22.76195099 42.28983917 -21.21850001 44.39075 -18 46 C-12.59513542 46.3305133 -7.30735995 46.11733894 -2 45 C1.71235829 50.72763851 4.28774746 55.0929909 3 62 C-4.22996523 68.40837827 -13.71546135 67.67560073 -22.85498047 67.21777344 C-29.56880858 66.53615101 -34.30494806 63.03584508 -38.875 58.3125 C-46.23307448 48.99342925 -47.57360672 38.41972725 -46.78125 26.7890625 C-45.52370761 17.38167811 -42.12599628 8.93786708 -34.98828125 2.47265625 C-25.06537438 -4.8769231 -10.93086856 -5.57259966 0 0 Z " fill="#000000" transform="translate(660,31)"/>
</svg>
