<svg width="512" height="512" viewBox="0 0 512 512" fill="none" xmlns="http://www.w3.org/2000/svg">
<g clip-path="url(#clip0_35_442)">
<g filter="url(#filter0_d_35_442)">
<path d="M156 237.5V260L182.325 278.804C183.376 279.554 184 280.767 184 282.058V298C184 298.824 183.059 299.294 182.4 298.8L154.4 277.8C152.978 276.733 151.022 276.733 149.6 277.8L121.6 298.8C120.941 299.294 120 298.824 120 298V281.589C120 280.28 120.64 279.054 121.714 278.306L148 260V224L156 237.5Z" fill="#E66D17"/>
<path d="M149.6 289.8C151.022 288.733 152.978 288.733 154.4 289.8L182.4 310.8C183.407 311.555 184 312.741 184 314V330C184 330.824 183.059 331.294 182.4 330.8L154.4 309.8C152.978 308.733 151.022 308.733 149.6 309.8L121.6 330.8C120.941 331.294 120 330.824 120 330V314C120 312.741 120.593 311.555 121.6 310.8L149.6 289.8Z" fill="#FA9C50"/>
<path d="M149.6 321.8C151.022 320.733 152.978 320.733 154.4 321.8L182.4 342.8C183.407 343.555 184 344.741 184 346V366.343C184 367.404 183.579 368.421 182.828 369.172L154.828 397.172C153.266 398.734 150.734 398.734 149.172 397.172L121.172 369.172C120.421 368.421 120 367.404 120 366.343V346C120 344.741 120.593 343.555 121.6 342.8L149.6 321.8Z" fill="#FA9C50"/>
<path d="M355 236.5V259L328.675 277.804C327.624 278.554 327 279.767 327 281.058V297C327 297.824 327.941 298.294 328.6 297.8L356.6 276.8C358.022 275.733 359.978 275.733 361.4 276.8L389.4 297.8C390.059 298.294 391 297.824 391 297V280.589C391 279.28 390.36 278.054 389.286 277.306L363 259V223L355 236.5Z" fill="#E66D17"/>
<path d="M361.4 288.8C359.978 287.733 358.022 287.733 356.6 288.8L328.6 309.8C327.593 310.555 327 311.741 327 313V329C327 329.824 327.941 330.294 328.6 329.8L356.6 308.8C358.022 307.733 359.978 307.733 361.4 308.8L389.4 329.8C390.059 330.294 391 329.824 391 329V313C391 311.741 390.407 310.555 389.4 309.8L361.4 288.8Z" fill="#FA9C50"/>
<path d="M361.4 320.8C359.978 319.733 358.022 319.733 356.6 320.8L328.6 341.8C327.593 342.555 327 343.741 327 345V365.343C327 366.404 327.421 367.421 328.172 368.172L356.172 396.172C357.734 397.734 360.266 397.734 361.828 396.172L389.828 368.172C390.579 367.421 391 366.404 391 365.343V345C391 343.741 390.407 342.555 389.4 341.8L361.4 320.8Z" fill="#FA9C50"/>
<path d="M252 289V324L225.675 342.804C224.624 343.554 224 344.767 224 346.058V362C224 362.824 224.941 363.294 225.6 362.8L253.6 341.8C255.022 340.733 256.978 340.733 258.4 341.8L286.4 362.8C287.059 363.294 288 362.824 288 362V346.058C288 344.767 287.376 343.554 286.325 342.804L260 324V289H252Z" fill="#E66D17"/>
<path d="M258.4 353.8C256.978 352.733 255.022 352.733 253.6 353.8L225.6 374.8C224.593 375.555 224 376.741 224 378V394C224 394.824 224.941 395.294 225.6 394.8L253.6 373.8C255.022 372.733 256.978 372.733 258.4 373.8L286.4 394.8C287.059 395.294 288 394.824 288 394V378C288 376.741 287.407 375.555 286.4 374.8L258.4 353.8Z" fill="#FA9C50"/>
<path d="M258.4 385.8C256.978 384.733 255.022 384.733 253.6 385.8L225.6 406.8C224.593 407.555 224 408.741 224 410V430.343C224 431.404 224.421 432.421 225.172 433.172L253.172 461.172C254.734 462.734 257.266 462.734 258.828 461.172L286.828 433.172C287.579 432.421 288 431.404 288 430.343V410C288 408.741 287.407 407.555 286.4 406.8L258.4 385.8Z" fill="#FA9C50"/>
<path d="M248 113C248.552 113 249 112.552 249 112C249 111.448 248.552 111 248 111C247.448 111 247 111.448 247 112C247 112.552 247.448 113 248 113Z" fill="#C2F2F2"/>
<path d="M264 111C264.552 111 265 111.448 265 112C265 112.552 264.552 113 264 113C263.448 113 263 112.552 263 112C263 111.448 263.448 111 264 111Z" fill="#C2F2F2"/>
<path d="M255 120C255 119.448 255.448 119 256 119C256.552 119 257 119.448 257 120C257 120.552 256.552 121 256 121C255.448 121 255 120.552 255 120Z" fill="#C2F2F2"/>
<path d="M249 128.003C249 127.45 248.552 127 248 127C247.448 127 247 127.45 247 128.003C247 128.555 247.448 129.005 248 129.005C248.552 129.005 249 128.555 249 128.003Z" fill="#C2F2F2"/>
<path d="M239 120C239 119.448 239.448 119 240 119C240.552 119 241 119.448 241 120C241 120.552 240.552 121 240 121C239.448 121 239 120.552 239 120Z" fill="#C2F2F2"/>
<path d="M231 128.003C231 127.45 231.448 127 232 127C232.552 127 233 127.45 233 128.003C233 128.555 232.552 129.005 232 129.005C231.448 129.005 231 128.555 231 128.003Z" fill="#C2F2F2"/>
<path d="M223 136C223 135.448 223.448 135 224 135C224.552 135 225 135.448 225 136C225 136.552 224.552 137 224 137C223.448 137 223 136.552 223 136Z" fill="#C2F2F2"/>
<path d="M215 128.001C215 127.449 215.448 127 216 127C216.552 127 217 127.449 217 128.001C217 128.555 216.551 129.004 215.997 129.003C215.446 129.001 215 128.553 215 128.001Z" fill="#C2F2F2"/>
<path d="M215 144C215 143.448 215.448 143 216 143C216.552 143 217 143.448 217 144C217 144.552 216.552 145 216 145C215.448 145 215 144.552 215 144Z" fill="#C2F2F2"/>
<path d="M207 152C207 151.448 207.448 151 208 151C208.552 151 209 151.448 209 152C209 152.552 208.552 153 208 153C207.448 153 207 152.552 207 152Z" fill="#C2F2F2"/>
<path d="M199 160C199 159.448 199.448 159 200 159C200.552 159 201 159.448 201 160C201 160.552 200.552 161 200 161C199.448 161 199 160.552 199 160Z" fill="#C2F2F2"/>
<path d="M207 168C207 167.448 207.448 167 208 167C208.552 167 209 167.448 209 168C209 168.552 208.552 169 208 169C207.448 169 207 168.552 207 168Z" fill="#C2F2F2"/>
<path d="M199 176C199 175.448 199.448 175 200 175C200.552 175 201 175.448 201 176C201 176.552 200.552 177 200 177C199.448 177 199 176.552 199 176Z" fill="#C2F2F2"/>
<path d="M215 176C215 175.448 215.448 175 216 175C216.552 175 217 175.448 217 176C217 176.552 216.552 177 216 177C215.448 177 215 176.552 215 176Z" fill="#C2F2F2"/>
<path d="M215 160C215 159.448 215.448 159 216 159C216.552 159 217 159.448 217 160C217 160.552 216.552 161 216 161C215.448 161 215 160.552 215 160Z" fill="#C2F2F2"/>
<path d="M207 136C207 135.448 207.448 135 208 135C208.552 135 209 135.448 209 136C209 136.552 208.552 137 208 137C207.448 137 207 136.552 207 136Z" fill="#C2F2F2"/>
<path d="M223 120.003C223 119.45 223.448 119 224 119C224.552 119 225 119.45 225 120.003C225 120.555 224.552 121.005 224 121.005C223.448 121.005 223 120.555 223 120.003Z" fill="#C2F2F2"/>
<path d="M263 128C263 127.448 263.448 127 264 127C264.552 127 265 127.448 265 128C265 128.552 264.552 129 264 129C263.448 129 263 128.552 263 128Z" fill="#C2F2F2"/>
<path d="M271 120C271 119.448 271.448 119 272 119C272.552 119 273 119.448 273 120C273 120.552 272.552 121 272 121C271.448 121 271 120.552 271 120Z" fill="#C2F2F2"/>
<path d="M287 120C287 119.448 287.448 119 288 119C288.552 119 289 119.448 289 120C289 120.552 288.552 121 288 121C287.448 121 287 120.552 287 120Z" fill="#C2F2F2"/>
<path d="M279 128C279 127.448 279.448 127 280 127C280.552 127 281 127.448 281 128C281 128.552 280.552 129 280 129C279.448 129 279 128.552 279 128Z" fill="#C2F2F2"/>
<path d="M295 128C295 127.448 295.448 127 296 127C296.552 127 297 127.448 297 128C297 128.552 296.552 129 296 129C295.448 129 295 128.552 295 128Z" fill="#C2F2F2"/>
<path d="M287 136C287 135.448 287.448 135 288 135C288.552 135 289 135.448 289 136C289 136.552 288.552 137 288 137C287.448 137 287 136.552 287 136Z" fill="#C2F2F2"/>
<path d="M303 136C303 135.448 303.448 135 304 135C304.552 135 305 135.448 305 136C305 136.552 304.552 137 304 137C303.448 137 303 136.552 303 136Z" fill="#C2F2F2"/>
<path d="M295 144C295 143.448 295.448 143 296 143C296.552 143 297 143.448 297 144C297 144.552 296.552 145 296 145C295.448 145 295 144.552 295 144Z" fill="#C2F2F2"/>
<path d="M303 152C303 151.448 303.448 151 304 151C304.552 151 305 151.448 305 152C305 152.552 304.552 153 304 153C303.448 153 303 152.552 303 152Z" fill="#C2F2F2"/>
<path d="M311 160C311 159.448 311.448 159 312 159C312.552 159 313 159.448 313 160C313 160.552 312.552 161 312 161C311.448 161 311 160.552 311 160Z" fill="#C2F2F2"/>
<path d="M295 160C295 159.448 295.448 159 296 159C296.552 159 297 159.448 297 160C297 160.552 296.552 161 296 161C295.448 161 295 160.552 295 160Z" fill="#C2F2F2"/>
<path d="M303 168C303 167.448 303.448 167 304 167C304.552 167 305 167.448 305 168C305 168.552 304.552 169 304 169C303.448 169 303 168.552 303 168Z" fill="#C2F2F2"/>
<path d="M311 176C311 175.448 311.448 175 312 175C312.552 175 313 175.448 313 176C313 176.552 312.552 177 312 177C311.448 177 311 176.552 311 176Z" fill="#C2F2F2"/>
<path d="M303 184C303 183.448 303.448 183 304 183C304.552 183 305 183.448 305 184C305 184.552 304.552 185 304 185C303.448 185 303 184.552 303 184Z" fill="#C2F2F2"/>
<path d="M295 176C295 175.448 295.448 175 296 175C296.552 175 297 175.448 297 176C297 176.552 296.552 177 296 177C295.448 177 295 176.552 295 176Z" fill="#C2F2F2"/>
<path d="M295 192C295 191.448 295.448 191 296 191C296.552 191 297 191.448 297 192C297 192.552 296.552 193 296 193C295.448 193 295 192.552 295 192Z" fill="#C2F2F2"/>
<path d="M303 200C303 199.448 303.448 199 304 199C304.552 199 305 199.448 305 200C305 200.552 304.552 201 304 201C303.448 201 303 200.552 303 200Z" fill="#C2F2F2"/>
<path d="M295 208C295 207.448 295.448 207 296 207C296.552 207 297 207.448 297 208C297 208.552 296.552 209 296 209C295.448 209 295 208.552 295 208Z" fill="#C2F2F2"/>
<path d="M287 200C287 199.448 287.448 199 288 199C288.552 199 289 199.448 289 200C289 200.552 288.552 201 288 201C287.448 201 287 200.552 287 200Z" fill="#C2F2F2"/>
<path d="M287 216C287 215.448 287.448 215 288 215C288.552 215 289 215.448 289 216C289 216.552 288.552 217 288 217C287.448 217 287 216.552 287 216Z" fill="#C2F2F2"/>
<path d="M279 208C279 207.448 279.448 207 280 207C280.552 207 281 207.448 281 208C281 208.552 280.552 209 280 209C279.448 209 279 208.552 279 208Z" fill="#C2F2F2"/>
<path d="M271 216C271 215.448 271.448 215 272 215C272.552 215 273 215.448 273 216C273 216.552 272.552 217 272 217C271.448 217 271 216.552 271 216Z" fill="#C2F2F2"/>
<path d="M263 208C263 207.448 263.448 207 264 207C264.552 207 265 207.448 265 208C265 208.552 264.552 209 264 209C263.448 209 263 208.552 263 208Z" fill="#C2F2F2"/>
<path d="M263 224C263 223.448 263.448 223 264 223C264.552 223 265 223.448 265 224C265 224.552 264.552 225 264 225C263.448 225 263 224.552 263 224Z" fill="#C2F2F2"/>
<path d="M255 216C255 215.448 255.448 215 256 215C256.552 215 257 215.448 257 216C257 216.552 256.552 217 256 217C255.448 217 255 216.552 255 216Z" fill="#C2F2F2"/>
<path d="M247 224C247 223.448 247.448 223 248 223C248.552 223 249 223.448 249 224C249 224.552 248.552 225 248 225C247.448 225 247 224.552 247 224Z" fill="#C2F2F2"/>
<path d="M247 224C247 223.448 247.448 223 248 223C248.552 223 249 223.448 249 224C249 224.552 248.552 225 248 225C247.448 225 247 224.552 247 224Z" fill="#C2F2F2"/>
<path d="M247 208C247 207.448 247.448 207 248 207C248.552 207 249 207.448 249 208C249 208.552 248.552 209 248 209C247.448 209 247 208.552 247 208Z" fill="#C2F2F2"/>
<path d="M239 216C239 215.448 239.448 215 240 215C240.552 215 241 215.448 241 216C241 216.552 240.552 217 240 217C239.448 217 239 216.552 239 216Z" fill="#C2F2F2"/>
<path d="M223 216C223 215.448 223.448 215 224 215C224.552 215 225 215.448 225 216C225 216.552 224.552 217 224 217C223.448 217 223 216.552 223 216Z" fill="#C2F2F2"/>
<path d="M231 208C231 207.448 231.448 207 232 207C232.552 207 233 207.448 233 208C233 208.552 232.552 209 232 209C231.448 209 231 208.552 231 208Z" fill="#C2F2F2"/>
<path d="M223 200C223 199.448 223.448 199 224 199C224.552 199 225 199.448 225 200C225 200.552 224.552 201 224 201C223.448 201 223 200.552 223 200Z" fill="#C2F2F2"/>
<path d="M215 208C215 207.448 215.448 207 216 207C216.552 207 217 207.448 217 208C217 208.552 216.552 209 216 209C215.448 209 215 208.552 215 208Z" fill="#C2F2F2"/>
<path d="M207 200C207 199.448 207.448 199 208 199C208.552 199 209 199.448 209 200C209 200.552 208.552 201 208 201C207.448 201 207 200.552 207 200Z" fill="#C2F2F2"/>
<path d="M215 192C215 191.448 215.448 191 216 191C216.552 191 217 191.448 217 192C217 192.552 216.552 193 216 193C215.448 193 215 192.552 215 192Z" fill="#C2F2F2"/>
<path d="M207 184C207 183.448 207.448 183 208 183C208.552 183 209 183.448 209 184C209 184.552 208.552 185 208 185C207.448 185 207 184.552 207 184Z" fill="#C2F2F2"/>
<path d="M207.683 135C207.452 135.328 207.225 135.658 207 135.991M216.737 161C216.818 160.58 216.906 160.158 217 159.735M216 161C215.448 161 215 160.552 215 160C215 159.448 215.448 159 216 159C216.552 159 217 159.448 217 160C217 160.552 216.552 161 216 161ZM208 137C207.448 137 207 136.552 207 136C207 135.448 207.448 135 208 135C208.552 135 209 135.448 209 136C209 136.552 208.552 137 208 137ZM224 121.005C223.448 121.005 223 120.555 223 120.003C223 119.45 223.448 119 224 119C224.552 119 225 119.45 225 120.003C225 120.555 224.552 121.005 224 121.005ZM264 129C263.448 129 263 128.552 263 128C263 127.448 263.448 127 264 127C264.552 127 265 127.448 265 128C265 128.552 264.552 129 264 129ZM272 121C271.448 121 271 120.552 271 120C271 119.448 271.448 119 272 119C272.552 119 273 119.448 273 120C273 120.552 272.552 121 272 121ZM288 121C287.448 121 287 120.552 287 120C287 119.448 287.448 119 288 119C288.552 119 289 119.448 289 120C289 120.552 288.552 121 288 121ZM280 129C279.448 129 279 128.552 279 128C279 127.448 279.448 127 280 127C280.552 127 281 127.448 281 128C281 128.552 280.552 129 280 129ZM296 129C295.448 129 295 128.552 295 128C295 127.448 295.448 127 296 127C296.552 127 297 127.448 297 128C297 128.552 296.552 129 296 129ZM288 137C287.448 137 287 136.552 287 136C287 135.448 287.448 135 288 135C288.552 135 289 135.448 289 136C289 136.552 288.552 137 288 137ZM304 137C303.448 137 303 136.552 303 136C303 135.448 303.448 135 304 135C304.552 135 305 135.448 305 136C305 136.552 304.552 137 304 137ZM296 145C295.448 145 295 144.552 295 144C295 143.448 295.448 143 296 143C296.552 143 297 143.448 297 144C297 144.552 296.552 145 296 145ZM304 153C303.448 153 303 152.552 303 152C303 151.448 303.448 151 304 151C304.552 151 305 151.448 305 152C305 152.552 304.552 153 304 153ZM312 161C311.448 161 311 160.552 311 160C311 159.448 311.448 159 312 159C312.552 159 313 159.448 313 160C313 160.552 312.552 161 312 161ZM296 161C295.448 161 295 160.552 295 160C295 159.448 295.448 159 296 159C296.552 159 297 159.448 297 160C297 160.552 296.552 161 296 161ZM304 169C303.448 169 303 168.552 303 168C303 167.448 303.448 167 304 167C304.552 167 305 167.448 305 168C305 168.552 304.552 169 304 169ZM312 177C311.448 177 311 176.552 311 176C311 175.448 311.448 175 312 175C312.552 175 313 175.448 313 176C313 176.552 312.552 177 312 177ZM304 185C303.448 185 303 184.552 303 184C303 183.448 303.448 183 304 183C304.552 183 305 183.448 305 184C305 184.552 304.552 185 304 185ZM296 177C295.448 177 295 176.552 295 176C295 175.448 295.448 175 296 175C296.552 175 297 175.448 297 176C297 176.552 296.552 177 296 177ZM296 193C295.448 193 295 192.552 295 192C295 191.448 295.448 191 296 191C296.552 191 297 191.448 297 192C297 192.552 296.552 193 296 193ZM304 201C303.448 201 303 200.552 303 200C303 199.448 303.448 199 304 199C304.552 199 305 199.448 305 200C305 200.552 304.552 201 304 201ZM296 209C295.448 209 295 208.552 295 208C295 207.448 295.448 207 296 207C296.552 207 297 207.448 297 208C297 208.552 296.552 209 296 209ZM288 201C287.448 201 287 200.552 287 200C287 199.448 287.448 199 288 199C288.552 199 289 199.448 289 200C289 200.552 288.552 201 288 201ZM288 217C287.448 217 287 216.552 287 216C287 215.448 287.448 215 288 215C288.552 215 289 215.448 289 216C289 216.552 288.552 217 288 217ZM280 209C279.448 209 279 208.552 279 208C279 207.448 279.448 207 280 207C280.552 207 281 207.448 281 208C281 208.552 280.552 209 280 209ZM272 217C271.448 217 271 216.552 271 216C271 215.448 271.448 215 272 215C272.552 215 273 215.448 273 216C273 216.552 272.552 217 272 217ZM264 209C263.448 209 263 208.552 263 208C263 207.448 263.448 207 264 207C264.552 207 265 207.448 265 208C265 208.552 264.552 209 264 209ZM264 225C263.448 225 263 224.552 263 224C263 223.448 263.448 223 264 223C264.552 223 265 223.448 265 224C265 224.552 264.552 225 264 225ZM256 217C255.448 217 255 216.552 255 216C255 215.448 255.448 215 256 215C256.552 215 257 215.448 257 216C257 216.552 256.552 217 256 217ZM248 225C247.448 225 247 224.552 247 224C247 223.448 247.448 223 248 223C248.552 223 249 223.448 249 224C249 224.552 248.552 225 248 225ZM248 209C247.448 209 247 208.552 247 208C247 207.448 247.448 207 248 207C248.552 207 249 207.448 249 208C249 208.552 248.552 209 248 209ZM240 217C239.448 217 239 216.552 239 216C239 215.448 239.448 215 240 215C240.552 215 241 215.448 241 216C241 216.552 240.552 217 240 217ZM224 217C223.448 217 223 216.552 223 216C223 215.448 223.448 215 224 215C224.552 215 225 215.448 225 216C225 216.552 224.552 217 224 217ZM232 209C231.448 209 231 208.552 231 208C231 207.448 231.448 207 232 207C232.552 207 233 207.448 233 208C233 208.552 232.552 209 232 209ZM224 201C223.448 201 223 200.552 223 200C223 199.448 223.448 199 224 199C224.552 199 225 199.448 225 200C225 200.552 224.552 201 224 201ZM216 209C215.448 209 215 208.552 215 208C215 207.448 215.448 207 216 207C216.552 207 217 207.448 217 208C217 208.552 216.552 209 216 209ZM208 201C207.448 201 207 200.552 207 200C207 199.448 207.448 199 208 199C208.552 199 209 199.448 209 200C209 200.552 208.552 201 208 201ZM216 193C215.448 193 215 192.552 215 192C215 191.448 215.448 191 216 191C216.552 191 217 191.448 217 192C217 192.552 216.552 193 216 193ZM208 185C207.448 185 207 184.552 207 184C207 183.448 207.448 183 208 183C208.552 183 209 183.448 209 184C209 184.552 208.552 185 208 185ZM216 177V177C216.552 177 217 176.552 217 176V176C217 175.448 216.552 175 216 175V175C215.448 175 215 175.448 215 176V176C215 176.552 215.448 177 216 177ZM200 177V177C200.552 177 201 176.552 201 176V176C201 175.448 200.552 175 200 175V175C199.448 175 199 175.448 199 176V176C199 176.552 199.448 177 200 177ZM208 169V169C208.552 169 209 168.552 209 168V168C209 167.448 208.552 167 208 167V167C207.448 167 207 167.448 207 168V168C207 168.552 207.448 169 208 169ZM201 160V160C201 159.448 200.552 159 200 159V159C199.448 159 199 159.448 199 160V160C199 160.552 199.448 161 200 161V161C200.552 161 201 160.552 201 160ZM208 153V153C208.552 153 209 152.552 209 152V152C209 151.448 208.552 151 208 151V151C207.448 151 207 151.448 207 152V152C207 152.552 207.448 153 208 153ZM216 145V145C216.552 145 217 144.552 217 144V144C217 143.448 216.552 143 216 143V143C215.448 143 215 143.448 215 144V144C215 144.552 215.448 145 216 145ZM215.997 129.003V129.003C216.551 129.004 217 128.555 217 128.001V128.001C217 127.449 216.552 127 216 127V127C215.448 127 215 127.449 215 128.001V128.001C215 128.553 215.446 129.001 215.997 129.003ZM224 137V137C224.552 137 225 136.552 225 136V136C225 135.448 224.552 135 224 135V135C223.448 135 223 135.448 223 136V136C223 136.552 223.448 137 224 137ZM232 129.005V129.005C232.552 129.005 233 128.555 233 128.003V128.003C233 127.45 232.552 127 232 127V127C231.448 127 231 127.45 231 128.003V128.003C231 128.555 231.448 129.005 232 129.005ZM240 121V121C240.552 121 241 120.552 241 120V120C241 119.448 240.552 119 240 119V119C239.448 119 239 119.448 239 120V120C239 120.552 239.448 121 240 121ZM247 128.003V128.003C247 127.45 247.448 127 248 127V127C248.552 127 249 127.45 249 128.003V128.003C249 128.555 248.552 129.005 248 129.005V129.005C247.448 129.005 247 128.555 247 128.003ZM256 121V121C256.552 121 257 120.552 257 120V120C257 119.448 256.552 119 256 119V119C255.448 119 255 119.448 255 120V120C255 120.552 255.448 121 256 121ZM263 112V112C263 112.552 263.448 113 264 113V113C264.552 113 265 112.552 265 112V112C265 111.448 264.552 111 264 111V111C263.448 111 263 111.448 263 112ZM247 112V112C247 111.448 247.448 111 248 111V111C248.552 111 249 111.448 249 112V112C249 112.552 248.552 113 248 113V113C247.448 113 247 112.552 247 112Z" stroke="#C2F2F2"/>
<path fill-rule="evenodd" clip-rule="evenodd" d="M189.5 88C189.5 88 214 64 256.5 64C299 64 324 88.5 324 88.5C324 88.5 316.079 102 324.5 112C332.921 122 348 118.5 348 118.5C348 118.5 361.5 139.5 360.5 168C359.5 196.5 348 217 348 217C348 217 335 212 325.5 222C316 232 323.5 246.5 323.5 246.5C323.5 246.5 297 272 253.5 271.5C210 271 189.5 247 189.5 247C189.5 247 196.5 233 187.5 222.5C178.5 212 165 217 165 217C165 217 152 198.5 152 168C152 137.5 165 118.5 165 118.5C165 118.5 177.438 124 187.5 112.5C197.563 101 189.5 88 189.5 88ZM201.5 119.5C218.5 99.5 241.5 95.5 256.5 95.5C271.5 95.5 296.98 101.5 312.5 121C328.02 140.5 328.5 157.5 328.5 168C328.5 178.5 323.5 197.019 312 212.5C300.5 227.981 280 240 253.5 240C227 240 210 224.295 200 212.5C190 200.705 184 183 184 168C184 153 184.5 139.5 201.5 119.5Z" fill="#9DE0E0" stroke="#9DE0E0"/>
<path fill-rule="evenodd" clip-rule="evenodd" d="M255.507 48C318.007 48 349.757 92 349.757 92C349.757 92 375.507 124 375.507 168.5C375.507 189.099 369.722 207.019 363.507 220.327C360.771 226.185 357.952 231.15 355.507 235.056C351.507 241.444 348.507 245 348.507 245C348.507 245 316.506 286.109 259.507 288.404C258.187 288.457 256.854 288.489 255.507 288.5C254.161 288.511 252.828 288.498 251.507 288.462C194.464 286.931 161.507 243.5 161.507 243.5C161.507 243.5 158.975 240.822 155.507 235.694C153.112 232.153 150.27 227.444 147.507 221.641C141.45 208.919 135.771 190.941 136.007 168.5C136.507 121 161.507 92 161.507 92C161.507 92 193.007 48 255.507 48ZM143.507 168.5C143.507 132 160.507 107.5 160.507 107.5C160.507 107.5 172.607 118 181.007 107.5C189.407 97 176.507 88.5 176.507 88.5C176.507 88.5 207.007 56.5 255.507 56C304.007 55.5 334.507 88.5 334.507 88.5C334.507 88.5 321.607 97 330.007 107.5C338.407 118 349.757 107.5 349.757 107.5C349.757 107.5 368.507 136.5 368.007 168.5C367.507 200.5 349.507 228.5 349.507 228.5C349.507 228.5 339.007 218.111 330.507 228.5C322.007 238.889 335.007 247 335.007 247C335.007 247 307.007 279.5 255.507 280C204.007 280.5 176.507 247 176.507 247C176.507 247 190.073 238.044 180.507 228C170.941 217.956 161.507 229.5 161.507 229.5C161.507 229.5 143.507 205 143.507 168.5Z" fill="#269999"/>
<path d="M147.507 221.641L155.507 235.694M147.507 221.641C150.27 227.444 153.112 232.153 155.507 235.694M147.507 221.641C141.45 208.918 135.771 190.941 136.007 168.5C136.507 121 161.507 92 161.507 92C161.507 92 193.007 48 255.507 48C318.007 48 349.757 92 349.757 92C349.757 92 375.507 124 375.507 168.5C375.507 189.099 369.722 207.019 363.507 220.327M155.507 235.694C158.975 240.822 161.507 243.5 161.507 243.5C161.507 243.5 194.464 286.931 251.507 288.462M251.507 288.462L259.507 288.404M251.507 288.462C252.828 288.498 254.161 288.511 255.507 288.5C256.854 288.489 258.187 288.457 259.507 288.404M259.507 288.404C316.506 286.109 348.507 245 348.507 245C348.507 245 351.507 241.444 355.507 235.056M363.507 220.327L355.507 235.056M363.507 220.327C360.771 226.185 357.952 231.15 355.507 235.056M160.507 107.5C160.507 107.5 143.507 132 143.507 168.5C143.507 205 161.507 229.5 161.507 229.5C161.507 229.5 170.941 217.956 180.507 228C190.073 238.044 176.507 247 176.507 247C176.507 247 204.007 280.5 255.507 280C307.007 279.5 335.007 247 335.007 247C335.007 247 322.007 238.889 330.507 228.5C339.007 218.111 349.507 228.5 349.507 228.5C349.507 228.5 367.507 200.5 368.007 168.5C368.507 136.5 349.757 107.5 349.757 107.5C349.757 107.5 338.407 118 330.007 107.5C321.607 97 334.507 88.5 334.507 88.5C334.507 88.5 304.007 55.5 255.507 56C207.007 56.5 176.507 88.5 176.507 88.5C176.507 88.5 189.407 97 181.007 107.5C172.607 118 160.507 107.5 160.507 107.5Z" stroke="#269999"/>
<path fill-rule="evenodd" clip-rule="evenodd" d="M256 128C258.459 128 260.791 128.153 263 128.444C286.399 131.53 296 150.182 296 168C296 187.5 281.5 208 256 208C230.5 208 216 184.5 216 168C216 165.616 216.24 163.085 216.737 160.5C216.818 160.08 216.906 159.658 217 159.235C219.997 145.819 229.904 131.359 249 128.505C251.209 128.175 253.541 128 256 128ZM276 167.5C276 156.5 267 147.5 256 147.5C245 147.5 236 157 236 167.5C236 178 245 187.5 256 187.5C267 187.5 276 178.5 276 167.5Z" fill="#269999" stroke="#269999"/>
<path fill-rule="evenodd" clip-rule="evenodd" d="M255 104C292 104 320 134 320 169C320 204 294 233 255 233C216 233 191 201.5 191 169C191 136.5 218 104 255 104ZM315.5 169C315.5 135 285 109 255 108.5C243.54 108.309 232.152 112.496 222.455 119.5C222.303 119.61 222.151 119.72 222 119.831C216.14 124.14 210.914 129.48 206.683 135.5C206.452 135.828 206.225 136.158 206 136.491C199.479 146.133 195.5 157.432 195.5 169C195.5 200.5 222 228.5 255 228.5C288 228.5 315.5 203 315.5 169Z" fill="#269999" stroke="#269999"/>
</g>
</g>
<defs>
<filter id="filter0_d_35_442" x="109" y="36.5" width="301" height="446.5" filterUnits="userSpaceOnUse" color-interpolation-filters="sRGB">
<feFlood flood-opacity="0" result="BackgroundImageFix"/>
<feColorMatrix in="SourceAlpha" type="matrix" values="0 0 0 0 0 0 0 0 0 0 0 0 0 0 0 0 0 0 127 0" result="hardAlpha"/>
<feOffset dx="4" dy="4"/>
<feGaussianBlur stdDeviation="7.5"/>
<feComposite in2="hardAlpha" operator="out"/>
<feColorMatrix type="matrix" values="0 0 0 0 0 0 0 0 0 0 0 0 0 0 0 0 0 0 0.15 0"/>
<feBlend mode="normal" in2="BackgroundImageFix" result="effect1_dropShadow_35_442"/>
<feBlend mode="normal" in="SourceGraphic" in2="effect1_dropShadow_35_442" result="shape"/>
</filter>
<clipPath id="clip0_35_442">
<rect width="512" height="512" rx="80" fill="white"/>
</clipPath>
</defs>
</svg>
