<svg width="512" height="512" viewBox="0 0 512 512" fill="none" xmlns="http://www.w3.org/2000/svg">
<path fill-rule="evenodd" clip-rule="evenodd" d="M189 88.5C189 88.5 213.5 64.5 256 64.5C298.5 64.5 323.5 89 323.5 89C323.5 89 315.579 102.5 324 112.5C332.421 122.5 347.5 119 347.5 119C347.5 119 361 140 360 168.5C359 197 347.5 217.5 347.5 217.5C347.5 217.5 334.5 212.5 325 222.5C315.5 232.5 323 247 323 247C323 247 296.5 272.5 253 272C209.5 271.5 189 247.5 189 247.5C189 247.5 196 233.5 187 223C178 212.5 164.5 217.5 164.5 217.5C164.5 217.5 151.5 199 151.5 168.5C151.5 138 164.5 119 164.5 119C164.5 119 176.937 124.5 187 113C197.062 101.5 189 88.5 189 88.5ZM201 120C218 100 241 96 256 96C271 96 296.48 102 312 121.5C327.52 141 328 158 328 168.5C328 179 323 197.519 311.5 213C300 228.481 279.5 240.5 253 240.5C226.5 240.5 209.5 224.795 199.5 213C189.5 201.205 183.5 183.5 183.5 168.5C183.5 153.5 184 140 201 120Z" fill="black"/>
<path fill-rule="evenodd" clip-rule="evenodd" d="M256 48C318.5 48 350.25 92 350.25 92C350.25 92 376 124 376 168.5C376 189.099 370.215 207.019 364 220.327C361.264 226.185 358.445 231.15 356 235.056C352 241.444 349 245 349 245C349 245 316.999 286.109 260 288.404C258.68 288.457 257.347 288.489 256 288.5C254.654 288.511 253.32 288.498 252 288.462C194.957 286.931 162 243.5 162 243.5C162 243.5 159.468 240.822 156 235.694C153.605 232.153 150.763 227.444 148 221.641C141.943 208.918 136.264 190.941 136.5 168.5C137 121 162 92 162 92C162 92 193.5 48 256 48ZM144 168.5C144 132 161 107.5 161 107.5C161 107.5 173.1 118 181.5 107.5C189.9 97 177 88.5 177 88.5C177 88.5 207.5 56.5 256 56C304.5 55.5 335 88.5 335 88.5C335 88.5 322.1 97 330.5 107.5C338.9 118 350.25 107.5 350.25 107.5C350.25 107.5 369 136.5 368.5 168.5C368 200.5 350 228.5 350 228.5C350 228.5 339.5 218.111 331 228.5C322.5 238.889 335.5 247 335.5 247C335.5 247 307.5 279.5 256 280C204.5 280.5 177 247 177 247C177 247 190.566 238.044 181 228C171.434 217.956 162 229.5 162 229.5C162 229.5 144 205 144 168.5Z" fill="black"/>
<path fill-rule="evenodd" clip-rule="evenodd" d="M256 103.5C293 103.5 321 133.5 321 168.5C321 203.5 295 232.5 256 232.5C217 232.5 192 201 192 168.5C192 136 219 103.5 256 103.5ZM316.5 168.5C316.5 134.5 286 108.5 256 108C244.54 107.809 233.152 111.996 223.455 119C223.303 119.11 223.151 119.22 223 119.331C217.14 123.64 211.914 128.98 207.683 135C207.452 135.328 207.225 135.658 207 135.991C200.479 145.633 196.5 156.932 196.5 168.5C196.5 200 223 228 256 228C289 228 316.5 202.5 316.5 168.5Z" fill="black"/>
<path fill-rule="evenodd" clip-rule="evenodd" d="M256 128.5C258.459 128.5 260.791 128.653 263 128.944C286.399 132.03 296 150.682 296 168.5C296 188 281.5 208.5 256 208.5C230.5 208.5 216 185 216 168.5C216 166.116 216.24 163.585 216.737 161C216.818 160.58 216.906 160.158 217 159.735C219.997 146.319 229.904 131.859 249 129.005C251.209 128.675 253.541 128.5 256 128.5ZM276 168C276 157 267 148 256 148C245 148 236 157.5 236 168C236 178.5 245 188 256 188C267 188 276 179 276 168Z" fill="black"/>
<path d="M248 113C248.552 113 249 112.552 249 112V112C249 111.448 248.552 111 248 111V111C247.448 111 247 111.448 247 112V112C247 112.552 247.448 113 248 113V113Z" fill="black"/>
<path d="M264 111C264.552 111 265 111.448 265 112V112C265 112.552 264.552 113 264 113V113C263.448 113 263 112.552 263 112V112C263 111.448 263.448 111 264 111V111Z" fill="black"/>
<path d="M255 120C255 119.448 255.448 119 256 119V119C256.552 119 257 119.448 257 120V120C257 120.552 256.552 121 256 121V121C255.448 121 255 120.552 255 120V120Z" fill="black"/>
<path d="M249 128C249 127.448 248.552 127 248 127V127C247.448 127 247 127.45 247 128.003V128.003C247 128.555 247.448 129.005 248 129.005H249V128Z" fill="black"/>
<path d="M239 120C239 119.448 239.448 119 240 119V119C240.552 119 241 119.448 241 120V120C241 120.552 240.552 121 240 121V121C239.448 121 239 120.552 239 120V120Z" fill="black"/>
<path d="M231 128.003C231 127.45 231.448 127 232 127V127C232.552 127 233 127.45 233 128.003V128.003C233 128.555 232.552 129.005 232 129.005V129.005C231.448 129.005 231 128.555 231 128.003V128.003Z" fill="black"/>
<path d="M223 136C223 135.448 223.448 135 224 135V135C224.552 135 225 135.448 225 136V136C225 136.552 224.552 137 224 137V137C223.448 137 223 136.552 223 136V136Z" fill="black"/>
<path d="M215 128.001C215 127.449 215.448 127 216 127V127C216.552 127 217 127.449 217 128.001V128.001C217 128.555 216.551 129.004 215.997 129.003V129.003C215.446 129.001 215 128.553 215 128.001V128.001Z" fill="black"/>
<path d="M215 144C215 143.448 215.448 143 216 143V143C216.552 143 217 143.448 217 144V144C217 144.552 216.552 145 216 145V145C215.448 145 215 144.552 215 144V144Z" fill="black"/>
<path d="M207 152C207 151.448 207.448 151 208 151V151C208.552 151 209 151.448 209 152V152C209 152.552 208.552 153 208 153V153C207.448 153 207 152.552 207 152V152Z" fill="black"/>
<path d="M199 160C199 159.448 199.448 159 200 159V159C200.552 159 201 159.448 201 160V160C201 160.552 200.552 161 200 161V161C199.448 161 199 160.552 199 160V160Z" fill="black"/>
<path d="M207 168C207 167.448 207.448 167 208 167V167C208.552 167 209 167.448 209 168V168C209 168.552 208.552 169 208 169V169C207.448 169 207 168.552 207 168V168Z" fill="black"/>
<path d="M199 176C199 175.448 199.448 175 200 175V175C200.552 175 201 175.448 201 176V176C201 176.552 200.552 177 200 177V177C199.448 177 199 176.552 199 176V176Z" fill="black"/>
<path d="M215 176C215 175.448 215.448 175 216 175V175C216.552 175 217 175.448 217 176V176C217 176.552 216.552 177 216 177V177C215.448 177 215 176.552 215 176V176Z" fill="black"/>
<path d="M215 160C215 159.448 215.448 159 216 159C216.552 159 217 159.448 217 160C217 160.552 216.552 161 216 161C215.448 161 215 160.552 215 160Z" fill="black"/>
<path d="M207 136C207 135.448 207.448 135 208 135C208.552 135 209 135.448 209 136C209 136.552 208.552 137 208 137C207.448 137 207 136.552 207 136Z" fill="black"/>
<path d="M223 120.003C223 119.45 223.448 119 224 119C224.552 119 225 119.45 225 120.003C225 120.555 224.552 121.005 224 121.005C223.448 121.005 223 120.555 223 120.003Z" fill="black"/>
<path d="M263 128C263 127.448 263.448 127 264 127C264.552 127 265 127.448 265 128C265 128.552 264.552 129 264 129C263.448 129 263 128.552 263 128Z" fill="black"/>
<path d="M271 120C271 119.448 271.448 119 272 119C272.552 119 273 119.448 273 120C273 120.552 272.552 121 272 121C271.448 121 271 120.552 271 120Z" fill="black"/>
<path d="M287 120C287 119.448 287.448 119 288 119C288.552 119 289 119.448 289 120C289 120.552 288.552 121 288 121C287.448 121 287 120.552 287 120Z" fill="black"/>
<path d="M279 128C279 127.448 279.448 127 280 127C280.552 127 281 127.448 281 128C281 128.552 280.552 129 280 129C279.448 129 279 128.552 279 128Z" fill="black"/>
<path d="M295 128C295 127.448 295.448 127 296 127C296.552 127 297 127.448 297 128C297 128.552 296.552 129 296 129C295.448 129 295 128.552 295 128Z" fill="black"/>
<path d="M287 136C287 135.448 287.448 135 288 135C288.552 135 289 135.448 289 136C289 136.552 288.552 137 288 137C287.448 137 287 136.552 287 136Z" fill="black"/>
<path d="M303 136C303 135.448 303.448 135 304 135C304.552 135 305 135.448 305 136C305 136.552 304.552 137 304 137C303.448 137 303 136.552 303 136Z" fill="black"/>
<path d="M295 144C295 143.448 295.448 143 296 143C296.552 143 297 143.448 297 144C297 144.552 296.552 145 296 145C295.448 145 295 144.552 295 144Z" fill="black"/>
<path d="M303 152C303 151.448 303.448 151 304 151C304.552 151 305 151.448 305 152C305 152.552 304.552 153 304 153C303.448 153 303 152.552 303 152Z" fill="black"/>
<path d="M311 160C311 159.448 311.448 159 312 159C312.552 159 313 159.448 313 160C313 160.552 312.552 161 312 161C311.448 161 311 160.552 311 160Z" fill="black"/>
<path d="M295 160C295 159.448 295.448 159 296 159C296.552 159 297 159.448 297 160C297 160.552 296.552 161 296 161C295.448 161 295 160.552 295 160Z" fill="black"/>
<path d="M303 168C303 167.448 303.448 167 304 167C304.552 167 305 167.448 305 168C305 168.552 304.552 169 304 169C303.448 169 303 168.552 303 168Z" fill="black"/>
<path d="M311 176C311 175.448 311.448 175 312 175C312.552 175 313 175.448 313 176C313 176.552 312.552 177 312 177C311.448 177 311 176.552 311 176Z" fill="black"/>
<path d="M303 184C303 183.448 303.448 183 304 183C304.552 183 305 183.448 305 184C305 184.552 304.552 185 304 185C303.448 185 303 184.552 303 184Z" fill="black"/>
<path d="M295 176C295 175.448 295.448 175 296 175C296.552 175 297 175.448 297 176C297 176.552 296.552 177 296 177C295.448 177 295 176.552 295 176Z" fill="black"/>
<path d="M295 192C295 191.448 295.448 191 296 191C296.552 191 297 191.448 297 192C297 192.552 296.552 193 296 193C295.448 193 295 192.552 295 192Z" fill="black"/>
<path d="M303 200C303 199.448 303.448 199 304 199C304.552 199 305 199.448 305 200C305 200.552 304.552 201 304 201C303.448 201 303 200.552 303 200Z" fill="black"/>
<path d="M295 208C295 207.448 295.448 207 296 207C296.552 207 297 207.448 297 208C297 208.552 296.552 209 296 209C295.448 209 295 208.552 295 208Z" fill="black"/>
<path d="M287 200C287 199.448 287.448 199 288 199C288.552 199 289 199.448 289 200C289 200.552 288.552 201 288 201C287.448 201 287 200.552 287 200Z" fill="black"/>
<path d="M287 216C287 215.448 287.448 215 288 215C288.552 215 289 215.448 289 216C289 216.552 288.552 217 288 217C287.448 217 287 216.552 287 216Z" fill="black"/>
<path d="M279 208C279 207.448 279.448 207 280 207C280.552 207 281 207.448 281 208C281 208.552 280.552 209 280 209C279.448 209 279 208.552 279 208Z" fill="black"/>
<path d="M271 216C271 215.448 271.448 215 272 215C272.552 215 273 215.448 273 216C273 216.552 272.552 217 272 217C271.448 217 271 216.552 271 216Z" fill="black"/>
<path d="M263 208C263 207.448 263.448 207 264 207C264.552 207 265 207.448 265 208C265 208.552 264.552 209 264 209C263.448 209 263 208.552 263 208Z" fill="black"/>
<path d="M263 224C263 223.448 263.448 223 264 223C264.552 223 265 223.448 265 224C265 224.552 264.552 225 264 225C263.448 225 263 224.552 263 224Z" fill="black"/>
<path d="M255 216C255 215.448 255.448 215 256 215C256.552 215 257 215.448 257 216C257 216.552 256.552 217 256 217C255.448 217 255 216.552 255 216Z" fill="black"/>
<path d="M247 224C247 223.448 247.448 223 248 223C248.552 223 249 223.448 249 224C249 224.552 248.552 225 248 225C247.448 225 247 224.552 247 224Z" fill="black"/>
<path d="M247 224C247 223.448 247.448 223 248 223C248.552 223 249 223.448 249 224C249 224.552 248.552 225 248 225C247.448 225 247 224.552 247 224Z" fill="black"/>
<path d="M247 208C247 207.448 247.448 207 248 207C248.552 207 249 207.448 249 208C249 208.552 248.552 209 248 209C247.448 209 247 208.552 247 208Z" fill="black"/>
<path d="M239 216C239 215.448 239.448 215 240 215C240.552 215 241 215.448 241 216C241 216.552 240.552 217 240 217C239.448 217 239 216.552 239 216Z" fill="black"/>
<path d="M223 216C223 215.448 223.448 215 224 215C224.552 215 225 215.448 225 216C225 216.552 224.552 217 224 217C223.448 217 223 216.552 223 216Z" fill="black"/>
<path d="M231 208C231 207.448 231.448 207 232 207C232.552 207 233 207.448 233 208C233 208.552 232.552 209 232 209C231.448 209 231 208.552 231 208Z" fill="black"/>
<path d="M223 200C223 199.448 223.448 199 224 199C224.552 199 225 199.448 225 200C225 200.552 224.552 201 224 201C223.448 201 223 200.552 223 200Z" fill="black"/>
<path d="M215 208C215 207.448 215.448 207 216 207C216.552 207 217 207.448 217 208C217 208.552 216.552 209 216 209C215.448 209 215 208.552 215 208Z" fill="black"/>
<path d="M207 200C207 199.448 207.448 199 208 199C208.552 199 209 199.448 209 200C209 200.552 208.552 201 208 201C207.448 201 207 200.552 207 200Z" fill="black"/>
<path d="M215 192C215 191.448 215.448 191 216 191C216.552 191 217 191.448 217 192C217 192.552 216.552 193 216 193C215.448 193 215 192.552 215 192Z" fill="black"/>
<path d="M207 184C207 183.448 207.448 183 208 183C208.552 183 209 183.448 209 184C209 184.552 208.552 185 208 185C207.448 185 207 184.552 207 184Z" fill="black"/>
<path d="M362.4 321.8C360.978 320.733 359.022 320.733 357.6 321.8L328.4 343.7C328.148 343.889 328 344.185 328 344.5V367.586C328 367.851 328.105 368.105 328.293 368.293L357.172 397.172C358.734 398.734 361.266 398.734 362.828 397.172L391.707 368.293C391.895 368.105 392 367.851 392 367.586V344.5C392 344.185 391.852 343.889 391.6 343.7L362.4 321.8Z" fill="black"/>
<path d="M362.4 289.8C360.978 288.733 359.022 288.733 357.6 289.8L329.6 310.8C328.593 311.555 328 312.741 328 314V330C328 330.824 328.941 331.294 329.6 330.8L357.6 309.8C359.022 308.733 360.978 308.733 362.4 309.8L390.4 330.8C391.059 331.294 392 330.824 392 330V314C392 312.741 391.407 311.555 390.4 310.8L362.4 289.8Z" fill="black"/>
<path d="M364 220.327C361.264 226.185 358.445 231.15 356 235.056V260L329.675 278.804C328.624 279.554 328 280.767 328 282.058V298C328 298.824 328.941 299.294 329.6 298.8L357.6 277.8C359.022 276.733 360.978 276.733 362.4 277.8L390.4 298.8C391.059 299.294 392 298.824 392 298V282.058C392 280.767 391.376 279.554 390.325 278.804L364 260V220.327Z" fill="black"/>
<path d="M260 288.404C258.68 288.457 257.347 288.489 256 288.5C254.654 288.511 253.32 288.498 252 288.462V324L225.675 342.804C224.624 343.554 224 344.767 224 346.058V362C224 362.824 224.941 363.294 225.6 362.8L253.6 341.8C255.022 340.733 256.978 340.733 258.4 341.8L286.4 362.8C287.059 363.294 288 362.824 288 362V346.058C288 344.767 287.376 343.554 286.325 342.804L260 324V288.404Z" fill="black"/>
<path d="M258.4 353.8C256.978 352.733 255.022 352.733 253.6 353.8L225.6 374.8C224.593 375.555 224 376.741 224 378V394C224 394.824 224.941 395.294 225.6 394.8L253.6 373.8C255.022 372.733 256.978 372.733 258.4 373.8L286.4 394.8C287.059 395.294 288 394.824 288 394V378C288 376.741 287.407 375.555 286.4 374.8L258.4 353.8Z" fill="black"/>
<path d="M258.4 385.8C256.978 384.733 255.022 384.733 253.6 385.8L224.4 407.7C224.148 407.889 224 408.185 224 408.5V431.586C224 431.851 224.105 432.105 224.293 432.293L253.172 461.172C254.734 462.734 257.266 462.734 258.828 461.172L287.707 432.293C287.895 432.105 288 431.851 288 431.586V408.5C288 408.185 287.852 407.889 287.6 407.7L258.4 385.8Z" fill="black"/>
<path d="M154.4 321.8C152.978 320.733 151.022 320.733 149.6 321.8L120.4 343.7C120.148 343.889 120 344.185 120 344.5V367.586C120 367.851 120.105 368.105 120.293 368.293L149.172 397.172C150.734 398.734 153.266 398.734 154.828 397.172L183.707 368.293C183.895 368.105 184 367.851 184 367.586V344.5C184 344.185 183.852 343.889 183.6 343.7L154.4 321.8Z" fill="black"/>
<path d="M154.4 289.8C152.978 288.733 151.022 288.733 149.6 289.8L121.6 310.8C120.593 311.555 120 312.741 120 314V330C120 330.824 120.941 331.294 121.6 330.8L149.6 309.8C151.022 308.733 152.978 308.733 154.4 309.8L182.4 330.8C183.059 331.294 184 330.824 184 330V314C184 312.741 183.407 311.555 182.4 310.8L154.4 289.8Z" fill="black"/>
<path d="M156 235.694C153.605 232.153 150.763 227.444 148 221.641V260L121.675 278.804C120.624 279.554 120 280.767 120 282.058V298C120 298.824 120.941 299.294 121.6 298.8L149.6 277.8C151.022 276.733 152.978 276.733 154.4 277.8L182.4 298.8C183.059 299.294 184 298.824 184 298V282.058C184 280.767 183.376 279.554 182.325 278.804L156 260V235.694Z" fill="black"/>
<path d="M249 129.005C251.209 128.675 253.541 128.5 256 128.5C258.459 128.5 260.791 128.653 263 128.944C286.399 132.03 296 150.682 296 168.5C296 188 281.5 208.5 256 208.5C230.5 208.5 216 185 216 168.5C216 166.116 216.24 163.585 216.737 161C216.818 160.58 216.906 160.158 217 159.735C219.997 146.319 229.904 131.859 249 129.005ZM249 129.005V128C249 127.448 248.552 127 248 127V127C247.448 127 247 127.45 247 128.003V128.003C247 128.555 247.448 129.005 248 129.005H249ZM364 220.327C361.264 226.185 358.445 231.15 356 235.056M364 220.327V260L390.325 278.804C391.376 279.554 392 280.767 392 282.058V298C392 298.824 391.059 299.294 390.4 298.8L362.4 277.8C360.978 276.733 359.022 276.733 357.6 277.8L329.6 298.8C328.941 299.294 328 298.824 328 298V282.058C328 280.767 328.624 279.554 329.675 278.804L356 260V235.056M364 220.327V216L356 232V235.056M364 220.327C370.215 207.019 376 189.099 376 168.5C376 124 350.25 92 350.25 92C350.25 92 318.5 48 256 48C193.5 48 162 92 162 92C162 92 137 121 136.5 168.5C136.264 190.941 141.943 208.918 148 221.641M356 235.056C352 241.444 349 245 349 245C349 245 316.999 286.109 260 288.404M260 288.404C258.68 288.457 257.347 288.489 256 288.5C254.654 288.511 253.32 288.498 252 288.462M260 288.404V324L286.325 342.804C287.376 343.554 288 344.767 288 346.058V362C288 362.824 287.059 363.294 286.4 362.8L258.4 341.8C256.978 340.733 255.022 340.733 253.6 341.8L225.6 362.8C224.941 363.294 224 362.824 224 362V346.058C224 344.767 224.624 343.554 225.675 342.804L252 324V288.462M260 288.404V288H252V288.462M252 288.462C194.957 286.931 162 243.5 162 243.5C162 243.5 159.468 240.822 156 235.694M156 235.694C153.605 232.153 150.763 227.444 148 221.641M156 235.694V260L182.325 278.804C183.376 279.554 184 280.767 184 282.058V298C184 298.824 183.059 299.294 182.4 298.8L154.4 277.8C152.978 276.733 151.022 276.733 149.6 277.8L121.6 298.8C120.941 299.294 120 298.824 120 298V282.058C120 280.767 120.624 279.554 121.675 278.804L148 260V221.641M156 235.694V232L148 220V221.641M189 88.5C189 88.5 213.5 64.5 256 64.5C298.5 64.5 323.5 89 323.5 89C323.5 89 315.579 102.5 324 112.5C332.421 122.5 347.5 119 347.5 119C347.5 119 361 140 360 168.5C359 197 347.5 217.5 347.5 217.5C347.5 217.5 334.5 212.5 325 222.5C315.5 232.5 323 247 323 247C323 247 296.5 272.5 253 272C209.5 271.5 189 247.5 189 247.5C189 247.5 196 233.5 187 223C178 212.5 164.5 217.5 164.5 217.5C164.5 217.5 151.5 199 151.5 168.5C151.5 138 164.5 119 164.5 119C164.5 119 176.937 124.5 187 113C197.062 101.5 189 88.5 189 88.5ZM253 240.5C226.5 240.5 209.5 224.795 199.5 213C189.5 201.205 183.5 183.5 183.5 168.5C183.5 153.5 184 140 201 120C218 100 241 96 256 96C271 96 296.48 102 312 121.5C327.52 141 328 158 328 168.5C328 179 323 197.519 311.5 213C300 228.481 279.5 240.5 253 240.5ZM161 107.5C161 107.5 144 132 144 168.5C144 205 162 229.5 162 229.5C162 229.5 171.434 217.956 181 228C190.566 238.044 177 247 177 247C177 247 204.5 280.5 256 280C307.5 279.5 335.5 247 335.5 247C335.5 247 322.5 238.889 331 228.5C339.5 218.111 350 228.5 350 228.5C350 228.5 368 200.5 368.5 168.5C369 136.5 350.25 107.5 350.25 107.5C350.25 107.5 338.9 118 330.5 107.5C322.1 97 335 88.5 335 88.5C335 88.5 304.5 55.5 256 56C207.5 56.5 177 88.5 177 88.5C177 88.5 189.9 97 181.5 107.5C173.1 118 161 107.5 161 107.5ZM256 148C267 148 276 157 276 168C276 179 267 188 256 188C245 188 236 178.5 236 168C236 157.5 245 148 256 148ZM256 103.5C293 103.5 321 133.5 321 168.5C321 203.5 295 232.5 256 232.5C217 232.5 192 201 192 168.5C192 136 219 103.5 256 103.5ZM256 108C286 108.5 316.5 134.5 316.5 168.5C316.5 202.5 289 228 256 228C223 228 196.5 200 196.5 168.5C196.5 156.932 200.479 145.633 207 135.991C207.225 135.658 207.452 135.328 207.683 135C211.914 128.98 217.14 123.64 223 119.331C223.151 119.22 223.303 119.11 223.455 119C233.152 111.996 244.54 107.809 256 108ZM216 161C215.448 161 215 160.552 215 160C215 159.448 215.448 159 216 159C216.552 159 217 159.448 217 160C217 160.552 216.552 161 216 161ZM208 137C207.448 137 207 136.552 207 136C207 135.448 207.448 135 208 135C208.552 135 209 135.448 209 136C209 136.552 208.552 137 208 137ZM224 121.005C223.448 121.005 223 120.555 223 120.003C223 119.45 223.448 119 224 119C224.552 119 225 119.45 225 120.003C225 120.555 224.552 121.005 224 121.005ZM264 129C263.448 129 263 128.552 263 128C263 127.448 263.448 127 264 127C264.552 127 265 127.448 265 128C265 128.552 264.552 129 264 129ZM272 121C271.448 121 271 120.552 271 120C271 119.448 271.448 119 272 119C272.552 119 273 119.448 273 120C273 120.552 272.552 121 272 121ZM288 121C287.448 121 287 120.552 287 120C287 119.448 287.448 119 288 119C288.552 119 289 119.448 289 120C289 120.552 288.552 121 288 121ZM280 129C279.448 129 279 128.552 279 128C279 127.448 279.448 127 280 127C280.552 127 281 127.448 281 128C281 128.552 280.552 129 280 129ZM296 129C295.448 129 295 128.552 295 128C295 127.448 295.448 127 296 127C296.552 127 297 127.448 297 128C297 128.552 296.552 129 296 129ZM288 137C287.448 137 287 136.552 287 136C287 135.448 287.448 135 288 135C288.552 135 289 135.448 289 136C289 136.552 288.552 137 288 137ZM304 137C303.448 137 303 136.552 303 136C303 135.448 303.448 135 304 135C304.552 135 305 135.448 305 136C305 136.552 304.552 137 304 137ZM296 145C295.448 145 295 144.552 295 144C295 143.448 295.448 143 296 143C296.552 143 297 143.448 297 144C297 144.552 296.552 145 296 145ZM304 153C303.448 153 303 152.552 303 152C303 151.448 303.448 151 304 151C304.552 151 305 151.448 305 152C305 152.552 304.552 153 304 153ZM312 161C311.448 161 311 160.552 311 160C311 159.448 311.448 159 312 159C312.552 159 313 159.448 313 160C313 160.552 312.552 161 312 161ZM296 161C295.448 161 295 160.552 295 160C295 159.448 295.448 159 296 159C296.552 159 297 159.448 297 160C297 160.552 296.552 161 296 161ZM304 169C303.448 169 303 168.552 303 168C303 167.448 303.448 167 304 167C304.552 167 305 167.448 305 168C305 168.552 304.552 169 304 169ZM312 177C311.448 177 311 176.552 311 176C311 175.448 311.448 175 312 175C312.552 175 313 175.448 313 176C313 176.552 312.552 177 312 177ZM304 185C303.448 185 303 184.552 303 184C303 183.448 303.448 183 304 183C304.552 183 305 183.448 305 184C305 184.552 304.552 185 304 185ZM296 177C295.448 177 295 176.552 295 176C295 175.448 295.448 175 296 175C296.552 175 297 175.448 297 176C297 176.552 296.552 177 296 177ZM296 193C295.448 193 295 192.552 295 192C295 191.448 295.448 191 296 191C296.552 191 297 191.448 297 192C297 192.552 296.552 193 296 193ZM304 201C303.448 201 303 200.552 303 200C303 199.448 303.448 199 304 199C304.552 199 305 199.448 305 200C305 200.552 304.552 201 304 201ZM296 209C295.448 209 295 208.552 295 208C295 207.448 295.448 207 296 207C296.552 207 297 207.448 297 208C297 208.552 296.552 209 296 209ZM288 201C287.448 201 287 200.552 287 200C287 199.448 287.448 199 288 199C288.552 199 289 199.448 289 200C289 200.552 288.552 201 288 201ZM288 217C287.448 217 287 216.552 287 216C287 215.448 287.448 215 288 215C288.552 215 289 215.448 289 216C289 216.552 288.552 217 288 217ZM280 209C279.448 209 279 208.552 279 208C279 207.448 279.448 207 280 207C280.552 207 281 207.448 281 208C281 208.552 280.552 209 280 209ZM272 217C271.448 217 271 216.552 271 216C271 215.448 271.448 215 272 215C272.552 215 273 215.448 273 216C273 216.552 272.552 217 272 217ZM264 209C263.448 209 263 208.552 263 208C263 207.448 263.448 207 264 207C264.552 207 265 207.448 265 208C265 208.552 264.552 209 264 209ZM264 225C263.448 225 263 224.552 263 224C263 223.448 263.448 223 264 223C264.552 223 265 223.448 265 224C265 224.552 264.552 225 264 225ZM256 217C255.448 217 255 216.552 255 216C255 215.448 255.448 215 256 215C256.552 215 257 215.448 257 216C257 216.552 256.552 217 256 217ZM248 225C247.448 225 247 224.552 247 224C247 223.448 247.448 223 248 223C248.552 223 249 223.448 249 224C249 224.552 248.552 225 248 225ZM248 209C247.448 209 247 208.552 247 208C247 207.448 247.448 207 248 207C248.552 207 249 207.448 249 208C249 208.552 248.552 209 248 209ZM240 217C239.448 217 239 216.552 239 216C239 215.448 239.448 215 240 215C240.552 215 241 215.448 241 216C241 216.552 240.552 217 240 217ZM224 217C223.448 217 223 216.552 223 216C223 215.448 223.448 215 224 215C224.552 215 225 215.448 225 216C225 216.552 224.552 217 224 217ZM232 209C231.448 209 231 208.552 231 208C231 207.448 231.448 207 232 207C232.552 207 233 207.448 233 208C233 208.552 232.552 209 232 209ZM224 201C223.448 201 223 200.552 223 200C223 199.448 223.448 199 224 199C224.552 199 225 199.448 225 200C225 200.552 224.552 201 224 201ZM216 209C215.448 209 215 208.552 215 208C215 207.448 215.448 207 216 207C216.552 207 217 207.448 217 208C217 208.552 216.552 209 216 209ZM208 201C207.448 201 207 200.552 207 200C207 199.448 207.448 199 208 199C208.552 199 209 199.448 209 200C209 200.552 208.552 201 208 201ZM216 193C215.448 193 215 192.552 215 192C215 191.448 215.448 191 216 191C216.552 191 217 191.448 217 192C217 192.552 216.552 193 216 193ZM208 185C207.448 185 207 184.552 207 184C207 183.448 207.448 183 208 183C208.552 183 209 183.448 209 184C209 184.552 208.552 185 208 185ZM392 344.5V367.586C392 367.851 391.895 368.105 391.707 368.293L362.828 397.172C361.266 398.734 358.734 398.734 357.172 397.172L328.293 368.293C328.105 368.105 328 367.851 328 367.586V344.5C328 344.185 328.148 343.889 328.4 343.7L357.6 321.8C359.022 320.733 360.978 320.733 362.4 321.8L391.6 343.7C391.852 343.889 392 344.185 392 344.5ZM392 314V330C392 330.824 391.059 331.294 390.4 330.8L362.4 309.8C360.978 308.733 359.022 308.733 357.6 309.8L329.6 330.8C328.941 331.294 328 330.824 328 330V314C328 312.741 328.593 311.555 329.6 310.8L357.6 289.8C359.022 288.733 360.978 288.733 362.4 289.8L390.4 310.8C391.407 311.555 392 312.741 392 314ZM216 177V177C216.552 177 217 176.552 217 176V176C217 175.448 216.552 175 216 175V175C215.448 175 215 175.448 215 176V176C215 176.552 215.448 177 216 177ZM209 152V152C209 151.448 208.552 151 208 151V151C207.448 151 207 151.448 207 152V152C207 152.552 207.448 153 208 153V153C208.552 153 209 152.552 209 152ZM217 144V144C217 143.448 216.552 143 216 143V143C215.448 143 215 143.448 215 144V144C215 144.552 215.448 145 216 145V145C216.552 145 217 144.552 217 144ZM183.707 368.293L154.828 397.172C153.266 398.734 150.734 398.734 149.172 397.172L120.293 368.293C120.105 368.105 120 367.851 120 367.586V344.5C120 344.185 120.148 343.889 120.4 343.7L149.6 321.8C151.022 320.733 152.978 320.733 154.4 321.8L183.6 343.7C183.852 343.889 184 344.185 184 344.5V367.586C184 367.851 183.895 368.105 183.707 368.293ZM233 128.003V128.003C233 127.45 232.552 127 232 127V127C231.448 127 231 127.45 231 128.003V128.003C231 128.555 231.448 129.005 232 129.005V129.005C232.552 129.005 233 128.555 233 128.003ZM288 408.5V431.586C288 431.851 287.895 432.105 287.707 432.293L258.828 461.172C257.266 462.734 254.734 462.734 253.172 461.172L224.293 432.293C224.105 432.105 224 431.851 224 431.586V408.5C224 408.185 224.148 407.889 224.4 407.7L253.6 385.8C255.022 384.733 256.978 384.733 258.4 385.8L287.6 407.7C287.852 407.889 288 408.185 288 408.5ZM200 177V177C200.552 177 201 176.552 201 176V176C201 175.448 200.552 175 200 175V175C199.448 175 199 175.448 199 176V176C199 176.552 199.448 177 200 177ZM208 169V169C208.552 169 209 168.552 209 168V168C209 167.448 208.552 167 208 167V167C207.448 167 207 167.448 207 168V168C207 168.552 207.448 169 208 169ZM288 378V394C288 394.824 287.059 395.294 286.4 394.8L258.4 373.8C256.978 372.733 255.022 372.733 253.6 373.8L225.6 394.8C224.941 395.294 224 394.824 224 394V378C224 376.741 224.593 375.555 225.6 374.8L253.6 353.8C255.022 352.733 256.978 352.733 258.4 353.8L286.4 374.8C287.407 375.555 288 376.741 288 378ZM215.997 129.003V129.003C216.551 129.004 217 128.555 217 128.001V128.001C217 127.449 216.552 127 216 127V127C215.448 127 215 127.449 215 128.001V128.001C215 128.553 215.446 129.001 215.997 129.003ZM184 314V330C184 330.824 183.059 331.294 182.4 330.8L154.4 309.8C152.978 308.733 151.022 308.733 149.6 309.8L121.6 330.8C120.941 331.294 120 330.824 120 330V314C120 312.741 120.593 311.555 121.6 310.8L149.6 289.8C151.022 288.733 152.978 288.733 154.4 289.8L182.4 310.8C183.407 311.555 184 312.741 184 314ZM224 137V137C224.552 137 225 136.552 225 136V136C225 135.448 224.552 135 224 135V135C223.448 135 223 135.448 223 136V136C223 136.552 223.448 137 224 137ZM240 121V121C240.552 121 241 120.552 241 120V120C241 119.448 240.552 119 240 119V119C239.448 119 239 119.448 239 120V120C239 120.552 239.448 121 240 121ZM256 121V121C256.552 121 257 120.552 257 120V120C257 119.448 256.552 119 256 119V119C255.448 119 255 119.448 255 120V120C255 120.552 255.448 121 256 121ZM263 112V112C263 112.552 263.448 113 264 113V113C264.552 113 265 112.552 265 112V112C265 111.448 264.552 111 264 111V111C263.448 111 263 111.448 263 112ZM200 161V161C200.552 161 201 160.552 201 160V160C201 159.448 200.552 159 200 159V159C199.448 159 199 159.448 199 160V160C199 160.552 199.448 161 200 161ZM247 112V112C247 111.448 247.448 111 248 111V111C248.552 111 249 111.448 249 112V112C249 112.552 248.552 113 248 113V113C247.448 113 247 112.552 247 112Z" stroke="black"/>
</svg>
