<svg width="512" height="512" viewBox="0 0 512 512" fill="none" xmlns="http://www.w3.org/2000/svg">
<rect width="512" height="512" fill="white"/>
<rect x="0.25" y="0.25" width="511.5" height="511.5" stroke="black" stroke-opacity="0.25" stroke-width="0.5"/>
<g filter="url(#filter0_dii_34_373)">
<path fill-rule="evenodd" clip-rule="evenodd" d="M255 104C292 104 320 134 320 169C320 204 294 233 255 233C216 233 191 201.5 191 169C191 136.5 218 104 255 104ZM315.5 169C315.5 135 285 109 255 108.5C243.54 108.309 232.152 112.496 222.455 119.5C222.303 119.61 222.151 119.72 222 119.831C216.14 124.14 210.914 129.48 206.683 135.5C206.452 135.828 206.225 136.158 206 136.491C199.479 146.133 195.5 157.432 195.5 169C195.5 200.5 222 228.5 255 228.5C288 228.5 315.5 203 315.5 169Z" fill="url(#paint0_linear_34_373)"/>
<path d="M247 113.5C247.552 113.5 248 113.052 248 112.5V112.5C248 111.948 247.552 111.5 247 111.5V111.5C246.448 111.5 246 111.948 246 112.5V112.5C246 113.052 246.448 113.5 247 113.5V113.5Z" fill="url(#paint1_linear_34_373)"/>
<path d="M263 111.5C263.552 111.5 264 111.948 264 112.5V112.5C264 113.052 263.552 113.5 263 113.5V113.5C262.448 113.5 262 113.052 262 112.5V112.5C262 111.948 262.448 111.5 263 111.5V111.5Z" fill="url(#paint2_linear_34_373)"/>
<path d="M254 120.5C254 119.948 254.448 119.5 255 119.5V119.5C255.552 119.5 256 119.948 256 120.5V120.5C256 121.052 255.552 121.5 255 121.5V121.5C254.448 121.5 254 121.052 254 120.5V120.5Z" fill="url(#paint3_linear_34_373)"/>
<path d="M248 128.503C248 127.95 247.552 127.5 247 127.5V127.5C246.448 127.5 246 127.95 246 128.503V128.503C246 129.055 246.448 129.505 247 129.505V129.505C247.552 129.505 248 129.055 248 128.503V128.503Z" fill="url(#paint4_linear_34_373)"/>
<path d="M238 120.5C238 119.948 238.448 119.5 239 119.5V119.5C239.552 119.5 240 119.948 240 120.5V120.5C240 121.052 239.552 121.5 239 121.5V121.5C238.448 121.5 238 121.052 238 120.5V120.5Z" fill="url(#paint5_linear_34_373)"/>
<path d="M230 128.503C230 127.95 230.448 127.5 231 127.5V127.5C231.552 127.5 232 127.95 232 128.503V128.503C232 129.055 231.552 129.505 231 129.505V129.505C230.448 129.505 230 129.055 230 128.503V128.503Z" fill="url(#paint6_linear_34_373)"/>
<path d="M222 136.5C222 135.948 222.448 135.5 223 135.5V135.5C223.552 135.5 224 135.948 224 136.5V136.5C224 137.052 223.552 137.5 223 137.5V137.5C222.448 137.5 222 137.052 222 136.5V136.5Z" fill="url(#paint7_linear_34_373)"/>
<path d="M214 128.501C214 127.949 214.448 127.5 215 127.5V127.5C215.552 127.5 216 127.949 216 128.501V128.501C216 129.055 215.551 129.504 214.997 129.503V129.503C214.446 129.501 214 129.053 214 128.501V128.501Z" fill="url(#paint8_linear_34_373)"/>
<path d="M214 144.5C214 143.948 214.448 143.5 215 143.5V143.5C215.552 143.5 216 143.948 216 144.5V144.5C216 145.052 215.552 145.5 215 145.5V145.5C214.448 145.5 214 145.052 214 144.5V144.5Z" fill="url(#paint9_linear_34_373)"/>
<path d="M206 152.5C206 151.948 206.448 151.5 207 151.5V151.5C207.552 151.5 208 151.948 208 152.5V152.5C208 153.052 207.552 153.5 207 153.5V153.5C206.448 153.5 206 153.052 206 152.5V152.5Z" fill="url(#paint10_linear_34_373)"/>
<path d="M198 160.5C198 159.948 198.448 159.5 199 159.5V159.5C199.552 159.5 200 159.948 200 160.5V160.5C200 161.052 199.552 161.5 199 161.5V161.5C198.448 161.5 198 161.052 198 160.5V160.5Z" fill="url(#paint11_linear_34_373)"/>
<path d="M206 168.5C206 167.948 206.448 167.5 207 167.5V167.5C207.552 167.5 208 167.948 208 168.5V168.5C208 169.052 207.552 169.5 207 169.5V169.5C206.448 169.5 206 169.052 206 168.5V168.5Z" fill="url(#paint12_linear_34_373)"/>
<path d="M198 176.5C198 175.948 198.448 175.5 199 175.5V175.5C199.552 175.5 200 175.948 200 176.5V176.5C200 177.052 199.552 177.5 199 177.5V177.5C198.448 177.5 198 177.052 198 176.5V176.5Z" fill="url(#paint13_linear_34_373)"/>
<path d="M214 176.5C214 175.948 214.448 175.5 215 175.5V175.5C215.552 175.5 216 175.948 216 176.5V176.5C216 177.052 215.552 177.5 215 177.5V177.5C214.448 177.5 214 177.052 214 176.5V176.5Z" fill="url(#paint14_linear_34_373)"/>
<path d="M214 160.5C214 159.948 214.448 159.5 215 159.5C215.552 159.5 216 159.948 216 160.5C216 161.052 215.552 161.5 215 161.5C214.448 161.5 214 161.052 214 160.5Z" fill="url(#paint15_linear_34_373)"/>
<path d="M206 136.5C206 135.948 206.448 135.5 207 135.5C207.552 135.5 208 135.948 208 136.5C208 137.052 207.552 137.5 207 137.5C206.448 137.5 206 137.052 206 136.5Z" fill="url(#paint16_linear_34_373)"/>
<path d="M222 120.503C222 119.95 222.448 119.5 223 119.5C223.552 119.5 224 119.95 224 120.503C224 121.055 223.552 121.505 223 121.505C222.448 121.505 222 121.055 222 120.503Z" fill="url(#paint17_linear_34_373)"/>
<path d="M262 128.5C262 127.948 262.448 127.5 263 127.5C263.552 127.5 264 127.948 264 128.5C264 129.052 263.552 129.5 263 129.5C262.448 129.5 262 129.052 262 128.5Z" fill="url(#paint18_linear_34_373)"/>
<path d="M270 120.5C270 119.948 270.448 119.5 271 119.5C271.552 119.5 272 119.948 272 120.5C272 121.052 271.552 121.5 271 121.5C270.448 121.5 270 121.052 270 120.5Z" fill="url(#paint19_linear_34_373)"/>
<path d="M286 120.5C286 119.948 286.448 119.5 287 119.5C287.552 119.5 288 119.948 288 120.5C288 121.052 287.552 121.5 287 121.5C286.448 121.5 286 121.052 286 120.5Z" fill="url(#paint20_linear_34_373)"/>
<path d="M278 128.5C278 127.948 278.448 127.5 279 127.5C279.552 127.5 280 127.948 280 128.5C280 129.052 279.552 129.5 279 129.5C278.448 129.5 278 129.052 278 128.5Z" fill="url(#paint21_linear_34_373)"/>
<path d="M294 128.5C294 127.948 294.448 127.5 295 127.5C295.552 127.5 296 127.948 296 128.5C296 129.052 295.552 129.5 295 129.5C294.448 129.5 294 129.052 294 128.5Z" fill="url(#paint22_linear_34_373)"/>
<path d="M286 136.5C286 135.948 286.448 135.5 287 135.5C287.552 135.5 288 135.948 288 136.5C288 137.052 287.552 137.5 287 137.5C286.448 137.5 286 137.052 286 136.5Z" fill="url(#paint23_linear_34_373)"/>
<path d="M302 136.5C302 135.948 302.448 135.5 303 135.5C303.552 135.5 304 135.948 304 136.5C304 137.052 303.552 137.5 303 137.5C302.448 137.5 302 137.052 302 136.5Z" fill="url(#paint24_linear_34_373)"/>
<path d="M294 144.5C294 143.948 294.448 143.5 295 143.5C295.552 143.5 296 143.948 296 144.5C296 145.052 295.552 145.5 295 145.5C294.448 145.5 294 145.052 294 144.5Z" fill="url(#paint25_linear_34_373)"/>
<path d="M302 152.5C302 151.948 302.448 151.5 303 151.5C303.552 151.5 304 151.948 304 152.5C304 153.052 303.552 153.5 303 153.5C302.448 153.5 302 153.052 302 152.5Z" fill="url(#paint26_linear_34_373)"/>
<path d="M310 160.5C310 159.948 310.448 159.5 311 159.5C311.552 159.5 312 159.948 312 160.5C312 161.052 311.552 161.5 311 161.5C310.448 161.5 310 161.052 310 160.5Z" fill="url(#paint27_linear_34_373)"/>
<path d="M294 160.5C294 159.948 294.448 159.5 295 159.5C295.552 159.5 296 159.948 296 160.5C296 161.052 295.552 161.5 295 161.5C294.448 161.5 294 161.052 294 160.5Z" fill="url(#paint28_linear_34_373)"/>
<path d="M302 168.5C302 167.948 302.448 167.5 303 167.5C303.552 167.5 304 167.948 304 168.5C304 169.052 303.552 169.5 303 169.5C302.448 169.5 302 169.052 302 168.5Z" fill="url(#paint29_linear_34_373)"/>
<path d="M310 176.5C310 175.948 310.448 175.5 311 175.5C311.552 175.5 312 175.948 312 176.5C312 177.052 311.552 177.5 311 177.5C310.448 177.5 310 177.052 310 176.5Z" fill="url(#paint30_linear_34_373)"/>
<path d="M302 184.5C302 183.948 302.448 183.5 303 183.5C303.552 183.5 304 183.948 304 184.5C304 185.052 303.552 185.5 303 185.5C302.448 185.5 302 185.052 302 184.5Z" fill="url(#paint31_linear_34_373)"/>
<path d="M294 176.5C294 175.948 294.448 175.5 295 175.5C295.552 175.5 296 175.948 296 176.5C296 177.052 295.552 177.5 295 177.5C294.448 177.5 294 177.052 294 176.5Z" fill="url(#paint32_linear_34_373)"/>
<path d="M294 192.5C294 191.948 294.448 191.5 295 191.5C295.552 191.5 296 191.948 296 192.5C296 193.052 295.552 193.5 295 193.5C294.448 193.5 294 193.052 294 192.5Z" fill="url(#paint33_linear_34_373)"/>
<path d="M302 200.5C302 199.948 302.448 199.5 303 199.5C303.552 199.5 304 199.948 304 200.5C304 201.052 303.552 201.5 303 201.5C302.448 201.5 302 201.052 302 200.5Z" fill="url(#paint34_linear_34_373)"/>
<path d="M294 208.5C294 207.948 294.448 207.5 295 207.5C295.552 207.5 296 207.948 296 208.5C296 209.052 295.552 209.5 295 209.5C294.448 209.5 294 209.052 294 208.5Z" fill="url(#paint35_linear_34_373)"/>
<path d="M286 200.5C286 199.948 286.448 199.5 287 199.5C287.552 199.5 288 199.948 288 200.5C288 201.052 287.552 201.5 287 201.5C286.448 201.5 286 201.052 286 200.5Z" fill="url(#paint36_linear_34_373)"/>
<path d="M286 216.5C286 215.948 286.448 215.5 287 215.5C287.552 215.5 288 215.948 288 216.5C288 217.052 287.552 217.5 287 217.5C286.448 217.5 286 217.052 286 216.5Z" fill="url(#paint37_linear_34_373)"/>
<path d="M278 208.5C278 207.948 278.448 207.5 279 207.5C279.552 207.5 280 207.948 280 208.5C280 209.052 279.552 209.5 279 209.5C278.448 209.5 278 209.052 278 208.5Z" fill="url(#paint38_linear_34_373)"/>
<path d="M270 216.5C270 215.948 270.448 215.5 271 215.5C271.552 215.5 272 215.948 272 216.5C272 217.052 271.552 217.5 271 217.5C270.448 217.5 270 217.052 270 216.5Z" fill="url(#paint39_linear_34_373)"/>
<path d="M262 208.5C262 207.948 262.448 207.5 263 207.5C263.552 207.5 264 207.948 264 208.5C264 209.052 263.552 209.5 263 209.5C262.448 209.5 262 209.052 262 208.5Z" fill="url(#paint40_linear_34_373)"/>
<path d="M262 224.5C262 223.948 262.448 223.5 263 223.5C263.552 223.5 264 223.948 264 224.5C264 225.052 263.552 225.5 263 225.5C262.448 225.5 262 225.052 262 224.5Z" fill="url(#paint41_linear_34_373)"/>
<path d="M254 216.5C254 215.948 254.448 215.5 255 215.5C255.552 215.5 256 215.948 256 216.5C256 217.052 255.552 217.5 255 217.5C254.448 217.5 254 217.052 254 216.5Z" fill="url(#paint42_linear_34_373)"/>
<path d="M246 224.5C246 223.948 246.448 223.5 247 223.5C247.552 223.5 248 223.948 248 224.5C248 225.052 247.552 225.5 247 225.5C246.448 225.5 246 225.052 246 224.5Z" fill="url(#paint43_linear_34_373)"/>
<path d="M246 224.5C246 223.948 246.448 223.5 247 223.5C247.552 223.5 248 223.948 248 224.5C248 225.052 247.552 225.5 247 225.5C246.448 225.5 246 225.052 246 224.5Z" fill="url(#paint44_linear_34_373)"/>
<path d="M246 208.5C246 207.948 246.448 207.5 247 207.5C247.552 207.5 248 207.948 248 208.5C248 209.052 247.552 209.5 247 209.5C246.448 209.5 246 209.052 246 208.5Z" fill="url(#paint45_linear_34_373)"/>
<path d="M238 216.5C238 215.948 238.448 215.5 239 215.5C239.552 215.5 240 215.948 240 216.5C240 217.052 239.552 217.5 239 217.5C238.448 217.5 238 217.052 238 216.5Z" fill="url(#paint46_linear_34_373)"/>
<path d="M222 216.5C222 215.948 222.448 215.5 223 215.5C223.552 215.5 224 215.948 224 216.5C224 217.052 223.552 217.5 223 217.5C222.448 217.5 222 217.052 222 216.5Z" fill="url(#paint47_linear_34_373)"/>
<path d="M230 208.5C230 207.948 230.448 207.5 231 207.5C231.552 207.5 232 207.948 232 208.5C232 209.052 231.552 209.5 231 209.5C230.448 209.5 230 209.052 230 208.5Z" fill="url(#paint48_linear_34_373)"/>
<path d="M222 200.5C222 199.948 222.448 199.5 223 199.5C223.552 199.5 224 199.948 224 200.5C224 201.052 223.552 201.5 223 201.5C222.448 201.5 222 201.052 222 200.5Z" fill="url(#paint49_linear_34_373)"/>
<path d="M214 208.5C214 207.948 214.448 207.5 215 207.5C215.552 207.5 216 207.948 216 208.5C216 209.052 215.552 209.5 215 209.5C214.448 209.5 214 209.052 214 208.5Z" fill="url(#paint50_linear_34_373)"/>
<path d="M206 200.5C206 199.948 206.448 199.5 207 199.5C207.552 199.5 208 199.948 208 200.5C208 201.052 207.552 201.5 207 201.5C206.448 201.5 206 201.052 206 200.5Z" fill="url(#paint51_linear_34_373)"/>
<path d="M214 192.5C214 191.948 214.448 191.5 215 191.5C215.552 191.5 216 191.948 216 192.5C216 193.052 215.552 193.5 215 193.5C214.448 193.5 214 193.052 214 192.5Z" fill="url(#paint52_linear_34_373)"/>
<path d="M206 184.5C206 183.948 206.448 183.5 207 183.5C207.552 183.5 208 183.948 208 184.5C208 185.052 207.552 185.5 207 185.5C206.448 185.5 206 185.052 206 184.5Z" fill="url(#paint53_linear_34_373)"/>
<path d="M215.737 161.5C215.818 161.08 215.906 160.658 216 160.235M255 104C292 104 320 134 320 169C320 204 294 233 255 233C216 233 191 201.5 191 169C191 136.5 218 104 255 104ZM255 108.5C285 109 315.5 135 315.5 169C315.5 203 288 228.5 255 228.5C222 228.5 195.5 200.5 195.5 169C195.5 157.432 199.479 146.133 206 136.491C206.225 136.158 206.452 135.828 206.683 135.5C210.914 129.48 216.14 124.14 222 119.831C222.151 119.72 222.303 119.61 222.455 119.5C232.152 112.496 243.54 108.309 255 108.5ZM215 161.5C214.448 161.5 214 161.052 214 160.5C214 159.948 214.448 159.5 215 159.5C215.552 159.5 216 159.948 216 160.5C216 161.052 215.552 161.5 215 161.5ZM207 137.5C206.448 137.5 206 137.052 206 136.5C206 135.948 206.448 135.5 207 135.5C207.552 135.5 208 135.948 208 136.5C208 137.052 207.552 137.5 207 137.5ZM223 121.505C222.448 121.505 222 121.055 222 120.503C222 119.95 222.448 119.5 223 119.5C223.552 119.5 224 119.95 224 120.503C224 121.055 223.552 121.505 223 121.505ZM263 129.5C262.448 129.5 262 129.052 262 128.5C262 127.948 262.448 127.5 263 127.5C263.552 127.5 264 127.948 264 128.5C264 129.052 263.552 129.5 263 129.5ZM271 121.5C270.448 121.5 270 121.052 270 120.5C270 119.948 270.448 119.5 271 119.5C271.552 119.5 272 119.948 272 120.5C272 121.052 271.552 121.5 271 121.5ZM287 121.5C286.448 121.5 286 121.052 286 120.5C286 119.948 286.448 119.5 287 119.5C287.552 119.5 288 119.948 288 120.5C288 121.052 287.552 121.5 287 121.5ZM279 129.5C278.448 129.5 278 129.052 278 128.5C278 127.948 278.448 127.5 279 127.5C279.552 127.5 280 127.948 280 128.5C280 129.052 279.552 129.5 279 129.5ZM295 129.5C294.448 129.5 294 129.052 294 128.5C294 127.948 294.448 127.5 295 127.5C295.552 127.5 296 127.948 296 128.5C296 129.052 295.552 129.5 295 129.5ZM287 137.5C286.448 137.5 286 137.052 286 136.5C286 135.948 286.448 135.5 287 135.5C287.552 135.5 288 135.948 288 136.5C288 137.052 287.552 137.5 287 137.5ZM303 137.5C302.448 137.5 302 137.052 302 136.5C302 135.948 302.448 135.5 303 135.5C303.552 135.5 304 135.948 304 136.5C304 137.052 303.552 137.5 303 137.5ZM295 145.5C294.448 145.5 294 145.052 294 144.5C294 143.948 294.448 143.5 295 143.5C295.552 143.5 296 143.948 296 144.5C296 145.052 295.552 145.5 295 145.5ZM303 153.5C302.448 153.5 302 153.052 302 152.5C302 151.948 302.448 151.5 303 151.5C303.552 151.5 304 151.948 304 152.5C304 153.052 303.552 153.5 303 153.5ZM311 161.5C310.448 161.5 310 161.052 310 160.5C310 159.948 310.448 159.5 311 159.5C311.552 159.5 312 159.948 312 160.5C312 161.052 311.552 161.5 311 161.5ZM295 161.5C294.448 161.5 294 161.052 294 160.5C294 159.948 294.448 159.5 295 159.5C295.552 159.5 296 159.948 296 160.5C296 161.052 295.552 161.5 295 161.5ZM303 169.5C302.448 169.5 302 169.052 302 168.5C302 167.948 302.448 167.5 303 167.5C303.552 167.5 304 167.948 304 168.5C304 169.052 303.552 169.5 303 169.5ZM311 177.5C310.448 177.5 310 177.052 310 176.5C310 175.948 310.448 175.5 311 175.5C311.552 175.5 312 175.948 312 176.5C312 177.052 311.552 177.5 311 177.5ZM303 185.5C302.448 185.5 302 185.052 302 184.5C302 183.948 302.448 183.5 303 183.5C303.552 183.5 304 183.948 304 184.5C304 185.052 303.552 185.5 303 185.5ZM295 177.5C294.448 177.5 294 177.052 294 176.5C294 175.948 294.448 175.5 295 175.5C295.552 175.5 296 175.948 296 176.5C296 177.052 295.552 177.5 295 177.5ZM295 193.5C294.448 193.5 294 193.052 294 192.5C294 191.948 294.448 191.5 295 191.5C295.552 191.5 296 191.948 296 192.5C296 193.052 295.552 193.5 295 193.5ZM303 201.5C302.448 201.5 302 201.052 302 200.5C302 199.948 302.448 199.5 303 199.5C303.552 199.5 304 199.948 304 200.5C304 201.052 303.552 201.5 303 201.5ZM295 209.5C294.448 209.5 294 209.052 294 208.5C294 207.948 294.448 207.5 295 207.5C295.552 207.5 296 207.948 296 208.5C296 209.052 295.552 209.5 295 209.5ZM287 201.5C286.448 201.5 286 201.052 286 200.5C286 199.948 286.448 199.5 287 199.5C287.552 199.5 288 199.948 288 200.5C288 201.052 287.552 201.5 287 201.5ZM287 217.5C286.448 217.5 286 217.052 286 216.5C286 215.948 286.448 215.5 287 215.5C287.552 215.5 288 215.948 288 216.5C288 217.052 287.552 217.5 287 217.5ZM279 209.5C278.448 209.5 278 209.052 278 208.5C278 207.948 278.448 207.5 279 207.5C279.552 207.5 280 207.948 280 208.5C280 209.052 279.552 209.5 279 209.5ZM271 217.5C270.448 217.5 270 217.052 270 216.5C270 215.948 270.448 215.5 271 215.5C271.552 215.5 272 215.948 272 216.5C272 217.052 271.552 217.5 271 217.5ZM263 209.5C262.448 209.5 262 209.052 262 208.5C262 207.948 262.448 207.5 263 207.5C263.552 207.5 264 207.948 264 208.5C264 209.052 263.552 209.5 263 209.5ZM263 225.5C262.448 225.5 262 225.052 262 224.5C262 223.948 262.448 223.5 263 223.5C263.552 223.5 264 223.948 264 224.5C264 225.052 263.552 225.5 263 225.5ZM255 217.5C254.448 217.5 254 217.052 254 216.5C254 215.948 254.448 215.5 255 215.5C255.552 215.5 256 215.948 256 216.5C256 217.052 255.552 217.5 255 217.5ZM247 225.5C246.448 225.5 246 225.052 246 224.5C246 223.948 246.448 223.5 247 223.5C247.552 223.5 248 223.948 248 224.5C248 225.052 247.552 225.5 247 225.5ZM247 209.5C246.448 209.5 246 209.052 246 208.5C246 207.948 246.448 207.5 247 207.5C247.552 207.5 248 207.948 248 208.5C248 209.052 247.552 209.5 247 209.5ZM239 217.5C238.448 217.5 238 217.052 238 216.5C238 215.948 238.448 215.5 239 215.5C239.552 215.5 240 215.948 240 216.5C240 217.052 239.552 217.5 239 217.5ZM223 217.5C222.448 217.5 222 217.052 222 216.5C222 215.948 222.448 215.5 223 215.5C223.552 215.5 224 215.948 224 216.5C224 217.052 223.552 217.5 223 217.5ZM231 209.5C230.448 209.5 230 209.052 230 208.5C230 207.948 230.448 207.5 231 207.5C231.552 207.5 232 207.948 232 208.5C232 209.052 231.552 209.5 231 209.5ZM223 201.5C222.448 201.5 222 201.052 222 200.5C222 199.948 222.448 199.5 223 199.5C223.552 199.5 224 199.948 224 200.5C224 201.052 223.552 201.5 223 201.5ZM215 209.5C214.448 209.5 214 209.052 214 208.5C214 207.948 214.448 207.5 215 207.5C215.552 207.5 216 207.948 216 208.5C216 209.052 215.552 209.5 215 209.5ZM207 201.5C206.448 201.5 206 201.052 206 200.5C206 199.948 206.448 199.5 207 199.5C207.552 199.5 208 199.948 208 200.5C208 201.052 207.552 201.5 207 201.5ZM215 193.5C214.448 193.5 214 193.052 214 192.5C214 191.948 214.448 191.5 215 191.5C215.552 191.5 216 191.948 216 192.5C216 193.052 215.552 193.5 215 193.5ZM207 185.5C206.448 185.5 206 185.052 206 184.5C206 183.948 206.448 183.5 207 183.5C207.552 183.5 208 183.948 208 184.5C208 185.052 207.552 185.5 207 185.5ZM215 177.5V177.5C215.552 177.5 216 177.052 216 176.5V176.5C216 175.948 215.552 175.5 215 175.5V175.5C214.448 175.5 214 175.948 214 176.5V176.5C214 177.052 214.448 177.5 215 177.5ZM199 177.5V177.5C199.552 177.5 200 177.052 200 176.5V176.5C200 175.948 199.552 175.5 199 175.5V175.5C198.448 175.5 198 175.948 198 176.5V176.5C198 177.052 198.448 177.5 199 177.5ZM207 169.5V169.5C207.552 169.5 208 169.052 208 168.5V168.5C208 167.948 207.552 167.5 207 167.5V167.5C206.448 167.5 206 167.948 206 168.5V168.5C206 169.052 206.448 169.5 207 169.5ZM199 159.5V159.5C199.552 159.5 200 159.948 200 160.5V160.5C200 161.052 199.552 161.5 199 161.5V161.5C198.448 161.5 198 161.052 198 160.5V160.5C198 159.948 198.448 159.5 199 159.5ZM207 153.5V153.5C207.552 153.5 208 153.052 208 152.5V152.5C208 151.948 207.552 151.5 207 151.5V151.5C206.448 151.5 206 151.948 206 152.5V152.5C206 153.052 206.448 153.5 207 153.5ZM215 145.5V145.5C215.552 145.5 216 145.052 216 144.5V144.5C216 143.948 215.552 143.5 215 143.5V143.5C214.448 143.5 214 143.948 214 144.5V144.5C214 145.052 214.448 145.5 215 145.5ZM214.997 129.503V129.503C215.551 129.504 216 129.055 216 128.501V128.501C216 127.949 215.552 127.5 215 127.5V127.5C214.448 127.5 214 127.949 214 128.501V128.501C214 129.053 214.446 129.501 214.997 129.503ZM223 137.5V137.5C223.552 137.5 224 137.052 224 136.5V136.5C224 135.948 223.552 135.5 223 135.5V135.5C222.448 135.5 222 135.948 222 136.5V136.5C222 137.052 222.448 137.5 223 137.5ZM231 129.505V129.505C231.552 129.505 232 129.055 232 128.503V128.503C232 127.95 231.552 127.5 231 127.5V127.5C230.448 127.5 230 127.95 230 128.503V128.503C230 129.055 230.448 129.505 231 129.505ZM239 121.5V121.5C239.552 121.5 240 121.052 240 120.5V120.5C240 119.948 239.552 119.5 239 119.5V119.5C238.448 119.5 238 119.948 238 120.5V120.5C238 121.052 238.448 121.5 239 121.5ZM246 128.503V128.503C246 127.95 246.448 127.5 247 127.5V127.5C247.552 127.5 248 127.95 248 128.503V128.503C248 129.055 247.552 129.505 247 129.505V129.505C246.448 129.505 246 129.055 246 128.503ZM255 121.5V121.5C255.552 121.5 256 121.052 256 120.5V120.5C256 119.948 255.552 119.5 255 119.5V119.5C254.448 119.5 254 119.948 254 120.5V120.5C254 121.052 254.448 121.5 255 121.5ZM262 112.5V112.5C262 113.052 262.448 113.5 263 113.5V113.5C263.552 113.5 264 113.052 264 112.5V112.5C264 111.948 263.552 111.5 263 111.5V111.5C262.448 111.5 262 111.948 262 112.5ZM246 112.5V112.5C246 111.948 246.448 111.5 247 111.5V111.5C247.552 111.5 248 111.948 248 112.5V112.5C248 113.052 247.552 113.5 247 113.5V113.5C246.448 113.5 246 113.052 246 112.5Z" stroke="url(#paint54_linear_34_373)"/>
<path fill-rule="evenodd" clip-rule="evenodd" d="M189.5 88C189.5 88 214 64 256.5 64C299 64 324 88.5 324 88.5C324 88.5 316.079 102 324.5 112C332.921 122 348 118.5 348 118.5C348 118.5 361.5 139.5 360.5 168C359.5 196.5 348 217 348 217C348 217 335 212 325.5 222C316 232 323.5 246.5 323.5 246.5C323.5 246.5 297 272 253.5 271.5C210 271 189.5 247 189.5 247C189.5 247 196.5 233 187.5 222.5C178.5 212 165 217 165 217C165 217 152 198.5 152 168C152 137.5 165 118.5 165 118.5C165 118.5 177.438 124 187.5 112.5C197.563 101 189.5 88 189.5 88ZM201.5 119.5C218.5 99.5 241.5 95.5 256.5 95.5C271.5 95.5 296.98 101.5 312.5 121C328.02 140.5 328.5 157.5 328.5 168C328.5 178.5 323.5 197.019 312 212.5C300.5 227.981 280 240 253.5 240C227 240 210 224.295 200 212.5C190 200.705 184 183 184 168C184 153 184.5 139.5 201.5 119.5Z" fill="url(#paint55_linear_34_373)" stroke="url(#paint56_linear_34_373)"/>
<path fill-rule="evenodd" clip-rule="evenodd" d="M255.507 48C318.007 48 349.757 92 349.757 92C349.757 92 375.507 124 375.507 168.5C375.507 189.099 369.722 207.019 363.507 220.327C360.771 226.185 357.952 231.15 355.507 235.056C351.507 241.444 348.507 245 348.507 245C348.507 245 316.506 286.109 259.507 288.404C258.187 288.457 256.854 288.489 255.507 288.5C254.161 288.511 252.828 288.498 251.507 288.462C194.464 286.931 161.507 243.5 161.507 243.5C161.507 243.5 158.975 240.822 155.507 235.694C153.112 232.153 150.27 227.444 147.507 221.641C141.45 208.918 135.771 190.941 136.007 168.5C136.507 121 161.507 92 161.507 92C161.507 92 193.007 48 255.507 48ZM143.507 168.5C143.507 132 160.507 107.5 160.507 107.5C160.507 107.5 172.607 118 181.007 107.5C189.407 97 176.507 88.5 176.507 88.5C176.507 88.5 207.007 56.5 255.507 56C304.007 55.5 334.507 88.5 334.507 88.5C334.507 88.5 321.607 97 330.007 107.5C338.407 118 349.757 107.5 349.757 107.5C349.757 107.5 368.507 136.5 368.007 168.5C367.507 200.5 349.507 228.5 349.507 228.5C349.507 228.5 339.007 218.111 330.507 228.5C322.007 238.889 335.007 247 335.007 247C335.007 247 307.007 279.5 255.507 280C204.007 280.5 176.507 247 176.507 247C176.507 247 190.073 238.044 180.507 228C170.941 217.956 161.507 229.5 161.507 229.5C161.507 229.5 143.507 205 143.507 168.5Z" fill="url(#paint57_linear_34_373)"/>
<path d="M147.507 221.641L155.507 235.694M147.507 221.641C150.27 227.444 153.112 232.153 155.507 235.694M147.507 221.641C141.45 208.918 135.771 190.941 136.007 168.5C136.507 121 161.507 92 161.507 92C161.507 92 193.007 48 255.507 48C318.007 48 349.757 92 349.757 92C349.757 92 375.507 124 375.507 168.5C375.507 189.099 369.722 207.019 363.507 220.327M155.507 235.694C158.975 240.822 161.507 243.5 161.507 243.5C161.507 243.5 194.464 286.931 251.507 288.462M251.507 288.462L259.507 288.404M251.507 288.462C252.828 288.498 254.161 288.511 255.507 288.5C256.854 288.489 258.187 288.457 259.507 288.404M259.507 288.404C316.506 286.109 348.507 245 348.507 245C348.507 245 351.507 241.444 355.507 235.056M363.507 220.327L355.507 235.056M363.507 220.327C360.771 226.185 357.952 231.15 355.507 235.056M160.507 107.5C160.507 107.5 143.507 132 143.507 168.5C143.507 205 161.507 229.5 161.507 229.5C161.507 229.5 170.941 217.956 180.507 228C190.073 238.044 176.507 247 176.507 247C176.507 247 204.007 280.5 255.507 280C307.007 279.5 335.007 247 335.007 247C335.007 247 322.007 238.889 330.507 228.5C339.007 218.111 349.507 228.5 349.507 228.5C349.507 228.5 367.507 200.5 368.007 168.5C368.507 136.5 349.757 107.5 349.757 107.5C349.757 107.5 338.407 118 330.007 107.5C321.607 97 334.507 88.5 334.507 88.5C334.507 88.5 304.007 55.5 255.507 56C207.007 56.5 176.507 88.5 176.507 88.5C176.507 88.5 189.407 97 181.007 107.5C172.607 118 160.507 107.5 160.507 107.5Z" stroke="url(#paint58_linear_34_373)"/>
<path fill-rule="evenodd" clip-rule="evenodd" d="M256 128C258.459 128 260.791 128.153 263 128.444C286.399 131.53 296 150.182 296 168C296 187.5 281.5 208 256 208C230.5 208 216 184.5 216 168C216 165.616 216.24 163.085 216.737 160.5C216.818 160.08 216.906 159.658 217 159.235C219.997 145.819 229.904 131.359 249 128.505C251.209 128.175 253.541 128 256 128ZM276 167.5C276 156.5 267 147.5 256 147.5C245 147.5 236 157 236 167.5C236 178 245 187.5 256 187.5C267 187.5 276 178.5 276 167.5Z" fill="url(#paint59_linear_34_373)" stroke="url(#paint60_linear_34_373)"/>
<path d="M156 237.5V260L182.325 278.804C183.376 279.554 184 280.767 184 282.058V298C184 298.824 183.059 299.294 182.4 298.8L154.4 277.8C152.978 276.733 151.022 276.733 149.6 277.8L121.6 298.8C120.941 299.294 120 298.824 120 298V281.589C120 280.28 120.64 279.054 121.714 278.306L148 260V224L156 237.5Z" fill="url(#paint61_linear_34_373)"/>
<path d="M149.6 289.8C151.022 288.733 152.978 288.733 154.4 289.8L182.4 310.8C183.407 311.555 184 312.741 184 314V330C184 330.824 183.059 331.294 182.4 330.8L154.4 309.8C152.978 308.733 151.022 308.733 149.6 309.8L121.6 330.8C120.941 331.294 120 330.824 120 330V314C120 312.741 120.593 311.555 121.6 310.8L149.6 289.8Z" fill="url(#paint62_linear_34_373)"/>
<path d="M149.6 321.8C151.022 320.733 152.978 320.733 154.4 321.8L182.4 342.8C183.407 343.555 184 344.741 184 346V366.343C184 367.404 183.579 368.421 182.828 369.172L154.828 397.172C153.266 398.734 150.734 398.734 149.172 397.172L121.172 369.172C120.421 368.421 120 367.404 120 366.343V346C120 344.741 120.593 343.555 121.6 342.8L149.6 321.8Z" fill="url(#paint63_linear_34_373)"/>
<path d="M355 236.5V259L328.675 277.804C327.624 278.554 327 279.767 327 281.058V297C327 297.824 327.941 298.294 328.6 297.8L356.6 276.8C358.022 275.733 359.978 275.733 361.4 276.8L389.4 297.8C390.059 298.294 391 297.824 391 297V280.589C391 279.28 390.36 278.054 389.286 277.306L363 259V223L355 236.5Z" fill="url(#paint64_linear_34_373)"/>
<path d="M361.4 288.8C359.978 287.733 358.022 287.733 356.6 288.8L328.6 309.8C327.593 310.555 327 311.741 327 313V329C327 329.824 327.941 330.294 328.6 329.8L356.6 308.8C358.022 307.733 359.978 307.733 361.4 308.8L389.4 329.8C390.059 330.294 391 329.824 391 329V313C391 311.741 390.407 310.555 389.4 309.8L361.4 288.8Z" fill="url(#paint65_linear_34_373)"/>
<path d="M361.4 320.8C359.978 319.733 358.022 319.733 356.6 320.8L328.6 341.8C327.593 342.555 327 343.741 327 345V365.343C327 366.404 327.421 367.421 328.172 368.172L356.172 396.172C357.734 397.734 360.266 397.734 361.828 396.172L389.828 368.172C390.579 367.421 391 366.404 391 365.343V345C391 343.741 390.407 342.555 389.4 341.8L361.4 320.8Z" fill="url(#paint66_linear_34_373)"/>
<path d="M252 289V324L225.675 342.804C224.624 343.554 224 344.767 224 346.058V362C224 362.824 224.941 363.294 225.6 362.8L253.6 341.8C255.022 340.733 256.978 340.733 258.4 341.8L286.4 362.8C287.059 363.294 288 362.824 288 362V346.058C288 344.767 287.376 343.554 286.325 342.804L260 324V289H252Z" fill="url(#paint67_linear_34_373)"/>
<path d="M258.4 353.8C256.978 352.733 255.022 352.733 253.6 353.8L225.6 374.8C224.593 375.555 224 376.741 224 378V394C224 394.824 224.941 395.294 225.6 394.8L253.6 373.8C255.022 372.733 256.978 372.733 258.4 373.8L286.4 394.8C287.059 395.294 288 394.824 288 394V378C288 376.741 287.407 375.555 286.4 374.8L258.4 353.8Z" fill="url(#paint68_linear_34_373)"/>
<path d="M258.4 385.8C256.978 384.733 255.022 384.733 253.6 385.8L225.6 406.8C224.593 407.555 224 408.741 224 410V430.343C224 431.404 224.421 432.421 225.172 433.172L253.172 461.172C254.734 462.734 257.266 462.734 258.828 461.172L286.828 433.172C287.579 432.421 288 431.404 288 430.343V410C288 408.741 287.407 407.555 286.4 406.8L258.4 385.8Z" fill="url(#paint69_linear_34_373)"/>
</g>
<defs>
<filter id="filter0_dii_34_373" x="111" y="40.5" width="301" height="446.5" filterUnits="userSpaceOnUse" color-interpolation-filters="sRGB">
<feFlood flood-opacity="0" result="BackgroundImageFix"/>
<feColorMatrix in="SourceAlpha" type="matrix" values="0 0 0 0 0 0 0 0 0 0 0 0 0 0 0 0 0 0 127 0" result="hardAlpha"/>
<feOffset dx="6" dy="8"/>
<feGaussianBlur stdDeviation="7.5"/>
<feComposite in2="hardAlpha" operator="out"/>
<feColorMatrix type="matrix" values="0 0 0 0 0 0 0 0 0 0 0 0 0 0 0 0 0 0 0.25 0"/>
<feBlend mode="normal" in2="BackgroundImageFix" result="effect1_dropShadow_34_373"/>
<feBlend mode="normal" in="SourceGraphic" in2="effect1_dropShadow_34_373" result="shape"/>
<feColorMatrix in="SourceAlpha" type="matrix" values="0 0 0 0 0 0 0 0 0 0 0 0 0 0 0 0 0 0 127 0" result="hardAlpha"/>
<feOffset dx="2" dy="2"/>
<feGaussianBlur stdDeviation="3"/>
<feComposite in2="hardAlpha" operator="arithmetic" k2="-1" k3="1"/>
<feColorMatrix type="matrix" values="0 0 0 0 1 0 0 0 0 1 0 0 0 0 1 0 0 0 0.25 0"/>
<feBlend mode="normal" in2="shape" result="effect2_innerShadow_34_373"/>
<feColorMatrix in="SourceAlpha" type="matrix" values="0 0 0 0 0 0 0 0 0 0 0 0 0 0 0 0 0 0 127 0" result="hardAlpha"/>
<feOffset dx="-1" dy="-1"/>
<feGaussianBlur stdDeviation="1"/>
<feComposite in2="hardAlpha" operator="arithmetic" k2="-1" k3="1"/>
<feColorMatrix type="matrix" values="0 0 0 0 0 0 0 0 0 0 0 0 0 0 0 0 0 0 0.15 0"/>
<feBlend mode="normal" in2="effect2_innerShadow_34_373" result="effect3_innerShadow_34_373"/>
</filter>
<linearGradient id="paint0_linear_34_373" x1="255.5" y1="104" x2="255.5" y2="233" gradientUnits="userSpaceOnUse">
<stop stop-color="#269999"/>
<stop offset="1" stop-color="#1B6B6B"/>
</linearGradient>
<linearGradient id="paint1_linear_34_373" x1="255.5" y1="104" x2="255.5" y2="233" gradientUnits="userSpaceOnUse">
<stop stop-color="#269999"/>
<stop offset="1" stop-color="#1B6B6B"/>
</linearGradient>
<linearGradient id="paint2_linear_34_373" x1="255.5" y1="104" x2="255.5" y2="233" gradientUnits="userSpaceOnUse">
<stop stop-color="#269999"/>
<stop offset="1" stop-color="#1B6B6B"/>
</linearGradient>
<linearGradient id="paint3_linear_34_373" x1="255.5" y1="104" x2="255.5" y2="233" gradientUnits="userSpaceOnUse">
<stop stop-color="#269999"/>
<stop offset="1" stop-color="#1B6B6B"/>
</linearGradient>
<linearGradient id="paint4_linear_34_373" x1="255.5" y1="104" x2="255.5" y2="233" gradientUnits="userSpaceOnUse">
<stop stop-color="#269999"/>
<stop offset="1" stop-color="#1B6B6B"/>
</linearGradient>
<linearGradient id="paint5_linear_34_373" x1="255.5" y1="104" x2="255.5" y2="233" gradientUnits="userSpaceOnUse">
<stop stop-color="#269999"/>
<stop offset="1" stop-color="#1B6B6B"/>
</linearGradient>
<linearGradient id="paint6_linear_34_373" x1="255.5" y1="104" x2="255.5" y2="233" gradientUnits="userSpaceOnUse">
<stop stop-color="#269999"/>
<stop offset="1" stop-color="#1B6B6B"/>
</linearGradient>
<linearGradient id="paint7_linear_34_373" x1="255.5" y1="104" x2="255.5" y2="233" gradientUnits="userSpaceOnUse">
<stop stop-color="#269999"/>
<stop offset="1" stop-color="#1B6B6B"/>
</linearGradient>
<linearGradient id="paint8_linear_34_373" x1="255.5" y1="104" x2="255.5" y2="233" gradientUnits="userSpaceOnUse">
<stop stop-color="#269999"/>
<stop offset="1" stop-color="#1B6B6B"/>
</linearGradient>
<linearGradient id="paint9_linear_34_373" x1="255.5" y1="104" x2="255.5" y2="233" gradientUnits="userSpaceOnUse">
<stop stop-color="#269999"/>
<stop offset="1" stop-color="#1B6B6B"/>
</linearGradient>
<linearGradient id="paint10_linear_34_373" x1="255.5" y1="104" x2="255.5" y2="233" gradientUnits="userSpaceOnUse">
<stop stop-color="#269999"/>
<stop offset="1" stop-color="#1B6B6B"/>
</linearGradient>
<linearGradient id="paint11_linear_34_373" x1="255.5" y1="104" x2="255.5" y2="233" gradientUnits="userSpaceOnUse">
<stop stop-color="#269999"/>
<stop offset="1" stop-color="#1B6B6B"/>
</linearGradient>
<linearGradient id="paint12_linear_34_373" x1="255.5" y1="104" x2="255.5" y2="233" gradientUnits="userSpaceOnUse">
<stop stop-color="#269999"/>
<stop offset="1" stop-color="#1B6B6B"/>
</linearGradient>
<linearGradient id="paint13_linear_34_373" x1="255.5" y1="104" x2="255.5" y2="233" gradientUnits="userSpaceOnUse">
<stop stop-color="#269999"/>
<stop offset="1" stop-color="#1B6B6B"/>
</linearGradient>
<linearGradient id="paint14_linear_34_373" x1="255.5" y1="104" x2="255.5" y2="233" gradientUnits="userSpaceOnUse">
<stop stop-color="#269999"/>
<stop offset="1" stop-color="#1B6B6B"/>
</linearGradient>
<linearGradient id="paint15_linear_34_373" x1="255.5" y1="104" x2="255.5" y2="233" gradientUnits="userSpaceOnUse">
<stop stop-color="#269999"/>
<stop offset="1" stop-color="#1B6B6B"/>
</linearGradient>
<linearGradient id="paint16_linear_34_373" x1="255.5" y1="104" x2="255.5" y2="233" gradientUnits="userSpaceOnUse">
<stop stop-color="#269999"/>
<stop offset="1" stop-color="#1B6B6B"/>
</linearGradient>
<linearGradient id="paint17_linear_34_373" x1="255.5" y1="104" x2="255.5" y2="233" gradientUnits="userSpaceOnUse">
<stop stop-color="#269999"/>
<stop offset="1" stop-color="#1B6B6B"/>
</linearGradient>
<linearGradient id="paint18_linear_34_373" x1="255.5" y1="104" x2="255.5" y2="233" gradientUnits="userSpaceOnUse">
<stop stop-color="#269999"/>
<stop offset="1" stop-color="#1B6B6B"/>
</linearGradient>
<linearGradient id="paint19_linear_34_373" x1="255.5" y1="104" x2="255.5" y2="233" gradientUnits="userSpaceOnUse">
<stop stop-color="#269999"/>
<stop offset="1" stop-color="#1B6B6B"/>
</linearGradient>
<linearGradient id="paint20_linear_34_373" x1="255.5" y1="104" x2="255.5" y2="233" gradientUnits="userSpaceOnUse">
<stop stop-color="#269999"/>
<stop offset="1" stop-color="#1B6B6B"/>
</linearGradient>
<linearGradient id="paint21_linear_34_373" x1="255.5" y1="104" x2="255.5" y2="233" gradientUnits="userSpaceOnUse">
<stop stop-color="#269999"/>
<stop offset="1" stop-color="#1B6B6B"/>
</linearGradient>
<linearGradient id="paint22_linear_34_373" x1="255.5" y1="104" x2="255.5" y2="233" gradientUnits="userSpaceOnUse">
<stop stop-color="#269999"/>
<stop offset="1" stop-color="#1B6B6B"/>
</linearGradient>
<linearGradient id="paint23_linear_34_373" x1="255.5" y1="104" x2="255.5" y2="233" gradientUnits="userSpaceOnUse">
<stop stop-color="#269999"/>
<stop offset="1" stop-color="#1B6B6B"/>
</linearGradient>
<linearGradient id="paint24_linear_34_373" x1="255.5" y1="104" x2="255.5" y2="233" gradientUnits="userSpaceOnUse">
<stop stop-color="#269999"/>
<stop offset="1" stop-color="#1B6B6B"/>
</linearGradient>
<linearGradient id="paint25_linear_34_373" x1="255.5" y1="104" x2="255.5" y2="233" gradientUnits="userSpaceOnUse">
<stop stop-color="#269999"/>
<stop offset="1" stop-color="#1B6B6B"/>
</linearGradient>
<linearGradient id="paint26_linear_34_373" x1="255.5" y1="104" x2="255.5" y2="233" gradientUnits="userSpaceOnUse">
<stop stop-color="#269999"/>
<stop offset="1" stop-color="#1B6B6B"/>
</linearGradient>
<linearGradient id="paint27_linear_34_373" x1="255.5" y1="104" x2="255.5" y2="233" gradientUnits="userSpaceOnUse">
<stop stop-color="#269999"/>
<stop offset="1" stop-color="#1B6B6B"/>
</linearGradient>
<linearGradient id="paint28_linear_34_373" x1="255.5" y1="104" x2="255.5" y2="233" gradientUnits="userSpaceOnUse">
<stop stop-color="#269999"/>
<stop offset="1" stop-color="#1B6B6B"/>
</linearGradient>
<linearGradient id="paint29_linear_34_373" x1="255.5" y1="104" x2="255.5" y2="233" gradientUnits="userSpaceOnUse">
<stop stop-color="#269999"/>
<stop offset="1" stop-color="#1B6B6B"/>
</linearGradient>
<linearGradient id="paint30_linear_34_373" x1="255.5" y1="104" x2="255.5" y2="233" gradientUnits="userSpaceOnUse">
<stop stop-color="#269999"/>
<stop offset="1" stop-color="#1B6B6B"/>
</linearGradient>
<linearGradient id="paint31_linear_34_373" x1="255.5" y1="104" x2="255.5" y2="233" gradientUnits="userSpaceOnUse">
<stop stop-color="#269999"/>
<stop offset="1" stop-color="#1B6B6B"/>
</linearGradient>
<linearGradient id="paint32_linear_34_373" x1="255.5" y1="104" x2="255.5" y2="233" gradientUnits="userSpaceOnUse">
<stop stop-color="#269999"/>
<stop offset="1" stop-color="#1B6B6B"/>
</linearGradient>
<linearGradient id="paint33_linear_34_373" x1="255.5" y1="104" x2="255.5" y2="233" gradientUnits="userSpaceOnUse">
<stop stop-color="#269999"/>
<stop offset="1" stop-color="#1B6B6B"/>
</linearGradient>
<linearGradient id="paint34_linear_34_373" x1="255.5" y1="104" x2="255.5" y2="233" gradientUnits="userSpaceOnUse">
<stop stop-color="#269999"/>
<stop offset="1" stop-color="#1B6B6B"/>
</linearGradient>
<linearGradient id="paint35_linear_34_373" x1="255.5" y1="104" x2="255.5" y2="233" gradientUnits="userSpaceOnUse">
<stop stop-color="#269999"/>
<stop offset="1" stop-color="#1B6B6B"/>
</linearGradient>
<linearGradient id="paint36_linear_34_373" x1="255.5" y1="104" x2="255.5" y2="233" gradientUnits="userSpaceOnUse">
<stop stop-color="#269999"/>
<stop offset="1" stop-color="#1B6B6B"/>
</linearGradient>
<linearGradient id="paint37_linear_34_373" x1="255.5" y1="104" x2="255.5" y2="233" gradientUnits="userSpaceOnUse">
<stop stop-color="#269999"/>
<stop offset="1" stop-color="#1B6B6B"/>
</linearGradient>
<linearGradient id="paint38_linear_34_373" x1="255.5" y1="104" x2="255.5" y2="233" gradientUnits="userSpaceOnUse">
<stop stop-color="#269999"/>
<stop offset="1" stop-color="#1B6B6B"/>
</linearGradient>
<linearGradient id="paint39_linear_34_373" x1="255.5" y1="104" x2="255.5" y2="233" gradientUnits="userSpaceOnUse">
<stop stop-color="#269999"/>
<stop offset="1" stop-color="#1B6B6B"/>
</linearGradient>
<linearGradient id="paint40_linear_34_373" x1="255.5" y1="104" x2="255.5" y2="233" gradientUnits="userSpaceOnUse">
<stop stop-color="#269999"/>
<stop offset="1" stop-color="#1B6B6B"/>
</linearGradient>
<linearGradient id="paint41_linear_34_373" x1="255.5" y1="104" x2="255.5" y2="233" gradientUnits="userSpaceOnUse">
<stop stop-color="#269999"/>
<stop offset="1" stop-color="#1B6B6B"/>
</linearGradient>
<linearGradient id="paint42_linear_34_373" x1="255.5" y1="104" x2="255.5" y2="233" gradientUnits="userSpaceOnUse">
<stop stop-color="#269999"/>
<stop offset="1" stop-color="#1B6B6B"/>
</linearGradient>
<linearGradient id="paint43_linear_34_373" x1="255.5" y1="104" x2="255.5" y2="233" gradientUnits="userSpaceOnUse">
<stop stop-color="#269999"/>
<stop offset="1" stop-color="#1B6B6B"/>
</linearGradient>
<linearGradient id="paint44_linear_34_373" x1="255.5" y1="104" x2="255.5" y2="233" gradientUnits="userSpaceOnUse">
<stop stop-color="#269999"/>
<stop offset="1" stop-color="#1B6B6B"/>
</linearGradient>
<linearGradient id="paint45_linear_34_373" x1="255.5" y1="104" x2="255.5" y2="233" gradientUnits="userSpaceOnUse">
<stop stop-color="#269999"/>
<stop offset="1" stop-color="#1B6B6B"/>
</linearGradient>
<linearGradient id="paint46_linear_34_373" x1="255.5" y1="104" x2="255.5" y2="233" gradientUnits="userSpaceOnUse">
<stop stop-color="#269999"/>
<stop offset="1" stop-color="#1B6B6B"/>
</linearGradient>
<linearGradient id="paint47_linear_34_373" x1="255.5" y1="104" x2="255.5" y2="233" gradientUnits="userSpaceOnUse">
<stop stop-color="#269999"/>
<stop offset="1" stop-color="#1B6B6B"/>
</linearGradient>
<linearGradient id="paint48_linear_34_373" x1="255.5" y1="104" x2="255.5" y2="233" gradientUnits="userSpaceOnUse">
<stop stop-color="#269999"/>
<stop offset="1" stop-color="#1B6B6B"/>
</linearGradient>
<linearGradient id="paint49_linear_34_373" x1="255.5" y1="104" x2="255.5" y2="233" gradientUnits="userSpaceOnUse">
<stop stop-color="#269999"/>
<stop offset="1" stop-color="#1B6B6B"/>
</linearGradient>
<linearGradient id="paint50_linear_34_373" x1="255.5" y1="104" x2="255.5" y2="233" gradientUnits="userSpaceOnUse">
<stop stop-color="#269999"/>
<stop offset="1" stop-color="#1B6B6B"/>
</linearGradient>
<linearGradient id="paint51_linear_34_373" x1="255.5" y1="104" x2="255.5" y2="233" gradientUnits="userSpaceOnUse">
<stop stop-color="#269999"/>
<stop offset="1" stop-color="#1B6B6B"/>
</linearGradient>
<linearGradient id="paint52_linear_34_373" x1="255.5" y1="104" x2="255.5" y2="233" gradientUnits="userSpaceOnUse">
<stop stop-color="#269999"/>
<stop offset="1" stop-color="#1B6B6B"/>
</linearGradient>
<linearGradient id="paint53_linear_34_373" x1="255.5" y1="104" x2="255.5" y2="233" gradientUnits="userSpaceOnUse">
<stop stop-color="#269999"/>
<stop offset="1" stop-color="#1B6B6B"/>
</linearGradient>
<linearGradient id="paint54_linear_34_373" x1="255.5" y1="104" x2="255.5" y2="233" gradientUnits="userSpaceOnUse">
<stop stop-color="#269999"/>
<stop offset="1" stop-color="#1B6B6B"/>
</linearGradient>
<linearGradient id="paint55_linear_34_373" x1="256.276" y1="64" x2="256.276" y2="271.507" gradientUnits="userSpaceOnUse">
<stop stop-color="#70CCCC"/>
<stop offset="1" stop-color="#269999"/>
</linearGradient>
<linearGradient id="paint56_linear_34_373" x1="256.276" y1="64" x2="256.276" y2="271.507" gradientUnits="userSpaceOnUse">
<stop stop-color="#70CCCC"/>
<stop offset="1" stop-color="#269999"/>
</linearGradient>
<linearGradient id="paint57_linear_34_373" x1="255.754" y1="48" x2="255.754" y2="288.504" gradientUnits="userSpaceOnUse">
<stop stop-color="#269999"/>
<stop offset="1" stop-color="#1B6B6B"/>
</linearGradient>
<linearGradient id="paint58_linear_34_373" x1="255.754" y1="48" x2="255.754" y2="288.504" gradientUnits="userSpaceOnUse">
<stop stop-color="#269999"/>
<stop offset="1" stop-color="#1B6B6B"/>
</linearGradient>
<linearGradient id="paint59_linear_34_373" x1="256" y1="128" x2="256" y2="208" gradientUnits="userSpaceOnUse">
<stop stop-color="#70CCCC"/>
<stop offset="1" stop-color="#269999"/>
</linearGradient>
<linearGradient id="paint60_linear_34_373" x1="256" y1="128" x2="256" y2="208" gradientUnits="userSpaceOnUse">
<stop stop-color="#70CCCC"/>
<stop offset="1" stop-color="#269999"/>
</linearGradient>
<linearGradient id="paint61_linear_34_373" x1="152" y1="256" x2="152" y2="282" gradientUnits="userSpaceOnUse">
<stop stop-color="#E66D17"/>
<stop offset="1" stop-color="#A14300"/>
</linearGradient>
<linearGradient id="paint62_linear_34_373" x1="152" y1="284" x2="152" y2="314" gradientUnits="userSpaceOnUse">
<stop stop-color="#FABA82"/>
<stop offset="1" stop-color="#E66D17"/>
</linearGradient>
<linearGradient id="paint63_linear_34_373" x1="152" y1="312.727" x2="152" y2="367.273" gradientUnits="userSpaceOnUse">
<stop stop-color="#FABA82"/>
<stop offset="1" stop-color="#E66D17"/>
</linearGradient>
<linearGradient id="paint64_linear_34_373" x1="359" y1="255" x2="359" y2="281" gradientUnits="userSpaceOnUse">
<stop stop-color="#E66D17"/>
<stop offset="1" stop-color="#A14300"/>
</linearGradient>
<linearGradient id="paint65_linear_34_373" x1="359" y1="283" x2="359" y2="313" gradientUnits="userSpaceOnUse">
<stop stop-color="#FABA82"/>
<stop offset="1" stop-color="#E66D17"/>
</linearGradient>
<linearGradient id="paint66_linear_34_373" x1="359" y1="311.727" x2="359" y2="366.273" gradientUnits="userSpaceOnUse">
<stop stop-color="#FABA82"/>
<stop offset="1" stop-color="#E66D17"/>
</linearGradient>
<linearGradient id="paint67_linear_34_373" x1="256" y1="320.579" x2="256" y2="346.237" gradientUnits="userSpaceOnUse">
<stop stop-color="#E66D17"/>
<stop offset="1" stop-color="#A14300"/>
</linearGradient>
<linearGradient id="paint68_linear_34_373" x1="256" y1="348" x2="256" y2="378" gradientUnits="userSpaceOnUse">
<stop stop-color="#FABA82"/>
<stop offset="1" stop-color="#E66D17"/>
</linearGradient>
<linearGradient id="paint69_linear_34_373" x1="256" y1="376.727" x2="256" y2="431.273" gradientUnits="userSpaceOnUse">
<stop stop-color="#FABA82"/>
<stop offset="1" stop-color="#E66D17"/>
</linearGradient>
</defs>
</svg>
