<?xml version="1.0" encoding="UTF-8"?>
<svg version="1.1" xmlns="http://www.w3.org/2000/svg" width="512" height="512">
<path d="M0 0 C0.69488525 0.00304138 1.38977051 0.00608276 2.10571289 0.00921631 C13.51708759 0.08276848 24.31656335 1.00052972 35.25 4.4375 C35.93900391 4.65180664 36.62800781 4.86611328 37.33789062 5.08691406 C68.76944409 15.2056944 93.45148216 36.98334237 108.5625 66.25 C114.5407517 78.39031054 118.91657367 91.95132735 120.25 105.4375 C120.31558105 106.07413574 120.38116211 106.71077148 120.44873047 107.36669922 C122.34523887 126.90937689 121.02417839 148.75005161 112.22558594 166.63720703 C110.12962321 171.31382275 109.4639329 175.48656687 109.2265625 180.57421875 C109.18264374 181.41258774 109.13872498 182.25095673 109.09347534 183.11473083 C108.98069809 185.78545061 108.91715004 188.45226586 108.875 191.125 C108.85864502 192.0290155 108.84229004 192.93303101 108.82543945 193.86444092 C108.52981631 206.27459594 108.52981631 206.27459594 113.9921875 216.96484375 C117.63113464 220.07818225 121.56677946 222.2930454 125.90625 224.28613281 C129.68692875 226.14339125 133.18891437 228.53736823 136.25 231.4375 C137.40795477 234.91136432 137.41829849 237.71519304 137.4375 241.375 C137.45167969 242.60089844 137.46585937 243.82679688 137.48046875 245.08984375 C137.26052591 248.28460673 136.7473883 249.71683041 135.25 252.4375 C134.73203857 252.05529297 134.21407715 251.67308594 133.68041992 251.27929688 C132.95443604 250.74369141 132.22845215 250.20808594 131.48046875 249.65625 C130.27801514 248.76873047 130.27801514 248.76873047 129.05126953 247.86328125 C127.30537895 246.57693855 125.557647 245.29309141 123.80810547 244.01171875 C116.33357819 238.53309529 116.33357819 238.53309529 112.71484375 235.65625 C111.30912109 234.55796875 111.30912109 234.55796875 109.875 233.4375 C109.08351563 232.798125 108.29203125 232.15875 107.4765625 231.5 C105.27591412 230.14240987 105.27591412 230.14240987 102.91308594 231.14892578 C100.10117733 232.50951009 97.87084737 234.0658059 95.4140625 235.9921875 C94.51429688 236.68957031 93.61453125 237.38695312 92.6875 238.10546875 C91.759375 238.83378906 90.83125 239.56210937 89.875 240.3125 C84.17868032 244.77222367 78.66425682 249.06250536 72.25 252.4375 C71.08725001 245.49478939 70.17989716 238.26982867 72.25 231.4375 C77.20774095 224.55963219 85.38235323 220.24173157 92.61132812 216.07714844 C96.77777602 213.4593229 96.77777602 213.4593229 98.87304688 209.18481445 C99.03757212 206.59582697 98.95248545 204.14808345 98.75 201.5625 C98.71390625 200.68335938 98.6778125 199.80421875 98.640625 198.8984375 C98.54690578 196.7428955 98.40341824 194.58961696 98.25 192.4375 C97.58613281 193.17355469 96.92226563 193.90960938 96.23828125 194.66796875 C95.35527344 195.64378906 94.47226562 196.61960938 93.5625 197.625 C92.69238281 198.58792969 91.82226562 199.55085937 90.92578125 200.54296875 C72.81461065 220.1347606 49.9974899 234.38514638 23.5 239.25 C22.82718994 239.37415283 22.15437988 239.49830566 21.46118164 239.6262207 C16.0460339 240.51832103 10.72873129 240.55804337 5.25 240.4375 C3.22104307 259.98414516 3.22104307 259.98414516 7.93505859 278.37255859 C11.93733687 282.73084216 16.67306707 285.56296734 21.92236328 288.20556641 C26.58016972 290.67077422 31.54061814 293.30935442 33.25 298.4375 C33.3454687 300.74840417 33.37985387 303.06212975 33.375 305.375 C33.37757813 306.60089844 33.38015625 307.82679688 33.3828125 309.08984375 C33.27667535 311.76512431 33.04917654 313.90677428 32.25 316.4375 C29.23556985 315.02963375 26.65330773 313.37302319 23.984375 311.390625 C23.17613281 310.7925 22.36789062 310.194375 21.53515625 309.578125 C20.28025391 308.64226562 20.28025391 308.64226562 19 307.6875 C18.17886719 307.0790625 17.35773438 306.470625 16.51171875 305.84375 C15.69832031 305.24046875 14.88492188 304.6371875 14.046875 304.015625 C13.24185547 303.42330078 12.43683594 302.83097656 11.60742188 302.22070312 C10.05260112 301.04460425 8.52622859 299.82978709 7.03320312 298.57617188 C6.00356445 297.72635742 6.00356445 297.72635742 4.953125 296.859375 C4.35661133 296.3447168 3.76009766 295.83005859 3.14550781 295.29980469 C1.19724579 294.17163797 1.19724579 294.17163797 -1.22241211 295.09570312 C-3.66818798 296.39406922 -5.72879817 297.76374736 -7.89453125 299.484375 C-8.65443359 300.0825 -9.41433594 300.680625 -10.19726562 301.296875 C-10.97779297 301.92078125 -11.75832031 302.5446875 -12.5625 303.1875 C-22.35222993 310.93394179 -22.35222993 310.93394179 -26.19921875 313.890625 C-26.83561279 314.38208008 -27.47200684 314.87353516 -28.12768555 315.37988281 C-29.75 316.4375 -29.75 316.4375 -31.75 316.4375 C-32.91274999 309.49478939 -33.82010284 302.26982867 -31.75 295.4375 C-26.9868275 288.82955676 -18.74401253 283.7368266 -11.40625 280.35839844 C-8.78035209 278.93877238 -7.43117938 277.92862822 -5.75 275.4375 C-4.61081162 269.47344532 -4.67458774 263.61463347 -4.75 257.5625 C-4.74190318 255.9036242 -4.73022141 254.24476178 -4.71484375 252.5859375 C-4.68507927 248.53543559 -4.70432679 244.48782529 -4.75 240.4375 C-5.78120972 240.46577881 -5.78120972 240.46577881 -6.83325195 240.49462891 C-13.08985776 240.59243035 -18.83517761 240.17576392 -24.9375 238.8125 C-25.75065674 238.63356201 -26.56381348 238.45462402 -27.40161133 238.27026367 C-55.31777154 231.81844421 -81.46122238 215.2418717 -97.75 191.4375 C-99.04878717 198.14446441 -100.11390347 204.86793695 -97.75 211.4375 C-92.80121675 217.56735381 -85.90502482 221.75891946 -79.24536133 225.83203125 C-72.08229543 230.44061371 -72.08229543 230.44061371 -70.75 234.4375 C-70.62929731 236.74769336 -70.574637 239.0616874 -70.5625 241.375 C-70.54832031 242.60089844 -70.53414063 243.82679688 -70.51953125 245.08984375 C-70.73947409 248.28460673 -71.2526117 249.71683041 -72.75 252.4375 C-73.34425781 251.9842334 -73.93851563 251.5309668 -74.55078125 251.06396484 C-77.28360431 248.97981538 -80.01679969 246.89615471 -82.75 244.8125 C-83.68457031 244.09964844 -84.61914062 243.38679687 -85.58203125 242.65234375 C-87.43150229 241.24260708 -89.28433167 239.83726455 -91.140625 238.43652344 C-92.79847603 237.16645567 -94.43678954 235.87013943 -96.046875 234.54003906 C-96.73265625 233.9828418 -97.4184375 233.42564453 -98.125 232.8515625 C-98.71023437 232.35865723 -99.29546875 231.86575195 -99.8984375 231.35791016 C-101.76861989 230.23802052 -101.76861989 230.23802052 -104.17651367 230.57275391 C-107.16068026 231.5754973 -109.08048881 232.91051436 -111.55078125 234.859375 C-112.44603516 235.55546875 -113.34128906 236.2515625 -114.26367188 236.96875 C-115.18728516 237.7009375 -116.11089844 238.433125 -117.0625 239.1875 C-123.12680327 243.95322809 -129.11801839 248.48785562 -135.75 252.4375 C-138.00569121 250.18180879 -137.2157852 245.33539974 -137.3125 242.3125 C-137.37501953 241.46945312 -137.43753906 240.62640625 -137.50195312 239.7578125 C-137.59679245 236.05620495 -137.51266018 233.47833219 -135.28076172 230.43237305 C-131.78520778 227.18436589 -128.13975522 225.05978507 -123.8125 223.09765625 C-117.8587914 220.22323382 -113.11297835 217.28599634 -109.75 211.4375 C-104.74209991 193.69405688 -107.94347613 170.59823311 -115.92529297 154.32421875 C-118.23498138 149.04024243 -118.90688534 143.09648557 -119.75 137.4375 C-119.94529297 136.14005859 -119.94529297 136.14005859 -120.14453125 134.81640625 C-120.44802394 132.3520456 -120.62784836 129.91754849 -120.75 127.4375 C-120.80285156 126.36757812 -120.85570312 125.29765625 -120.91015625 124.1953125 C-121.66601682 93.63225485 -111.26262969 64.80689736 -91.75 41.4375 C-91.15574219 40.69113281 -90.56148437 39.94476563 -89.94921875 39.17578125 C-77.34156279 23.86003689 -58.41809174 12.44643823 -39.75 6.125 C-39.07582031 5.89482178 -38.40164062 5.66464355 -37.70703125 5.42749023 C-25.24936682 1.44390077 -13.03968742 -0.12207534 0 0 Z " fill="#1B1F1D" transform="translate(255.75,47.5625)"/>
<path d="M0 0 C0.69488525 0.00304138 1.38977051 0.00608276 2.10571289 0.00921631 C13.51708759 0.08276848 24.31656335 1.00052972 35.25 4.4375 C35.93900391 4.65180664 36.62800781 4.86611328 37.33789062 5.08691406 C68.76944409 15.2056944 93.45148216 36.98334237 108.5625 66.25 C114.5407517 78.39031054 118.91657367 91.95132735 120.25 105.4375 C120.31558105 106.07413574 120.38116211 106.71077148 120.44873047 107.36669922 C122.34523887 126.90937689 121.02417839 148.75005161 112.22558594 166.63720703 C110.12962321 171.31382275 109.4639329 175.48656687 109.2265625 180.57421875 C109.18264374 181.41258774 109.13872498 182.25095673 109.09347534 183.11473083 C108.98069809 185.78545061 108.91715004 188.45226586 108.875 191.125 C108.85864502 192.0290155 108.84229004 192.93303101 108.82543945 193.86444092 C108.52981631 206.27459594 108.52981631 206.27459594 113.9921875 216.96484375 C117.63113464 220.07818225 121.56677946 222.2930454 125.90625 224.28613281 C129.68692875 226.14339125 133.18891437 228.53736823 136.25 231.4375 C137.40795477 234.91136432 137.41829849 237.71519304 137.4375 241.375 C137.45167969 242.60089844 137.46585937 243.82679688 137.48046875 245.08984375 C137.26052591 248.28460673 136.7473883 249.71683041 135.25 252.4375 C134.73203857 252.05529297 134.21407715 251.67308594 133.68041992 251.27929688 C132.95443604 250.74369141 132.22845215 250.20808594 131.48046875 249.65625 C130.27801514 248.76873047 130.27801514 248.76873047 129.05126953 247.86328125 C127.30537895 246.57693855 125.557647 245.29309141 123.80810547 244.01171875 C116.33357819 238.53309529 116.33357819 238.53309529 112.71484375 235.65625 C111.30912109 234.55796875 111.30912109 234.55796875 109.875 233.4375 C109.08351563 232.798125 108.29203125 232.15875 107.4765625 231.5 C105.27591412 230.14240987 105.27591412 230.14240987 102.91308594 231.14892578 C100.10117733 232.50951009 97.87084737 234.0658059 95.4140625 235.9921875 C94.51429688 236.68957031 93.61453125 237.38695312 92.6875 238.10546875 C91.759375 238.83378906 90.83125 239.56210937 89.875 240.3125 C84.17868032 244.77222367 78.66425682 249.06250536 72.25 252.4375 C71.08725001 245.49478939 70.17989716 238.26982867 72.25 231.4375 C77.20774095 224.55963219 85.38235323 220.24173157 92.61132812 216.07714844 C96.77777602 213.4593229 96.77777602 213.4593229 98.87304688 209.18481445 C99.03757212 206.59582697 98.95248545 204.14808345 98.75 201.5625 C98.71390625 200.68335938 98.6778125 199.80421875 98.640625 198.8984375 C98.54690578 196.7428955 98.40341824 194.58961696 98.25 192.4375 C97.58613281 193.17355469 96.92226563 193.90960938 96.23828125 194.66796875 C95.35527344 195.64378906 94.47226562 196.61960938 93.5625 197.625 C92.69238281 198.58792969 91.82226562 199.55085937 90.92578125 200.54296875 C72.81461065 220.1347606 49.9974899 234.38514638 23.5 239.25 C22.82718994 239.37415283 22.15437988 239.49830566 21.46118164 239.6262207 C16.0460339 240.51832103 10.72873129 240.55804337 5.25 240.4375 C3.22104307 259.98414516 3.22104307 259.98414516 7.93505859 278.37255859 C11.93733687 282.73084216 16.67306707 285.56296734 21.92236328 288.20556641 C26.58016972 290.67077422 31.54061814 293.30935442 33.25 298.4375 C33.3454687 300.74840417 33.37985387 303.06212975 33.375 305.375 C33.37757813 306.60089844 33.38015625 307.82679688 33.3828125 309.08984375 C33.27667535 311.76512431 33.04917654 313.90677428 32.25 316.4375 C29.23556985 315.02963375 26.65330773 313.37302319 23.984375 311.390625 C23.17613281 310.7925 22.36789062 310.194375 21.53515625 309.578125 C20.28025391 308.64226562 20.28025391 308.64226562 19 307.6875 C18.17886719 307.0790625 17.35773438 306.470625 16.51171875 305.84375 C15.69832031 305.24046875 14.88492188 304.6371875 14.046875 304.015625 C13.24185547 303.42330078 12.43683594 302.83097656 11.60742188 302.22070312 C10.05260112 301.04460425 8.52622859 299.82978709 7.03320312 298.57617188 C6.00356445 297.72635742 6.00356445 297.72635742 4.953125 296.859375 C4.35661133 296.3447168 3.76009766 295.83005859 3.14550781 295.29980469 C1.19724579 294.17163797 1.19724579 294.17163797 -1.22241211 295.09570312 C-3.66818798 296.39406922 -5.72879817 297.76374736 -7.89453125 299.484375 C-8.65443359 300.0825 -9.41433594 300.680625 -10.19726562 301.296875 C-10.97779297 301.92078125 -11.75832031 302.5446875 -12.5625 303.1875 C-22.35222993 310.93394179 -22.35222993 310.93394179 -26.19921875 313.890625 C-26.83561279 314.38208008 -27.47200684 314.87353516 -28.12768555 315.37988281 C-29.75 316.4375 -29.75 316.4375 -31.75 316.4375 C-32.91274999 309.49478939 -33.82010284 302.26982867 -31.75 295.4375 C-26.9868275 288.82955676 -18.74401253 283.7368266 -11.40625 280.35839844 C-8.78035209 278.93877238 -7.43117938 277.92862822 -5.75 275.4375 C-4.61081162 269.47344532 -4.67458774 263.61463347 -4.75 257.5625 C-4.74190318 255.9036242 -4.73022141 254.24476178 -4.71484375 252.5859375 C-4.68507927 248.53543559 -4.70432679 244.48782529 -4.75 240.4375 C-5.78120972 240.46577881 -5.78120972 240.46577881 -6.83325195 240.49462891 C-13.08985776 240.59243035 -18.83517761 240.17576392 -24.9375 238.8125 C-25.75065674 238.63356201 -26.56381348 238.45462402 -27.40161133 238.27026367 C-55.31777154 231.81844421 -81.46122238 215.2418717 -97.75 191.4375 C-99.04878717 198.14446441 -100.11390347 204.86793695 -97.75 211.4375 C-92.80121675 217.56735381 -85.90502482 221.75891946 -79.24536133 225.83203125 C-72.08229543 230.44061371 -72.08229543 230.44061371 -70.75 234.4375 C-70.62929731 236.74769336 -70.574637 239.0616874 -70.5625 241.375 C-70.54832031 242.60089844 -70.53414063 243.82679688 -70.51953125 245.08984375 C-70.73947409 248.28460673 -71.2526117 249.71683041 -72.75 252.4375 C-73.34425781 251.9842334 -73.93851563 251.5309668 -74.55078125 251.06396484 C-77.28360431 248.97981538 -80.01679969 246.89615471 -82.75 244.8125 C-83.68457031 244.09964844 -84.61914062 243.38679687 -85.58203125 242.65234375 C-87.43150229 241.24260708 -89.28433167 239.83726455 -91.140625 238.43652344 C-92.79847603 237.16645567 -94.43678954 235.87013943 -96.046875 234.54003906 C-96.73265625 233.9828418 -97.4184375 233.42564453 -98.125 232.8515625 C-98.71023437 232.35865723 -99.29546875 231.86575195 -99.8984375 231.35791016 C-101.76861989 230.23802052 -101.76861989 230.23802052 -104.17651367 230.57275391 C-107.16068026 231.5754973 -109.08048881 232.91051436 -111.55078125 234.859375 C-112.44603516 235.55546875 -113.34128906 236.2515625 -114.26367188 236.96875 C-115.18728516 237.7009375 -116.11089844 238.433125 -117.0625 239.1875 C-123.12680327 243.95322809 -129.11801839 248.48785562 -135.75 252.4375 C-138.00569121 250.18180879 -137.2157852 245.33539974 -137.3125 242.3125 C-137.37501953 241.46945312 -137.43753906 240.62640625 -137.50195312 239.7578125 C-137.59679245 236.05620495 -137.51266018 233.47833219 -135.28076172 230.43237305 C-131.78520778 227.18436589 -128.13975522 225.05978507 -123.8125 223.09765625 C-117.8587914 220.22323382 -113.11297835 217.28599634 -109.75 211.4375 C-104.74209991 193.69405688 -107.94347613 170.59823311 -115.92529297 154.32421875 C-118.23498138 149.04024243 -118.90688534 143.09648557 -119.75 137.4375 C-119.94529297 136.14005859 -119.94529297 136.14005859 -120.14453125 134.81640625 C-120.44802394 132.3520456 -120.62784836 129.91754849 -120.75 127.4375 C-120.80285156 126.36757812 -120.85570312 125.29765625 -120.91015625 124.1953125 C-121.66601682 93.63225485 -111.26262969 64.80689736 -91.75 41.4375 C-91.15574219 40.69113281 -90.56148437 39.94476563 -89.94921875 39.17578125 C-77.34156279 23.86003689 -58.41809174 12.44643823 -39.75 6.125 C-39.07582031 5.89482178 -38.40164062 5.66464355 -37.70703125 5.42749023 C-25.24936682 1.44390077 -13.03968742 -0.12207534 0 0 Z M-66.75 40.4375 C-66.59402344 41.0665625 -66.43804687 41.695625 -66.27734375 42.34375 C-64.64432455 49.5247086 -63.96783739 55.42470086 -67.5 62.1875 C-70.51825868 66.54720698 -73.03743865 68.73232768 -77.9375 70.75 C-82.73687117 71.61546037 -86.95800776 71.15099583 -91.75 70.4375 C-104.59479441 97.89505209 -108.51555542 127.30587422 -98.03125 156.390625 C-95.29500974 164.44253611 -95.29500974 164.44253611 -89.75 170.4375 C-87.81230217 170.14191898 -85.87465476 169.84599448 -83.9375 169.546875 C-79.006958 169.3003479 -74.97302386 171.64932907 -70.9375 174.25 C-66.92073721 178.26676279 -65.30287168 182.56188868 -64.734375 188.203125 C-64.76361891 192.38500395 -65.74757029 196.39464298 -66.75 200.4375 C-47.60788083 218.66808969 -20.5616561 225.04091607 5.10546875 224.71484375 C28.12878578 223.99029596 49.78303859 215.36587917 67.25 200.4375 C67.09402344 199.8084375 66.93804687 199.179375 66.77734375 198.53125 C65.14432455 191.3502914 64.46783739 185.45029914 68 178.6875 C71.87168029 173.09507292 75.52966097 170.66956216 82.25 169.4375 C85.28972085 169.56839707 88.2508151 169.93423541 91.25 170.4375 C104.38060736 152.05464969 106.70065246 125.92856604 103.74609375 104.08984375 C101.60986274 92.4809541 97.95452343 80.79015363 92.25 70.4375 C91.6209375 70.54449219 90.991875 70.65148437 90.34375 70.76171875 C82.68459151 71.83446233 77.90199446 70.79100754 71.4375 66.625 C67.42073721 62.60823721 65.80287168 58.31311132 65.234375 52.671875 C65.26361891 48.48999605 66.24757029 44.48035702 67.25 40.4375 C48.53633349 22.61496047 21.77066158 15.73436799 -3.44750977 16.03515625 C-25.86408595 16.70300516 -50.3674053 24.46447017 -66.75 40.4375 Z " fill="#122E2E" transform="translate(255.75,47.5625)"/>
<path d="M0 0 C2.28255595 1.70599338 4.43314365 3.49040565 6.5703125 5.375 C7.32054687 6.03113281 8.07078125 6.68726562 8.84375 7.36328125 C22.8556075 20.44260898 29.28843491 37.92878323 30.75390625 56.73046875 C31.32121204 75.05110875 24.66769676 94.03529532 12.3828125 107.625 C-2.68541015 123.58924142 -20.27885501 130.69684344 -41.95703125 131.375 C-60.2348454 131.59375563 -76.97789649 125.13241283 -90.22143555 112.60400391 C-101.72736857 101.36021228 -109.6528836 87.31768447 -112.4296875 71.375 C-112.55859375 70.66085938 -112.6875 69.94671875 -112.8203125 69.2109375 C-115.55345938 51.1577831 -111.03030284 32.49764551 -100.6171875 17.5625 C-76.55544764 -13.38696953 -33.3923638 -22.3331565 0 0 Z " fill="#484F59" transform="translate(297.4296875,108.625)"/>
<path d="M0 0 C0.6581369 0.00021149 1.3162738 0.00042297 1.99435425 0.00064087 C28.3143514 0.08482464 53.35701124 9.1767265 73.4375 26.375 C75.31908171 28.30818627 76.86166263 30.18008367 78.4375 32.375 C77.6125 33.15875 76.7875 33.9425 75.9375 34.75 C72.94391346 38.3405981 72.77692725 41.46415734 73.00390625 46.03125 C73.61574593 49.33849149 74.97846672 51.13294024 77.4375 53.375 C79.86284269 54.58767134 81.54376554 54.57631212 84.25 54.625 C85.52810547 54.66367188 85.52810547 54.66367188 86.83203125 54.703125 C89.96652581 54.30837606 91.85068401 53.13979368 94.4375 51.375 C103.266658 65.02006236 109.78606108 81.0965306 111.4375 97.375 C111.56898438 98.53257812 111.70046875 99.69015625 111.8359375 100.8828125 C114.03553334 125.46940605 108.73707525 150.41056051 95.4375 171.375 C93.4375 170.375 91.4375 169.375 89.4375 168.375 C84.51753072 167.84381748 80.66422403 167.62394447 76.375 170.25 C73.0044279 173.94675649 73.05621581 176.89759663 73.0703125 181.75390625 C73.66273265 185.98277777 75.67197471 188.19464592 78.4375 191.375 C60.27814234 211.74891347 31.69457595 221.41912522 5.1875 223.125 C-24.06643066 224.62268097 -51.0838737 213.83096466 -73.41796875 195.35546875 C-75.5625 193.375 -75.5625 193.375 -77.5625 190.375 C-76.7375 189.59125 -75.9125 188.8075 -75.0625 188 C-72.06891346 184.4094019 -71.90192725 181.28584266 -72.12890625 176.71875 C-72.74074593 173.41150851 -74.10346672 171.61705976 -76.5625 169.375 C-78.98784269 168.16232866 -80.66876554 168.17368788 -83.375 168.125 C-84.22707031 168.09921875 -85.07914063 168.0734375 -85.95703125 168.046875 C-89.09152581 168.44162394 -90.97568401 169.61020632 -93.5625 171.375 C-109.93006247 146.18520528 -114.98666238 117.09335128 -109.10595703 87.80078125 C-106.24524083 75.03165448 -101.11083214 63.64344972 -94.5625 52.375 C-91.5625 52.375 -91.5625 52.375 -88.5625 54.375 C-83.67733856 55.08707438 -79.7524265 55.10352643 -75.5 52.5 C-72.1294279 48.80324351 -72.18121581 45.85240337 -72.1953125 40.99609375 C-72.78773265 36.76722223 -74.79697471 34.55535408 -77.5625 31.375 C-58.46810555 9.95202086 -27.92898426 -0.03727414 0 0 Z M-66.5625 31.375 C-66.40652344 32.0040625 -66.25054687 32.633125 -66.08984375 33.28125 C-64.45682455 40.4622086 -63.78033739 46.36220086 -67.3125 53.125 C-70.33075868 57.48470698 -72.84993865 59.66982768 -77.75 61.6875 C-82.54937117 62.55296037 -86.77050776 62.08849583 -91.5625 61.375 C-104.40729441 88.83255209 -108.32805542 118.24337422 -97.84375 147.328125 C-95.10750974 155.38003611 -95.10750974 155.38003611 -89.5625 161.375 C-87.62480217 161.07941898 -85.68715476 160.78349448 -83.75 160.484375 C-78.819458 160.2378479 -74.78552386 162.58682907 -70.75 165.1875 C-66.73323721 169.20426279 -65.11537168 173.49938868 -64.546875 179.140625 C-64.57611891 183.32250395 -65.56007029 187.33214298 -66.5625 191.375 C-47.42038083 209.60558969 -20.3741561 215.97841607 5.29296875 215.65234375 C28.31628578 214.92779596 49.97053859 206.30337917 67.4375 191.375 C67.28152344 190.7459375 67.12554687 190.116875 66.96484375 189.46875 C65.33182455 182.2877914 64.65533739 176.38779914 68.1875 169.625 C72.05918029 164.03257292 75.71716097 161.60706216 82.4375 160.375 C85.47722085 160.50589707 88.4383151 160.87173541 91.4375 161.375 C104.56810736 142.99214969 106.88815246 116.86606604 103.93359375 95.02734375 C101.79736274 83.4184541 98.14202343 71.72765363 92.4375 61.375 C91.8084375 61.48199219 91.179375 61.58898437 90.53125 61.69921875 C82.87209151 62.77196233 78.08949446 61.72850754 71.625 57.5625 C67.60823721 53.54573721 65.99037168 49.25061132 65.421875 43.609375 C65.45111891 39.42749605 66.43507029 35.41785702 67.4375 31.375 C48.72383349 13.55246047 21.95816158 6.67186799 -3.26000977 6.97265625 C-25.67658595 7.64050516 -50.1799053 15.40197017 -66.5625 31.375 Z " fill="#6FCBCB" transform="translate(255.5625,56.625)"/>
<path d="M0 0 C0.99 0.33 1.98 0.66 3 1 C4.97805391 1.06955183 6.95834616 1.08451778 8.9375 1.0625 C9.97777344 1.05347656 11.01804687 1.04445313 12.08984375 1.03515625 C13.05019531 1.02355469 14.01054687 1.01195313 15 1 C16.32 1 17.64 1 19 1 C19 1.66 19 2.32 19 3 C19.54527344 3.14695313 20.09054687 3.29390625 20.65234375 3.4453125 C30.98234525 6.51782577 38.21771242 11.86218803 44 21 C48 28.59763314 48 28.59763314 48 32 C49.485 32.495 49.485 32.495 51 33 C50.67 33.99 50.34 34.98 50 36 C49.93044817 37.97805391 49.91548222 39.95834616 49.9375 41.9375 C49.94652344 42.97777344 49.95554687 44.01804688 49.96484375 45.08984375 C49.97644531 46.05019531 49.98804688 47.01054687 50 48 C50 49.32 50 50.64 50 52 C49.34 52 48.68 52 48 52 C47.85304688 52.54527344 47.70609375 53.09054688 47.5546875 53.65234375 C44.48217423 63.98234525 39.13781197 71.21771242 30 77 C22.40236686 81 22.40236686 81 19 81 C18.505 82.485 18.505 82.485 18 84 C17.01 83.67 16.02 83.34 15 83 C13.02194609 82.93044817 11.04165384 82.91548222 9.0625 82.9375 C8.02222656 82.94652344 6.98195312 82.95554687 5.91015625 82.96484375 C4.94980469 82.97644531 3.98945313 82.98804688 3 83 C1.68 83 0.36 83 -1 83 C-1 82.34 -1 81.68 -1 81 C-1.54527344 80.85304688 -2.09054688 80.70609375 -2.65234375 80.5546875 C-12.98234525 77.48217423 -20.21771242 72.13781197 -26 63 C-30 55.40236686 -30 55.40236686 -30 52 C-30.99 51.67 -31.98 51.34 -33 51 C-32.67 50.01 -32.34 49.02 -32 48 C-31.93044817 46.02194609 -31.91548222 44.04165384 -31.9375 42.0625 C-31.94652344 41.02222656 -31.95554688 39.98195312 -31.96484375 38.91015625 C-31.97644531 37.94980469 -31.98804688 36.98945313 -32 36 C-32 34.68 -32 33.36 -32 32 C-31.34 32 -30.68 32 -30 32 C-29.85304687 31.45472656 -29.70609375 30.90945312 -29.5546875 30.34765625 C-26.48217423 20.01765475 -21.13781197 12.78228758 -12 7 C-4.40236686 3 -4.40236686 3 -1 3 C-0.67 2.01 -0.34 1.02 0 0 Z " fill="#1B1F1D" transform="translate(247,126)"/>
<path d="M0 0 C4.15521815 0.41475955 6.54569877 1.84453299 9.80078125 4.38671875 C10.69603516 5.07830078 11.59128906 5.76988281 12.51367188 6.48242188 C13.8990918 7.57393555 13.8990918 7.57393555 15.3125 8.6875 C17.14177998 10.10826233 18.97120495 11.52883801 20.80078125 12.94921875 C21.67686035 13.65014648 22.55293945 14.35107422 23.45556641 15.07324219 C25.90890069 17.01530993 25.90890069 17.01530993 28.41552734 18.38769531 C31.95107812 20.47985847 33.68544289 21.79407787 34.74731445 25.86499023 C35.08079073 29.40510831 35.09151777 32.82105994 35 36.375 C35.0309375 37.56867188 35.061875 38.76234375 35.09375 39.9921875 C35.04080418 45.97506531 34.74123939 50.03648444 30.4375 54.4140625 C28.98437677 55.64090352 27.50483006 56.83716189 26 58 C24.67102113 59.15058702 23.34796729 60.30805722 22.03125 61.47265625 C21.37253906 62.04000488 20.71382813 62.60735352 20.03515625 63.19189453 C16.36875364 66.4492575 12.94588485 69.95013691 9.5 73.4375 C8.77296875 74.16904297 8.0459375 74.90058594 7.296875 75.65429688 C5.52890501 77.43389824 3.76333622 79.21580918 2 81 C0.46306228 79.6932644 -1.07121413 78.38335675 -2.59814453 77.06494141 C-4.39356429 75.52136951 -6.20128649 73.99208659 -8.01513672 72.47021484 C-32.22764451 51.95770269 -32.22764451 51.95770269 -33.37597656 38.69775391 C-33.24921644 32.18715923 -32.55792425 26.54051548 -29.1171875 20.9296875 C-26.85338167 18.95704641 -24.62562801 17.53429412 -21.97509766 16.13916016 C-17.68147196 13.66276244 -13.82715372 10.47939566 -9.875 7.5 C-7.48153027 5.74662588 -5.08289078 4.0005725 -2.68310547 2.25585938 C-1.05857834 1.10653194 -1.05857834 1.10653194 0 0 Z " fill="#F7C9A1" transform="translate(254,384)"/>
<path d="M0 0 C4.15521815 0.41475955 6.54569877 1.84453299 9.80078125 4.38671875 C10.69603516 5.07830078 11.59128906 5.76988281 12.51367188 6.48242188 C13.8990918 7.57393555 13.8990918 7.57393555 15.3125 8.6875 C17.14177998 10.10826233 18.97120495 11.52883801 20.80078125 12.94921875 C21.67871338 13.64764893 22.55664551 14.3460791 23.46118164 15.06567383 C25.91516438 17.00165381 25.91516438 17.00165381 28.36499023 18.45581055 C32.61979606 21.12442244 34.5413158 23.27009655 35.87109375 28.18359375 C37.12957018 37.51125806 36.79604156 45.63190666 30.98681641 53.26367188 C27.17383905 57.84017131 23.0323454 62.05211453 18.75 66.1875 C18.02634247 66.88769257 17.30268494 67.58788513 16.55709839 68.30929565 C14.45386589 70.3127913 12.32501061 72.28078563 10.171875 74.23046875 C9.5142366 74.8312323 8.85659821 75.43199585 8.17903137 76.05096436 C7.24881416 76.85754486 7.24881416 76.85754486 6.29980469 77.68041992 C5.48706085 78.39218636 5.48706085 78.39218636 4.65789795 79.11833191 C3 80 3 80 0.9942627 79.7993927 C-1.12848511 78.94849723 -2.48526469 78.02606197 -4.20800781 76.52929688 C-4.8081218 76.0085408 -5.40823578 75.48778473 -6.02653503 74.95124817 C-32.52507372 51.12227025 -32.52507372 51.12227025 -33.66381836 38.40551758 C-33.45971618 31.9229372 -32.55184523 26.49700199 -29.1015625 20.9453125 C-26.84581623 18.95237162 -24.63144806 17.53735756 -21.97509766 16.13916016 C-17.68147196 13.66276244 -13.82715372 10.47939566 -9.875 7.5 C-7.48153027 5.74662588 -5.08289078 4.0005725 -2.68310547 2.25585938 C-1.05857834 1.10653194 -1.05857834 1.10653194 0 0 Z " fill="#F7C9A1" transform="translate(358,320)"/>
<path d="M0 0 C2.82174248 0.8279222 4.53307087 1.87472941 6.86889648 3.64501953 C7.65482178 4.2312207 8.44074707 4.81742187 9.25048828 5.42138672 C10.93176905 6.71145305 12.6102468 8.00517931 14.28613281 9.30224609 C19.5128486 13.38539372 19.5128486 13.38539372 25.30249023 16.55908203 C28.72224733 18.22214513 30.30829118 19.75314959 32.61108398 22.76611328 C33.72103557 27.02649274 33.76344051 31.31298211 33.86108398 35.70361328 C33.89548584 36.83637695 33.9298877 37.96914063 33.96533203 39.13623047 C33.79396767 45.60370084 32.87907171 49.22324714 28.25952148 53.88720703 C26.7378309 55.21276791 25.18975873 56.50895779 23.61108398 57.76611328 C22.40058328 58.80526049 21.19180207 59.8464206 19.98608398 60.89111328 C19.35444336 61.43123047 18.72280273 61.97134766 18.07202148 62.52783203 C12.02381221 68.02882238 6.35434074 73.94994409 0.61108398 79.76611328 C-11.42456208 74.82383191 -27.50367472 58.44737203 -33.33465576 46.89190674 C-36.04070776 39.87145543 -35.82589719 32.59418728 -33.65600586 25.47412109 C-30.19664054 18.08081085 -23.56148076 14.08903288 -16.7019043 10.15185547 C-13.40472589 8.17647182 -10.52913555 5.77590803 -7.57641602 3.32861328 C-3.07648287 -0.30120292 -3.07648287 -0.30120292 0 0 Z " fill="#F7C9A1" transform="translate(152.388916015625,320.23388671875)"/>
<path d="M0 0 C2.28255595 1.70599338 4.43314365 3.49040565 6.5703125 5.375 C7.32054687 6.03113281 8.07078125 6.68726562 8.84375 7.36328125 C22.8556075 20.44260898 29.28843491 37.92878323 30.75390625 56.73046875 C31.32121204 75.05110875 24.66769676 94.03529532 12.3828125 107.625 C-2.68541015 123.58924142 -20.27885501 130.69684344 -41.95703125 131.375 C-60.2348454 131.59375563 -76.97789649 125.13241283 -90.22143555 112.60400391 C-101.72736857 101.36021228 -109.6528836 87.31768447 -112.4296875 71.375 C-112.55859375 70.66085938 -112.6875 69.94671875 -112.8203125 69.2109375 C-115.55345938 51.1577831 -111.03030284 32.49764551 -100.6171875 17.5625 C-76.55544764 -13.38696953 -33.3923638 -22.3331565 0 0 Z M-91.51953125 18.66015625 C-104.2064746 33.95666782 -106.72176309 51.1598208 -105.4296875 70.375 C-103.29228629 87.76304767 -93.10463051 101.37452549 -79.9921875 112.25 C-63.9335844 123.96535102 -46.23790358 126.31820264 -26.90234375 123.94140625 C-10.33966846 120.36208984 3.17782227 110.27001099 13.046875 96.7421875 C23.45732649 80.56594749 26.58446378 61.80150746 22.5078125 42.9375 C16.78521279 24.39838664 4.87269304 10.23811821 -12.2421875 1.125 C-40.68246375 -12.20415203 -70.92879096 -3.85495229 -91.51953125 18.66015625 Z " fill="#6FCBCB" transform="translate(297.4296875,108.625)"/>
<path d="M0 0 C13.33465528 10.8829922 24.05206219 25.30452118 26.32470703 42.74707031 C27.6332056 61.7553486 25.29682396 79.72874974 12.36206055 94.64306641 C0.28153397 107.82827726 -14.43828444 117.2126282 -32.67919922 118.02832031 C-50.91436173 118.50189705 -67.28994488 115.03681156 -81.11279297 102.37207031 C-94.48402831 89.5766194 -102.54166486 74.71812458 -103.02709961 56.02636719 C-103.17851934 37.88150231 -98.61942033 22.13804879 -85.86254883 8.80712891 C-63.40335028 -13.74005492 -26.58480318 -19.8824264 0 0 Z M-70.67529297 1.74707031 C-70.34529297 3.06707031 -70.01529297 4.38707031 -69.67529297 5.74707031 C-70.33529297 5.74707031 -70.99529297 5.74707031 -71.67529297 5.74707031 C-72.33529297 5.08707031 -72.99529297 4.42707031 -73.67529297 3.74707031 C-75.26304845 5.1378714 -76.84530236 6.53495436 -78.42529297 7.93457031 C-79.30701172 8.711875 -80.18873047 9.48917969 -81.09716797 10.29003906 C-83.55415565 12.63162278 -85.62392063 15.04865296 -87.67529297 17.74707031 C-87.01529297 19.06707031 -86.35529297 20.38707031 -85.67529297 21.74707031 C-86.99529297 21.41707031 -88.31529297 21.08707031 -89.67529297 20.74707031 C-92.22996999 24.65378401 -93.8628349 28.64471837 -95.30029297 33.05957031 C-95.51903076 33.72746582 -95.73776855 34.39536133 -95.96313477 35.08349609 C-97.44245542 39.729231 -98.4240518 43.8897411 -98.67529297 48.74707031 C-98.72556641 49.3903125 -98.77583984 50.03355469 -98.82763672 50.69628906 C-99.36910246 62.41360766 -96.5677503 76.67074438 -88.67529297 85.74707031 C-88.18029297 84.75707031 -88.18029297 84.75707031 -87.67529297 83.74707031 C-87.01529297 83.74707031 -86.35529297 83.74707031 -85.67529297 83.74707031 C-85.67529297 84.40707031 -85.67529297 85.06707031 -85.67529297 85.74707031 C-86.66529297 86.24207031 -86.66529297 86.24207031 -87.67529297 86.74707031 C-83.45414675 95.89965178 -75.10432109 102.87931141 -65.99560547 106.94238281 C-63.7696749 107.85628925 -63.7696749 107.85628925 -61.67529297 107.74707031 C-61.34529297 108.40707031 -61.01529297 109.06707031 -60.67529297 109.74707031 C-47.82357517 114.96262181 -31.92562347 115.17324681 -18.83544922 110.79785156 C-16.51920851 109.94214393 -16.51920851 109.94214393 -15.67529297 107.74707031 C-14.62212891 107.62332031 -13.56896484 107.49957031 -12.48388672 107.37207031 C-2.81100411 105.78472547 5.64300338 96.37078815 11.32470703 88.74707031 C15.2978232 82.7302916 15.2978232 82.7302916 16.32470703 75.74707031 C16.98470703 75.41707031 17.64470703 75.08707031 18.32470703 74.74707031 C23.66872257 61.11855222 23.79159471 44.363482 18.32470703 30.74707031 C17.66470703 30.41707031 17.00470703 30.08707031 16.32470703 29.74707031 C16.12748047 28.39935547 16.12748047 28.39935547 15.92626953 27.02441406 C14.29304044 18.12649713 5.33906648 9.34780715 -1.87841797 4.16503906 C-23.82477263 -9.8169127 -47.90035523 -9.77556139 -70.67529297 1.74707031 Z " fill="#000000" transform="translate(294.67529296875,115.2529296875)"/>
<path d="M0 0 C3.84621291 0.43140066 6.19806168 1.55996316 9.2578125 3.87890625 C10.43670044 4.75929565 10.43670044 4.75929565 11.6394043 5.6574707 C12.45965088 6.28613037 13.27989746 6.91479004 14.125 7.5625 C20.66490995 12.69845351 20.66490995 12.69845351 27.69140625 17.109375 C30.80304749 18.8781828 32.86109857 20.12160967 35 23 C36.60628721 29.80381072 35.78173392 37.32127599 34 44 C30.98556985 42.59213375 28.40330773 40.93552319 25.734375 38.953125 C24.92613281 38.355 24.11789062 37.756875 23.28515625 37.140625 C22.44855469 36.51671875 21.61195313 35.8928125 20.75 35.25 C19.92886719 34.6415625 19.10773438 34.033125 18.26171875 33.40625 C17.44832031 32.80296875 16.63492188 32.1996875 15.796875 31.578125 C14.99185547 30.98580078 14.18683594 30.39347656 13.35742188 29.78320312 C11.80260112 28.60710425 10.27622859 27.39228709 8.78320312 26.13867188 C8.09677734 25.57212891 7.41035156 25.00558594 6.703125 24.421875 C6.10661133 23.9072168 5.51009766 23.39255859 4.89550781 22.86230469 C2.95579745 21.74026822 2.95579745 21.74026822 0.57299805 22.62646484 C-2.134917 24.0720223 -4.44840525 25.66986888 -6.87109375 27.5546875 C-7.77537109 28.25207031 -8.67964844 28.94945312 -9.61132812 29.66796875 C-11.0102832 30.76044922 -11.0102832 30.76044922 -12.4375 31.875 C-28.06551878 44 -28.06551878 44 -31 44 C-32.77091467 26.82336614 -32.77091467 26.82336614 -29.21875 21.16015625 C-26.89852324 19.29466529 -24.54731587 17.71505049 -21.97509766 16.21972656 C-18.65977254 14.17233913 -15.59496486 11.78898483 -12.47973633 9.45263672 C-9.23715474 7.02184025 -5.96086504 4.63888511 -2.68310547 2.25585938 C-1.05857834 1.10653194 -1.05857834 1.10653194 0 0 Z " fill="#FABA82" transform="translate(254,352)"/>
<path d="M0 0 C4.15521815 0.41475955 6.54569877 1.84453299 9.80078125 4.38671875 C10.69603516 5.07830078 11.59128906 5.76988281 12.51367188 6.48242188 C13.8990918 7.57393555 13.8990918 7.57393555 15.3125 8.6875 C17.14177998 10.10826233 18.97120495 11.52883801 20.80078125 12.94921875 C21.67686035 13.63677246 22.55293945 14.32432617 23.45556641 15.03271484 C26.42526257 17.32880117 29.45970824 19.52468839 32.52807617 21.68676758 C34 23 34 23 35 26 C35.0954687 28.31090417 35.12985387 30.62462975 35.125 32.9375 C35.12886719 34.77634766 35.12886719 34.77634766 35.1328125 36.65234375 C35.02667535 39.32762431 34.79917654 41.46927428 34 44 C30.98556985 42.59213375 28.40330773 40.93552319 25.734375 38.953125 C24.92613281 38.355 24.11789063 37.756875 23.28515625 37.140625 C22.44855469 36.51671875 21.61195313 35.8928125 20.75 35.25 C19.92886719 34.6415625 19.10773438 34.033125 18.26171875 33.40625 C17.44832031 32.80296875 16.63492188 32.1996875 15.796875 31.578125 C14.99185547 30.98580078 14.18683594 30.39347656 13.35742188 29.78320312 C11.80260112 28.60710425 10.27622859 27.39228709 8.78320312 26.13867188 C8.09677734 25.57212891 7.41035156 25.00558594 6.703125 24.421875 C6.10661133 23.9072168 5.51009766 23.39255859 4.89550781 22.86230469 C2.95579745 21.74026822 2.95579745 21.74026822 0.57299805 22.62646484 C-2.134917 24.0720223 -4.44840525 25.66986888 -6.87109375 27.5546875 C-7.77537109 28.25207031 -8.67964844 28.94945312 -9.61132812 29.66796875 C-11.0102832 30.76044922 -11.0102832 30.76044922 -12.4375 31.875 C-28.06551878 44 -28.06551878 44 -31 44 C-32.77091467 26.82336614 -32.77091467 26.82336614 -29.21875 21.16015625 C-26.89852324 19.29466529 -24.54731587 17.71505049 -21.97509766 16.21972656 C-18.65977254 14.17233913 -15.59496486 11.78898483 -12.47973633 9.45263672 C-9.23715474 7.02184025 -5.96086504 4.63888511 -2.68310547 2.25585938 C-1.05857834 1.10653194 -1.05857834 1.10653194 0 0 Z " fill="#FABA82" transform="translate(150,288)"/>
<path d="M0 0 C2.82174248 0.8279222 4.53307087 1.87472941 6.86889648 3.64501953 C8.04778442 4.52540894 8.04778442 4.52540894 9.25048828 5.42358398 C10.07073486 6.05224365 10.89098145 6.68090332 11.73608398 7.32861328 C18.27599393 12.46456679 18.27599393 12.46456679 25.30249023 16.87548828 C28.41363543 18.64401411 30.4696568 19.89061608 32.61108398 22.76611328 C34.27259146 29.56240427 33.97753472 37.61489902 30.61108398 43.76611328 C30.09312256 43.38390625 29.57516113 43.00169922 29.04150391 42.60791016 C28.31552002 42.07230469 27.58953613 41.53669922 26.84155273 40.98486328 C26.03991699 40.39318359 25.23828125 39.80150391 24.41235352 39.19189453 C22.66646293 37.90555184 20.91873098 36.62170469 19.16918945 35.34033203 C11.69466218 29.86170857 11.69466218 29.86170857 8.07592773 26.98486328 C7.1387793 26.25267578 6.20163086 25.52048828 5.23608398 24.76611328 C4.44459961 24.12673828 3.65311523 23.48736328 2.83764648 22.82861328 C0.63699811 21.47102315 0.63699811 21.47102315 -1.72583008 22.47753906 C-4.53773868 23.83812337 -6.76806865 25.39441918 -9.22485352 27.32080078 C-10.12461914 28.01818359 -11.02438477 28.71556641 -11.95141602 29.43408203 C-12.87954102 30.16240234 -13.80766602 30.89072266 -14.76391602 31.64111328 C-20.4602357 36.10083695 -25.97465919 40.39111864 -32.38891602 43.76611328 C-35.23276899 26.78563732 -35.23276899 26.78563732 -30.81567383 20.54248047 C-26.60246951 16.41513476 -21.71415783 13.30234054 -16.7019043 10.23242188 C-13.45446451 8.17372192 -10.54302729 5.76567961 -7.57641602 3.32861328 C-3.07648287 -0.30120292 -3.07648287 -0.30120292 0 0 Z " fill="#FABA82" transform="translate(360.388916015625,288.23388671875)"/>
<path d="M0 0 C4.58173634 3.19443769 6.85439291 6.66406642 8.25 12.04296875 C9.32823016 18.56850752 7.93564106 23.29090291 4.46484375 28.82421875 C0.77576862 33.72585897 -3.26724295 35.92731119 -9.3125 36.875 C-15.38240869 37.10537607 -19.59083714 35.84548922 -24.3125 31.875 C-28.91348829 27.16944379 -31.19618675 23.11701268 -31.37890625 16.453125 C-31.07968506 10.46870122 -29.79494861 6.00588401 -25.3125 1.875 C-17.24909678 -3.37261162 -8.65426921 -4.91756605 0 0 Z " fill="#4E5560" transform="translate(267.3125,151.125)"/>
</svg>
