<?xml version="1.0" encoding="UTF-8"?>
<svg version="1.1" xmlns="http://www.w3.org/2000/svg" width="512" height="512">
<path d="M0 0 C0.97018066 0.31348389 0.97018066 0.31348389 1.95996094 0.63330078 C14.44842822 4.83282316 26.04577487 11.3790653 36 20 C35.67 20.7425 35.34 21.485 35 22.25 C33.19652795 29.01302019 32.48847884 36.22194967 36.0625 42.5 C38.77515198 46.0968866 41.57455687 48.83383593 46 50 C50.68770534 50.30840167 55.31031827 50.23415887 60 50 C72.64915595 73.40093851 76.54686878 101.96813099 69.34375 127.8515625 C67.09543002 135.07186168 64.53876182 142.30837382 61 149 C57.746316 150.08456133 55.71060332 149.94144244 52.3125 149.75 C46.2323851 149.71323993 42.4456446 150.8108349 38 155 C33.7541526 160.20116306 33.5771437 164.42063589 33.6640625 171.03515625 C34.02735945 174.24146305 34.87890231 176.98200502 36 180 C11.8910476 199.72550651 -15.19935289 205.79177703 -46 204 C-52.19074261 203.32699941 -58.08544304 201.92289408 -64 200 C-64.97018066 199.68651611 -64.97018066 199.68651611 -65.95996094 199.36669922 C-78.44842822 195.16717684 -90.04577487 188.6209347 -100 180 C-99.67 179.2575 -99.34 178.515 -99 177.75 C-97.19652795 170.98697981 -96.48847884 163.77805033 -100.0625 157.5 C-102.77515198 153.9031134 -105.57455687 151.16616407 -110 150 C-114.68770534 149.69159833 -119.31031827 149.76584113 -124 150 C-136.90241782 126.66584012 -140.40416472 97.80084133 -133.28125 72.0078125 C-130.961257 64.46044674 -128.39260792 56.58891188 -124 50 C-121.0234375 49.8828125 -121.0234375 49.8828125 -117.375 50.125 C-111.75096801 50.23448423 -108.05348982 50.0067196 -103.5546875 46.53125 C-98.83792074 41.88559027 -97.76941708 38.42022222 -97.625 31.9375 C-97.68226671 27.5795031 -98.48265443 24.08469426 -100 20 C-72.35311384 -2.62017959 -34.44257557 -11.19769834 0 0 Z M-87.6875 54.0625 C-99.96587407 69.80174432 -105.58546827 88.67402762 -103.3125 108.5625 C-100.2080103 128.67959328 -90.29502321 146.55739784 -74 159 C-56.72550359 170.81322414 -37.37271098 173.85733278 -17.01269531 170.39160156 C1.47245626 166.79502428 17.41239534 155.41106916 28 140 C38.55428234 122.23536636 42.29509399 103.23254892 38 83 C32.77175928 63.69416169 21.69439351 48.03905628 4.4921875 37.90625 C-26.70990346 20.87423614 -64.10504465 27.17446971 -87.6875 54.0625 Z " fill="#000000" transform="translate(288,68)"/>
<path d="M0 0 C0.69488525 0.00304138 1.38977051 0.00608276 2.10571289 0.00921631 C13.51708759 0.08276848 24.31656335 1.00052972 35.25 4.4375 C35.93900391 4.65180664 36.62800781 4.86611328 37.33789062 5.08691406 C68.76944409 15.2056944 93.45148216 36.98334237 108.5625 66.25 C114.5407517 78.39031054 118.91657367 91.95132735 120.25 105.4375 C120.31558105 106.07413574 120.38116211 106.71077148 120.44873047 107.36669922 C122.34523887 126.90937689 121.02417839 148.75005161 112.22558594 166.63720703 C110.12962321 171.31382275 109.4639329 175.48656687 109.2265625 180.57421875 C109.18264374 181.41258774 109.13872498 182.25095673 109.09347534 183.11473083 C108.98069809 185.78545061 108.91715004 188.45226586 108.875 191.125 C108.85864502 192.0290155 108.84229004 192.93303101 108.82543945 193.86444092 C108.52981631 206.27459594 108.52981631 206.27459594 113.9921875 216.96484375 C117.63113464 220.07818225 121.56677946 222.2930454 125.90625 224.28613281 C129.68692875 226.14339125 133.18891437 228.53736823 136.25 231.4375 C137.40795477 234.91136432 137.41829849 237.71519304 137.4375 241.375 C137.45167969 242.60089844 137.46585937 243.82679688 137.48046875 245.08984375 C137.26052591 248.28460673 136.7473883 249.71683041 135.25 252.4375 C134.73203857 252.05529297 134.21407715 251.67308594 133.68041992 251.27929688 C132.95443604 250.74369141 132.22845215 250.20808594 131.48046875 249.65625 C130.27801514 248.76873047 130.27801514 248.76873047 129.05126953 247.86328125 C127.30537895 246.57693855 125.557647 245.29309141 123.80810547 244.01171875 C116.33357819 238.53309529 116.33357819 238.53309529 112.71484375 235.65625 C111.30912109 234.55796875 111.30912109 234.55796875 109.875 233.4375 C109.08351563 232.798125 108.29203125 232.15875 107.4765625 231.5 C105.27591412 230.14240987 105.27591412 230.14240987 102.91308594 231.14892578 C100.10117733 232.50951009 97.87084737 234.0658059 95.4140625 235.9921875 C94.51429688 236.68957031 93.61453125 237.38695312 92.6875 238.10546875 C91.759375 238.83378906 90.83125 239.56210937 89.875 240.3125 C84.17868032 244.77222367 78.66425682 249.06250536 72.25 252.4375 C71.08725001 245.49478939 70.17989716 238.26982867 72.25 231.4375 C77.20774095 224.55963219 85.38235323 220.24173157 92.61132812 216.07714844 C96.77777602 213.4593229 96.77777602 213.4593229 98.87304688 209.18481445 C99.03757212 206.59582697 98.95248545 204.14808345 98.75 201.5625 C98.71390625 200.68335938 98.6778125 199.80421875 98.640625 198.8984375 C98.54690578 196.7428955 98.40341824 194.58961696 98.25 192.4375 C97.58613281 193.17355469 96.92226563 193.90960938 96.23828125 194.66796875 C95.35527344 195.64378906 94.47226562 196.61960938 93.5625 197.625 C92.69238281 198.58792969 91.82226562 199.55085937 90.92578125 200.54296875 C72.81461065 220.1347606 49.9974899 234.38514638 23.5 239.25 C22.82718994 239.37415283 22.15437988 239.49830566 21.46118164 239.6262207 C16.0460339 240.51832103 10.72873129 240.55804337 5.25 240.4375 C3.22104307 259.98414516 3.22104307 259.98414516 7.93505859 278.37255859 C11.93733687 282.73084216 16.67306707 285.56296734 21.92236328 288.20556641 C26.58016972 290.67077422 31.54061814 293.30935442 33.25 298.4375 C33.3454687 300.74840417 33.37985387 303.06212975 33.375 305.375 C33.37757813 306.60089844 33.38015625 307.82679688 33.3828125 309.08984375 C33.27667535 311.76512431 33.04917654 313.90677428 32.25 316.4375 C29.23556985 315.02963375 26.65330773 313.37302319 23.984375 311.390625 C23.17613281 310.7925 22.36789062 310.194375 21.53515625 309.578125 C20.28025391 308.64226562 20.28025391 308.64226562 19 307.6875 C18.17886719 307.0790625 17.35773438 306.470625 16.51171875 305.84375 C15.69832031 305.24046875 14.88492188 304.6371875 14.046875 304.015625 C13.24185547 303.42330078 12.43683594 302.83097656 11.60742188 302.22070312 C10.05260112 301.04460425 8.52622859 299.82978709 7.03320312 298.57617188 C6.00356445 297.72635742 6.00356445 297.72635742 4.953125 296.859375 C4.35661133 296.3447168 3.76009766 295.83005859 3.14550781 295.29980469 C1.19724579 294.17163797 1.19724579 294.17163797 -1.22241211 295.09570312 C-3.66818798 296.39406922 -5.72879817 297.76374736 -7.89453125 299.484375 C-8.65443359 300.0825 -9.41433594 300.680625 -10.19726562 301.296875 C-10.97779297 301.92078125 -11.75832031 302.5446875 -12.5625 303.1875 C-22.35222993 310.93394179 -22.35222993 310.93394179 -26.19921875 313.890625 C-26.83561279 314.38208008 -27.47200684 314.87353516 -28.12768555 315.37988281 C-29.75 316.4375 -29.75 316.4375 -31.75 316.4375 C-32.91274999 309.49478939 -33.82010284 302.26982867 -31.75 295.4375 C-26.9868275 288.82955676 -18.74401253 283.7368266 -11.40625 280.35839844 C-8.78035209 278.93877238 -7.43117938 277.92862822 -5.75 275.4375 C-4.61081162 269.47344532 -4.67458774 263.61463347 -4.75 257.5625 C-4.74190318 255.9036242 -4.73022141 254.24476178 -4.71484375 252.5859375 C-4.68507927 248.53543559 -4.70432679 244.48782529 -4.75 240.4375 C-5.78120972 240.46577881 -5.78120972 240.46577881 -6.83325195 240.49462891 C-13.08985776 240.59243035 -18.83517761 240.17576392 -24.9375 238.8125 C-25.75065674 238.63356201 -26.56381348 238.45462402 -27.40161133 238.27026367 C-55.31777154 231.81844421 -81.46122238 215.2418717 -97.75 191.4375 C-99.04878717 198.14446441 -100.11390347 204.86793695 -97.75 211.4375 C-92.80121675 217.56735381 -85.90502482 221.75891946 -79.24536133 225.83203125 C-72.08229543 230.44061371 -72.08229543 230.44061371 -70.75 234.4375 C-70.62929731 236.74769336 -70.574637 239.0616874 -70.5625 241.375 C-70.54832031 242.60089844 -70.53414063 243.82679688 -70.51953125 245.08984375 C-70.73947409 248.28460673 -71.2526117 249.71683041 -72.75 252.4375 C-73.34425781 251.9842334 -73.93851563 251.5309668 -74.55078125 251.06396484 C-77.28360431 248.97981538 -80.01679969 246.89615471 -82.75 244.8125 C-83.68457031 244.09964844 -84.61914062 243.38679687 -85.58203125 242.65234375 C-87.43150229 241.24260708 -89.28433167 239.83726455 -91.140625 238.43652344 C-92.79847603 237.16645567 -94.43678954 235.87013943 -96.046875 234.54003906 C-96.73265625 233.9828418 -97.4184375 233.42564453 -98.125 232.8515625 C-98.71023437 232.35865723 -99.29546875 231.86575195 -99.8984375 231.35791016 C-101.76861989 230.23802052 -101.76861989 230.23802052 -104.17651367 230.57275391 C-107.16068026 231.5754973 -109.08048881 232.91051436 -111.55078125 234.859375 C-112.44603516 235.55546875 -113.34128906 236.2515625 -114.26367188 236.96875 C-115.18728516 237.7009375 -116.11089844 238.433125 -117.0625 239.1875 C-123.12680327 243.95322809 -129.11801839 248.48785562 -135.75 252.4375 C-138.00569121 250.18180879 -137.2157852 245.33539974 -137.3125 242.3125 C-137.37501953 241.46945312 -137.43753906 240.62640625 -137.50195312 239.7578125 C-137.59679245 236.05620495 -137.51266018 233.47833219 -135.28076172 230.43237305 C-131.78520778 227.18436589 -128.13975522 225.05978507 -123.8125 223.09765625 C-117.8587914 220.22323382 -113.11297835 217.28599634 -109.75 211.4375 C-104.74209991 193.69405688 -107.94347613 170.59823311 -115.92529297 154.32421875 C-118.23498138 149.04024243 -118.90688534 143.09648557 -119.75 137.4375 C-119.94529297 136.14005859 -119.94529297 136.14005859 -120.14453125 134.81640625 C-120.44802394 132.3520456 -120.62784836 129.91754849 -120.75 127.4375 C-120.80285156 126.36757812 -120.85570312 125.29765625 -120.91015625 124.1953125 C-121.66601682 93.63225485 -111.26262969 64.80689736 -91.75 41.4375 C-91.15574219 40.69113281 -90.56148437 39.94476563 -89.94921875 39.17578125 C-77.34156279 23.86003689 -58.41809174 12.44643823 -39.75 6.125 C-39.07582031 5.89482178 -38.40164062 5.66464355 -37.70703125 5.42749023 C-25.24936682 1.44390077 -13.03968742 -0.12207534 0 0 Z M-74.609375 37.34375 C-75.71530568 38.66092587 -76.74694623 40.04038939 -77.75 41.4375 C-76.925 42.22125 -76.1 43.005 -75.25 43.8125 C-72.25641346 47.4030981 -72.08942725 50.52665734 -72.31640625 55.09375 C-72.92824593 58.40099149 -74.29096672 60.19544024 -76.75 62.4375 C-80.42650739 64.2757537 -84.72796199 63.81634188 -88.75 63.4375 C-91.875 61.9375 -91.875 61.9375 -93.75 60.4375 C-110.02303077 84.10736294 -114.86103704 113.58925391 -109.78515625 141.5625 C-107.03676126 155.25261844 -101.73622386 167.41552087 -94.75 179.4375 C-91.56509993 179.7148501 -91.56509993 179.7148501 -88.75 177.4375 C-83.86483856 176.72542562 -79.9399265 176.70897357 -75.6875 179.3125 C-72.3169279 183.00925649 -72.36871581 185.96009663 -72.3828125 190.81640625 C-72.97523265 195.04527777 -74.98447471 197.25714592 -77.75 200.4375 C-62.80572058 215.00300736 -45.02190724 224.54257606 -24.75 229.4375 C-23.87859375 229.65148437 -23.0071875 229.86546875 -22.109375 230.0859375 C-19.66208602 230.63065666 -17.22892132 231.06295893 -14.75 231.4375 C-13.41582031 231.64052734 -13.41582031 231.64052734 -12.0546875 231.84765625 C15.79560792 235.01080991 44.5733972 226.69523324 67.25 210.4375 C71.1315353 207.32962677 74.72722604 203.94562625 78.25 200.4375 C77.425 199.48875 76.6 198.54 75.75 197.5625 C72.9629722 193.65589692 72.57870216 190.47856619 72.81640625 185.74609375 C73.43362027 182.45984611 74.80642383 180.66546651 77.25 178.4375 C79.68954658 177.21772671 81.40305849 177.23596187 84.125 177.1875 C85.42050781 177.14882813 85.42050781 177.14882813 86.7421875 177.109375 C89.71527407 177.49837698 90.96923125 178.56154302 93.25 180.4375 C93.91 180.4375 94.57 180.4375 95.25 180.4375 C110.61143026 151.08687643 116.85335227 121.3673428 107.4453125 89.06640625 C104.0982702 78.90496083 100.19843687 69.4023428 94.25 60.4375 C93.528125 60.92347656 92.80625 61.40945312 92.0625 61.91015625 C87.8171034 64.21564246 83.96926243 64.15817554 79.25 63.4375 C76.31576805 61.64103146 74.77794645 60.4933929 73.25 57.4375 C72.5653005 52.08706244 72.50948487 47.78880479 75.75 43.3125 C76.575 42.36375 77.4 41.415 78.25 40.4375 C62.30424311 22.54713861 35.52200448 10.76552552 11.84375 9.21435547 C8.12227602 9.09768059 4.4107973 9.05729491 0.6875 9.0625 C0.02869843 9.06304382 -0.63010315 9.06358765 -1.30886841 9.06414795 C-27.5089547 9.16332008 -55.86918264 18.13111582 -74.609375 37.34375 Z " fill="#000000" transform="translate(255.75,47.5625)"/>
<path d="M0 0 C0.99 0.33 1.98 0.66 3 1 C4.97805391 1.06955183 6.95834616 1.08451778 8.9375 1.0625 C9.97777344 1.05347656 11.01804687 1.04445313 12.08984375 1.03515625 C13.05019531 1.02355469 14.01054687 1.01195313 15 1 C16.32 1 17.64 1 19 1 C19 1.66 19 2.32 19 3 C19.66 3.0825 20.32 3.165 21 3.25 C30.55802908 5.63950727 38.62687933 11.92479902 43.9375 20.1875 C46.15110968 24.08039978 48 27.44829669 48 32 C49.485 32.495 49.485 32.495 51 33 C50.67 33.99 50.34 34.98 50 36 C49.93044817 37.97805391 49.91548222 39.95834616 49.9375 41.9375 C49.94652344 42.97777344 49.95554687 44.01804688 49.96484375 45.08984375 C49.97644531 46.05019531 49.98804688 47.01054687 50 48 C50 49.32 50 50.64 50 52 C49.34 52 48.68 52 48 52 C47.9175 52.66 47.835 53.32 47.75 54 C45.36049273 63.55802908 39.07520098 71.62687933 30.8125 76.9375 C26.91960022 79.15110968 23.55170331 81 19 81 C18.505 82.485 18.505 82.485 18 84 C17.01 83.67 16.02 83.34 15 83 C13.02194609 82.93044817 11.04165384 82.91548222 9.0625 82.9375 C8.02222656 82.94652344 6.98195312 82.95554687 5.91015625 82.96484375 C4.94980469 82.97644531 3.98945313 82.98804688 3 83 C1.68 83 0.36 83 -1 83 C-1 82.34 -1 81.68 -1 81 C-1.66 80.9175 -2.32 80.835 -3 80.75 C-12.55802908 78.36049273 -20.62687933 72.07520098 -25.9375 63.8125 C-28.15110968 59.91960022 -30 56.55170331 -30 52 C-30.99 51.67 -31.98 51.34 -33 51 C-32.67 50.01 -32.34 49.02 -32 48 C-31.93044817 46.02194609 -31.91548222 44.04165384 -31.9375 42.0625 C-31.94652344 41.02222656 -31.95554688 39.98195312 -31.96484375 38.91015625 C-31.97644531 37.94980469 -31.98804688 36.98945313 -32 36 C-32 34.68 -32 33.36 -32 32 C-31.34 32 -30.68 32 -30 32 C-29.9175 31.34 -29.835 30.68 -29.75 30 C-27.36049273 20.44197092 -21.07520098 12.37312067 -12.8125 7.0625 C-8.91960022 4.84889032 -5.55170331 3 -1 3 C-0.67 2.01 -0.34 1.02 0 0 Z M-7.375 30.4375 C-10.44622776 35.28058992 -11.50437327 39.16947648 -10.52734375 44.921875 C-8.83829793 51.57796667 -5.85143782 56.00103745 -0.13671875 59.8671875 C4.96790661 62.57347883 9.22677347 62.43986883 14.6875 60.8125 C20.56836257 58.55917981 24.23982101 55.60626173 27.20703125 49.9140625 C29.65611934 44.00247056 29.35357924 38.98662386 27.15234375 33.11328125 C24.55647058 28.35271385 19.97366865 25.01856388 15 23 C5.39127056 21.69595815 -0.68500318 23.57145063 -7.375 30.4375 Z " fill="#000000" transform="translate(247,126)"/>
<path d="M0 0 C4.15521815 0.41475955 6.54569877 1.84453299 9.80078125 4.38671875 C10.69603516 5.07830078 11.59128906 5.76988281 12.51367188 6.48242188 C13.8990918 7.57393555 13.8990918 7.57393555 15.3125 8.6875 C17.14177998 10.10826233 18.97120495 11.52883801 20.80078125 12.94921875 C21.67686035 13.65014648 22.55293945 14.35107422 23.45556641 15.07324219 C25.90890069 17.01530993 25.90890069 17.01530993 28.41552734 18.38769531 C31.95107812 20.47985847 33.68544289 21.79407787 34.74731445 25.86499023 C35.08079073 29.40510831 35.09151777 32.82105994 35 36.375 C35.0309375 37.56867188 35.061875 38.76234375 35.09375 39.9921875 C35.04080418 45.97506531 34.74123939 50.03648444 30.4375 54.4140625 C28.98437677 55.64090352 27.50483006 56.83716189 26 58 C24.67102113 59.15058702 23.34796729 60.30805722 22.03125 61.47265625 C21.37253906 62.04000488 20.71382813 62.60735352 20.03515625 63.19189453 C16.36875364 66.4492575 12.94588485 69.95013691 9.5 73.4375 C8.77296875 74.16904297 8.0459375 74.90058594 7.296875 75.65429688 C5.52890501 77.43389824 3.76333622 79.21580918 2 81 C0.46306228 79.6932644 -1.07121413 78.38335675 -2.59814453 77.06494141 C-4.39356429 75.52136951 -6.20128649 73.99208659 -8.01513672 72.47021484 C-32.22764451 51.95770269 -32.22764451 51.95770269 -33.37597656 38.69775391 C-33.24921644 32.18715923 -32.55792425 26.54051548 -29.1171875 20.9296875 C-26.85338167 18.95704641 -24.62562801 17.53429412 -21.97509766 16.13916016 C-17.68147196 13.66276244 -13.82715372 10.47939566 -9.875 7.5 C-7.48153027 5.74662588 -5.08289078 4.0005725 -2.68310547 2.25585938 C-1.05857834 1.10653194 -1.05857834 1.10653194 0 0 Z " fill="#000000" transform="translate(254,384)"/>
<path d="M0 0 C4.15521815 0.41475955 6.54569877 1.84453299 9.80078125 4.38671875 C10.69603516 5.07830078 11.59128906 5.76988281 12.51367188 6.48242188 C13.8990918 7.57393555 13.8990918 7.57393555 15.3125 8.6875 C17.14177998 10.10826233 18.97120495 11.52883801 20.80078125 12.94921875 C21.67871338 13.64764893 22.55664551 14.3460791 23.46118164 15.06567383 C25.91516438 17.00165381 25.91516438 17.00165381 28.36499023 18.45581055 C32.61979606 21.12442244 34.5413158 23.27009655 35.87109375 28.18359375 C37.12957018 37.51125806 36.79604156 45.63190666 30.98681641 53.26367188 C27.17383905 57.84017131 23.0323454 62.05211453 18.75 66.1875 C18.02634247 66.88769257 17.30268494 67.58788513 16.55709839 68.30929565 C14.45386589 70.3127913 12.32501061 72.28078563 10.171875 74.23046875 C9.5142366 74.8312323 8.85659821 75.43199585 8.17903137 76.05096436 C7.24881416 76.85754486 7.24881416 76.85754486 6.29980469 77.68041992 C5.48706085 78.39218636 5.48706085 78.39218636 4.65789795 79.11833191 C3 80 3 80 0.9942627 79.7993927 C-1.12848511 78.94849723 -2.48526469 78.02606197 -4.20800781 76.52929688 C-4.8081218 76.0085408 -5.40823578 75.48778473 -6.02653503 74.95124817 C-32.52507372 51.12227025 -32.52507372 51.12227025 -33.66381836 38.40551758 C-33.45971618 31.9229372 -32.55184523 26.49700199 -29.1015625 20.9453125 C-26.84581623 18.95237162 -24.63144806 17.53735756 -21.97509766 16.13916016 C-17.68147196 13.66276244 -13.82715372 10.47939566 -9.875 7.5 C-7.48153027 5.74662588 -5.08289078 4.0005725 -2.68310547 2.25585938 C-1.05857834 1.10653194 -1.05857834 1.10653194 0 0 Z " fill="#000000" transform="translate(358,320)"/>
<path d="M0 0 C2.82174248 0.8279222 4.53307087 1.87472941 6.86889648 3.64501953 C7.65482178 4.2312207 8.44074707 4.81742187 9.25048828 5.42138672 C10.93176905 6.71145305 12.6102468 8.00517931 14.28613281 9.30224609 C19.5128486 13.38539372 19.5128486 13.38539372 25.30249023 16.55908203 C28.72224733 18.22214513 30.30829118 19.75314959 32.61108398 22.76611328 C33.72103557 27.02649274 33.76344051 31.31298211 33.86108398 35.70361328 C33.89548584 36.83637695 33.9298877 37.96914063 33.96533203 39.13623047 C33.79396767 45.60370084 32.87907171 49.22324714 28.25952148 53.88720703 C26.7378309 55.21276791 25.18975873 56.50895779 23.61108398 57.76611328 C22.40058328 58.80526049 21.19180207 59.8464206 19.98608398 60.89111328 C19.35444336 61.43123047 18.72280273 61.97134766 18.07202148 62.52783203 C12.02381221 68.02882238 6.35434074 73.94994409 0.61108398 79.76611328 C-11.42456208 74.82383191 -27.50367472 58.44737203 -33.33465576 46.89190674 C-36.04070776 39.87145543 -35.82589719 32.59418728 -33.65600586 25.47412109 C-30.19664054 18.08081085 -23.56148076 14.08903288 -16.7019043 10.15185547 C-13.40472589 8.17647182 -10.52913555 5.77590803 -7.57641602 3.32861328 C-3.07648287 -0.30120292 -3.07648287 -0.30120292 0 0 Z " fill="#000000" transform="translate(152.388916015625,320.23388671875)"/>
<path d="M0 0 C1.00256836 0.00757324 2.00513672 0.01514648 3.03808594 0.02294922 C20.49699085 0.40861029 35.12930453 7.32515762 47.6875 19.4375 C59.1471926 32.46311332 65.31073233 47.37370838 65.125 64.75 C65.11364014 66.25385254 65.11364014 66.25385254 65.10205078 67.78808594 C64.71638971 85.24699085 57.79984238 99.87930453 45.6875 112.4375 C32.66188668 123.8971926 17.75129162 130.06073233 0.375 129.875 C-1.12885254 129.86364014 -1.12885254 129.86364014 -2.66308594 129.85205078 C-20.12199085 129.46638971 -34.75430453 122.54984238 -47.3125 110.4375 C-58.7721926 97.41188668 -64.93573233 82.50129162 -64.75 65.125 C-64.74242676 64.12243164 -64.73485352 63.11986328 -64.72705078 62.08691406 C-64.34138971 44.62800915 -57.42484238 29.99569547 -45.3125 17.4375 C-32.28688668 5.9778074 -17.37629162 -0.18573233 0 0 Z M-23.3125 9.4375 C-24.13492188 9.8190625 -24.95734375 10.200625 -25.8046875 10.59375 C-27.66419602 11.49454997 -29.49326421 12.4579115 -31.3125 13.4375 C-31.3125 14.7575 -31.3125 16.0775 -31.3125 17.4375 C-32.03179687 17.18742187 -32.75109375 16.93734375 -33.4921875 16.6796875 C-36.4299637 16.13383314 -36.4299637 16.13383314 -38.8828125 18.1328125 C-39.72585937 18.93460938 -40.56890625 19.73640625 -41.4375 20.5625 C-42.70980469 21.74199219 -42.70980469 21.74199219 -44.0078125 22.9453125 C-46.20343279 25.31955953 -47.77086331 27.60612804 -49.3125 30.4375 C-48.6525 30.7675 -47.9925 31.0975 -47.3125 31.4375 C-47.3125 32.0975 -47.3125 32.7575 -47.3125 33.4375 C-48.6325 33.1075 -49.9525 32.7775 -51.3125 32.4375 C-52.27630382 34.62272816 -53.23359439 36.81045386 -54.1875 39 C-54.45691406 39.60908203 -54.72632813 40.21816406 -55.00390625 40.84570312 C-61.48745324 55.78948826 -61.93711913 71.52805945 -56.02368164 86.75830078 C-54.83636667 89.67510899 -53.59377081 92.5606844 -52.3125 95.4375 C-51.3225 95.4375 -50.3325 95.4375 -49.3125 95.4375 C-48.6525 95.4375 -47.9925 95.4375 -47.3125 95.4375 C-47.3125 96.0975 -47.3125 96.7575 -47.3125 97.4375 C-48.3025 98.4275 -48.3025 98.4275 -49.3125 99.4375 C-42.40140051 107.7930415 -35.37123861 115.08661092 -25.3125 119.4375 C-24.68214844 119.76878906 -24.05179688 120.10007812 -23.40234375 120.44140625 C-10.13985224 126.76278071 5.22354031 126.34017375 19.109375 122.48828125 C21.82510397 121.71185986 21.82510397 121.71185986 22.6875 119.4375 C23.59371094 119.29957031 24.49992187 119.16164063 25.43359375 119.01953125 C29.04286286 118.37393569 30.82644698 117.28870722 33.75 115.125 C34.56597656 114.53074219 35.38195312 113.93648438 36.22265625 113.32421875 C37.44275391 112.39029297 37.44275391 112.39029297 38.6875 111.4375 C39.95013672 110.49777344 39.95013672 110.49777344 41.23828125 109.5390625 C47.41535734 104.23879626 51.89750565 97.03248461 54.6875 89.4375 C55.0071875 88.80714844 55.326875 88.17679687 55.65625 87.52734375 C61.72162752 75.23576431 61.68727634 58.43680418 57.5390625 45.53125 C56.68678871 43.43575115 55.71766137 41.45081917 54.6875 39.4375 C54.36652344 38.70273438 54.04554688 37.96796875 53.71484375 37.2109375 C49.43445036 27.79100366 43.17756929 19.87966009 33.6875 15.4375 C33.3575 16.0975 33.0275 16.7575 32.6875 17.4375 C32.0275 17.4375 31.3675 17.4375 30.6875 17.4375 C31.0175 16.1175 31.3475 14.7975 31.6875 13.4375 C28.28044516 11.27722972 24.98523644 9.66731047 21.1875 8.3125 C19.81078125 7.81363281 19.81078125 7.81363281 18.40625 7.3046875 C5.54366719 3.20196712 -11.1471222 3.64818838 -23.3125 9.4375 Z " fill="#000000" transform="translate(256.3125,103.5625)"/>
<path d="M0 0 C3.84621291 0.43140066 6.19806168 1.55996316 9.2578125 3.87890625 C10.43670044 4.75929565 10.43670044 4.75929565 11.6394043 5.6574707 C12.45965088 6.28613037 13.27989746 6.91479004 14.125 7.5625 C20.66490995 12.69845351 20.66490995 12.69845351 27.69140625 17.109375 C30.80304749 18.8781828 32.86109857 20.12160967 35 23 C36.60628721 29.80381072 35.78173392 37.32127599 34 44 C30.98556985 42.59213375 28.40330773 40.93552319 25.734375 38.953125 C24.92613281 38.355 24.11789062 37.756875 23.28515625 37.140625 C22.44855469 36.51671875 21.61195313 35.8928125 20.75 35.25 C19.92886719 34.6415625 19.10773438 34.033125 18.26171875 33.40625 C17.44832031 32.80296875 16.63492188 32.1996875 15.796875 31.578125 C14.99185547 30.98580078 14.18683594 30.39347656 13.35742188 29.78320312 C11.80260112 28.60710425 10.27622859 27.39228709 8.78320312 26.13867188 C8.09677734 25.57212891 7.41035156 25.00558594 6.703125 24.421875 C6.10661133 23.9072168 5.51009766 23.39255859 4.89550781 22.86230469 C2.95579745 21.74026822 2.95579745 21.74026822 0.57299805 22.62646484 C-2.134917 24.0720223 -4.44840525 25.66986888 -6.87109375 27.5546875 C-7.77537109 28.25207031 -8.67964844 28.94945312 -9.61132812 29.66796875 C-11.0102832 30.76044922 -11.0102832 30.76044922 -12.4375 31.875 C-28.06551878 44 -28.06551878 44 -31 44 C-32.77091467 26.82336614 -32.77091467 26.82336614 -29.21875 21.16015625 C-26.89852324 19.29466529 -24.54731587 17.71505049 -21.97509766 16.21972656 C-18.65977254 14.17233913 -15.59496486 11.78898483 -12.47973633 9.45263672 C-9.23715474 7.02184025 -5.96086504 4.63888511 -2.68310547 2.25585938 C-1.05857834 1.10653194 -1.05857834 1.10653194 0 0 Z " fill="#000000" transform="translate(254,352)"/>
<path d="M0 0 C4.15521815 0.41475955 6.54569877 1.84453299 9.80078125 4.38671875 C10.69603516 5.07830078 11.59128906 5.76988281 12.51367188 6.48242188 C13.8990918 7.57393555 13.8990918 7.57393555 15.3125 8.6875 C17.14177998 10.10826233 18.97120495 11.52883801 20.80078125 12.94921875 C21.67686035 13.63677246 22.55293945 14.32432617 23.45556641 15.03271484 C26.42526257 17.32880117 29.45970824 19.52468839 32.52807617 21.68676758 C34 23 34 23 35 26 C35.0954687 28.31090417 35.12985387 30.62462975 35.125 32.9375 C35.12886719 34.77634766 35.12886719 34.77634766 35.1328125 36.65234375 C35.02667535 39.32762431 34.79917654 41.46927428 34 44 C30.98556985 42.59213375 28.40330773 40.93552319 25.734375 38.953125 C24.92613281 38.355 24.11789063 37.756875 23.28515625 37.140625 C22.44855469 36.51671875 21.61195313 35.8928125 20.75 35.25 C19.92886719 34.6415625 19.10773438 34.033125 18.26171875 33.40625 C17.44832031 32.80296875 16.63492188 32.1996875 15.796875 31.578125 C14.99185547 30.98580078 14.18683594 30.39347656 13.35742188 29.78320312 C11.80260112 28.60710425 10.27622859 27.39228709 8.78320312 26.13867188 C8.09677734 25.57212891 7.41035156 25.00558594 6.703125 24.421875 C6.10661133 23.9072168 5.51009766 23.39255859 4.89550781 22.86230469 C2.95579745 21.74026822 2.95579745 21.74026822 0.57299805 22.62646484 C-2.134917 24.0720223 -4.44840525 25.66986888 -6.87109375 27.5546875 C-7.77537109 28.25207031 -8.67964844 28.94945312 -9.61132812 29.66796875 C-11.0102832 30.76044922 -11.0102832 30.76044922 -12.4375 31.875 C-28.06551878 44 -28.06551878 44 -31 44 C-32.77091467 26.82336614 -32.77091467 26.82336614 -29.21875 21.16015625 C-26.89852324 19.29466529 -24.54731587 17.71505049 -21.97509766 16.21972656 C-18.65977254 14.17233913 -15.59496486 11.78898483 -12.47973633 9.45263672 C-9.23715474 7.02184025 -5.96086504 4.63888511 -2.68310547 2.25585938 C-1.05857834 1.10653194 -1.05857834 1.10653194 0 0 Z " fill="#000000" transform="translate(150,288)"/>
<path d="M0 0 C2.82174248 0.8279222 4.53307087 1.87472941 6.86889648 3.64501953 C8.04778442 4.52540894 8.04778442 4.52540894 9.25048828 5.42358398 C10.07073486 6.05224365 10.89098145 6.68090332 11.73608398 7.32861328 C18.27599393 12.46456679 18.27599393 12.46456679 25.30249023 16.87548828 C28.41363543 18.64401411 30.4696568 19.89061608 32.61108398 22.76611328 C34.27259146 29.56240427 33.97753472 37.61489902 30.61108398 43.76611328 C30.09312256 43.38390625 29.57516113 43.00169922 29.04150391 42.60791016 C28.31552002 42.07230469 27.58953613 41.53669922 26.84155273 40.98486328 C26.03991699 40.39318359 25.23828125 39.80150391 24.41235352 39.19189453 C22.66646293 37.90555184 20.91873098 36.62170469 19.16918945 35.34033203 C11.69466218 29.86170857 11.69466218 29.86170857 8.07592773 26.98486328 C7.1387793 26.25267578 6.20163086 25.52048828 5.23608398 24.76611328 C4.44459961 24.12673828 3.65311523 23.48736328 2.83764648 22.82861328 C0.63699811 21.47102315 0.63699811 21.47102315 -1.72583008 22.47753906 C-4.53773868 23.83812337 -6.76806865 25.39441918 -9.22485352 27.32080078 C-10.12461914 28.01818359 -11.02438477 28.71556641 -11.95141602 29.43408203 C-12.87954102 30.16240234 -13.80766602 30.89072266 -14.76391602 31.64111328 C-20.4602357 36.10083695 -25.97465919 40.39111864 -32.38891602 43.76611328 C-35.23276899 26.78563732 -35.23276899 26.78563732 -30.81567383 20.54248047 C-26.60246951 16.41513476 -21.71415783 13.30234054 -16.7019043 10.23242188 C-13.45446451 8.17372192 -10.54302729 5.76567961 -7.57641602 3.32861328 C-3.07648287 -0.30120292 -3.07648287 -0.30120292 0 0 Z " fill="#000000" transform="translate(360.388916015625,288.23388671875)"/>
<path d="M0 0 C0.99 0.33 1.98 0.66 3 1 C2.67 1.99 2.34 2.98 2 4 C1.01 3.67 0.02 3.34 -1 3 C-0.67 2.01 -0.34 1.02 0 0 Z " fill="#000000" transform="translate(263,222)"/>
<path d="M0 0 C0.99 0.33 1.98 0.66 3 1 C2.67 1.99 2.34 2.98 2 4 C1.01 3.67 0.02 3.34 -1 3 C-0.67 2.01 -0.34 1.02 0 0 Z " fill="#000000" transform="translate(247,222)"/>
<path d="M0 0 C0.99 0.33 1.98 0.66 3 1 C2.67 1.99 2.34 2.98 2 4 C1.01 3.67 0.02 3.34 -1 3 C-0.67 2.01 -0.34 1.02 0 0 Z " fill="#000000" transform="translate(287,214)"/>
<path d="M0 0 C0.99 0.33 1.98 0.66 3 1 C2.67 1.99 2.34 2.98 2 4 C1.01 3.67 0.02 3.34 -1 3 C-0.67 2.01 -0.34 1.02 0 0 Z " fill="#000000" transform="translate(271,214)"/>
<path d="M0 0 C0.99 0.33 1.98 0.66 3 1 C2.67 1.99 2.34 2.98 2 4 C1.01 3.67 0.02 3.34 -1 3 C-0.67 2.01 -0.34 1.02 0 0 Z " fill="#000000" transform="translate(255,214)"/>
<path d="M0 0 C0.99 0.33 1.98 0.66 3 1 C2.67 1.99 2.34 2.98 2 4 C1.01 3.67 0.02 3.34 -1 3 C-0.67 2.01 -0.34 1.02 0 0 Z " fill="#000000" transform="translate(239,214)"/>
<path d="M0 0 C0.99 0.33 1.98 0.66 3 1 C2.67 1.99 2.34 2.98 2 4 C1.01 3.67 0.02 3.34 -1 3 C-0.67 2.01 -0.34 1.02 0 0 Z " fill="#000000" transform="translate(223,214)"/>
<path d="M0 0 C0.99 0.33 1.98 0.66 3 1 C2.67 1.99 2.34 2.98 2 4 C1.01 3.67 0.02 3.34 -1 3 C-0.67 2.01 -0.34 1.02 0 0 Z " fill="#000000" transform="translate(295,206)"/>
<path d="M0 0 C0.99 0.33 1.98 0.66 3 1 C2.67 1.99 2.34 2.98 2 4 C1.01 3.67 0.02 3.34 -1 3 C-0.67 2.01 -0.34 1.02 0 0 Z " fill="#000000" transform="translate(279,206)"/>
<path d="M0 0 C0.99 0.33 1.98 0.66 3 1 C2.67 1.99 2.34 2.98 2 4 C1.01 3.67 0.02 3.34 -1 3 C-0.67 2.01 -0.34 1.02 0 0 Z " fill="#000000" transform="translate(231,206)"/>
<path d="M0 0 C0.99 0.33 1.98 0.66 3 1 C2.67 1.99 2.34 2.98 2 4 C1.01 3.67 0.02 3.34 -1 3 C-0.67 2.01 -0.34 1.02 0 0 Z " fill="#000000" transform="translate(215,206)"/>
<path d="M0 0 C0.99 0.33 1.98 0.66 3 1 C2.67 1.99 2.34 2.98 2 4 C1.01 3.67 0.02 3.34 -1 3 C-0.67 2.01 -0.34 1.02 0 0 Z " fill="#000000" transform="translate(303,198)"/>
<path d="M0 0 C0.99 0.33 1.98 0.66 3 1 C2.67 1.99 2.34 2.98 2 4 C1.01 3.67 0.02 3.34 -1 3 C-0.67 2.01 -0.34 1.02 0 0 Z " fill="#000000" transform="translate(287,198)"/>
<path d="M0 0 C0.99 0.33 1.98 0.66 3 1 C2.67 1.99 2.34 2.98 2 4 C1.01 3.67 0.02 3.34 -1 3 C-0.67 2.01 -0.34 1.02 0 0 Z " fill="#000000" transform="translate(223,198)"/>
<path d="M0 0 C0.99 0.33 1.98 0.66 3 1 C2.67 1.99 2.34 2.98 2 4 C1.01 3.67 0.02 3.34 -1 3 C-0.67 2.01 -0.34 1.02 0 0 Z " fill="#000000" transform="translate(295,190)"/>
<path d="M0 0 C0.99 0.33 1.98 0.66 3 1 C2.67 1.99 2.34 2.98 2 4 C1.01 3.67 0.02 3.34 -1 3 C-0.67 2.01 -0.34 1.02 0 0 Z " fill="#000000" transform="translate(215,190)"/>
<path d="M0 0 C0.99 0.33 1.98 0.66 3 1 C2.67 1.99 2.34 2.98 2 4 C1.01 3.67 0.02 3.34 -1 3 C-0.67 2.01 -0.34 1.02 0 0 Z " fill="#000000" transform="translate(303,182)"/>
<path d="M0 0 C0.99 0.33 1.98 0.66 3 1 C2.67 1.99 2.34 2.98 2 4 C1.01 3.67 0.02 3.34 -1 3 C-0.67 2.01 -0.34 1.02 0 0 Z " fill="#000000" transform="translate(207,182)"/>
<path d="M0 0 C0.99 0.33 1.98 0.66 3 1 C2.67 1.99 2.34 2.98 2 4 C1.01 3.67 0.02 3.34 -1 3 C-0.67 2.01 -0.34 1.02 0 0 Z " fill="#000000" transform="translate(311,174)"/>
<path d="M0 0 C0.99 0.33 1.98 0.66 3 1 C2.67 1.99 2.34 2.98 2 4 C1.01 3.67 0.02 3.34 -1 3 C-0.67 2.01 -0.34 1.02 0 0 Z " fill="#000000" transform="translate(199,174)"/>
<path d="M0 0 C0.99 0.33 1.98 0.66 3 1 C2.67 1.99 2.34 2.98 2 4 C1.01 3.67 0.02 3.34 -1 3 C-0.67 2.01 -0.34 1.02 0 0 Z " fill="#000000" transform="translate(303,166)"/>
<path d="M0 0 C0.99 0.33 1.98 0.66 3 1 C2.67 1.99 2.34 2.98 2 4 C1.01 3.67 0.02 3.34 -1 3 C-0.67 2.01 -0.34 1.02 0 0 Z " fill="#000000" transform="translate(207,166)"/>
<path d="M0 0 C0.99 0.33 1.98 0.66 3 1 C2.67 1.99 2.34 2.98 2 4 C1.01 3.67 0.02 3.34 -1 3 C-0.67 2.01 -0.34 1.02 0 0 Z " fill="#000000" transform="translate(311,158)"/>
<path d="M0 0 C0.99 0.33 1.98 0.66 3 1 C2.67 1.99 2.34 2.98 2 4 C1.01 3.67 0.02 3.34 -1 3 C-0.67 2.01 -0.34 1.02 0 0 Z " fill="#000000" transform="translate(199,158)"/>
<path d="M0 0 C0.99 0.33 1.98 0.66 3 1 C2.67 1.99 2.34 2.98 2 4 C1.01 3.67 0.02 3.34 -1 3 C-0.67 2.01 -0.34 1.02 0 0 Z " fill="#000000" transform="translate(303,150)"/>
<path d="M0 0 C0.99 0.33 1.98 0.66 3 1 C2.67 1.99 2.34 2.98 2 4 C1.01 3.67 0.02 3.34 -1 3 C-0.67 2.01 -0.34 1.02 0 0 Z " fill="#000000" transform="translate(207,150)"/>
<path d="M0 0 C0.99 0.33 1.98 0.66 3 1 C2.67 1.99 2.34 2.98 2 4 C1.01 3.67 0.02 3.34 -1 3 C-0.67 2.01 -0.34 1.02 0 0 Z " fill="#000000" transform="translate(295,142)"/>
<path d="M0 0 C0.99 0.33 1.98 0.66 3 1 C2.67 1.99 2.34 2.98 2 4 C1.01 3.67 0.02 3.34 -1 3 C-0.67 2.01 -0.34 1.02 0 0 Z " fill="#000000" transform="translate(215,142)"/>
<path d="M0 0 C0.99 0.33 1.98 0.66 3 1 C2.67 1.99 2.34 2.98 2 4 C1.01 3.67 0.02 3.34 -1 3 C-0.67 2.01 -0.34 1.02 0 0 Z " fill="#000000" transform="translate(303,134)"/>
<path d="M0 0 C0.99 0.33 1.98 0.66 3 1 C2.67 1.99 2.34 2.98 2 4 C1.01 3.67 0.02 3.34 -1 3 C-0.67 2.01 -0.34 1.02 0 0 Z " fill="#000000" transform="translate(287,134)"/>
<path d="M0 0 C0.99 0.33 1.98 0.66 3 1 C2.67 1.99 2.34 2.98 2 4 C1.01 3.67 0.02 3.34 -1 3 C-0.67 2.01 -0.34 1.02 0 0 Z " fill="#000000" transform="translate(223,134)"/>
<path d="M0 0 C0.99 0.33 1.98 0.66 3 1 C2.67 1.99 2.34 2.98 2 4 C1.01 3.67 0.02 3.34 -1 3 C-0.67 2.01 -0.34 1.02 0 0 Z " fill="#000000" transform="translate(295,126)"/>
<path d="M0 0 C0.99 0.33 1.98 0.66 3 1 C2.67 1.99 2.34 2.98 2 4 C1.01 3.67 0.02 3.34 -1 3 C-0.67 2.01 -0.34 1.02 0 0 Z " fill="#000000" transform="translate(279,126)"/>
<path d="M0 0 C0.99 0.33 1.98 0.66 3 1 C2.67 1.99 2.34 2.98 2 4 C1.01 3.67 0.02 3.34 -1 3 C-0.67 2.01 -0.34 1.02 0 0 Z " fill="#000000" transform="translate(231,126)"/>
<path d="M0 0 C0.99 0.33 1.98 0.66 3 1 C2.67 1.99 2.34 2.98 2 4 C1.01 3.67 0.02 3.34 -1 3 C-0.67 2.01 -0.34 1.02 0 0 Z " fill="#000000" transform="translate(215,126)"/>
<path d="M0 0 C0.99 0.33 1.98 0.66 3 1 C2.67 1.99 2.34 2.98 2 4 C1.01 3.67 0.02 3.34 -1 3 C-0.67 2.01 -0.34 1.02 0 0 Z " fill="#000000" transform="translate(271,118)"/>
<path d="M0 0 C0.99 0.33 1.98 0.66 3 1 C2.67 1.99 2.34 2.98 2 4 C1.01 3.67 0.02 3.34 -1 3 C-0.67 2.01 -0.34 1.02 0 0 Z " fill="#000000" transform="translate(255,118)"/>
<path d="M0 0 C0.99 0.33 1.98 0.66 3 1 C2.67 1.99 2.34 2.98 2 4 C1.01 3.67 0.02 3.34 -1 3 C-0.67 2.01 -0.34 1.02 0 0 Z " fill="#000000" transform="translate(239,118)"/>
<path d="M0 0 C0.99 0.33 1.98 0.66 3 1 C2.67 1.99 2.34 2.98 2 4 C1.01 3.67 0.02 3.34 -1 3 C-0.67 2.01 -0.34 1.02 0 0 Z " fill="#000000" transform="translate(263,110)"/>
<path d="M0 0 C0.99 0.33 1.98 0.66 3 1 C2.67 1.99 2.34 2.98 2 4 C1.01 3.67 0.02 3.34 -1 3 C-0.67 2.01 -0.34 1.02 0 0 Z " fill="#000000" transform="translate(247,110)"/>
</svg>
