<?xml version="1.0" standalone="no"?>
<!DOCTYPE svg PUBLIC "-//W3C//DTD SVG 20010904//EN"
  "http://www.w3.org/TR/2001/REC-SVG-20010904/DTD/svg10.dtd">
<svg width="68" height="56">
<g style="fill:black;fill-opacity:1;stroke:none;stroke-width:1;stroke-opacity:1;fill-rule:nonzero;fill:none;">
<g style="clip-path:url(#clip0_1884_19583);">
<g style="fill:white;fill-opacity:0.1;">
  <path d="M0 16C0 13.7909 1.79086 12 4 12H16C18.2091 12 20 13.7909 20 16C20 18.2091 18.2091 20 16 20H4C1.79086 20 0 18.2091 0 16Z"/>
</g>
<g style="fill:white;fill-opacity:0.1;">
  <path d="M0 28C0 25.7909 1.79086 24 4 24H16C18.2091 24 20 25.7909 20 28C20 30.2091 18.2091 32 16 32H4C1.79086 32 0 30.2091 0 28Z"/>
</g>
<g style="fill:white;fill-opacity:0.2;">
  <path d="M0 40C0 37.7909 1.79086 36 4 36H16C18.2091 36 20 37.7909 20 40C20 42.2091 18.2091 44 16 44H4C1.79086 44 0 42.2091 0 40Z"/>
</g>
<g style="fill:white;fill-opacity:0.2;">
  <path d="M0 52C0 49.7909 1.79086 48 4 48H16C18.2091 48 20 49.7909 20 52C20 54.2091 18.2091 56 16 56H4C1.79086 56 0 54.2091 0 52Z"/>
</g>
<g style="fill:white;fill-opacity:0.1;">
  <path d="M48 28C48 25.7909 49.7909 24 52 24H64C66.2091 24 68 25.7909 68 28C68 30.2091 66.2091 32 64 32H52C49.7909 32 48 30.2091 48 28Z"/>
</g>
<g style="fill:white;fill-opacity:0.2;">
  <path d="M48 40C48 37.7909 49.7909 36 52 36H64C66.2091 36 68 37.7909 68 40C68 42.2091 66.2091 44 64 44H52C49.7909 44 48 42.2091 48 40Z"/>
</g>
<g style="fill:white;fill-opacity:0.2;">
  <path d="M48 52C48 49.7909 49.7909 48 52 48H64C66.2091 48 68 49.7909 68 52C68 54.2091 66.2091 56 64 56H52C49.7909 56 48 54.2091 48 52Z"/>
</g>
<g style="fill:white;fill-opacity:0.1;">
  <path d="M24 4C24 1.79086 25.7909 0 28 0H40C42.2091 0 44 1.79086 44 4C44 6.20914 42.2091 8 40 8H28C25.7909 8 24 6.20914 24 4Z"/>
</g>
<g style="fill:white;fill-opacity:0.1;">
  <path d="M24 16C24 13.7909 25.7909 12 28 12H40C42.2091 12 44 13.7909 44 16C44 18.2091 42.2091 20 40 20H28C25.7909 20 24 18.2091 24 16Z"/>
</g>
<g style="fill:white;fill-opacity:0.1;">
  <path d="M24 28C24 25.7909 25.7909 24 28 24H40C42.2091 24 44 25.7909 44 28C44 30.2091 42.2091 32 40 32H28C25.7909 32 24 30.2091 24 28Z"/>
</g>
<g style="fill:white;fill-opacity:0.2;">
  <path d="M24 40C24 37.7909 25.7909 36 28 36H40C42.2091 36 44 37.7909 44 40C44 42.2091 42.2091 44 40 44H28C25.7909 44 24 42.2091 24 40Z"/>
</g>
<g style="fill:white;fill-opacity:0.2;">
  <path d="M24 52C24 49.7909 25.7909 48 28 48H40C42.2091 48 44 49.7909 44 52C44 54.2091 42.2091 56 40 56H28C25.7909 56 24 54.2091 24 52Z"/>
</g>
</g>
<defs>
<clipPath id="push">
</svg>
