<?xml version="1.0" encoding="UTF-8"?>
<!DOCTYPE svg PUBLIC "-//W3C//DTD SVG 1.1//EN" "http://www.w3.org/Graphics/SVG/1.1/DTD/svg11.dtd">
<svg xmlns="http://www.w3.org/2000/svg" version="1.1" width="512px" height="512px" style="shape-rendering:geometricPrecision; text-rendering:geometricPrecision; image-rendering:optimizeQuality; fill-rule:evenodd; clip-rule:evenodd" xmlns:xlink="http://www.w3.org/1999/xlink">
<g><path style="opacity:0.832" fill="#050504" d="M 240.5,116.5 C 274.87,115.266 301.37,128.933 320,157.5C 324.792,167.405 328.126,177.738 330,188.5C 330.333,215.5 330.667,242.5 331,269.5C 337.758,278.681 344.758,287.681 352,296.5C 355.088,324.561 349.754,350.894 336,375.5C 332.824,379.887 328.824,383.221 324,385.5C 320.673,384.002 317.673,382.002 315,379.5C 298.635,354.705 291.969,327.372 295,297.5C 302.333,288.167 309.667,278.833 317,269.5C 317.667,260.167 317.667,250.833 317,241.5C 313.183,245.158 310.35,249.491 308.5,254.5C 298.457,262.525 287.457,269.025 275.5,274C 271.23,275.254 266.896,276.254 262.5,277C 274.363,290.93 279.863,307.097 279,325.5C 276.782,336.457 274.782,347.457 273,358.5C 268.594,371.976 262.594,384.642 255,396.5C 249.677,399.78 245.343,398.78 242,393.5C 232.756,376.901 226.09,359.234 222,340.5C 215.503,316.324 220.67,295.157 237.5,277C 221.786,274.892 208.286,268.392 197,257.5C 196.667,257.833 196.333,258.167 196,258.5C 194.846,257.257 193.512,256.257 192,255.5C 189.509,250.773 186.509,246.439 183,242.5C 182.333,251.833 182.333,261.167 183,270.5C 189.44,279.065 196.107,287.399 203,295.5C 204.152,298.736 204.985,302.069 205.5,305.5C 204.605,323.609 201.438,341.276 196,358.5C 192.84,367.982 187.673,376.149 180.5,383C 178.649,383.837 176.816,384.671 175,385.5C 171.09,383.593 167.756,380.927 165,377.5C 152.156,357.541 145.99,335.541 146.5,311.5C 146.667,306.5 146.833,301.5 147,296.5C 154.174,287.994 161.174,279.327 168,270.5C 168.333,245.167 168.667,219.833 169,194.5C 172.265,157.781 191.099,132.947 225.5,120C 230.626,118.82 235.626,117.654 240.5,116.5 Z"/></g>
<g><path style="opacity:0.996" fill="#1f4a65" d="M 236.5,127.5 C 233.855,129.31 230.855,130.31 227.5,130.5C 230.084,128.528 233.084,127.528 236.5,127.5 Z"/></g>
<g><path style="opacity:0.98" fill="#4ba1d7" d="M 236.5,127.5 C 236.833,127.5 237.167,127.5 237.5,127.5C 247.216,127.565 256.882,128.232 266.5,129.5C 269.341,129.56 272.007,130.226 274.5,131.5C 277.74,133.951 281.407,135.618 285.5,136.5C 288.538,139.018 291.871,141.018 295.5,142.5C 295.768,144.099 295.434,145.432 294.5,146.5C 292.167,146.833 290.833,148.167 290.5,150.5C 289.362,153.304 289.195,156.304 290,159.5C 290.383,160.056 290.883,160.389 291.5,160.5C 292.5,160.833 293.167,161.5 293.5,162.5C 298.883,164.473 303.716,163.473 308,159.5C 308.708,160.381 309.542,161.047 310.5,161.5C 313.292,165.419 315.292,169.753 316.5,174.5C 316.259,176.898 316.926,178.898 318.5,180.5C 319.817,190.265 319.817,199.932 318.5,209.5C 316.906,213.25 315.739,217.25 315,221.5C 314.878,219.563 314.045,218.23 312.5,217.5C 314.514,206.633 315.014,195.633 314,184.5C 313.844,181.809 313.011,179.476 311.5,177.5C 311.306,174.67 310.639,172.004 309.5,169.5C 307.379,169.325 305.379,169.659 303.5,170.5C 297.536,171.258 292.203,169.925 287.5,166.5C 285.357,164.869 283.69,162.869 282.5,160.5C 282.467,156.131 282.8,151.798 283.5,147.5C 284.9,145.061 284.233,143.228 281.5,142C 262.119,131.815 242.119,130.815 221.5,139C 220.944,139.383 220.611,139.883 220.5,140.5C 218.516,140.383 216.85,141.05 215.5,142.5C 214.224,143.614 214.224,144.614 215.5,145.5C 216.903,150.387 217.569,155.387 217.5,160.5C 215.058,163.729 212.392,166.729 209.5,169.5C 204.037,171.078 198.704,170.744 193.5,168.5C 191.152,168.848 189.818,170.182 189.5,172.5C 184.565,185.087 183.232,198.087 185.5,211.5C 185.415,214.649 186.415,217.316 188.5,219.5C 189.537,220.93 190.204,222.597 190.5,224.5C 190.43,231.161 193.097,233.161 198.5,230.5C 200.833,230.5 203.167,230.5 205.5,230.5C 207.033,232.245 209.033,233.245 211.5,233.5C 212.833,234.167 213.833,235.167 214.5,236.5C 215.511,238.372 216.345,240.372 217,242.5C 217.177,246.356 217.677,250.023 218.5,253.5C 218.833,254.5 219.5,255.167 220.5,255.5C 220.973,256.906 221.973,257.573 223.5,257.5C 224.391,258.11 225.391,258.443 226.5,258.5C 228.102,260.074 230.102,260.741 232.5,260.5C 233.263,261.268 234.263,261.768 235.5,262C 244.01,262.823 252.344,262.657 260.5,261.5C 263.91,261.543 267.243,261.043 270.5,260C 271.056,259.617 271.389,259.117 271.5,258.5C 275.593,257.287 279.259,255.287 282.5,252.5C 281.407,248.892 281.24,245.225 282,241.5C 286.914,230.754 295.081,227.42 306.5,231.5C 306.392,229.486 307.058,227.82 308.5,226.5C 309.496,226.586 310.329,226.252 311,225.5C 311.49,226.793 311.657,228.127 311.5,229.5C 311.5,229.833 311.5,230.167 311.5,230.5C 309.347,232.794 307.68,235.46 306.5,238.5C 305.001,239.494 303.334,239.494 301.5,238.5C 300.551,237.848 299.385,237.514 298,237.5C 295.992,237.307 294.492,237.974 293.5,239.5C 291.273,240.401 290.273,242.067 290.5,244.5C 289.41,247.681 289.41,251.015 290.5,254.5C 288.973,254.427 287.973,255.094 287.5,256.5C 282.571,258.775 277.904,261.441 273.5,264.5C 267.806,264.24 262.473,265.24 257.5,267.5C 243.046,267.968 229.379,265.301 216.5,259.5C 216.027,258.094 215.027,257.427 213.5,257.5C 210.958,257.294 209.291,255.961 208.5,253.5C 211.788,247.772 210.788,242.939 205.5,239C 201.955,238.283 198.455,238.45 195,239.5C 193.739,239.241 192.739,238.574 192,237.5C 186.192,228.896 182.358,219.562 180.5,209.5C 180.271,199.468 180.604,189.468 181.5,179.5C 183.642,176.2 184.975,172.533 185.5,168.5C 187.06,165.436 188.394,162.269 189.5,159C 191.495,158.387 193.162,158.887 194.5,160.5C 194.953,161.458 195.619,162.292 196.5,163C 199.833,163.667 203.167,163.667 206.5,163C 208.141,161.871 209.141,160.371 209.5,158.5C 211.47,152.858 209.803,148.858 204.5,146.5C 204.615,144.053 205.615,142.053 207.5,140.5C 208.899,139.11 210.566,138.11 212.5,137.5C 216.252,137.06 219.252,135.393 221.5,132.5C 223.898,132.741 225.898,132.074 227.5,130.5C 230.855,130.31 233.855,129.31 236.5,127.5 Z"/></g>
<g><path style="opacity:0.996" fill="#285b7c" d="M 237.5,127.5 C 243.987,126.346 250.654,126.179 257.5,127C 260.797,127.204 263.797,128.037 266.5,129.5C 256.882,128.232 247.216,127.565 237.5,127.5 Z"/></g>
<g><path style="opacity:0.969" fill="#2c6386" d="M 227.5,130.5 C 225.898,132.074 223.898,132.741 221.5,132.5C 223.102,130.926 225.102,130.259 227.5,130.5 Z"/></g>
<g><path style="opacity:0.996" fill="#1f4964" d="M 274.5,131.5 C 278.836,131.837 282.503,133.504 285.5,136.5C 281.407,135.618 277.74,133.951 274.5,131.5 Z"/></g>
<g><path style="opacity:0.992" fill="#316d94" d="M 221.5,132.5 C 219.252,135.393 216.252,137.06 212.5,137.5C 214.716,134.556 217.716,132.889 221.5,132.5 Z"/></g>
<g><path style="opacity:0.698" fill="#254860" d="M 207.5,140.5 C 205.615,142.053 204.615,144.053 204.5,146.5C 202.809,143.336 203.809,141.336 207.5,140.5 Z"/></g>
<g><path style="opacity:1" fill="#245675" d="M 220.5,140.5 C 218.479,141.855 216.812,143.521 215.5,145.5C 214.224,144.614 214.224,143.614 215.5,142.5C 216.85,141.05 218.516,140.383 220.5,140.5 Z"/></g>
<g><path style="opacity:0.949" fill="#1f4c69" d="M 294.5,146.5 C 293.5,148.167 292.167,149.5 290.5,150.5C 290.833,148.167 292.167,146.833 294.5,146.5 Z"/></g>
<g><path style="opacity:0.839" fill="#2e688d" d="M 283.5,147.5 C 282.8,151.798 282.467,156.131 282.5,160.5C 281.839,158.866 281.506,157.033 281.5,155C 281.3,152.134 281.967,149.634 283.5,147.5 Z"/></g>
<g><path style="opacity:0.859" fill="#245473" d="M 215.5,145.5 C 216.79,146.058 217.623,147.058 218,148.5C 218.499,152.486 218.666,156.486 218.5,160.5C 218.167,160.5 217.833,160.5 217.5,160.5C 217.569,155.387 216.903,150.387 215.5,145.5 Z"/></g>
<g><path style="opacity:0.923" fill="#4da5dd" d="M 264.5,154.5 C 265.568,155.434 266.901,155.768 268.5,155.5C 268.973,156.906 269.973,157.573 271.5,157.5C 279.752,161.417 286.086,167.417 290.5,175.5C 291.508,177.544 292.508,179.544 293.5,181.5C 295.262,190.383 295.928,199.383 295.5,208.5C 293.926,210.102 293.259,212.102 293.5,214.5C 291.787,215.635 291.12,217.302 291.5,219.5C 291.5,220.167 291.167,220.5 290.5,220.5C 288.512,223.128 286.512,225.795 284.5,228.5C 284.5,228.833 284.5,229.167 284.5,229.5C 282.167,229.833 280.833,231.167 280.5,233.5C 276.559,235.14 272.892,237.306 269.5,240C 266.15,241.486 262.816,242.653 259.5,243.5C 254.156,243.666 248.823,243.499 243.5,243C 238.775,241.922 234.109,240.756 229.5,239.5C 228.313,237.025 226.313,236.025 223.5,236.5C 222.415,234.413 220.749,233.08 218.5,232.5C 214.79,228.792 211.457,224.792 208.5,220.5C 207.744,216.233 206.411,212.233 204.5,208.5C 204.5,206.5 204.5,204.5 204.5,202.5C 204.612,195.82 204.946,189.153 205.5,182.5C 205.5,181.833 205.833,181.5 206.5,181.5C 207.492,179.544 208.492,177.544 209.5,175.5C 209.893,173.716 210.559,172.05 211.5,170.5C 214.167,168.167 216.833,165.833 219.5,163.5C 223.88,160.828 228.213,158.161 232.5,155.5C 232.833,155.5 233.167,155.5 233.5,155.5C 243.736,153.229 254.069,152.896 264.5,154.5 Z"/></g>
<g><path style="opacity:0.761" fill="#316e96" d="M 232.5,155.5 C 228.213,158.161 223.88,160.828 219.5,163.5C 219.833,162.833 220.167,162.167 220.5,161.5C 223.084,159.578 225.751,157.745 228.5,156C 229.793,155.51 231.127,155.343 232.5,155.5 Z"/></g>
<g><path style="opacity:1" fill="#386785" d="M 243.5,158.5 C 248.985,157.348 254.651,157.182 260.5,158C 262.119,158.236 263.119,159.069 263.5,160.5C 266.688,163.136 270.688,165.469 275.5,167.5C 278.056,168.543 280.223,170.21 282,172.5C 284.726,176.619 286.893,180.952 288.5,185.5C 288.5,193.5 288.5,201.5 288.5,209.5C 285.302,220.257 278.636,227.923 268.5,232.5C 257.587,235.996 246.587,236.329 235.5,233.5C 234.537,233.97 234.537,234.637 235.5,235.5C 233.132,234.162 230.798,232.828 228.5,231.5C 229.239,231.631 229.906,231.464 230.5,231C 223.259,226.594 217.593,220.761 213.5,213.5C 211.926,211.898 211.259,209.898 211.5,207.5C 209.16,197.78 210.494,188.447 215.5,179.5C 215.03,178.537 214.363,178.537 213.5,179.5C 219.438,167.886 228.772,160.886 241.5,158.5C 248.035,159.445 254.702,159.945 261.5,160C 255.621,158.59 249.621,158.09 243.5,158.5 Z"/></g>
<g><path style="opacity:1" fill="#245574" d="M 290.5,150.5 C 290.342,153.902 290.676,157.236 291.5,160.5C 290.883,160.389 290.383,160.056 290,159.5C 289.195,156.304 289.362,153.304 290.5,150.5 Z"/></g>
<g><path style="opacity:0.886" fill="#2c3e50" d="M 263.5,160.5 C 268.165,161.828 272.165,164.161 275.5,167.5C 270.688,165.469 266.688,163.136 263.5,160.5 Z"/></g>
<g><path style="opacity:0.996" fill="#1c445d" d="M 209.5,158.5 C 209.141,160.371 208.141,161.871 206.5,163C 203.167,163.667 199.833,163.667 196.5,163C 195.619,162.292 194.953,161.458 194.5,160.5C 200.063,163.68 205.063,163.013 209.5,158.5 Z"/></g>
<g><path style="opacity:0.996" fill="#1d4762" d="M 310.5,161.5 C 309.542,161.047 308.708,160.381 308,159.5C 303.716,163.473 298.883,164.473 293.5,162.5C 299.02,163.361 303.853,162.028 308,158.5C 309.749,158.748 310.582,159.748 310.5,161.5 Z"/></g>
<g><path style="opacity:0.996" fill="#122b3c" d="M 217.5,160.5 C 217.833,160.5 218.167,160.5 218.5,160.5C 218.842,161.338 219.508,161.672 220.5,161.5C 220.167,162.167 219.833,162.833 219.5,163.5C 216.833,165.833 214.167,168.167 211.5,170.5C 211.158,169.662 210.492,169.328 209.5,169.5C 212.392,166.729 215.058,163.729 217.5,160.5 Z"/></g>
<g><path style="opacity:0.996" fill="#2c6387" d="M 209.5,169.5 C 204.371,173.054 198.871,173.388 193,170.5C 191.697,170.978 190.531,171.645 189.5,172.5C 189.818,170.182 191.152,168.848 193.5,168.5C 198.704,170.744 204.037,171.078 209.5,169.5 Z"/></g>
<g><path style="opacity:1" fill="#060404" d="M 245.5,167.5 C 266.601,167.026 278.268,177.193 280.5,198C 279.017,216.817 268.85,226.983 250,228.5C 231.572,226.907 221.072,216.907 218.5,198.5C 220.153,181.527 229.153,171.194 245.5,167.5 Z"/></g>
<g><path style="opacity:0.984" fill="#34759f" d="M 287.5,166.5 C 292.203,169.925 297.536,171.258 303.5,170.5C 303.5,170.833 303.5,171.167 303.5,171.5C 299.486,171.666 295.486,171.499 291.5,171C 289.959,169.629 288.625,168.129 287.5,166.5 Z"/></g>
<g><path style="opacity:1" fill="#020407" d="M 283.5,147.5 C 281.967,149.634 281.3,152.134 281.5,155C 281.506,157.033 281.839,158.866 282.5,160.5C 283.69,162.869 285.357,164.869 287.5,166.5C 288.625,168.129 289.959,169.629 291.5,171C 295.486,171.499 299.486,171.666 303.5,171.5C 305.117,170.962 306.784,170.629 308.5,170.5C 309.088,173.063 310.088,175.396 311.5,177.5C 313.011,179.476 313.844,181.809 314,184.5C 315.014,195.633 314.514,206.633 312.5,217.5C 310.93,220.314 309.597,223.314 308.5,226.5C 307.058,227.82 306.392,229.486 306.5,231.5C 295.081,227.42 286.914,230.754 282,241.5C 281.24,245.225 281.407,248.892 282.5,252.5C 279.259,255.287 275.593,257.287 271.5,258.5C 267.583,258.976 263.916,259.976 260.5,261.5C 251.134,261.721 241.801,261.387 232.5,260.5C 230.898,258.926 228.898,258.259 226.5,258.5C 225.391,258.443 224.391,258.11 223.5,257.5C 223.027,256.094 222.027,255.427 220.5,255.5C 219.5,255.167 218.833,254.5 218.5,253.5C 218.666,249.154 218.499,244.821 218,240.5C 217.34,238.676 216.173,237.343 214.5,236.5C 213.833,235.167 212.833,234.167 211.5,233.5C 209.967,231.755 207.967,230.755 205.5,230.5C 203.167,230.5 200.833,230.5 198.5,230.5C 196.801,230.66 195.134,230.494 193.5,230C 192.771,227.942 191.771,226.109 190.5,224.5C 190.204,222.597 189.537,220.93 188.5,219.5C 188.585,216.351 187.585,213.684 185.5,211.5C 183.232,198.087 184.565,185.087 189.5,172.5C 190.531,171.645 191.697,170.978 193,170.5C 198.871,173.388 204.371,173.054 209.5,169.5C 210.492,169.328 211.158,169.662 211.5,170.5C 210.559,172.05 209.893,173.716 209.5,175.5C 207.025,176.687 206.025,178.687 206.5,181.5C 205.833,181.5 205.5,181.833 205.5,182.5C 204.388,184.599 203.721,186.933 203.5,189.5C 202.348,194.985 202.182,200.651 203,206.5C 203.278,207.416 203.778,208.082 204.5,208.5C 204.861,212.915 206.194,216.915 208.5,220.5C 211.457,224.792 214.79,228.792 218.5,232.5C 219.585,234.587 221.251,235.92 223.5,236.5C 225.033,238.245 227.033,239.245 229.5,239.5C 232.842,241.644 236.508,243.144 240.5,244C 247.014,244.82 253.347,244.653 259.5,243.5C 262.816,242.653 266.15,241.486 269.5,240C 272.892,237.306 276.559,235.14 280.5,233.5C 282.167,232.5 283.5,231.167 284.5,229.5C 284.5,229.167 284.5,228.833 284.5,228.5C 288.354,227.303 290.354,224.636 290.5,220.5C 291.167,220.5 291.5,220.167 291.5,219.5C 293.213,218.365 293.88,216.698 293.5,214.5C 294.738,212.786 295.405,210.786 295.5,208.5C 296.655,201.679 296.821,194.679 296,187.5C 295.434,185.277 294.6,183.277 293.5,181.5C 293.975,178.687 292.975,176.687 290.5,175.5C 286.086,167.417 279.752,161.417 271.5,157.5C 271.027,156.094 270.027,155.427 268.5,155.5C 266.901,155.768 265.568,155.434 264.5,154.5C 264.082,153.778 263.416,153.278 262.5,153C 254.881,151.571 247.215,151.238 239.5,152C 237.121,152.716 235.121,153.883 233.5,155.5C 233.167,155.5 232.833,155.5 232.5,155.5C 231.127,155.343 229.793,155.51 228.5,156C 225.751,157.745 223.084,159.578 220.5,161.5C 219.508,161.672 218.842,161.338 218.5,160.5C 218.666,156.486 218.499,152.486 218,148.5C 217.623,147.058 216.79,146.058 215.5,145.5C 216.812,143.521 218.479,141.855 220.5,140.5C 220.611,139.883 220.944,139.383 221.5,139C 242.119,130.815 262.119,131.815 281.5,142C 284.233,143.228 284.9,145.061 283.5,147.5 Z"/></g>
<g><path style="opacity:0.842" fill="#282d36" d="M 241.5,158.5 C 242.167,158.5 242.833,158.5 243.5,158.5C 249.621,158.09 255.621,158.59 261.5,160C 254.702,159.945 248.035,159.445 241.5,158.5 Z"/></g>
<g><path style="opacity:0.882" fill="#245372" d="M 268.5,155.5 C 270.027,155.427 271.027,156.094 271.5,157.5C 269.973,157.573 268.973,156.906 268.5,155.5 Z"/></g>
<g><path style="opacity:0.696" fill="#2c6589" d="M 264.5,154.5 C 254.069,152.896 243.736,153.229 233.5,155.5C 235.121,153.883 237.121,152.716 239.5,152C 247.215,151.238 254.881,151.571 262.5,153C 263.416,153.278 264.082,153.778 264.5,154.5 Z"/></g>
<g><path style="opacity:1" fill="#163043" d="M 311.5,177.5 C 310.088,175.396 309.088,173.063 308.5,170.5C 306.784,170.629 305.117,170.962 303.5,171.5C 303.5,171.167 303.5,170.833 303.5,170.5C 305.379,169.659 307.379,169.325 309.5,169.5C 310.639,172.004 311.306,174.67 311.5,177.5 Z"/></g>
<g><path style="opacity:0.984" fill="#285b7c" d="M 185.5,168.5 C 184.975,172.533 183.642,176.2 181.5,179.5C 181.667,175.327 183,171.66 185.5,168.5 Z"/></g>
<g><path style="opacity:1" fill="#2b6387" d="M 209.5,175.5 C 208.492,177.544 207.492,179.544 206.5,181.5C 206.025,178.687 207.025,176.687 209.5,175.5 Z"/></g>
<g><path style="opacity:1" fill="#245574" d="M 290.5,175.5 C 292.975,176.687 293.975,178.687 293.5,181.5C 292.508,179.544 291.508,177.544 290.5,175.5 Z"/></g>
<g><path style="opacity:0.988" fill="#193c54" d="M 316.5,174.5 C 318.074,176.102 318.741,178.102 318.5,180.5C 316.926,178.898 316.259,176.898 316.5,174.5 Z"/></g>
<g><path style="opacity:1" fill="#396988" d="M 245.5,183.5 C 260.351,183.174 266.184,190.174 263,204.5C 257.5,212.664 250.333,214.498 241.5,210C 235.947,205.382 234.114,199.549 236,192.5C 238.406,188.592 241.572,185.592 245.5,183.5 Z"/></g>
<g><path style="opacity:0.984" fill="#295e7f" d="M 181.5,179.5 C 180.604,189.468 180.271,199.468 180.5,209.5C 179.343,200.676 179.176,191.676 180,182.5C 180.232,181.263 180.732,180.263 181.5,179.5 Z"/></g>
<g><path style="opacity:0.988" fill="#24384a" d="M 211.5,207.5 C 210.778,207.082 210.278,206.416 210,205.5C 208.604,196.406 209.771,187.739 213.5,179.5C 214.363,178.537 215.03,178.537 215.5,179.5C 210.494,188.447 209.16,197.78 211.5,207.5 Z"/></g>
<g><path style="opacity:1" fill="#2c3e51" d="M 288.5,185.5 C 291.167,193.5 291.167,201.5 288.5,209.5C 288.5,201.5 288.5,193.5 288.5,185.5 Z"/></g>
<g><path style="opacity:0.714" fill="#3679a4" d="M 205.5,182.5 C 204.946,189.153 204.612,195.82 204.5,202.5C 203.515,198.366 203.182,194.032 203.5,189.5C 203.721,186.933 204.388,184.599 205.5,182.5 Z"/></g>
<g><path style="opacity:0.925" fill="#113043" d="M 203.5,189.5 C 203.182,194.032 203.515,198.366 204.5,202.5C 204.5,204.5 204.5,206.5 204.5,208.5C 203.778,208.082 203.278,207.416 203,206.5C 202.182,200.651 202.348,194.985 203.5,189.5 Z"/></g>
<g><path style="opacity:0.715" fill="#2e688d" d="M 293.5,181.5 C 294.6,183.277 295.434,185.277 296,187.5C 296.821,194.679 296.655,201.679 295.5,208.5C 295.928,199.383 295.262,190.383 293.5,181.5 Z"/></g>
<g><path style="opacity:0.965" fill="#1f4b68" d="M 204.5,208.5 C 206.411,212.233 207.744,216.233 208.5,220.5C 206.194,216.915 204.861,212.915 204.5,208.5 Z"/></g>
<g><path style="opacity:0.875" fill="#245473" d="M 295.5,208.5 C 295.405,210.786 294.738,212.786 293.5,214.5C 293.259,212.102 293.926,210.102 295.5,208.5 Z"/></g>
<g><path style="opacity:0.992" fill="#2e678b" d="M 185.5,211.5 C 187.585,213.684 188.585,216.351 188.5,219.5C 186.415,217.316 185.415,214.649 185.5,211.5 Z"/></g>
<g><path style="opacity:0.98" fill="#4088b7" d="M 318.5,209.5 C 317.91,214.95 316.743,220.283 315,225.5C 314.34,227.324 313.173,228.657 311.5,229.5C 311.657,228.127 311.49,226.793 311,225.5C 310.329,226.252 309.496,226.586 308.5,226.5C 309.597,223.314 310.93,220.314 312.5,217.5C 314.045,218.23 314.878,219.563 315,221.5C 315.739,217.25 316.906,213.25 318.5,209.5 Z"/></g>
<g><path style="opacity:0.961" fill="#1d4762" d="M 293.5,214.5 C 293.88,216.698 293.213,218.365 291.5,219.5C 291.12,217.302 291.787,215.635 293.5,214.5 Z"/></g>
<g><path style="opacity:0.937" fill="#2c4155" d="M 213.5,213.5 C 217.593,220.761 223.259,226.594 230.5,231C 229.906,231.464 229.239,231.631 228.5,231.5C 221.306,227.307 216.306,221.307 213.5,213.5 Z"/></g>
<g><path style="opacity:0.988" fill="#1e4964" d="M 290.5,220.5 C 290.354,224.636 288.354,227.303 284.5,228.5C 286.512,225.795 288.512,223.128 290.5,220.5 Z"/></g>
<g><path style="opacity:0.792" fill="#327199" d="M 190.5,224.5 C 191.771,226.109 192.771,227.942 193.5,230C 195.134,230.494 196.801,230.66 198.5,230.5C 193.097,233.161 190.43,231.161 190.5,224.5 Z"/></g>
<g><path style="opacity:1" fill="#1e4a66" d="M 284.5,229.5 C 283.5,231.167 282.167,232.5 280.5,233.5C 280.833,231.167 282.167,229.833 284.5,229.5 Z"/></g>
<g><path style="opacity:0.992" fill="#245472" d="M 205.5,230.5 C 207.967,230.755 209.967,231.755 211.5,233.5C 209.033,233.245 207.033,232.245 205.5,230.5 Z"/></g>
<g><path style="opacity:1" fill="#22516f" d="M 218.5,232.5 C 220.749,233.08 222.415,234.413 223.5,236.5C 221.251,235.92 219.585,234.587 218.5,232.5 Z"/></g>
<g><path style="opacity:0.945" fill="#2d465c" d="M 268.5,232.5 C 258.03,237.929 247.03,238.929 235.5,235.5C 234.537,234.637 234.537,233.97 235.5,233.5C 246.587,236.329 257.587,235.996 268.5,232.5 Z"/></g>
<g><path style="opacity:0.984" fill="#214e6b" d="M 311.5,230.5 C 311.288,234.208 309.622,236.874 306.5,238.5C 307.68,235.46 309.347,232.794 311.5,230.5 Z"/></g>
<g><path style="opacity:0.992" fill="#2e698e" d="M 223.5,236.5 C 226.313,236.025 228.313,237.025 229.5,239.5C 227.033,239.245 225.033,238.245 223.5,236.5 Z"/></g>
<g><path style="opacity:0.996" fill="#214e6a" d="M 214.5,236.5 C 216.173,237.343 217.34,238.676 218,240.5C 218.499,244.821 218.666,249.154 218.5,253.5C 217.677,250.023 217.177,246.356 217,242.5C 216.345,240.372 215.511,238.372 214.5,236.5 Z"/></g>
<g><path style="opacity:1" fill="#163246" d="M 301.5,238.5 C 298.833,238.833 296.167,239.167 293.5,239.5C 294.492,237.974 295.992,237.307 298,237.5C 299.385,237.514 300.551,237.848 301.5,238.5 Z"/></g>
<g><path style="opacity:0.995" fill="#285c7d" d="M 229.5,239.5 C 234.109,240.756 238.775,241.922 243.5,243C 248.823,243.499 254.156,243.666 259.5,243.5C 253.347,244.653 247.014,244.82 240.5,244C 236.508,243.144 232.842,241.644 229.5,239.5 Z"/></g>
<g><path style="opacity:0.878" fill="#1a4059" d="M 290.5,244.5 C 291.012,248.035 291.012,251.368 290.5,254.5C 289.41,251.015 289.41,247.681 290.5,244.5 Z"/></g>
<g><path style="opacity:0.953" fill="#204e6a" d="M 290.5,254.5 C 290.027,255.906 289.027,256.573 287.5,256.5C 287.973,255.094 288.973,254.427 290.5,254.5 Z"/></g>
<g><path style="opacity:0.992" fill="#255472" d="M 220.5,255.5 C 222.027,255.427 223.027,256.094 223.5,257.5C 221.973,257.573 220.973,256.906 220.5,255.5 Z"/></g>
<g><path style="opacity:0.906" fill="#235271" d="M 213.5,257.5 C 215.027,257.427 216.027,258.094 216.5,259.5C 214.973,259.573 213.973,258.906 213.5,257.5 Z"/></g>
<g><path style="opacity:1" fill="#22526f" d="M 226.5,258.5 C 228.898,258.259 230.898,258.926 232.5,260.5C 230.102,260.741 228.102,260.074 226.5,258.5 Z"/></g>
<g><path style="opacity:0.992" fill="#1e4864" d="M 271.5,258.5 C 271.389,259.117 271.056,259.617 270.5,260C 267.243,261.043 263.91,261.543 260.5,261.5C 263.916,259.976 267.583,258.976 271.5,258.5 Z"/></g>
<g><path style="opacity:0.992" fill="#1c4560" d="M 232.5,260.5 C 241.801,261.387 251.134,261.721 260.5,261.5C 252.344,262.657 244.01,262.823 235.5,262C 234.263,261.768 233.263,261.268 232.5,260.5 Z"/></g>
<g><path style="opacity:0.992" fill="#122f42" d="M 273.5,264.5 C 268.394,266.044 263.061,267.044 257.5,267.5C 262.473,265.24 267.806,264.24 273.5,264.5 Z"/></g>
<g><path style="opacity:0.365" fill="#706a57" d="M 170.5,288.5 C 168.486,288.392 166.82,289.058 165.5,290.5C 165.414,289.504 165.748,288.671 166.5,288C 168.066,287.235 169.399,287.402 170.5,288.5 Z"/></g>
<g><path style="opacity:0.247" fill="#7e775d" d="M 328.5,288.5 C 332.122,287.061 334.456,288.394 335.5,292.5C 333.754,290.748 331.754,289.415 329.5,288.5C 329.167,288.5 328.833,288.5 328.5,288.5 Z"/></g>
<g><path style="opacity:0.996" fill="#f1e1a5" d="M 239.5,313.5 C 235.895,315.852 235.561,318.685 238.5,322C 240.81,322.497 243.143,322.663 245.5,322.5C 245.664,325.187 245.497,327.854 245,330.5C 242.628,332.703 240.461,335.037 238.5,337.5C 237.021,338.759 235.354,339.759 233.5,340.5C 233.785,337.171 233.118,334.171 231.5,331.5C 230.65,324.201 230.317,316.868 230.5,309.5C 231.167,308.833 231.833,308.167 232.5,307.5C 233.407,305.343 234.073,303.01 234.5,300.5C 235.492,298.544 236.492,296.544 237.5,294.5C 239.063,292.27 241.063,290.27 243.5,288.5C 244.664,294.807 244.831,301.141 244,307.5C 241.873,309.114 240.373,311.114 239.5,313.5 Z"/></g>
<g><path style="opacity:0.983" fill="#9e936b" d="M 239.5,313.5 C 240.373,311.114 241.873,309.114 244,307.5C 244.831,301.141 244.664,294.807 243.5,288.5C 241.063,290.27 239.063,292.27 237.5,294.5C 238.334,289.996 241,287.663 245.5,287.5C 245.666,294.508 245.5,301.508 245,308.5C 243.296,310.373 241.463,312.04 239.5,313.5 Z"/></g>
<g><path style="opacity:0.995" fill="#cbbd8b" d="M 262.5,295.5 C 262.427,297.027 263.094,298.027 264.5,298.5C 265.434,299.568 265.768,300.901 265.5,302.5C 262.639,298.15 259.639,293.816 256.5,289.5C 255.336,295.472 255.17,301.472 256,307.5C 258.237,308.985 259.737,310.985 260.5,313.5C 258.203,311.706 256.037,309.706 254,307.5C 253.5,300.842 253.334,294.175 253.5,287.5C 258.341,288.004 261.341,290.67 262.5,295.5 Z"/></g>
<g><path style="opacity:0.998" fill="#f8e7aa" d="M 265.5,302.5 C 268.049,315.126 268.049,327.792 265.5,340.5C 263.938,340.267 262.605,339.6 261.5,338.5C 259.205,335.703 256.705,333.036 254,330.5C 253.199,327.633 253.366,324.966 254.5,322.5C 257.187,322.664 259.854,322.497 262.5,322C 263.811,319.726 263.811,317.56 262.5,315.5C 261.5,315.167 260.833,314.5 260.5,313.5C 259.737,310.985 258.237,308.985 256,307.5C 255.17,301.472 255.336,295.472 256.5,289.5C 259.639,293.816 262.639,298.15 265.5,302.5 Z"/></g>
<g><path style="opacity:0.992" fill="#bdb183" d="M 319.5,317.5 C 319.167,317.5 318.833,317.5 318.5,317.5C 318.5,308.5 318.5,299.5 318.5,290.5C 316.708,290.366 315.042,290.699 313.5,291.5C 314.122,288.224 316.122,286.891 319.5,287.5C 319.5,297.5 319.5,307.5 319.5,317.5 Z"/></g>
<g><path style="opacity:0.999" fill="#f0e0a4" d="M 170.5,288.5 C 171.817,298.068 171.817,307.735 170.5,317.5C 166.9,319.43 163.9,322.097 161.5,325.5C 160.833,326.167 160.167,326.833 159.5,327.5C 158.833,326.5 158.167,325.5 157.5,324.5C 157.5,323.167 157.5,321.833 157.5,320.5C 157.233,314.162 156.9,307.829 156.5,301.5C 156.5,300.833 156.833,300.5 157.5,300.5C 160.243,298.761 162.243,296.427 163.5,293.5C 163.427,291.973 164.094,290.973 165.5,290.5C 166.82,289.058 168.486,288.392 170.5,288.5 Z"/></g>
<g><path style="opacity:0.996" fill="#887f5c" d="M 335.5,292.5 C 336.906,292.973 337.573,293.973 337.5,295.5C 336.094,295.027 335.427,294.027 335.5,292.5 Z"/></g>
<g><path style="opacity:0.994" fill="#9b9069" d="M 183.5,288.5 C 182.5,288.5 181.5,288.5 180.5,288.5C 180.334,297.839 180.5,307.173 181,316.5C 184.112,319.101 186.612,322.101 188.5,325.5C 185.536,323.038 182.703,320.371 180,317.5C 179.5,307.506 179.334,297.506 179.5,287.5C 181.099,287.232 182.432,287.566 183.5,288.5 Z"/></g>
<g><path style="opacity:0.988" fill="#908661" d="M 186.5,292.5 C 188.914,293.911 190.581,295.911 191.5,298.5C 189.086,297.089 187.419,295.089 186.5,292.5 Z"/></g>
<g><path style="opacity:0.984" fill="#968c64" d="M 163.5,293.5 C 162.243,296.427 160.243,298.761 157.5,300.5C 158.757,297.573 160.757,295.239 163.5,293.5 Z"/></g>
<g><path style="opacity:0.988" fill="#857b59" d="M 237.5,294.5 C 236.492,296.544 235.492,298.544 234.5,300.5C 234.025,297.687 235.025,295.687 237.5,294.5 Z"/></g>
<g><path style="opacity:0.992" fill="#928861" d="M 337.5,295.5 C 339.587,296.585 340.92,298.251 341.5,300.5C 339.413,299.415 338.08,297.749 337.5,295.5 Z"/></g>
<g><path style="opacity:0.992" fill="#786f51" d="M 262.5,295.5 C 263.906,295.973 264.573,296.973 264.5,298.5C 263.094,298.027 262.427,297.027 262.5,295.5 Z"/></g>
<g><path style="opacity:0.988" fill="#6b6448" d="M 310.5,295.5 C 309.5,297.167 308.167,298.5 306.5,299.5C 306.833,297.167 308.167,295.833 310.5,295.5 Z"/></g>
<g><path style="opacity:0.992" fill="#746c4e" d="M 306.5,299.5 C 305.6,304.772 305.267,310.105 305.5,315.5C 304.35,310.684 304.184,305.684 305,300.5C 305.383,299.944 305.883,299.611 306.5,299.5 Z"/></g>
<g><path style="opacity:0.993" fill="#a99d73" d="M 191.5,298.5 C 192.458,298.953 193.292,299.619 194,300.5C 194.84,309.057 194.34,317.391 192.5,325.5C 192.501,319.484 192.835,313.484 193.5,307.5C 193.655,304.232 192.989,301.232 191.5,298.5 Z"/></g>
<g><path style="opacity:0.988" fill="#b0a478" d="M 234.5,300.5 C 234.073,303.01 233.407,305.343 232.5,307.5C 232.5,306.167 232.5,304.833 232.5,303.5C 232.427,301.973 233.094,300.973 234.5,300.5 Z"/></g>
<g><path style="opacity:1" fill="#504a35" d="M 232.5,303.5 C 232.5,304.833 232.5,306.167 232.5,307.5C 231.833,308.167 231.167,308.833 230.5,309.5C 230.259,307.102 230.926,305.102 232.5,303.5 Z"/></g>
<g><path style="opacity:0.984" fill="#a89d73" d="M 328.5,288.5 C 328.833,288.5 329.167,288.5 329.5,288.5C 329.334,297.839 329.5,307.173 330,316.5C 332.454,318.441 334.287,320.775 335.5,323.5C 332.87,321.372 330.37,319.039 328,316.5C 327.176,306.991 327.342,297.657 328.5,288.5 Z"/></g>
<g><path style="opacity:0.992" fill="#7f7753" d="M 156.5,301.5 C 156.9,307.829 157.233,314.162 157.5,320.5C 156.078,316.761 155.411,312.761 155.5,308.5C 155.503,305.975 155.837,303.641 156.5,301.5 Z"/></g>
<g><path style="opacity:0.997" fill="#9e946a" d="M 265.5,302.5 C 268.335,306.969 269.668,311.969 269.5,317.5C 268.831,324.851 267.998,332.185 267,339.5C 266.617,340.056 266.117,340.389 265.5,340.5C 268.049,327.792 268.049,315.126 265.5,302.5 Z"/></g>
<g><path style="opacity:0.996" fill="#6b6347" d="M 170.5,317.5 C 168.205,320.297 165.705,322.964 163,325.5C 162.51,326.793 162.343,328.127 162.5,329.5C 161.566,328.432 161.232,327.099 161.5,325.5C 163.9,322.097 166.9,319.43 170.5,317.5 Z"/></g>
<g><path style="opacity:0.988" fill="#9d926c" d="M 262.5,315.5 C 263.811,317.56 263.811,319.726 262.5,322C 259.854,322.497 257.187,322.664 254.5,322.5C 256.631,321.686 258.964,321.186 261.5,321C 262.406,319.301 262.739,317.467 262.5,315.5 Z"/></g>
<g><path style="opacity:0.969" fill="#9f946d" d="M 157.5,324.5 C 158.167,325.5 158.833,326.5 159.5,327.5C 159.5,330.167 159.5,332.833 159.5,335.5C 158.475,332.026 157.808,328.36 157.5,324.5 Z"/></g>
<g><path style="opacity:0.612" fill="#423e32" d="M 162.5,329.5 C 165.33,329.963 167.997,330.629 170.5,331.5C 168.143,331.663 165.81,331.497 163.5,331C 162.944,330.617 162.611,330.117 162.5,329.5 Z"/></g>
<g><path style="opacity:0.99" fill="#d0c28f" d="M 161.5,325.5 C 161.232,327.099 161.566,328.432 162.5,329.5C 162.611,330.117 162.944,330.617 163.5,331C 165.81,331.497 168.143,331.663 170.5,331.5C 171.449,336.74 171.782,342.073 171.5,347.5C 169.564,343.285 168.897,338.619 169.5,333.5C 167.08,333.708 164.747,333.374 162.5,332.5C 162.167,334 161.833,335.5 161.5,337C 162.441,343.263 163.775,349.43 165.5,355.5C 164.883,355.389 164.383,355.056 164,354.5C 162.332,348.163 160.832,341.829 159.5,335.5C 159.5,332.833 159.5,330.167 159.5,327.5C 160.167,326.833 160.833,326.167 161.5,325.5 Z"/></g>
<g><path style="opacity:0.999" fill="#f5e4a8" d="M 329.5,288.5 C 331.754,289.415 333.754,290.748 335.5,292.5C 335.427,294.027 336.094,295.027 337.5,295.5C 338.08,297.749 339.413,299.415 341.5,300.5C 342.164,303.146 342.498,305.979 342.5,309C 341.983,317.518 341.316,326.018 340.5,334.5C 338.96,336.838 338.294,339.505 338.5,342.5C 337.232,344.905 336.565,347.572 336.5,350.5C 334.926,352.102 334.259,354.102 334.5,356.5C 333.075,357.922 332.075,359.589 331.5,361.5C 330.094,361.973 329.427,362.973 329.5,364.5C 329.672,365.492 329.338,366.158 328.5,366.5C 327.326,367.514 326.66,368.847 326.5,370.5C 325.844,371.278 325.011,371.944 324,372.5C 316.611,364.199 311.777,354.533 309.5,343.5C 308.734,338.661 307.734,333.994 306.5,329.5C 306.46,324.807 306.127,320.141 305.5,315.5C 305.267,310.105 305.6,304.772 306.5,299.5C 308.167,298.5 309.5,297.167 310.5,295.5C 311.026,293.77 312.026,292.436 313.5,291.5C 315.042,290.699 316.708,290.366 318.5,290.5C 318.5,299.5 318.5,308.5 318.5,317.5C 316.167,319.167 314.167,321.167 312.5,323.5C 310.559,325.011 310.059,327.011 311,329.5C 312.444,331.155 314.278,331.822 316.5,331.5C 318.144,336.59 319.144,341.923 319.5,347.5C 319.414,348.496 319.748,349.329 320.5,350C 323.099,350.769 325.599,350.602 328,349.5C 328.499,343.843 328.666,338.176 328.5,332.5C 330.265,331.539 332.265,331.205 334.5,331.5C 335.496,331.586 336.329,331.252 337,330.5C 337.78,328.613 337.613,326.946 336.5,325.5C 336.167,324.833 335.833,324.167 335.5,323.5C 334.287,320.775 332.454,318.441 330,316.5C 329.5,307.173 329.334,297.839 329.5,288.5 Z"/></g>
<g><path style="opacity:0.996" fill="#89805d" d="M 336.5,325.5 C 337.613,326.946 337.78,328.613 337,330.5C 336.329,331.252 335.496,331.586 334.5,331.5C 336.081,329.858 336.747,327.858 336.5,325.5 Z"/></g>
<g><path style="opacity:1" fill="#49442f" d="M 318.5,317.5 C 318.833,317.5 319.167,317.5 319.5,317.5C 317.761,320.243 315.427,322.243 312.5,323.5C 314.167,321.167 316.167,319.167 318.5,317.5 Z"/></g>
<g><path style="opacity:0.998" fill="#f7e6a9" d="M 183.5,288.5 C 185.262,289.262 186.262,290.596 186.5,292.5C 187.419,295.089 189.086,297.089 191.5,298.5C 192.989,301.232 193.655,304.232 193.5,307.5C 192.835,313.484 192.501,319.484 192.5,325.5C 192.5,327.5 192.5,329.5 192.5,331.5C 190.926,334.907 189.926,338.573 189.5,342.5C 189.5,342.833 189.5,343.167 189.5,343.5C 187.053,346.986 185.719,350.986 185.5,355.5C 185.167,356.833 184.833,358.167 184.5,359.5C 183.094,359.973 182.427,360.973 182.5,362.5C 182.25,364.674 181.25,366.341 179.5,367.5C 178.094,367.973 177.427,368.973 177.5,370.5C 176.713,372.104 175.38,372.771 173.5,372.5C 171.142,368.772 169.142,364.772 167.5,360.5C 167.573,358.973 166.906,357.973 165.5,357.5C 165.5,356.833 165.5,356.167 165.5,355.5C 163.775,349.43 162.441,343.263 161.5,337C 161.833,335.5 162.167,334 162.5,332.5C 164.747,333.374 167.08,333.708 169.5,333.5C 168.897,338.619 169.564,343.285 171.5,347.5C 174.013,351.326 176.68,351.326 179.5,347.5C 179.856,341.923 180.856,336.59 182.5,331.5C 186.833,331.833 188.833,329.833 188.5,325.5C 186.612,322.101 184.112,319.101 181,316.5C 180.5,307.173 180.334,297.839 180.5,288.5C 181.5,288.5 182.5,288.5 183.5,288.5 Z"/></g>
<g><path style="opacity:0.991" fill="#a0966b" d="M 182.5,331.5 C 180.856,336.59 179.856,341.923 179.5,347.5C 179.5,341.833 179.5,336.167 179.5,330.5C 180.791,330.263 181.791,330.596 182.5,331.5 Z"/></g>
<g><path style="opacity:0.991" fill="#bcb07e" d="M 316.5,331.5 C 317.209,330.596 318.209,330.263 319.5,330.5C 319.5,336.167 319.5,341.833 319.5,347.5C 319.144,341.923 318.144,336.59 316.5,331.5 Z"/></g>
<g><path style="opacity:0.996" fill="#978d63" d="M 231.5,331.5 C 233.118,334.171 233.785,337.171 233.5,340.5C 231.735,337.877 231.068,334.877 231.5,331.5 Z"/></g>
<g><path style="opacity:0.992" fill="#787051" d="M 192.5,331.5 C 192.483,335.534 191.483,339.201 189.5,342.5C 189.926,338.573 190.926,334.907 192.5,331.5 Z"/></g>
<g><path style="opacity:0.996" fill="#544e37" d="M 306.5,329.5 C 307.734,333.994 308.734,338.661 309.5,343.5C 306.91,339.307 305.91,334.64 306.5,329.5 Z"/></g>
<g><path style="opacity:0.463" fill="#4b4a1c" d="M 261.5,338.5 C 262.605,339.6 263.938,340.267 265.5,340.5C 265.802,343.059 265.468,345.393 264.5,347.5C 264.843,345.517 264.176,344.183 262.5,343.5C 262.611,342.883 262.944,342.383 263.5,342C 262.177,341.184 261.511,340.017 261.5,338.5 Z"/></g>
<g><path style="opacity:1" fill="#5e573e" d="M 340.5,334.5 C 340.435,337.428 339.768,340.095 338.5,342.5C 338.294,339.505 338.96,336.838 340.5,334.5 Z"/></g>
<g><path style="opacity:0.306" fill="#4a491c" d="M 238.5,337.5 C 237.883,339.229 236.883,340.729 235.5,342C 236.056,342.383 236.389,342.883 236.5,343.5C 234.824,344.183 234.157,345.517 234.5,347.5C 233.532,345.393 233.198,343.059 233.5,340.5C 235.354,339.759 237.021,338.759 238.5,337.5 Z"/></g>
<g><path style="opacity:1" fill="#6d664b" d="M 236.5,343.5 C 239.33,343.963 241.997,344.629 244.5,345.5C 242.167,345.5 239.833,345.5 237.5,345.5C 237.167,344.833 236.833,344.167 236.5,343.5 Z"/></g>
<g><path style="opacity:1" fill="#736d53" d="M 261.5,344.5 C 258.947,345.255 256.28,345.922 253.5,346.5C 255.635,344.631 258.302,343.964 261.5,344.5 Z"/></g>
<g><path style="opacity:0.969" fill="#bcb17b" d="M 236.5,343.5 C 236.833,344.167 237.167,344.833 237.5,345.5C 236.861,346.097 236.528,346.93 236.5,348C 237.331,352.151 237.997,356.317 238.5,360.5C 237.463,359.07 236.796,357.403 236.5,355.5C 236.59,352.848 235.924,350.515 234.5,348.5C 234.5,348.167 234.5,347.833 234.5,347.5C 234.157,345.517 234.824,344.183 236.5,343.5 Z"/></g>
<g><path style="opacity:0.999" fill="#f2e2a6" d="M 262.5,343.5 C 264.176,344.183 264.843,345.517 264.5,347.5C 264.5,348.5 264.5,349.5 264.5,350.5C 262.415,352.684 261.415,355.351 261.5,358.5C 260.129,360.936 259.129,363.603 258.5,366.5C 258.5,366.833 258.5,367.167 258.5,367.5C 257.094,367.973 256.427,368.973 256.5,370.5C 255.508,374.65 253.841,378.483 251.5,382C 250.5,382.667 249.5,382.667 248.5,382C 247.023,380.188 245.69,378.355 244.5,376.5C 244.065,373.843 243.065,371.509 241.5,369.5C 241.31,366.145 240.31,363.145 238.5,360.5C 237.997,356.317 237.331,352.151 236.5,348C 236.528,346.93 236.861,346.097 237.5,345.5C 239.833,345.5 242.167,345.5 244.5,345.5C 245.314,347.631 245.814,349.964 246,352.5C 248.333,355.167 250.667,355.167 253,352.5C 253.495,350.527 253.662,348.527 253.5,346.5C 256.28,345.922 258.947,345.255 261.5,344.5C 261.5,343.833 261.833,343.5 262.5,343.5 Z"/></g>
<g><path style="opacity:1" fill="#7f7755" d="M 319.5,330.5 C 320.328,336.319 320.828,342.319 321,348.5C 323.267,349.935 325.267,349.602 327,347.5C 327.174,342.316 327.674,337.316 328.5,332.5C 328.666,338.176 328.499,343.843 328,349.5C 325.599,350.602 323.099,350.769 320.5,350C 319.748,349.329 319.414,348.496 319.5,347.5C 319.5,341.833 319.5,336.167 319.5,330.5 Z"/></g>
<g><path style="opacity:1" fill="#4d4732" d="M 234.5,348.5 C 235.924,350.515 236.59,352.848 236.5,355.5C 235.076,353.485 234.41,351.152 234.5,348.5 Z"/></g>
<g><path style="opacity:0.976" fill="#968b66" d="M 189.5,343.5 C 189.53,348.101 188.197,352.101 185.5,355.5C 185.719,350.986 187.053,346.986 189.5,343.5 Z"/></g>
<g><path style="opacity:0.996" fill="#4b4632" d="M 336.5,350.5 C 336.741,352.898 336.074,354.898 334.5,356.5C 334.259,354.102 334.926,352.102 336.5,350.5 Z"/></g>
<g><path style="opacity:1" fill="#4a4530" d="M 264.5,350.5 C 264.585,353.649 263.585,356.316 261.5,358.5C 261.415,355.351 262.415,352.684 264.5,350.5 Z"/></g>
<g><path style="opacity:0.992" fill="#827958" d="M 165.5,357.5 C 166.906,357.973 167.573,358.973 167.5,360.5C 166.094,360.027 165.427,359.027 165.5,357.5 Z"/></g>
<g><path style="opacity:0.984" fill="#605940" d="M 184.5,359.5 C 184.573,361.027 183.906,362.027 182.5,362.5C 182.427,360.973 183.094,359.973 184.5,359.5 Z"/></g>
<g><path style="opacity:0.988" fill="#5c563a" d="M 261.5,358.5 C 261.655,361.716 260.655,364.383 258.5,366.5C 259.129,363.603 260.129,360.936 261.5,358.5 Z"/></g>
<g><path style="opacity:0.992" fill="#575137" d="M 238.5,360.5 C 240.31,363.145 241.31,366.145 241.5,369.5C 239.528,366.916 238.528,363.916 238.5,360.5 Z"/></g>
<g><path style="opacity:0.98" fill="#8e845e" d="M 331.5,361.5 C 331.573,363.027 330.906,364.027 329.5,364.5C 329.427,362.973 330.094,361.973 331.5,361.5 Z"/></g>
<g><path style="opacity:0.984" fill="#787051" d="M 179.5,367.5 C 179.573,369.027 178.906,370.027 177.5,370.5C 177.427,368.973 178.094,367.973 179.5,367.5 Z"/></g>
<g><path style="opacity:0.98" fill="#7d7553" d="M 258.5,367.5 C 258.573,369.027 257.906,370.027 256.5,370.5C 256.427,368.973 257.094,367.973 258.5,367.5 Z"/></g>
<g><path style="opacity:0.996" fill="#625c40" d="M 328.5,366.5 C 328.771,368.38 328.104,369.713 326.5,370.5C 326.66,368.847 327.326,367.514 328.5,366.5 Z"/></g>
<g><path style="opacity:1" fill="#413c29" d="M 241.5,369.5 C 243.065,371.509 244.065,373.843 244.5,376.5C 242.166,374.824 241.166,372.491 241.5,369.5 Z"/></g>
</svg>
