<svg data-name="Layer 2" xmlns="http://www.w3.org/2000/svg" viewBox="0 0 128 128"><defs><linearGradient id="a" x1="3.038" y1="64.532" x2="124.876" y2="64.532" gradientUnits="userSpaceOnUse"><stop offset="0" stop-color="#fff" stop-opacity=".5"/><stop offset="1" stop-color="#fff"/></linearGradient><linearGradient id="b" x1="5.925" y1="64.532" x2="121.99" y2="64.532" gradientUnits="userSpaceOnUse"><stop offset="0" stop-color="#e58000" stop-opacity="0"/><stop offset="1" stop-color="#e58000"/></linearGradient><linearGradient id="c" x1="5.927" y1="93.67" x2="120.241" y2="93.67" gradientUnits="userSpaceOnUse"><stop offset="0" stop-color="#fff"/><stop offset="1" stop-color="#fff" stop-opacity=".5"/></linearGradient></defs><ellipse cx="63.957" cy="64.532" rx="63.957" ry="64" fill="#fa8d03"/><ellipse cx="63.957" cy="64.532" rx="60.919" ry="60.96" fill="url(#a)" opacity=".3"/><ellipse cx="63.957" cy="64.532" rx="58.033" ry="58.071" fill="url(#b)"/><path d="M63.957 122.603c27.158 0 49.956-18.669 56.284-43.88-4.543-1.262-17.263-3.636-29.698 4.659-15.496 10.337-42.364 15.91-60.68 2.254-8.197-6.111-16.861-14.022-23.935-20.9.111 31.977 26.048 57.866 58.03 57.866Z" fill="url(#c)" opacity=".15"/><path d="m72.92 22.423-13.065.912-32.054 66.584 18.23 11.705 7.292-20.371 28.56.456 5.013 15.05 9.419-2.736L72.92 22.422ZM41.777 88.399l-2.127-.912s3.494-10.793 6.684-15.81c0 0-3.646 9.881-4.557 16.722Zm26.434-51.534 6.684 22.955-15.344 3.192 8.659-26.147ZM55.754 73.653v-1.216l21.268-5.169 1.823 5.321-23.091 1.064Z" fill="#422506"/></svg>