<svg width="23" height="24" viewBox="0 0 23 24" fill="none" xmlns="http://www.w3.org/2000/svg">
<g clip-path="url(#clip0_2741_7926)">
<path d="M21.8868 14.3725C21.558 16.0637 18.9425 17.9145 15.9386 18.2732C14.3722 18.4602 12.83 18.6319 11.1854 18.5565C8.49589 18.4333 6.37373 17.9145 6.37373 17.9145C6.37373 18.1764 6.38985 18.4256 6.42217 18.6588C6.77183 21.313 9.05402 21.4721 11.2159 21.5462C13.3979 21.6208 15.3409 21.0082 15.3409 21.0082L15.4305 22.9808C15.4305 22.9808 13.9042 23.8004 11.1854 23.9512C9.68617 24.0335 7.82459 23.9135 5.65645 23.3395C0.954024 22.0948 0.145206 17.0823 0.0215274 11.9963C-0.0161369 10.4862 0.00707483 9.06222 0.00707483 7.87125C0.00707483 2.67052 3.41464 1.14608 3.41464 1.14608C5.13283 0.356969 8.08106 0.0251732 11.146 0.00012207H11.2213C14.2862 0.0251732 17.2364 0.356969 18.9545 1.14608C18.9545 1.14608 22.3618 2.67052 22.3618 7.87133C22.3618 7.87133 22.4047 11.7084 21.8868 14.3725Z" fill="#3088D4"/>
<path d="M18.3428 8.27476V14.572H15.848V8.45985C15.848 7.17138 15.3058 6.51742 14.2214 6.51742C13.0225 6.51742 12.4217 7.29322 12.4217 8.8272V12.1727H9.94152V8.8272C9.94152 7.29322 9.34047 6.51742 8.14152 6.51742C7.05723 6.51742 6.51512 7.17138 6.51512 8.45985V14.572H4.02026V8.27485C4.02026 6.98779 4.34794 5.96507 5.00619 5.20837C5.68502 4.45176 6.5739 4.0639 7.67737 4.0639C8.95402 4.0639 9.92085 4.55459 10.5601 5.53614L11.1815 6.57786L11.8031 5.53614C12.4422 4.55459 13.409 4.0639 14.6858 4.0639C15.7892 4.0639 16.6781 4.45176 17.357 5.20837C18.0151 5.96507 18.3428 6.9877 18.3428 8.27476Z" fill="white"/>
</g>
<defs>
<clipPath id="clip0_2741_7926">
<rect width="22.4234" height="24" fill="white"/>
</clipPath>
</defs>
</svg>
