<svg width="24" height="24" viewBox="0 0 24 24" fill="none" xmlns="http://www.w3.org/2000/svg">
<g clip-path="url(#clip0_2741_7912)">
<path d="M12 0.00012207C8.81812 0.00012207 5.76375 1.26518 3.51562 3.51481C1.2652 5.76534 0.000643966 8.81747 0 12.0001C0 15.1814 1.26562 18.2358 3.51562 20.4854C5.76375 22.7351 8.81812 24.0001 12 24.0001C15.1819 24.0001 18.2362 22.7351 20.4844 20.4854C22.7344 18.2358 24 15.1814 24 12.0001C24 8.81881 22.7344 5.76443 20.4844 3.51481C18.2362 1.26518 15.1819 0.00012207 12 0.00012207Z" fill="url(#paint0_linear_2741_7912)"/>
<path d="M5.43184 11.8734C8.93059 10.3494 11.2631 9.3446 12.4293 8.8591C15.7631 7.47292 16.455 7.23217 16.9068 7.22401C17.0062 7.22242 17.2275 7.24698 17.3718 7.3637C17.4918 7.46213 17.5256 7.59526 17.5425 7.68873C17.5575 7.7821 17.5781 7.99492 17.5612 8.16104C17.3812 10.0585 16.5993 14.6632 16.2018 16.7885C16.035 17.6877 15.7031 17.9892 15.3825 18.0187C14.685 18.0828 14.1562 17.5582 13.4812 17.1159C12.4256 16.4234 11.8293 15.9925 10.8037 15.317C9.61872 14.5362 10.3875 14.107 11.0625 13.4058C11.2387 13.2222 14.31 10.4294 14.3681 10.1761C14.3756 10.1444 14.3831 10.0263 14.3118 9.96404C14.2425 9.9016 14.1393 9.92298 14.0643 9.93985C13.9575 9.96385 12.2718 11.0791 9.00184 13.2854C8.52372 13.6143 8.09059 13.7746 7.70059 13.7662C7.27309 13.757 6.44809 13.5239 5.83497 13.3248C5.08497 13.0805 4.48684 12.9513 4.53934 12.5364C4.56559 12.3204 4.86372 12.0993 5.43184 11.8734Z" fill="white"/>
</g>
<defs>
<linearGradient id="paint0_linear_2741_7912" x1="1200" y1="0.00012207" x2="1200" y2="2400" gradientUnits="userSpaceOnUse">
<stop stop-color="#2AABEE"/>
<stop offset="1" stop-color="#229ED9"/>
</linearGradient>
<clipPath id="clip0_2741_7912">
<rect width="24" height="24" fill="white"/>
</clipPath>
</defs>
</svg>
